<?xml version="1.0" standalone="no"?>
<!DOCTYPE svg PUBLIC "-//W3C//DTD SVG 1.1//EN" "http://www.w3.org/Graphics/SVG/1.1/DTD/svg11.dtd" >
<svg xmlns="http://www.w3.org/2000/svg" xmlns:xlink="http://www.w3.org/1999/xlink" version="1.1">
<metadata>
Created by FontForge 20201107 at Mon Jun  5 08:56:57 2023
 By 
Copyright (c) 2023 by RVQTYPEFOUNDRY. All rights reserved.
</metadata>
<defs>
<font id="BreakGothic-Regular" horiz-adv-x="440" >
  <font-face 
    font-family="Break Gothic"
    font-weight="400"
    font-stretch="normal"
    units-per-em="1000"
    panose-1="0 0 0 0 0 0 0 0 0 0"
    ascent="750"
    descent="-250"
    x-height="767"
    cap-height="768"
    bbox="-180.615 -338 826.571 924"
    underline-thickness="50"
    underline-position="-100"
    unicode-range="U+000D-2044"
  />
<missing-glyph horiz-adv-x="257" 
 />
    <glyph glyph-name=".notdef" horiz-adv-x="257" 
 />
    <glyph glyph-name=".null" horiz-adv-x="0" 
 />
    <glyph glyph-name="uni000D" unicode="&#xd;" horiz-adv-x="250" 
 />
    <glyph glyph-name="space" unicode=" " horiz-adv-x="257" 
 />
    <glyph glyph-name="exclam" unicode="!" horiz-adv-x="196" 
d="M229 764v-1q-2 -4 -5.5 -18t-6.5 -20q-5 -9 -8 -17.5t-10 -16.5q-8 -8 -15.5 -15t-15.5 -15q-7 -7 -13 -14t-10 -16q-5 -10 -7.5 -21.5t-3.5 -22.5t-1 -21t2 -21q10 3 13 13.5t10 16.5q4 5 10 8.5t12 6t10.5 4l4.5 1.5q-15 -7 -23 -17.5t-12.5 -23.5t-9 -27.5
t-12.5 -30.5q-5 -8 -5.5 -17t-2.5 -18q-1 -7 -0.5 -13.5t0.5 -13.5l-2 -22t-3 -22q-2 -12 -3 -24.5t0 -25.5q1 -9 3 -18.5t9 -16.5q5 4 6.5 10t3.5 12q5 17 13.5 25t10.5 9q-8 -9 -10.5 -19.5t-3.5 -21t-1.5 -20.5t-5.5 -20q-3 -7 -5 -13.5t-4 -12.5q-2 -7 -5 -13.5
t-5 -13.5q-11 -29 -11 -59.5t8 -59.5q0 -5 -3 -2q-6 8 -14 10.5t-17 2.5q-12 0 -23.5 -2.5t-22.5 -4.5q-1 -1 -2 0t0 2q4 5 5 11l2 12q1 8 1 15v15q-1 8 -1.5 15.5t-1.5 15.5q-2 5 -3 10.5t-3 10.5q-6 -4 -9 -7q0 -1 -1 -0.5t-1 2.5q1 11 3 22.5t4 23.5t2.5 24t-0.5 25
q-2 22 -2 44t-7 43q-13 -6 -14 -24.5t4 -47.5l-10 26q-9 26 -4.5 51t10.5 51q6 23 10 46t4 46q0 22 -4 44t-18 40q-11 15 -25 28.5t-25 29.5q-11 15 -28 36t-50 41q8 -3 15 -6q6 -2 11 -4t6 -3q14 -8 27.5 -17.5t26.5 -20.5q6 -5 11.5 -10.5t11.5 -10.5q3 -2 6 -5t7 -5l6 -3
q2 -1 3 2q1 1 3 1q5 -3 11 -8t13 -10.5t14 -9.5t13 -4q9 0 14 8q-5 6 -18 20t-36 23q4 0 15.5 -3t22.5 -11q9 -6 18.5 -11t19.5 -8q22 -5 46 6q19 10 41.5 29.5t39.5 61.5zM151 34q1 2 0.5 -4.5t-2.5 -11.5q-5 -8 -7 -15.5t-9 -13.5t-14 -11t-13 -12q-13 -16 -12.5 -36
t-3.5 -39q-1 -4 -2.5 -11.5t-1.5 -6.5q1 23 0.5 36t-4.5 23q-3 9 -10 13.5t-15 8.5q-21 11 -23 34q-2 11 1 21.5t5 21.5q-2 1 -7 1t-11 -4.5t-8 -15.5q0 1 0.5 6.5t2.5 9.5q5 14 14 26t23 19q8 3 17.5 4t18.5 3q8 1 16.5 -0.5t13.5 -7.5q22 -10 21 -31q-1 -8 -4.5 -15
t-3.5 -15q4 2 8.5 6.5t9.5 16.5z" />
    <glyph glyph-name="quotedbl" unicode="&#x22;" horiz-adv-x="300" 
d="M158 493q1 -2 -0.5 -2.5t-2.5 1.5q-5 11 -15.5 16.5t-21.5 8.5q-25 5 -45 1q-3 0 -2 3q4 5 7 11t4 13q0 14 -3 26.5t-8 25.5q-1 5 -5 13l-1 3q0 1 -0.5 0.5t-0.5 0.5q-6 2 -8 -6q-5 -8 -6.5 -18t-3.5 -20q0 -2 -1.5 -1.5t-1.5 2.5q-3 30 1 57l4 14t3 14q2 12 -0.5 22.5
t-6.5 21.5q-5 14 -9 28t-13 26q-4 5 -7.5 9t-6.5 9q-6 8 -6 14q-2 2 -0.5 2.5t2.5 -0.5q15 -19 34 -25q5 -2 11 -2.5t12 -2.5q10 -1 20 0q5 1 9 0.5t9 -1.5q9 -2 15 3q3 2 5.5 5t5.5 6t3 -2q-5 -12 -9.5 -24.5t-6.5 -25.5q-3 -18 1 -34q4 -10 11 -11t13 3t11 9q2 1 3 0t0 -2
q-14 -22 -13 -44q1 -15 6.5 -29t5.5 -28q0 -12 -3.5 -23t-3.5 -22q0 -12 5 -23zM290 493q1 -2 -0.5 -2.5t-2.5 1.5q-5 11 -15.5 16.5t-21.5 8.5q-25 5 -45 1q-3 0 -2 3q4 5 7 11t4 13q0 14 -3 26.5t-8 25.5q-1 5 -5 13l-1 3q0 1 -0.5 0.5t-0.5 0.5q-6 2 -8 -6
q-5 -8 -6.5 -18t-3.5 -20q0 -2 -1.5 -1.5t-1.5 2.5q-3 30 1 57l4 14t3 14q2 12 -0.5 22.5t-6.5 21.5q-5 14 -9 28t-13 26q-4 5 -7.5 9t-6.5 9q-6 8 -6 14q-2 2 -0.5 2.5t2.5 -0.5q15 -19 34 -25q5 -2 11 -2.5t12 -2.5q10 -1 20 0q5 1 9 0.5t9 -1.5q9 -2 15 3q3 2 5.5 5
t5.5 6t3 -2q-5 -12 -9.5 -24.5t-6.5 -25.5q-3 -18 1 -34q4 -10 11 -11t13 3t11 9q2 1 3 0t0 -2q-14 -22 -13 -44q1 -15 6.5 -29t5.5 -28q0 -12 -3.5 -23t-3.5 -22q0 -12 5 -23z" />
    <glyph glyph-name="numbersign" unicode="#" 
d="M176 333q-1 -11 -4.5 -22t-7.5 -22q5 1 9.5 2t9.5 2q9 2 17.5 0.5t17.5 -2.5q17 -1 33 3q-1 2 -2.5 3t-3.5 3q-3 3 2 3t10.5 -0.5t10.5 -1.5q10 17 14 31t4 28t-2 28q-5 0 -13 -2q0 -2 -0.5 -3.5t-0.5 -3.5q-2 -3 -4 1v6q-4 -1 -12 -1q-11 -1 -23 2q-5 2 -11 3.5t-11 1.5
q2 -3 4 -5.5t3 -6.5q2 -2 -2 -2q-12 5 -24 9.5t-25 3.5h-1q-2 -17 -2 -33t-5 -32q10 -1 16 8q0 1 1.5 1t1.5 -2zM381 664q-3 -5 -6 -10.5t-4 -11.5q-2 -7 2.5 -9.5t10.5 -2.5q-1 -9 -5 -15.5t-8 -14.5t-5 -18.5t-3 -20.5q0 -8 -0.5 -15t0.5 -15q0 -4 0.5 -7.5t1.5 -8.5
q0 -2 1 -6.5t3 -6.5t4 -2t4 -1q4 -4 4 -6q0 -4 -4 -10q-2 -4 -3 -7t-3 -7q0 -1 -1 -2l20 5t14.5 5.5t12.5 9.5t15 17q3 3 3 -2q-3 -17 -12 -31t-15 -30q-3 -8 -5 -16.5t1 -16.5q2 -5 5.5 -7.5t6.5 -5.5q3 -4 5 -8t5 -8q1 -1 0.5 -2.5t-2.5 -0.5q-13 7 -25 13t-26 8
q3 -6 -1.5 -12t-11.5 -5l-9 3q0 -13 -1 -25.5t-4 -24.5q10 -2 15 8q3 3 3 -1q-1 -11 -4 -22t-8 -22q13 -2 30 1q16 3 26.5 12.5t20.5 21.5q1 2 2 1t1 -2q-3 -17 -12 -31.5t-15 -30.5q-3 -7 -4.5 -16t0.5 -17q2 -4 5.5 -6.5t6.5 -6.5t5 -7.5t5 -7.5q2 -2 1 -3t-3 0
q-12 6 -24.5 12t-26.5 8q3 -6 -1.5 -11.5t-11.5 -4.5q-3 0 -5.5 1t-4.5 2q-3 2 -11 4q1 -5 1.5 -9t0.5 -9q0 -10 -3 -20.5t1 -19.5q11 4 20 15q1 2 1.5 1t0.5 -2q-2 -13 -7 -25.5t-9.5 -24.5t-7.5 -24.5t-3 -26.5q6 2 11 5t10 7q2 2 2 -2q-1 -11 -7.5 -22t-15.5 -21t-19 -19
t-18 -16q-4 -4 -8 -7t-8 -7q-3 -5 -6 -9t-5 -9q-8 -17 -15.5 -32.5t-19.5 -32.5q-3 -3 -8 -9t-10 -11t-9 -9.5l-4 -4.5q12 16 21 35.5t15 40t9 39t4 33.5q3 29 4.5 57.5t9.5 56.5q-6 0 -9 -1q-2 0 -2 2q6 20 8.5 40t4.5 40q-10 -2 -15 -2q-6 0 -12 0.5t-11 2.5t-10.5 3.5
t-11.5 0.5q2 -3 4 -5.5t4 -5.5q0 -2 -2 -2q-13 4 -25 8.5t-25 4.5q-5 0 -15 -2v-2q1 -6 1.5 -12t0.5 -13q0 -9 -2.5 -20t1.5 -20q11 4 19 15q1 2 2 1t1 -2q-5 -25 -16.5 -49.5t-11.5 -51.5q6 2 11.5 5t10.5 7q2 2 2 -2q-2 -12 -8.5 -23t-14.5 -20q-9 -10 -18.5 -18.5
t-18.5 -16.5q-5 -4 -9 -7t-7 -7q-6 -6 -11 -18q-4 -8 -6.5 -15t-5 -13t-6 -12t-10.5 -13l-27 -27q13 17 20 33.5t10.5 33t5 32t2.5 30.5q2 29 4 57.5t10 57.5q-3 -1 -9 -1q-2 -2 -2 1q6 20 8.5 40.5t4.5 41.5q-4 0 -6 -1q-5 -1 -10.5 -2t-11.5 -2q-5 -1 -11 -0.5t-11 -1.5
q-9 -2 -14.5 -8t-10.5 -13q-3 -3 -3 1q-1 8 2 15t7 13.5l8 13t7 13.5q2 5 2.5 9t2.5 9q1 5 2 11t1 11q-1 9 -6.5 12.5t-11.5 7.5q-3 0 -3 2q1 4 6.5 2.5t7.5 -2.5l27 -9q6 -1 11.5 -1.5t11.5 -1.5q5 9 10.5 18t7.5 20q4 13 4 26t-1 27q-4 1 -6.5 1.5t-6.5 1.5q-1 -2 -1 -4.5
t-1 -4.5q0 -1 -1.5 -1t-1.5 2t-0.5 4t-0.5 4h-2q-5 -1 -10.5 -2t-11.5 -3q-5 -1 -11 -0.5t-11 -0.5q-9 -2 -15 -8.5t-11 -12.5q0 -1 -1 -1t-1 1q-1 17 9 29.5t15 25.5q2 5 2.5 9t2.5 9q1 6 2 11.5t1 11.5q-1 8 -7 11.5t-11 8.5q-3 -1 -3 2q1 4 6.5 2t7.5 -3q7 -2 13.5 -4
t13.5 -4q8 -2 15.5 -3t15.5 -2l2 4q5 11 8 22t3 23q1 11 0 21t-2 21q-3 0 -6.5 0.5t-7.5 -1.5q-1 -1 -1.5 0t0.5 3q7 7 14 14.5t12 16.5q5 8 5.5 17.5t-0.5 19.5q-1 5 -3 8t-8 4q-7 1 -13 1t-13 2q-3 2 1 4q4 0 15 3.5t23 7.5t22.5 8t14.5 6q15 8 32.5 21.5t28.5 27.5
q6 9 13 17t16 14l1 1v-1q1 0 1.5 -0.5t-0.5 -0.5q-7 -11 -12.5 -23t-11.5 -23q-5 -11 -12.5 -19.5t-14.5 -19.5q-3 -5 -6 -10.5t-5 -11.5q-1 -13 13 -11q2 0 2 -2q-2 -8 -6.5 -14.5t-7.5 -14.5q-6 -14 -7.5 -33.5t-1.5 -35.5q1 -4 1 -7.5t1 -8.5q1 -2 1.5 -6.5t2.5 -6.5
t4.5 -2t4.5 -1q3 -3 3 -6q1 -4 -3 -10q-2 -3 -3 -5.5t-2 -5.5h2q9 2 17.5 1t17.5 -2q15 -1 33 2l-6 6q-2 4 2 4q7 0 13.5 -1t14.5 -3q5 10 7.5 20t2.5 21t-1 21.5t-1 21.5q-4 0 -7.5 0.5t-6.5 -1.5q-2 -1 -2.5 0t0.5 2q7 8 14 15.5t12 16.5q5 8 6 17.5t0 19.5q-2 11 -11 12
q-7 1 -13.5 1t-12.5 2q-4 2 0 4q5 0 15.5 3.5l22.5 7.5t22.5 8t14.5 6q9 5 17 10.5t16 11.5q18 12 29 27q6 9 13 17t15 14h2q-7 -12 -12 -24t-11 -23q-5 -11 -13 -20t-15 -19z" />
    <glyph glyph-name="dollar" unicode="$" horiz-adv-x="512" 
d="M510 242q3 1 -2.5 -5.5t-10.5 -8.5q-13 -6 -18.5 -16.5t-8.5 -23t-5.5 -25t-11.5 -23.5q-20 -24 -37.5 -39.5t-42.5 -33.5q-20 -14 -26.5 -27t-9.5 -25.5t-6.5 -25t-17.5 -25.5q15 32 3.5 47t-37.5 22q-2 0 -2.5 0.5t-2.5 0.5q1 -11 2 -21.5t0 -21.5q-1 -15 -4.5 -29.5
t-5.5 -29.5q-4 -30 0 -60q2 -14 6 -27.5t8 -27.5q0 -4 -3 -1q-5 5 -8.5 10.5t-6.5 10.5q-13 22 -18 46t-6 48.5t0 49.5t-1 49q-1 10 -2 19.5t-3 20.5q-9 4 -19.5 5.5t-18.5 7.5q-6 5 -9 10.5t-6 11.5q-3 10 -13.5 24.5t-15.5 22.5q-6 -10 -6.5 -21.5t3.5 -37.5l-3.5 8.5
t-8 19t-8 20t-3.5 11.5q-1 8 -2.5 15t-6.5 14q-7 10 -14 19.5t-14 18.5q-2 -5 -0.5 -13.5t0.5 -13.5q-1 -20 -6.5 -33t-6.5 -13q3 25 -0.5 42t-10.5 28t-14 19t-10 15q-7 15 -13.5 31t-8.5 33q-3 22 -4 44t-5 44q-1 9 -2.5 15t-2.5 13t-1 17t1 28q1 11 5.5 22.5t10 20.5
t10.5 15t6 6q-13 -31 -15 -56t2.5 -46t12.5 -37t13 -29q9 -20 23 -38t34 -30q23 -15 48.5 -20t50.5 -15l6 -3q3 5 6 10.5t5 10.5q5 14 3.5 27.5t-2.5 27.5q0 15 0.5 29.5t-6.5 28.5q-4 9 -9.5 17t-10.5 17l-4 6l-4 6v-24t2 -23q1 -7 3 -12t4.5 -10t5.5 -12.5t5 -19.5
q3 -17 1.5 -31t-2.5 -11q-3 25 -8.5 39t-11 22.5t-10.5 13t-8 10.5q-6 14 -10 30t-8 31q-4 14 -5 30t-10 28q-7 10 -17 16.5t-18 16.5q-8 13 -11 26.5t-17 24.5q-10 8 -22 12.5t-21 13.5q-9 8 -12 19.5t-12 19.5q-9 10 -21.5 15.5t-23.5 11.5q-2 2 -1 3.5t3 0.5q1 -1 2 -1
t3 -1q7 0 22 -4t31 -10t30 -12t19 -11q14 -11 24 -23t25 -21q25 -15 57 -28q1 9 -3.5 18.5t-12 18t-15.5 16t-15 13.5t-10 15.5t-9.5 20t-19.5 20.5t-41 17q-2 0 2.5 1t12 0.5t17 -2.5t18.5 -7q13 -7 23.5 -21t21.5 -23q8 -6 16 -11t16 -8q-5 14 -2 34q2 6 3 12t1 12
q-1 11 -6 21q-8 24 -6 49.5t13 48.5v1q0 2 1 1.5t1 -1.5q0 -7 -0.5 -13.5t0.5 -14.5q0 -37 12 -63.5t36 -52.5q4 -4 10 -12q1 -2 1 -2.5t1 -2.5q1 -6 0.5 -12t-0.5 -12h12t12 -1q12 -2 18 -9.5t14 -15.5q2 -3 7 -8t10 -2q2 1 2 6v7q2 12 0 24q-2 17 -10.5 31t-19.5 28
q-9 11 -19.5 21.5t-20 22t-17 23.5t-11.5 26q-1 5 -1 13.5t1 4.5q16 -36 36 -50.5t34 -26.5q13 -12 25.5 -18.5t25.5 -17.5q24 -20 42 -39t31 -47q11 -24 17 -51t1 -53q-5 -21 -18 -42t-36 -31q-2 0 4 5.5t11 16.5q3 7 6 11t5.5 9t3.5 12.5t0 20.5q-1 20 -19.5 29.5
t-35.5 9.5q-14 0 -25.5 -7.5t-12.5 -36.5q0 -3 -3.5 4t-4.5 18q-1 14 -5.5 23t-18.5 13q-7 2 -13.5 4t-12.5 4q3 -12 3 -24q0 -7 -1 -13.5t-3 -12.5q-2 -5 -4 -13q16 -9 25 -29q6 0 4 -5v-4q8 -19 27 -27t36 -13q6 -2 16 -5.5t20 -9t18.5 -11.5t10.5 -12q-2 0 -8 2.5
t-18 2.5h-11.5t-11.5 -2q11 -9 22.5 -15.5t22.5 -15.5q15 -13 22 -36q8 -23 21 -52q8 -17 24 -25.5t39 -4.5zM174 227q8 -9 17.5 -18t17.5 -18q-3 11 -5.5 21.5t-2.5 21.5q-3 0 -7 2q-5 1 -9 1.5t-9 -0.5q-8 0 -7.5 -2.5t5.5 -7.5zM283 148q15 0 29.5 6.5t26 17t18.5 23.5
t6 27q-2 19 -12 31.5t-25 22.5q-9 6 -15.5 13.5t-13.5 14.5q0 -5 1.5 -12.5t2.5 -17.5t0 -22t-7 -25v0q1 8 1 16q-1 8 -3.5 17t-9.5 17q-6 9 -14 15v-1q-8 -31 -4 -58q4 -3 7.5 -5.5t6.5 -6.5q1 -1 3.5 -5.5t5.5 -9t4.5 -8l1.5 -3.5q-8 7 -14.5 11.5t-11.5 7.5
q3 -11 6.5 -22t6.5 -22q3 -10 3 -22z" />
    <glyph glyph-name="percent" unicode="%" horiz-adv-x="597" 
d="M514 110q-1 2 0 3q11 10 16 27t2 31q-1 5 -5 13t-7.5 16t-5 16t1.5 13q0 -1 2.5 -8.5t17.5 -6.5l-5.5 11t-5.5 10q-2 5 -4.5 9t-5.5 9q-2 2 -4.5 6t-4.5 4h-1q-12 -3 -15.5 -16t-8.5 -23q-3 -6 -8 -11l-9.5 -9.5t-7 -10t-0.5 -13.5q4 2 7 5t8 6q7 4 12.5 4.5t3.5 -0.5
q-9 -4 -13 -9.5t-5.5 -10.5t-2 -9.5t-2.5 -7.5q-4 -8 -8.5 -14t-4.5 -15q-1 -14 3.5 -27t9.5 -26q3 5 5 9.5t5 9.5q5 8 10.5 10t3.5 0q-7 -7 -9.5 -19.5t-1 -24.5t6.5 -20.5t12 -8.5q6 0 10 4.5t6.5 11t4 13t2.5 10.5q2 8 2 20t-7 19zM71 516q-1 -13 3.5 -26.5t9.5 -25.5
q4 4 5.5 8.5t4.5 9.5q5 8 10.5 10t3.5 1q-7 -8 -9.5 -20.5t-1 -24.5t6.5 -20.5t12 -8.5q6 0 10 4.5t6.5 11t4 13t2.5 10.5q2 9 2 21t-7 19q-1 0 -1 1t1 1q11 10 16 27t2 31q-1 6 -5 13.5t-7.5 16t-5 16t1.5 13.5q0 -5 2 -9q5 -7 18 -6q-2 5 -5 10.5t-6 10.5q-2 5 -4.5 9
t-5.5 8q-2 2 -4.5 6t-5.5 5q-12 -4 -15.5 -17t-8.5 -22q-3 -6 -8 -11t-9.5 -10t-7 -10.5t-0.5 -13.5q4 3 7 6t8 5q5 4 11 4q3 1 5 1q-9 -4 -13 -9.5t-5.5 -10.5t-2 -9.5t-2.5 -8.5q-4 -8 -8.5 -14t-4.5 -15zM390 420q1 1 2 0.5t0 -2.5q-8 -13 -17 -24.5t-15 -25.5
q-5 -14 -7 -28.5t-6 -28.5q-4 -13 -10.5 -24.5t-14.5 -22.5q-5 -8 -9.5 -17.5t-8.5 -18.5q0 -2 -1 -4.5t1 -4.5t4 -1.5t4 2.5q4 2 7.5 5t8.5 5q2 1 2.5 0t-0.5 -2q-9 -18 -21 -35t-18 -36q-3 -9 -4 -18t-3 -17q-3 -18 -10 -30q-8 -14 -17 -27t-13 -29q-1 -3 -2 -10t2 -10
q3 -2 7 -0.5t6 2.5q7 4 13 9t14 9q2 0 2 -2q-11 -17 -23 -31.5t-27 -26.5q-11 -10 -25.5 -14.5t-28.5 -9.5q-13 -5 -23.5 -14.5t-19.5 -20.5q-16 -22 -28.5 -45.5t-31.5 -42.5q-3 -3 -3 2q9 22 19.5 43t20.5 43q10 21 16.5 42.5t12.5 43.5q-8 0 -11 -1q-2 0 -2 2
q-2 9 4 17.5t11 15.5q6 6 11.5 17t9.5 23t6.5 24t2.5 20v11t1 11q2 11 9 24l14 22t12 23q-5 2 -10 1.5t-10 -0.5q-4 0 -1 3q7 8 16 20t17.5 26t16 27.5t11.5 23.5q5 11 7 26q1 7 0 14q-1 4 -3 4q-2 1 -4 1q-9 0 -15.5 -5.5t-11 -13.5t-7.5 -16.5t-5 -15.5q-1 -2 -2 -2t-1 2
q3 29 15 52t30 45q9 11 18 21t16 22q13 23 19 49.5t17 51.5q-4 -1 -7.5 -1t-7.5 -2q-2 0 -2 2q4 8 10 13l12 10q8 7 12 15.5t8 18.5q4 9 8 19.5t-7 18.5q-5 5 -11.5 8t-10.5 8q0 2 2 2q14 1 26.5 0.5t26.5 -0.5q22 0 37 6t32 18q5 3 11 6.5t11 6.5q6 4 12.5 7t11.5 8
q5 4 9 8t9 8q8 8 16.5 14.5t19.5 10.5h1q1 1 2 0t0 -2q-12 -11 -30.5 -30.5t-36 -42t-31 -45t-17.5 -39.5q-2 -6 -1.5 -12.5t5.5 -11.5l1 -2q-12 -15 -25.5 -33t-25 -37.5t-18.5 -39.5t-7 -41q10 0 19 3zM588 110q-4 -15 -13.5 -27.5t-19.5 -24.5t-19 -24.5t-12 -27.5
q-1 -10 3 -20q6 -8 7 -12q2 -7 -4 -15q-4 -8 -8 -12.5t-8 -12.5q-7 -11 -7 -26t8 -30q1 -2 -2.5 1.5t-4.5 5.5q-7 14 -8.5 28t0.5 28q0 9 1 17.5t-7 14.5q-4 3 -7 5t-5 5q-2 -6 -9 -11.5t-5 -23.5q0 -2 -1.5 4t-2.5 13q0 11 0.5 20t-1.5 18q-4 17 -21 27q2 -7 1 -25.5
t-11 -32.5q-2 -4 -8 -9.5t-5 -3.5q13 18 13.5 41t-14.5 45q-5 7 -9.5 13.5t-6.5 14.5q-2 9 0 17.5t2 16.5q-9 -4 -17 -12.5t-7 -22.5q0 -2 -1.5 2t-0.5 6q1 18 9 34.5t12 33.5q3 14 4.5 28t6.5 28q-2 -1 -2 -1.5t-5 -2.5q-4 -2 -9.5 -3t-3.5 0q15 8 22 24t19 24q8 5 16 8.5
t15 8.5q6 5 9 10t8 10q-2 1 -4 2.5t-4 2.5q-8 2 -13.5 -2t-5.5 -3q7 11 18 19.5t13 16.5t0.5 14.5t-5.5 13.5q-3 5 -5.5 8.5t-5.5 8.5q-9 9 -12 21q0 1 -0.5 5.5l-1 9t-0.5 8t0 2.5q3 -17 10.5 -28.5t17 -20.5t18.5 -15.5t15 -13.5q14 -17 28 -34.5t22 -37.5q5 1 6.5 6.5
t3.5 13t5 15.5t10 13q-2 -4 -4 -10q-3 -9 -2 -22q2 -12 5.5 -21.5t2.5 -20.5q-2 -8 -3.5 -14.5t-1.5 -14.5q-1 -6 -0.5 -12t1.5 -13q0 -21 -5.5 -42.5t-16.5 -40.5q5 3 13.5 12.5t13.5 26.5q1 2 0 -7.5t-4 -17.5zM83 391q-4 16 -20 27q1 -7 0 -26t-11 -33q-2 -3 -8 -8.5
t-5 -4.5q13 19 13.5 41.5t-14.5 44.5q-5 7 -9.5 14t-6.5 15t0 16.5t2 17.5q-8 -5 -16.5 -13.5t-7.5 -21.5q0 -2 -1.5 1.5t-0.5 5.5q1 19 9 35t12 34q4 14 5 28t6 28q-2 -1 -2 -2t-4 -3q-5 -2 -10 -3t-4 0q8 4 13 10.5t9.5 14t8.5 14t10 10.5q8 5 16 8t16 8q5 5 8.5 10.5
t8.5 10.5q-3 0 -5 1.5t-4 2.5q-8 2 -13.5 -2t-5.5 -2q7 11 18 19.5t13 16.5t0.5 14t-5.5 13q-4 9 -11 17q-9 9 -12 21q-1 2 -1.5 12t-0.5 13q3 -17 10.5 -28.5t17 -20t18.5 -15.5t15 -14q14 -16 28 -34t22 -38q5 2 7 7.5t3.5 13t4.5 15t10 13.5q-2 -4 -4 -10q-3 -9 -2 -22
q2 -12 6 -22t2 -20q-2 -8 -3.5 -15t-1.5 -15q-1 -6 -0.5 -12t1.5 -12q0 -22 -5.5 -43.5t-16.5 -39.5q5 2 13.5 12t13.5 26q1 2 0 -7t-4 -18q-4 -15 -13.5 -27.5t-19.5 -24.5t-19 -24.5t-12 -27.5q-1 -10 3 -20q2 -3 4 -5.5t3 -6.5q2 -5 0.5 -8l-3.5 -7q-5 -7 -9 -12t-8 -12
q-6 -12 -6.5 -26.5t7.5 -30.5q1 -2 -2.5 1.5t-4.5 5.5q-7 14 -8.5 28t0.5 29q0 8 1 17t-7 15q-4 2 -7 4t-5 5q-2 -5 -9 -11t-5 -24q0 -2 -1.5 4t-2.5 14q0 11 1 19.5t-2 18.5z" />
    <glyph glyph-name="ampersand" unicode="&#x26;" horiz-adv-x="567" 
d="M639 -105q0 -2 -2 -2t-12 7.5l-22 16.5t-22 17.5t-13 11.5q-7 7 -14.5 13t-17.5 8q-16 3 -12 -13q2 -5 4.5 -9t4.5 -9q1 -1 0 -2t-2 0q-6 6 -11 11.5t-10 13.5q-4 7 -7 13.5t-8 12.5q-5 7 -10.5 13t-13.5 9q-10 4 -11 -3l-2 -8q-1 -2 -3 0q-2 6 -3 12.5t-5 12.5
q-6 9 -17 15q-7 -9 -16 -13q5 -2 15 -4q2 -1 1.5 -2t-1.5 -1q-9 -2 -18.5 -2.5t-17.5 -5.5t-12.5 -11.5t-11.5 -11.5q-6 -5 -13.5 -7.5t-15.5 -4.5l-28 -8q-21 -7 -34 -15.5t-20.5 -20t-12 -27t-7.5 -36.5q-4 -43 -3 -86q0 -1 -1 -1t-1 1q-5 18 -5 36.5t-2 36.5
q-1 12 -3.5 27t-7 29t-11.5 26.5t-19 19.5q-10 8 -27 11q-6 1 -12.5 2t-12.5 -1q-5 -1 -5 -9q0 -5 0.5 -9.5t0.5 -9.5q0 -1 -1 -1t-1 1q-11 14 -21 30t-23 30q-18 20 -38 39.5t-32 45.5q-7 14 -8.5 28.5t-0.5 29.5q0 17 4 30l7 28q-7 4 -15 -1t-15 -7q-2 -1 -2 0t1 2
q18 14 34 36q11 17 21 35t21 35q5 8 11.5 15.5t14.5 12.5t17.5 8.5t18.5 8.5q-5 2 -9 7t-7 10q-7 12 -11 25t-9 26q-1 3 -3 7.5t-4.5 8t-5.5 5t-8 -0.5q-5 -4 -6.5 -11.5t-6.5 -12.5q0 -1 -1 -1t-1 1q0 11 2.5 22.5t4.5 22.5q2 9 4 18.5t3 19.5q0 7 -0.5 15t-3.5 14
q-2 5 -7 5t-9 -7.5t-6 -12.5q-1 -2 -2 -1.5t-1 1.5q0 17 4 33t15 30t17 30t15 31q3 5 2 10l-7 14l-8 14t-9 13t-11.5 11t-11.5 10q-7 6 -12 12q-6 8 -10 11q-10 11 -27 23t-25 25q1 0 10.5 -6.5t20.5 -10.5q8 -3 13.5 -8t12.5 -7q9 -3 15 -10t14 -12q6 -5 13 -8.5l15 -7.5
q16 -7 32.5 -11t34.5 -5q17 -1 33 -0.5t33 1.5q10 1 19.5 2.5t19.5 1.5q11 0 24 -5q2 -1 0 -3q-4 0 -6 -1q6 -6 14.5 -7.5t16.5 -1.5q8 -1 16 -1.5t15 -3.5q19 -10 30 -25.5t17 -33.5t9 -38t4 -39l2 -44l2 -20t4 -21q5 -18 22 -37.5t37 -27.5q-2 1 -10 2.5t-9 1.5
q-29 14 -49 42.5t-25 59.5q-3 12 -8.5 24t-17.5 18q-11 6 -23.5 6.5t-24.5 2.5q-1 2 0 3q3 2 7 4.5t7 5.5q3 4 1.5 8t-3.5 8q-6 10 -15.5 16.5t-18.5 12.5q-5 3 -16 4t-23 1t-23.5 1t-17.5 4q-9 5 -10 -3t8 -19q3 -4 0 -7t-8.5 -6.5t-10.5 -7.5t-6 -9q-2 -10 -5.5 -21
t-3.5 -21q1 -11 3 -22.5t4 -22.5t7 -23.5t11 -21.5q4 -7 17.5 -14t21.5 -7q12 0 23 8q2 2 4 5.5t4 5.5q3 5 4.5 11t6.5 9q7 4 13.5 27t6.5 46q0 2 1.5 -7.5t1.5 -18.5q0 -10 -1 -20l-2 -20q-2 -12 -2 -23.5t1 -22.5q7 3 10 9q5 7 13.5 11t10.5 5q-17 -16 -18.5 -32.5
t-5.5 -26.5q-5 -11 -15 -17.5t-19 -13.5q-5 -4 -10 -7.5t-9 -8.5q-3 -4 -4 -8t5 -4q12 1 22 -3.5t12 -5.5q-14 2 -30 1t-31.5 -4t-28 -8t-20.5 -13q-5 -5 -9 -10.5t-6 -12.5q-2 -10 14 -10q12 0 31 8q1 0 -6 -6.5t-21 -11.5q-11 -3 -21 -4.5t-20 -6.5q-8 -4 -15 -9t-11 -13
q-5 -9 -7 -23v-12t1.5 -13.5t5 -11.5t10.5 -6q2 2 4 3t4 3h2q5 -29 22 -49.5t42 -34.5q12 -6 24.5 -12t26.5 -8q18 -3 35 0q7 1 15.5 3t10.5 10q-5 2 -8 4.5t-8 4.5t-10.5 3t-10.5 3q-22 6 -41 15q-1 0 -0.5 1.5t1.5 0.5q13 -5 26 -6t26 0q6 1 12.5 1.5t12.5 0.5q7 1 13 0.5
t12 -0.5q12 1 24 4.5t22 11.5l5 4q-3 3 -5 6.5t-5 5.5q-4 4 -8 7l-8 6q-4 2 -7.5 4t-5.5 5q-3 4 -5 8t-4 9q-1 1 -0.5 1.5t1.5 -0.5q4 -1 3 1l-2 4l-20 13q-9 5 -15.5 12.5t-12.5 16.5q-6 10 -12.5 20.5t-14.5 19.5q-8 8 -17.5 13.5t-14.5 16.5q-1 0 -7 6l-7 7
q4 -1 12.5 -6.5t18 -11.5t17 -11.5t10.5 -7.5q5 -5 10 -9.5t11 -8.5q8 -4 12 -5h2.5t1.5 3q0 2 -1 4q0 4 -1 6q0 4 3 1q4 -4 7 -6.5t8 -3.5t8 -3t7 -4q5 -3 9 -6.5t9 -4.5q7 -2 7 2t-1 9q0 1 1.5 1.5t1.5 -1.5q5 -11 11 -21.5t16 -17.5l22 -14q2 -2 6 -4q3 -1 2.5 1.5
t-1.5 4.5q0 2 1.5 2.5t1.5 -1.5q4 -9 10.5 -15t14.5 -11q17 6 32.5 23.5t19.5 34.5q-14 1 -27 -4.5t-24 -14.5q-1 -1 -2 -0.5t0 1.5q1 6 9 12q4 4 9 6.5t10 5.5l33 14q12 4 20 12.5t8 21.5q1 8 -0.5 14.5t-2.5 14.5t-1 15.5t-2 15.5q-4 15 -13 38t-18 40l13 -16l18 -27
l8 -12t7 -13q5 -12 5.5 -24.5t2.5 -25.5q2 -6 3 -12l2 -12q0 -22 -6 -47.5t-21 -42.5q20 5 27 21q1 2 2.5 1.5t0.5 -2.5q-11 -28 -25 -42.5t-40 -27.5l-15 -10q8 -7 14.5 -13.5t16.5 -9.5q0 3 -1 5q0 4 3 1q4 -5 9 -7.5t9 -7.5q4 -7 6.5 -13.5t4.5 -13.5q5 -17 13 -31l6 -9
q2 -2 3 -2q2 -1 2 1v5q0 3 2 1q5 -7 8.5 -15t8.5 -16q8 -16 18 -29q6 -8 12.5 -14t13.5 -13q5 -5 9.5 -11t7.5 -12zM490 393v-1l1 -1q-1 0 -1 2zM460 383h2h-2z" />
    <glyph glyph-name="quotesingle" unicode="'" horiz-adv-x="161" 
d="M158 493q1 -2 -0.5 -2.5t-2.5 1.5q-5 11 -15.5 16.5t-21.5 8.5q-25 5 -45 1q-3 0 -2 3q4 5 7 11t4 13q0 14 -3 26.5t-8 25.5q-1 5 -5 13l-1 3q0 1 -0.5 0.5t-0.5 0.5q-6 2 -8 -6q-5 -8 -6.5 -18t-3.5 -20q0 -2 -1.5 -1.5t-1.5 2.5q-3 30 1 57l4 14t3 14q2 12 -0.5 22.5
t-6.5 21.5q-5 14 -9 28t-13 26q-4 5 -7.5 9t-6.5 9q-6 8 -6 14q-2 2 -0.5 2.5t2.5 -0.5q15 -19 34 -25q5 -2 11 -2.5t12 -2.5q10 -1 20 0q5 1 9 0.5t9 -1.5q9 -2 15 3q3 2 5.5 5t5.5 6t3 -2q-5 -12 -9.5 -24.5t-6.5 -25.5q-3 -18 1 -34q4 -10 11 -11t13 3t11 9q2 1 3 0t0 -2
q-14 -22 -13 -44q1 -15 6.5 -29t5.5 -28q0 -12 -3.5 -23t-3.5 -22q0 -12 5 -23z" />
    <glyph glyph-name="parenleft" unicode="(" horiz-adv-x="362" 
d="M367 811q1 0 2 -1t-1 -2q-34 -16 -60 -34.5t-46 -50.5q-6 -10 -11 -20t-11 -20q-11 -18 -25.5 -35t-22.5 -38l-4 -14t-3 -14v-10t3 -9q4 -4 8.5 -2t8.5 4q10 7 23 25t21 32l-1 -3.5t-2.5 -8t-3.5 -9l-2 -4.5q-5 -17 -12.5 -33t-17.5 -30q-3 -5 -12.5 -11.5t-19.5 -15.5
t-19.5 -21t-12.5 -28q-3 -14 -6.5 -28t-5.5 -28q-2 -9 -3.5 -17.5t-3.5 -16.5q-1 -7 -1.5 -14t-2.5 -14q7 10 14.5 18.5t17.5 16.5q9 8 19.5 13.5t21.5 10.5q1 1 1.5 -0.5t-0.5 -2.5q-14 -12 -24.5 -28t-18.5 -33q-14 -30 -17.5 -63t1.5 -65q2 -10 3.5 -19.5t1.5 -19.5
q1 -6 0.5 -12.5t-0.5 -12.5v-14.5t1 -14.5q1 -5 2.5 -10t5.5 -9q2 4 5.5 10.5t8 12.5t9.5 10t9 4q-8 -7 -11.5 -23.5t-4.5 -35.5t0.5 -37.5t2.5 -31.5q5 -40 17 -71t42 -60q14 -13 29.5 -23.5l31 -21t30.5 -22t27 -25.5q2 -1 1 -2t-3 0q-20 14 -42.5 22.5t-45.5 17.5
q-11 5 -23 9.5t-23 10.5q-10 5 -19 12.5t-20 10.5q-2 -8 2.5 -15.5t9.5 -14.5q1 -2 -0.5 -2.5t-2.5 0.5q-24 20 -36 42t-21 50q-2 6 -7 7q-5 0 -8 1q-6 2 -7.5 11.5t-2.5 14.5q-3 23 -8.5 42.5t-16.5 40.5q-18 39 -26 78.5t-11 81.5q-4 -10 -7.5 -19t-5.5 -19q-2 -12 0 -24
t-1 -23q-1 -2 -2 -1.5t-1 2.5q-1 18 -4.5 35.5t-4.5 36.5q-2 14 -0.5 28t3.5 28q2 15 6 30t6 30q3 26 2.5 53.5t12.5 51.5q-8 -2 -14.5 -3.5t-11.5 -9.5q-7 -11 -9.5 -22.5t-5.5 -23.5q0 -1 -1.5 -1t-1.5 2q1 16 3.5 31.5t7.5 31.5q9 28 24 53t27 52q4 8 7 15t6 15
q3 6 5.5 11.5t5.5 11.5q5 6 6 12v7t-4 5q-3 0 -5.5 -2t-4.5 -4l-9 -6q-1 -1 -2 0t0 2q3 5 7 10l8 10q11 14 22.5 27t19.5 28q3 5 5.5 11.5t2.5 13.5q-1 7 -6.5 10t-11.5 4q-2 1 -1.5 2t2.5 1q10 2 20 1.5t20 1.5q10 1 19 5t17 9q6 5 12 9.5t13 8.5q8 4 15 7t15 7
q11 6 22 13.5t22 13.5q6 3 17 8t22.5 10t22 9.5t17.5 5.5z" />
    <glyph glyph-name="parenright" unicode=")" horiz-adv-x="373" 
d="M1 811q10 -2 19 -6l18 -8q11 -5 21 -9.5t21 -9.5q11 -6 22 -13.5t22 -13.5q8 -4 15 -7t15 -7q7 -4 13 -8.5t12 -9.5q8 -5 17 -9t19 -5q10 -2 20 -1.5t20 -1.5q2 0 2.5 -1t-1.5 -2q-6 -1 -11.5 -4t-6.5 -10q0 -7 2.5 -13.5t5.5 -11.5q8 -15 19.5 -28t22.5 -27l8 -10t7 -10
q1 -1 0 -2t-2 0l-9 6q-2 2 -4.5 4t-5.5 2q-4 0 -4 -5v-7q2 -6 6 -12q3 -6 5.5 -11.5t5.5 -11.5q3 -8 6 -15t7 -15q12 -27 27 -52t24 -53q5 -16 7.5 -31.5t3.5 -31.5q0 -2 -1.5 -2t-1.5 1q-3 12 -5.5 23.5t-9.5 22.5q-5 8 -11.5 9.5t-14.5 3.5q13 -24 12.5 -51.5t2.5 -53.5
q2 -15 6 -30t6 -30q2 -14 3.5 -28t-0.5 -28q-1 -19 -4.5 -36.5t-4.5 -35.5q0 -2 -1 -2.5t-2 1.5q-3 11 -1 23t0 24q-2 10 -5.5 19t-7.5 19q-3 -42 -11 -81.5t-26 -78.5q-11 -21 -16.5 -40.5t-8.5 -42.5q-1 -5 -2.5 -14.5t-7.5 -11.5q-3 -1 -8 -1q-5 -1 -7 -7q-9 -28 -21 -50
t-36 -42q-1 -1 -2.5 -0.5t-0.5 2.5q5 7 9.5 14.5t2.5 15.5q-11 -3 -20 -10.5t-19 -12.5q-11 -6 -23 -10.5t-23 -9.5q-23 -9 -45.5 -17.5t-42.5 -22.5q-2 -1 -3 0t1 2q12 14 27 25.5t30.5 22l31 21t29.5 23.5q30 29 42 60t17 71q2 13 3 31.5t0.5 37.5t-4.5 35.5t-12 23.5
q1 0 10 -5.5t16 -20.5q2 -3 3 -5.5t3 -5.5q4 4 5.5 9t2.5 10q1 8 1 14.5v14.5q0 6 -0.5 12.5t0.5 12.5q0 10 1.5 19.5t3.5 19.5q5 32 1.5 65t-17.5 63q-8 17 -18.5 33t-24.5 28q-1 1 -0.5 2.5t1.5 0.5q11 -5 21.5 -10.5t19.5 -13.5q10 -8 17.5 -16.5t14.5 -18.5
q-2 7 -2.5 14t-1.5 14q-2 8 -3.5 16.5t-3.5 17.5q-2 14 -5.5 28t-6.5 28q-3 16 -12.5 28t-19.5 21t-19.5 15.5t-12.5 11.5q-10 14 -17.5 30t-12.5 33l-2 4.5t-3.5 9t-2.5 8l-1 3.5q8 -14 21 -32t23 -25q4 -2 8.5 -4t8.5 2q3 4 3 9v10q-1 7 -3 14l-4 14q-8 21 -22.5 38
t-25.5 35q-6 10 -11 20t-11 20q-20 32 -46 50.5t-60 34.5q-2 1 -1 2t2 1z" />
    <glyph glyph-name="asterisk" unicode="*" horiz-adv-x="311" 
d="M306 579q1 1 1.5 -0.5t-0.5 -2.5h-1q-11 -5 -14 -16l-3 -18q-1 -6 -1.5 -11.5t0.5 -11.5q2 -6 5 -11t7 -10q1 -1 0.5 -2t-2.5 0q-19 12 -36 15t-38 5q-17 0 -32 4q-3 1 -12 3.5t-11 -1.5q10 -9 18.5 -20.5t12.5 -24.5q2 -8 3.5 -15.5t7.5 -12.5q4 -2 5 -1t1 5q0 5 1 8
q0 4 3 1q5 -10 5.5 -19.5t3.5 -19.5q3 -11 10.5 -18t16.5 -14q3 -3 -2 -3q-12 2 -24.5 -1.5t-21.5 -12.5q-8 -8 -11 -17.5t-7 -18.5q0 -2 -1 -2t-2 2q-2 7 -2.5 14t-1.5 15t-1.5 15t-2.5 15l-8 26t-12 24q-2 -2 -2.5 -2t-2.5 -2t-2 1q0 9 0.5 17.5t-1.5 16.5q-2 6 -4 11.5
t-3 11.5q-1 -2 -1.5 -3.5t-1.5 -2.5l-3 -9q-2 -5 -2.5 -8.5t-2.5 -7.5q-3 -9 -7 -18q-1 -1 -4 -6.5t-5 -11t-2.5 -10t3.5 -4.5q3 0 1 -2q-2 -5 -5.5 -9t-5.5 -9q-3 -5 -5.5 -11t-5.5 -11l-6 -12t-5 -13q-1 -7 -1.5 -13.5t-0.5 -13.5q0 -4 -3 -1q-4 11 -4 24q0 12 -3 23
t-19 11q-6 0 -13 -2.5t-12 -6.5q-1 0 -1 -0.5t-1 -0.5q-1 -1 -2 0t0 2h1q0 1 1 2q11 9 14.5 23.5t11.5 25.5q5 7 12.5 12t13.5 11q6 7 8.5 14.5t6.5 15.5q-1 -1 -5 -1q-1 -1 -1.5 -0.5t0.5 1.5q2 7 7 10.5t10 7.5q7 5 10 12t6 15q-5 1 -8.5 0.5t-8.5 -1.5q-4 -1 -7 -1t-7 -1
q-5 0 -8.5 -1t-7.5 -3q-5 -2 -15 -4q-10 -1 -21 -2t-19 -7q-6 -3 -9 -12q-4 -6 -8 -6q-1 0 -1 1q-2 5 -0.5 9t3.5 8q3 6 5.5 11.5t4.5 11.5t3 14.5t-3 13.5t-8.5 8.5t-6.5 9.5q0 1 1 2t2 0q15 -12 32 -12q8 -1 15 0.5t15 2.5q14 2 29 -1.5t29 -8.5q-3 8 -7 15.5t-11 13.5
q-10 10 -16 23q-4 9 -6.5 13.5t-5.5 8t-7.5 6t-12.5 6.5q-7 2 -7 7q1 4 3 10q1 5 -1.5 8t-4.5 6q-9 11 -13 21q-4 11 -7 17t-11 15q-2 0 -6 6q-1 0 -4 3q2 2 5 -1q14 -5 26 -13t25 -15q5 -2 10 -5t10 -3t9 5q3 5 4.5 12t4.5 13q0 1 1 1t1 -2q1 -5 0.5 -10t0.5 -10
q0 -11 7 -21q2 -4 5 -7t5 -8t1.5 -11t2.5 -11q2 -3 4 -5.5t4 -7.5t1.5 -10t0.5 -10q1 -6 3.5 -11.5t5.5 -10.5q2 -3 3.5 -6.5t1.5 -7.5q6 15 9 31q2 8 1 17.5t2 17.5q0 1 1 1t1 -1q1 -2 2.5 -6.5t3.5 -4.5q3 0 5 6t3 8q2 7 3 14t3 15q5 13 13 23.5t12 23.5q1 2 2 1.5t1 -1.5
q-3 -17 9 -25q9 -6 23 -6q17 0 31 7.5t29 12.5q2 2 2 -2q-4 -6 -10 -10l-12 -8q-9 -4 -19 -13t-18.5 -20t-14 -22.5t-6.5 -21.5q0 -2 -1.5 -2t-1.5 2q1 1 1 3t-0.5 5.5t-2.5 4.5q-3 2 -5.5 -3.5t-3.5 -7.5q-2 -7 -2 -13.5t-4 -12.5q-1 -1 -3 1q0 1 -1 2q-5 -5 -7 -10.5
t-6 -11.5q-4 -5 -9 -9t-8 -10q6 -6 13 -6q11 0 22.5 8t20.5 10q1 1 2 0.5t0 -2.5q0 -2 -0.5 -3.5t1.5 -1.5q4 -1 8 1q5 2 8.5 4t8.5 4q8 5 15 6q9 1 18 0.5t18 3.5z" />
    <glyph glyph-name="plus" unicode="+" horiz-adv-x="481" 
d="M458 387q-5 -8 -8 -15.5t-3 -16.5t-1 -19.5t2 -18.5t10 -12t14 -9q3 -3 -2 -3q-17 4 -34 11.5t-36 6.5q-10 0 -19 -2t-19 -4q-9 -1 -18.5 0t-18.5 -1q1 -2 1 -2.5t2 -2.5q0 -3 -1 -3q-6 1 -11 3.5t-10 5.5l-10 4t-11 3q0 -3 -1 -4q1 -3 1.5 -5.5t1.5 -5.5v-24q2 0 3 -1
q2 -1 1.5 -2t-2.5 -1h-2q-1 -5 -1 -9t-1 -9q1 -4 1 -8v-9v-5q0 -2 1 -3q1 -3 3 -1.5t4 3.5q3 3 4.5 7t3.5 9q0 2 1.5 2t1.5 -2q-1 -2 -1 -5q-3 -14 -5 -27t-3 -26q0 -6 1 -9q3 -34 26 -62q0 -2 -2 -2h-1q2 -2 3 -4q0 -2 -2 -2q-9 2 -16 6.5t-15 9.5t-15.5 7.5t-17.5 2.5
q-9 -1 -19 0t-19 -3q-8 -3 -11.5 -10t-7.5 -14q-1 -2 -2 -1.5t-1 2.5q0 3 1 4q-1 1 -1 2q2 16 8 31.5t7 32.5v1q-1 10 -3.5 19t-4.5 19q-2 9 -1.5 18t-1.5 19q-1 -1 -2 -1.5t-2 -1.5q-3 -3 -3 1q0 3 1 4q-1 1 -1 2q1 5 3 10l4 10q5 9 6 16q-8 3 -16 7t-17 6q-2 -5 -3 -9.5
t-3 -9.5q0 -2 -1.5 -2t-1.5 2t0.5 2.5t0.5 2.5q0 11 1 16q-15 2 -26 -5q2 -4 5.5 -7t7.5 -6q3 -3 -2 -3q-9 2 -18 5.5t-18 6.5q-24 8 -47 8q-13 0 -20 -7q-5 -5 -9 -9.5t-10 -7.5q-4 0 -1 3q5 9 5.5 20t5.5 21q-5 -1 -10 -9q-3 -3 -3 1q0 7 1.5 13.5t3.5 13.5q5 15 -1 29
q-5 12 -14 20t-17 18h-1q-3 5 2 3q2 -2 11 -5t20 -6t22.5 -5t18.5 -2q10 0 10 4q0 2 2 2q17 -14 37.5 -16t40.5 -4q7 0 13 -0.5t12 -0.5q4 8 7 17.5t4 19.5q-1 5 -2 9t-4 8q-4 -3 -7 -6.5t-6 -7.5q-1 -1 -2 -0.5t0 1.5v6q2 10 4.5 19t4.5 18q6 18 6 36v5q0 14 -7 21
q-5 4 -10 7.5t-7 9.5q-2 2 1 2q0 1 -0.5 1.5t-0.5 2.5q-2 2 2 2q8 -5 17.5 -5.5t17.5 -2.5l-2 2q-2 1 0 3h4q-1 1 -2 1.5t-2 1.5q-2 1 0 3q7 0 13.5 -1t13.5 -3q17 -3 30 2q11 5 19 15t17 18v1q1 1 2.5 0.5t0.5 -2.5l-2 -4q1 1 2 0t0 -2q-1 -2 -3.5 -10t-5 -17.5t-4.5 -20.5
t-2 -19q0 -9 5 -9q3 0 1 -3q-2 -2 -2 -3h1q3 0 1 -3q-12 -17 -13.5 -37.5t-2.5 -40.5v-11q0 -10 1 -15v-3h1q5 0 13 2h14l14 -2t14 -1q5 -1 10.5 -0.5t10.5 -0.5h4t4 1q3 1 2 3t-3 4q-4 3 -8 5t-9 4q-1 0 -1 1.5t2 1.5q14 -5 28.5 -8t28.5 -3q38 0 72 23q1 1 2 0t0 -2
q-2 -8 -7 -15t-10 -15z" />
    <glyph glyph-name="comma" unicode="," horiz-adv-x="112" 
d="M107 149q0 -3 -2 -1q-5 3 -6.5 -4.5t-1.5 -9.5q-1 -7 1.5 -13t0.5 -13q-2 -1 -4 -5.5t-2 -6.5q-1 -2 -1.5 -3.5t-1.5 -3.5q-3 -8 -9 -14t-11 -12q-7 -8 -12 -15.5t-10 -15.5q-5 -5 -7.5 -10.5t-8.5 -9.5q-2 -1 -2.5 0t0.5 2q6 8 12 19q3 5 5 12q2 2 2 5t1 5q4 6 4 11
q0 6 -9 8q-5 2 -8 4t-8 4q-3 2 -6 3.5t-5 5.5q-2 2 -2 8q-1 2 -2 4.5t-1 4.5q-1 5 -1.5 10.5t-2.5 10.5t-4.5 8.5t-4.5 8.5q-1 1 1 1t6 -2q4 -1 4 4q0 9 4 14q2 3 6 5.5t7 6.5q3 3 6 7t5 9q0 1 1 1t1 -1q0 -5 3 -3t5 3q6 4 9 5q5 3 8.5 5.5t8.5 6.5l6.5 6.5t7.5 6.5t7.5 5.5
t7.5 5.5q3 0 1 -2q-7 -7 -12 -21q-2 -6 -4 -9q-2 -4 -3.5 -6t0.5 -7q3 -13 11 -22q3 -4 5.5 -7.5t4.5 -8.5z" />
    <glyph glyph-name="hyphen" unicode="-" horiz-adv-x="477" 
d="M0 406q-3 5 2 3q2 -2 11 -5t20 -6t22.5 -5t18.5 -2q10 0 10 4q0 2 2 2q17 -14 37.5 -16t40.5 -4q16 -1 31 0q7 0 14.5 2t9.5 8q-5 3 -9.5 6t-9.5 5q-2 1 -1 2.5t3 0.5q11 -6 24 -6t25 -5q6 -2 13 -5t14 -3q5 0 13 2h14l14 -2t14 -1q5 -1 10.5 -0.5t10.5 -0.5h4t4 1
q3 1 2 3t-3 4q-4 3 -8 5t-9 4q-1 0 -1 1.5t2 1.5q14 -5 28.5 -8t28.5 -3q38 0 72 23q1 1 2 0t0 -2q-2 -8 -7 -15t-10 -15t-8 -15.5t-3 -16.5t-1 -19.5t2 -18.5t10 -12t14 -9q3 -3 -2 -3q-17 4 -34 11.5t-36 6.5q-10 0 -19 -2t-19 -4q-9 -1 -18.5 0t-18.5 -1q1 -2 1 -2.5
t2 -2.5q0 -3 -1 -3q-6 1 -11 3.5t-10 5.5q-6 3 -12 5t-14 2q-12 0 -26 -3q-4 -2 -8 -3t-7 -3q-5 -4 -1 -7t7 -5q11 -7 22.5 -10.5t22.5 -8.5q2 -1 1.5 -2t-2.5 -1q-12 2 -23.5 4.5t-22.5 5.5q-18 4 -36 14q-10 5 -22.5 10t-25.5 5q-10 0 -18 -5q2 -4 5.5 -7t7.5 -6
q3 -3 -2 -3q-9 2 -18 5.5t-18 6.5q-24 8 -47 8q-13 0 -20 -7q-5 -5 -9 -9.5t-10 -7.5q-4 0 -1 3q5 9 5.5 20t5.5 21q-5 -1 -10 -9q-3 -3 -3 1q0 7 1.5 13.5t3.5 13.5q5 15 -1 29q-5 12 -14 20t-17 18h-1z" />
    <glyph glyph-name="period" unicode="." horiz-adv-x="119" 
d="M102 151q2 -8 5.5 -16.5t2.5 -17.5q0 -14 -9 -28q-5 -7 -11.5 -12t-10.5 -13q-4 -7 -8 -19q-2 -5 -3 -13.5t2 -21.5q-1 2 -3 6.5t-3 6.5q-1 5 -1.5 10.5t-0.5 10.5q-1 5 -1.5 10.5t-3.5 9.5q-2 2 -5.5 3.5t-5.5 3.5q-4 6 -6 10q-1 1 -1 3q-8 2 -18.5 7t-12.5 15
q-1 4 -1 11q-1 5 -1.5 8.5t-1.5 7.5q-2 8 1.5 14.5t6.5 13.5q0 1 1 1t1 -1q6 -8 12 -1q2 2 3.5 4t3.5 4q3 4 8 7t8 8q5 6 4.5 15t-0.5 17t0.5 15t3.5 14q0 1 2 5.5t2 2.5q-2 -8 -2.5 -17.5t1.5 -17.5q2 -7 9 -17.5t15.5 -20.5t17 -18t14.5 -10q2 -1 -3.5 -1.5t-6.5 0.5
q-1 0 -2 0.5t-2 0.5z" />
    <glyph glyph-name="slash" unicode="/" 
d="M437 754q1 1 2 0t0 -2q-9 -8 -17 -17.5t-16 -18.5q-9 -12 -21 -27t-22.5 -32t-19.5 -34t-12 -32q-2 -7 -1 -13.5t7 -11.5q1 -1 0 -2q-13 -17 -24.5 -34.5t-22.5 -36.5q-10 -19 -17 -39.5t-5 -42.5q10 -2 19 3q2 2 2 -2q-8 -13 -16.5 -25.5t-13.5 -26.5t-6 -28.5t-5 -28.5
q-3 -13 -9 -24.5t-13 -23.5q-5 -8 -9.5 -17.5t-6.5 -19.5q-2 -5 -1 -8q2 -3 4 -2l4 2q5 3 8 6.5t8 5.5q4 0 2 -2q-8 -19 -19.5 -36t-16.5 -37q-2 -9 -3 -18t-2 -17q-3 -16 -9 -31q-7 -14 -16 -27.5t-12 -29.5q0 -3 -1 -10t3 -10q2 -2 6 -0.5t6 3.5q7 4 13 9t13 10q4 0 2 -2
q-10 -17 -21.5 -32t-25.5 -28q-11 -11 -24.5 -15.5t-27.5 -11.5q-14 -6 -24 -15.5t-18 -21.5q-15 -22 -26.5 -46t-30.5 -44q-1 -1 -2 0t0 2q8 23 17.5 44t18.5 44q8 21 14 42.5t11 44.5q-3 -1 -6 -0.5t-5 -0.5q-2 0 -2 1q-2 9 3.5 17.5t10.5 16.5q2 4 5 7.5t5 7.5
q2 5 3.5 10.5t3.5 10.5q9 24 9 49q0 6 -0.5 11.5t0.5 11.5q1 12 8 23q6 12 12.5 23t11.5 23q-5 2 -10 1.5t-10 -0.5q-3 0 -1 2q8 9 18 25t19.5 34t17 36t8.5 31q0 10 -1 15q-2 3 -4 4h-4q-9 0 -15 -6t-10.5 -14t-7 -17t-4.5 -16q0 -2 -1.5 -1.5t-1.5 1.5q2 15 5 28.5t9 27.5
q6 11 13 22t15 21q8 11 16.5 21.5t14.5 22.5q13 25 18 51t14 52l-15 -3q-3 0 -1 2q3 8 9 13l12 10q8 8 11.5 16.5t6.5 18.5t6.5 20.5t-7.5 18.5q-5 4 -11.5 6.5t-10.5 8.5q-1 0 1 2q14 1 27 1t27 1q12 1 23.5 3.5t22.5 8.5q6 3 11 6.5t10 7.5q10 7 22 14q23 14 40 34
q8 8 16.5 14.5t19.5 11.5z" />
    <glyph glyph-name="zero" unicode="0" horiz-adv-x="458" 
d="M210 214q-14 -16 -15 -38t6.5 -42t21.5 -34.5t29 -14.5q11 0 22 8t20 20t14.5 25t6.5 23q1 9 1 21t-1.5 24t-6 22.5t-12.5 17.5q-2 3 0 5q11 11 19 25.5t12.5 31t4.5 33.5t-4 32q-3 11 -12 27t-17 32.5t-12 32.5t3 28q0 -1 1 -6.5t5 -11t12.5 -9.5t24.5 -2l-24 43
q-6 9 -17.5 20t-17.5 19q-3 4 -9 12.5t-12 8.5h-2q-12 -4 -19 -13.5t-11.5 -21.5t-7.5 -25t-8 -23q-6 -13 -16 -23.5t-18 -21.5t-12.5 -23t-0.5 -27q8 6 13.5 12.5t15.5 12.5q14 9 25.5 10.5t8.5 -0.5q-18 -10 -26 -21t-11 -21.5t-4 -20.5t-4 -18q-4 -7 -10 -14.5t-12 -14.5
t-10 -15t-4 -17q0 -14 1.5 -31t4.5 -35t7.5 -35t9.5 -30q6 9 9 19.5t9 19.5q9 15 17.5 20t10.5 5t1 -1zM445 308q1 0 0 -18t-6 -34q-8 -32 -26 -59t-38 -52.5t-37 -52t-22 -59.5q-4 -22 8 -41q4 -6 8.5 -11.5t6.5 -13.5q4 -9 1.5 -16t-7.5 -15q-9 -16 -17 -26.5t-16 -26.5
q-12 -25 -11.5 -55t18.5 -62q1 -2 -0.5 -0.5t-4 4.5t-5.5 5.5t-4 4.5q-16 27 -20 56.5t-3 60.5q0 18 1 36t-17 30q-7 5 -13.5 9t-11.5 9q-2 -6 -7.5 -11t-10 -13t-7.5 -19.5t-1 -30.5v0l-4 12q-4 13 -5 25q-2 23 -1 41t-4 37q-6 19 -18 32t-28 22q2 -7 3 -21.5t0 -32
t-5.5 -36t-14.5 -33.5q-5 -6 -14.5 -16.5t-10.5 -10.5q24 39 23 86.5t-34 92.5q-10 14 -20 27.5t-15 29.5q-6 18 -1.5 36t2.5 36q-17 -10 -33.5 -29t-14.5 -46q0 -2 -0.5 -1t-1.5 4t-2 6.5t-1 5.5q0 19 5 37t11.5 36t13 35.5t9.5 36.5q6 29 7 58.5t10 58.5q-2 -2 -3 -3.5
t-9 -6.5q-7 -5 -15.5 -7t-11.5 -2q15 9 25 24t18 30.5t16 29.5t20 22q15 11 33 18.5t32 19.5q11 9 17.5 21t15.5 23q-5 0 -9 3.5t-9 5.5q-7 2 -14 0.5t-12 -4.5t-8.5 -5.5l-3.5 -2.5q6 12 16 22t19 19.5t16.5 18.5t9.5 18q5 17 0 30t-14 27q-5 9 -11.5 17.5t-12.5 16.5
q-9 9 -16 19t-11 24q0 2 -1 10.5t-2 17.5q-2 10 -3 23q8 -34 24.5 -57.5t36.5 -41t40 -31t33 -27.5q31 -32 62 -67.5t48 -76.5q10 3 13 15t6 27t8.5 31.5t19.5 28.5q1 0 -1.5 -5.5t-5 -14.5t-3.5 -21t2 -26q5 -25 13 -45t6 -41q-2 -16 -4.5 -31t-3.5 -31q0 -13 1.5 -25.5
t2.5 -25.5q4 -45 -6 -90.5t-32 -84.5q12 6 29 27t25 56z" />
    <glyph glyph-name="one" unicode="1" horiz-adv-x="400" 
d="M295 -135q9 -12 24.5 -23t31 -19.5t26.5 -13.5t10 -5l-8 1.5t-17.5 4t-18 4.5t-11.5 4q-25 10 -49.5 18.5t-47.5 23.5q-13 8 -24 18.5t-22 21.5t-22.5 20.5t-23.5 18.5q6 -17 9 -34q0 -2 -1 -10t-2.5 -16t-3.5 -14.5l-2 -6.5q0 25 -4.5 40t-10.5 24t-12.5 14t-11.5 11
q-11 12 -23 21t-25 17q-6 4 -10 8t-7 8t-6.5 7.5t-10.5 6.5q-5 3 -15 7t-31 4q-18 0 -41 -4q-2 0 13 8t37 12q29 5 47 22t27 40.5t10 51.5t-4 54q-5 -2 -12.5 -10t-18.5 -31q-1 0 0.5 6t3 13.5t3.5 14t2 7.5q14 23 21 38t13 43q5 23 2 44t-1 42q-5 -3 -11.5 -12t-17.5 -41v6
t0.5 13t1.5 14t1 8q3 23 11.5 43.5t9.5 43.5q1 24 -3 48t-5 47q-11 -3 -20.5 -9t-16 -17t-10.5 -27.5t-4 -41.5l-1.5 5t-3 11l-3 12t-1.5 8q-1 45 8.5 82.5t35.5 63.5q16 16 37 21.5t39 16.5q26 16 42 35t19 54q1 9 0.5 18.5t-1 17t-0.5 12t1 2.5q2 -3 5 -15.5t5.5 -26.5
t4 -26.5t1.5 -17.5q0 -15 -3.5 -29.5t-8.5 -28.5q-9 -23 -23.5 -41.5t-26.5 -39.5q18 5 31 27q7 10 21.5 18t15.5 8q-25 -27 -29.5 -49t-7.5 -36q10 6 13.5 17t14.5 24q6 8 18 11t16 3q-13 -9 -23 -25.5t-16 -36t-9 -40t-3 -36.5q0 -23 -1.5 -44.5t-9.5 -41.5q8 8 12 20
q5 12 8 21.5t10 24.5q3 6 8.5 12.5t11.5 12t11 9.5l5 4q-13 -22 -19.5 -41.5t-9.5 -36t-4.5 -30t-4.5 -23.5q-5 -14 -9.5 -27.5t-7.5 -27.5q-5 -19 -5 -37.5v-37.5q0 -38 5.5 -69.5t22.5 -63.5q5 -8 7 -19.5t6.5 -25.5t14.5 -29.5t31 -32.5q-9 0 -19 5t-19 12t-17 15.5
t-13 15.5q7 -30 17.5 -58.5t27.5 -51.5q12 -17 27.5 -30.5t26.5 -30.5z" />
    <glyph glyph-name="two" unicode="2" horiz-adv-x="479" 
d="M442 596q6 6 14 13.5t10 7.5q-9 -18 -24.5 -37t-33.5 -37t-36.5 -33t-35.5 -25q-19 -12 -33.5 -22t-26 -21t-21.5 -25t-21 -33q11 8 18.5 18.5t18.5 18.5q8 6 17.5 9t17 4t12 1t2.5 -1q-24 -8 -38.5 -23.5t-26.5 -34.5t-24.5 -39t-33.5 -36t-33 -34.5t-15 -45.5
q-2 -13 1 -21.5t16 -14.5q6 -4 11 -6.5t7 -10.5q2 -6 4.5 -14.5t4.5 -16.5t3 -13.5l1 -5.5q-12 25 -24 33.5t-20 8.5q-16 -1 -17.5 -12.5t4.5 -23.5q8 -14 21.5 -27.5l24.5 -24.5q18 -19 39.5 -25t46.5 -6q11 0 19 3t9 13q2 20 -2.5 34t-3.5 14q7 -6 15 -23t8 -41
q15 4 24 13.5t13.5 21.5t6 26.5t1.5 28.5q0 21 -0.5 48t-3 57t-7.5 61t-14 59l4 -8.5t8.5 -19t8.5 -19.5t5 -11q14 -29 19.5 -62.5t10.5 -65.5q6 -37 9.5 -74t0.5 -75q-4 -36 -14 -73t-24 -71q-6 -17 -20 -31.5t-29 -33.5t-28 -44t-16 -62q-2 0 -4 21.5t6 49.5q12 38 9 77
t-27 71q-16 22 -33 27t-43 13q2 -10 -1.5 -20.5t-5 -24t4 -32t24.5 -43.5q-1 0 -9.5 4.5t-18 12t-18 17.5t-11.5 21q-5 18 -5.5 29.5t-0.5 20t-0.5 15.5t-6.5 17q-13 23 -29.5 34.5t-39.5 22.5q-14 6 -24.5 14t-18.5 22q-4 8 -8 18t-2 19q-5 -1 -14.5 -5t-19.5 -8
t-19.5 -7.5t-14.5 -3.5q-2 0 1.5 3.5t9 7.5t10.5 7.5t7 4.5q23 17 34 43t20.5 53t22 51t38.5 36q-5 0 -11 1.5t-12 1.5q-9 0 -19 -5t-21 -21q-1 -1 -0.5 2t2 7.5t3 8.5t2.5 5q12 14 27.5 23.5t32.5 17t33.5 14.5t31.5 16q22 14 35.5 37.5t24.5 46.5q6 13 12 28t4 30
q-1 11 -4.5 21.5t-6.5 21.5l-7 -7t-8.5 -10t-8 -15t-3.5 -22l-1 4.5t-2 10.5t-1.5 11.5t-0.5 7.5q2 18 -2 27.5t-19 15.5q-8 4 -18 4q-26 0 -37 -29q-6 -14 -2.5 -25t9.5 -21.5t11.5 -22.5t4.5 -28q-1 -12 -4.5 -20.5t-4.5 -8.5v1q2 22 -2 36t-11.5 22t-16.5 12t-17 5
q-7 -16 -5 -30t8.5 -27.5t16.5 -26.5t19 -25q5 -5 12.5 -13t5.5 -8q-38 19 -68 46t-45 67q-13 33 -16.5 72t11.5 72q4 9 8.5 18t14.5 22q8 11 8.5 25t-2 26.5t-6 21t-2.5 8.5q16 -18 32 -30t33 -18.5t36.5 -9t42.5 -2.5q13 0 25 -1t24 -4q20 -6 39.5 -15.5t40.5 -10.5
q23 -1 42.5 10t37.5 23q19 12 31.5 30.5t20.5 35.5t12 30t4 16q0 -2 -1 -7.5t-2 -12t-2 -11.5t-1 -7q-6 -32 -17 -58.5t-33 -51.5q-11 -12 -22 -23t-21 -23q-6 -8 -11.5 -15.5t-9.5 -16.5q-2 -3 -5.5 -9.5t-1.5 -11.5q2 -6 11 -6t22.5 5t28 12t27.5 16t21 16z" />
    <glyph glyph-name="three" unicode="3" horiz-adv-x="509" 
d="M492 149q6 -30 4.5 -53.5t-0.5 -53.5q0 -2 -1.5 -9.5t-1.5 -9.5t-2 -7.5t-4 -11.5t-4.5 -10l-2.5 -4q5 21 3.5 28t-1.5 9q0 23 -3.5 47t-17.5 42q-2 -22 -6.5 -44.5t-14 -42.5t-25.5 -36.5t-41 -25.5q-17 -7 -35.5 -12t-32.5 -16q-16 -12 -24.5 -29.5t-13.5 -34.5
q-8 -32 -7.5 -66.5t6.5 -67.5q2 -16 -2.5 -31t-5.5 -15v1q2 17 0.5 29.5t-2.5 17.5q-6 21 -13 41.5t-11 42.5q-4 25 -7 49t-17 47q-13 20 -31.5 34t-41.5 24q-13 6 -25.5 11.5t-25.5 10.5q-11 5 -28 11.5t-48 2.5q-4 0 5 5t27 7q5 1 9 0.5t9 -0.5q6 1 11 1.5t3 6.5l-18 23
q-11 16 -20.5 32.5t-20.5 33.5q-9 15 -11.5 31.5t-1 34t6 35t8.5 33.5q3 13 10.5 20t9.5 7v-1q-12 -18 -9.5 -33t6.5 -22q4 20 15 35t26.5 25t34 15.5t37.5 5.5q37 0 72 -19q8 -4 20.5 -11.5t25 -16t23 -17.5t14.5 -17q-3 4 -7 7t-9.5 5.5t-14.5 4.5q-8 1 -16 1.5t-16 0.5
q-7 0 -20 -1.5t-25.5 -5t-22.5 -10t-11 -15.5q-2 -7 2.5 -11.5t10.5 -9.5q7 -5 12 -11t3 -5q-22 12 -44 12q-14 0 -24 -5.5t-13 -17.5q-5 -14 -0.5 -29.5t12.5 -27.5q8 -13 19 -23.5t24 -19.5q4 -3 11.5 -7.5t6.5 4.5q0 4 -2.5 6.5t-5.5 9.5q-7 13 -8 22t0 9
q11 -26 28 -38.5t28 -18.5q10 -5 20 -10.5t21 -8.5q10 -2 15 -2q26 0 48 17.5t34 34.5q15 20 17.5 43t-7.5 46q-7 14 -13.5 30t-3.5 33q2 10 7 18.5t6 8.5v-1q-6 -23 -2 -33l6 -15t7 -14t11 -9q4 0 8 8q5 11 -0.5 27t-10.5 26q-14 35 -43.5 57.5t-67.5 22.5q-14 0 -25.5 -4
t-19.5 -13q-2 -2 -1 3t6 12l10 6q-10 2 -20 1t-20.5 -3.5t-20.5 -5t-20 -2.5q-3 0 -10.5 2.5t-3.5 2.5q14 1 26 9.5t22 20.5t17.5 26t12.5 26t7.5 24t6.5 24t9.5 23t15.5 19q9 8 15.5 8t3.5 -2q-7 -4 -12.5 -13.5t-7.5 -19.5t-1 -19t6 -11q6 -3 12 2.5t11.5 14.5t10 19.5
t6.5 16.5q-5 5 0 13.5t10 16.5q-6 -2 -7 -2q-4 -2 -11 -4.5t-5 -0.5q21 15 21 31t-10.5 31t-26.5 27t-29 18q-1 -5 -6 -9.5t-8.5 -10.5t-3 -15.5t10.5 -24.5q1 -2 -7 4t-12 13q-9 14 -20 14q-14 0 -20.5 -13t-6.5 -25q0 -10 3 -25.5t-4 -32.5v9.5t-5 13.5q-8 8 -13 9t-8 6
q-6 -7 -3.5 -15t8.5 -16t12.5 -16t9.5 -14q6 -12 2 -29t-11.5 -32.5t-15 -26.5t-8.5 -11v0q14 33 11 48t-13 21t-23.5 8t-21.5 8q-6 5 -12 9.5t-11 9.5q-4 5 -6.5 10.5t-8 11t-16 9t-28.5 3.5h-3q-2 0 7 4t26 4q11 0 18 -2.5t16 -7.5q-8 17 -8 35.5t2 37.5q1 6 5.5 24.5
t11.5 38t15.5 34.5t16.5 15q-10 -11 -12.5 -29t0.5 -25q7 14 15 26t23 20q11 6 26.5 7.5t32 2l33 1t28.5 3.5q2 0 -1 -1t-7 -3t-8 -3.5t-6 -1.5q-1 0 -1.5 -0.5t-1.5 -0.5q20 -13 47 -17t51 -9q14 -2 25 -6.5t22 -10.5l18 -10t20 -4q10 0 19 5.5t19 7.5q14 1 19.5 -4t3.5 -5
t-3.5 0.5t-3.5 0.5q-10 0 -18.5 -5.5t-14.5 -13t-11 -16t-8 -15.5q-10 -18 -7.5 -38t2.5 -40q0 -14 -1.5 -28t-9.5 -26q-8 -11 -19.5 -19t-19.5 -19q5 -2 10.5 -4.5t10.5 -5.5l7.5 -7.5t3.5 -4.5q-20 7 -29 7q-8 0 -14.5 -2.5t-11.5 -9.5v-13l6 -2q10 -4 20 -5.5t19 -8.5
q11 -8 14 -18t5 -21q2 -18 11 -33.5t20 -31.5q18 -28 30 -59t18 -63z" />
    <glyph glyph-name="four" unicode="4" horiz-adv-x="492" 
d="M439 740q3 6 9.5 12t13.5 11t12 8l5 3q-24 -23 -28.5 -47t-2.5 -35q4 -21 -1 -40q-7 -21 -19.5 -39t-24.5 -36q-16 -23 -22 -47q-3 -16 -1.5 -32t3.5 -32q1 -6 1.5 -12.5t0.5 -13.5q3 9 8.5 19.5t0.5 38.5v1q2 0 6.5 -9t5.5 -13q4 -14 3.5 -28.5t-3 -28.5t-6 -28
t-5.5 -28q-3 -21 -0.5 -40t7.5 -39q5 -15 1.5 -25t-0.5 -26q5 -23 11.5 -29.5t5.5 -6.5q-10 3 -16 8t-9.5 10t-5.5 9t-4 5q-5 -15 -2 -31.5t7 -30.5q1 -6 1.5 -12.5t2.5 -11.5q4 -14 12.5 -14t19.5 2q20 4 29 -1t5 -5q-16 0 -28.5 -7t-23 -17t-19 -20.5t-15.5 -18.5
q-17 -20 -25 -43.5t-12 -48.5q-7 -45 -27.5 -91t-55.5 -78q-1 0 1 3.5t5 9l6 11t4 9.5q5 19 7 35t1 31.5t-3 31t-4 34.5q-2 16 -3 31.5t3 31.5q2 9 5.5 17.5t5.5 17.5q1 5 1.5 9t0.5 9q-9 1 -14 -3.5t-7 -9t-2.5 -7t-0.5 2.5q-3 23 1.5 35t6.5 19l4 20t1 18q-1 16 -5.5 28.5
t-8.5 28.5q-11 -2 -24 -15t-21 -19q-8 -5 -15.5 -9.5t-14.5 -11.5q-11 -10 -13.5 -21.5t-0.5 -25.5q2 -12 4 -21t5 -17t7 -17t10 -20q8 -8 15 -28.5t9 -31.5q2 -9 2 -20t-0.5 -20.5t-1.5 -15t-1 -2.5q-3 35 -10.5 54t-16.5 28t-17 11.5t-10 5.5q-27 32 -45 70t-32 77
q-9 26 -15.5 53.5t-18.5 52.5q-8 15 -10 27t12 25q8 8 16.5 14.5t16.5 15.5q18 21 31 43q15 24 20.5 51t-2.5 55q-4 12 -10.5 21t-14 18t-14 18t-11.5 19q-3 8 -3.5 16t0.5 17t2 17.5t-1 17.5q-4 11 -11 26t-16 22q-2 2 -5.5 4.5t-4.5 5.5q-2 4 -1.5 5.5t0.5 5.5
q2 26 -9 49.5t-28 42.5q-3 2 -11 6q-2 2 -1 4.5t4 1.5q13 -4 26 -12t24 -19t19.5 -23.5t11.5 -26.5q3 -13 8.5 -21.5t13.5 -18.5q6 -8 11.5 -15.5t10.5 -16.5q4 -9 6.5 -19t7.5 -19q12 -20 26 -36.5t23 -38.5q8 -17 12 -36t2 -38q-2 -22 -10 -41.5t-16 -39.5
q-8 -23 -10.5 -47.5t8.5 -46.5q6 -12 21.5 -25t30.5 -13q9 0 20 9q0 1 0.5 1.5t0.5 1.5q8 11 15 21t10 22q6 20 4 45q-4 0 -11 -1t-15 -15v0q-1 0 0 9t6 17q7 11 8.5 16.5t4.5 13.5q5 12 6.5 24.5t0.5 25.5q-1 18 -3 37t-4 36q-1 -1 -3 -1t-4.5 -2.5t-4 -8.5t-1.5 -18
q-2 0 -5.5 10t-1.5 17q5 21 7.5 30t9.5 22q5 11 1.5 21t-11.5 17.5t-19.5 12t-22.5 4.5q-8 0 -17 -3q-2 0 4.5 5.5t17.5 7.5q15 2 30.5 -1.5t31 -8.5t31 -9.5t30.5 -4.5q32 0 51.5 22t25.5 51q2 12 4.5 22.5t12.5 24.5z" />
    <glyph glyph-name="five" unicode="5" horiz-adv-x="593" 
d="M566 134q2 -1 4.5 -4.5t5 -7.5t4 -6.5t-0.5 -1.5q-25 12 -49 12q-43 0 -61 -32q-5 -10 -12.5 -18t-14.5 -16q-6 -7 -13 -12.5t-13 -11.5q8 0 17 -2.5t16 0.5q12 5 21 12.5t10 7.5q-3 -7 -12 -16t-19.5 -17.5t-21.5 -15.5t-17 -11q-17 -10 -33.5 -20.5t-28.5 -26.5
q-10 -12 -12 -26t-3 -29q-2 -11 -3 -23l-2 -24q-2 -19 -4.5 -36.5t-5.5 -36.5q-2 -14 -8 -26t-7 -12v0q11 58 2 105.5t-21 84.5l-18 48q-2 5 -4 11t-3 12q-1 0 -2 -1q-6 -2 -12 -9.5t-12.5 -16.5t-14.5 -17.5t-20 -12.5q-1 0 6.5 8t5.5 29q0 8 -5.5 13.5t-9.5 12.5
q-5 10 -13 14.5t-17 8.5q-16 7 -32.5 19t-31.5 26.5t-27.5 30t-21.5 30.5q-15 25 -20.5 50.5t-7.5 54.5q-1 17 -4.5 32.5t-8 31.5t-8 32t-3.5 34q0 20 3.5 32.5t5.5 12.5v-1q-1 -18 4.5 -38.5t16 -40t23.5 -36t27 -25.5q14 -10 27.5 -17.5t29.5 -12.5q8 -3 23 -8t30 -16
q-4 1 -9 2q-9 2 -19 -1q-2 0 -3 -2t-2 -3q9 -4 17 -8.5t18 -7.5q8 -2 14.5 -10t5.5 -8h-1q-9 7 -18 9.5t-17.5 3t-16 -0.5t-12.5 -1q-15 -2 -21.5 -8.5t3.5 -21.5q21 -33 57 -50t74 -17q15 0 30.5 2.5t29 9t23 16.5t12.5 25q4 20 -6.5 39.5t-27.5 30.5q-5 3 -17.5 6
t-25.5 6.5t-23.5 8t-13.5 10.5q5 0 18 -1.5t29 8.5q7 5 7.5 9.5t-2.5 9t-7.5 8.5t-7.5 7q-16 16 -33 26q-11 8 -23 13.5t-25 10.5q-8 2 -16 4.5t-15 7.5q-15 11 -14.5 25.5t-0.5 30.5q-1 13 -12 26.5t-25 13.5q-5 0 -11.5 -1.5t-17.5 -0.5q-15 2 -23 7.5t-5 5.5
q15 -2 27 1.5t21 9.5t15 13t9 12q8 13 7 20.5t-4 22.5q-3 17 2 30l7.5 17.5t7.5 21t3 20.5t-8 16q-10 8 -37 8q-16 0 -33.5 -4t-31.5 -14q-2 0 5.5 8.5t21.5 13.5q11 3 22 4.5t22 4.5q13 5 22.5 11.5t20.5 14.5q12 9 25 12.5t27 3.5h12t12 -2q27 -5 52.5 -13t52.5 -8
q15 0 24.5 3t23.5 11q6 3 9.5 12t8 21t12.5 26.5t21 29.5l3 3q2 0 -0.5 -7t-5.5 -17.5t-4.5 -23.5t1.5 -25q4 -15 2.5 -28t-5 -25.5t-7.5 -25.5t-5 -29q-1 -15 2.5 -29.5t8.5 -28.5l10 -28t8 -29q3 -20 2.5 -44t-6.5 -48t-16.5 -45t-27.5 -35h-1l2 4t5 11t5.5 15t2.5 15
q0 11 -1.5 16.5t-4 10t-6 10t-7.5 14.5q-5 -2 -11 -2.5t-12 -3.5t-11 -11t-7 -25q-2 0 -3.5 12t-1.5 16q1 12 3.5 19t5.5 11.5t6 8t5 9.5q4 14 2 27.5t-7 27.5q-5 16 -12.5 31t-18 27t-25 19t-32.5 7q-16 0 -25 -8q-11 -9 -11.5 -25.5t6.5 -28.5q5 -8 9 -17.5t9.5 -18.5
t13.5 -15.5t21 -8.5q3 0 -4.5 -2t-10.5 -2l-18 6q3 -15 9 -27.5t17 -25.5q13 -14 25.5 -25.5t25.5 -23.5q11 -9 19 -20.5t15 -23.5q6 -11 10.5 -22.5t12.5 -22.5q1 4 -0.5 7.5t0.5 8.5q4 13 10 21.5t7 8.5v-1q-6 -19 2 -38.5t12 -32.5q8 -41 28.5 -65t62.5 -33
q13 -2 25.5 -5.5t22.5 -11.5z" />
    <glyph glyph-name="six" unicode="6" horiz-adv-x="512" 
d="M454 795q12 4 25 4q11 0 16.5 -1.5t3.5 -2.5q-20 -3 -34 -8t-24.5 -12.5t-19.5 -18t-20 -26.5q-6 -9 -13.5 -17t-14 -16.5t-10 -17.5t-1.5 -20q3 -14 -3 -25t-7 -11v0q2 14 0.5 21.5t-4.5 11.5t-6 4.5l-3 0.5q-2 0 -5 -3.5t-6.5 -8t-6.5 -8.5t-4 -6q-11 -14 -18.5 -31.5
t-10.5 -34.5q-2 -11 -8 -19t-8 -8v1q4 12 3.5 20t-2 13.5t-3.5 9t-2 6.5q-23 -24 -44.5 -50.5t-22.5 -63.5q0 -20 5.5 -27.5t3.5 -7.5q-7 0 -13.5 13t-7.5 19q-9 -9 -15.5 -20t-12.5 -22q-5 -9 -12.5 -24t-2.5 -25q4 -8 16 -8q5 0 10 1l10 2l26 3q8 1 15 2t1 11
q-5 8 -17 14.5t-41 4.5q-3 0 6.5 3.5t27.5 4.5q11 1 19.5 0t18.5 -6q12 -6 20.5 -14t18.5 -16q8 -7 21 -9t26 -2q9 0 17.5 0.5t15.5 0.5q10 0 20 4t18 13.5t13.5 25.5t6.5 40l1.5 -4.5t2.5 -11t1.5 -13t0.5 -9.5q-1 -8 0 -16t-1 -16q-5 -11 -5 -18t5 -19q1 -3 3.5 -9.5
t6 -12.5t8 -9.5t10.5 -0.5q4 2 8.5 6t6.5 12t0.5 21t-9.5 31v0q1 0 10 -12t12 -23q5 -14 5.5 -27.5t-1.5 -27.5l-11 -74q-6 -34 -18 -69q-3 -9 -2 -11t12 7q4 3 8 7.5t8.5 13t8.5 21.5t7 34q0 3 0.5 -3.5t0.5 -16v-18.5v-11q-8 -45 -30 -88.5t-56 -74.5q-15 -14 -35 -21.5
t-34 -22.5q-9 -11 -7 -17.5t9 -12t15 -11t10 -13.5q5 -19 3.5 -30.5t-3.5 -6.5q-4 18 -12.5 28t-18.5 15.5t-20.5 7.5t-18.5 4q-7 2 -14 3t-14 1q-14 0 -26 -6q-17 -9 -21 -25.5t-3 -32.5q1 -19 0 -35.5t1 -39.5q2 -26 -5 -44t-9 -18v1q2 19 1 37t-3.5 33t-5.5 26.5t-5 19.5
q-4 23 -8 39.5t-11 30t-19 26t-32 26.5q-14 11 -27 22.5t-27 22.5q-2 -6 -5.5 -14t-6 -19t-2.5 -25.5t5 -33.5v-1q-2 0 -7 10.5t-8 35.5q-2 15 2 30t2 30q-2 16 -6 31l-8 30q-3 15 -5.5 30t-4.5 30l-5 26q-2 7 -3.5 13.5t-9.5 5.5q-6 0 -6 7q3 20 13.5 38t15.5 38
q2 12 1 24.5t-2 24.5q0 5 -0.5 13.5t-5.5 8.5q-2 0 -7 -3q-9 -7 -10.5 -18t-2.5 -11q-1 4 -0.5 12.5t1.5 18t3 18t5 11.5q6 9 16 12.5t17 11.5q5 5 10 17.5t10 26.5t9 28t5 21q-1 -1 -5.5 -3t-9.5 -16q-1 -2 -0.5 0.5t1 6t2 8t1.5 6.5q3 17 10.5 33t18.5 29t24 22t27 19
q17 13 32 27.5t30 29.5l17 15q-7 -2 -16.5 -3.5t-17.5 -19.5q-2 -2 -1 6t3 11q14 24 34.5 33.5t43.5 13t46 7.5t42 18q0 4 3 5q23 11 44 24.5t47 20.5zM184 295q-14 2 -28.5 3.5t-28.5 0.5q-2 -5 -6 -3q-9 -23 8 -46q5 -7 9 -13t4 -14q-1 -9 -5.5 -16t-8.5 -15
q-6 -11 -5 -21t4 -21q2 3 4.5 6t6.5 5q5 3 7 -2q10 -17 13.5 -32t3.5 -35q1 -14 7 -28.5t14 -26.5q3 10 5 19t6 19q2 5 8 3q11 -5 19 -13t17 -14q-2 11 -1.5 21t14.5 12q20 2 43 13.5t37 29.5q-4 0 -12 -3q-11 -3 -19.5 -1.5t-5.5 2.5q17 4 30.5 15t22.5 25.5t13 31t1 29.5
q-2 -2 -4.5 -3t-4.5 -3q-8 -11 -20 -16.5t-14 -5.5q-1 0 -1 0.5t1 0.5q15 14 18 29t-1.5 28t-15 22t-21.5 12q-11 2 -20.5 1t-20.5 1q-7 2 -13.5 5t-13.5 5l10 -19q7 -11 15 -16t12 -6q-17 1 -29.5 6t-22.5 11t-17 11t-14 6z" />
    <glyph glyph-name="seven" unicode="7" horiz-adv-x="514" 
d="M465 777q8 7 21 12t15 5q-15 -11 -26 -26t-20 -31.5t-16.5 -32t-14.5 -27.5q3 0 5.5 -1.5t1.5 -3.5q-2 -15 -5.5 -28.5t-12.5 -26.5l-43 -65q5 2 11.5 4t12.5 3q11 1 17.5 -3.5t4.5 -4.5q-15 0 -23 -3.5t-12.5 -9t-7 -11.5t-7.5 -10q-10 -8 -17.5 -19t-11.5 -23
q15 6 26.5 5.5t28.5 3.5q23 5 41 10.5t36 26.5q1 2 5 7.5t8.5 11.5t8 10.5t4.5 4.5q-3 -11 -8.5 -26t-14 -30t-18 -28.5t-19.5 -20.5q-12 -8 -25 -12.5t-27 -8l-28 -7t-27 -9.5q2 0 4.5 -1t4.5 -1q16 0 22 -4.5t3 -4.5q-18 0 -31.5 -5.5t-21.5 -10.5q-12 -5 -18.5 -13.5
t-10.5 -19.5q-8 -19 -13.5 -38t-11.5 -39q3 5 8 12t10 12q9 8 23 11t16 3q-12 -3 -23 -16t-19.5 -29t-14.5 -32.5t-8 -27.5q-2 -10 -4.5 -21.5t-2 -22t5 -21t15.5 -19.5q2 -2 -4 -2t-8 1q-11 3 -19 11q-3 -13 -6 -27.5t-2 -28t8.5 -23.5t25.5 -15q9 -2 14 -7.5t0 -4.5
q-21 3 -37 -4.5t-27 -19.5t-18 -27t-12 -27q-6 -15 -7.5 -29.5t-1.5 -29.5t-0.5 -31t-4.5 -34q-2 -10 -7.5 -20.5t-6.5 -10.5v1q5 21 4 38.5t-5 31.5t-9.5 26t-10.5 23q-7 16 -13.5 31t-7.5 32q-5 -5 -12.5 -11t-9.5 -29q-2 0 -5.5 9t-2.5 17q4 24 8.5 35.5t7.5 27.5
q4 17 1.5 33t3.5 33t16.5 31t18.5 30q8 14 10.5 30t4.5 31q-5 -6 -7.5 -11.5t-5 -11.5t-6.5 -12.5t-12 -14.5q-5 -6 -13.5 -11.5t-10.5 -5.5q8 10 12.5 24t8 28.5t7.5 28.5t11 24t15.5 18.5t13.5 18.5q5 11 6.5 21t4.5 21q-14 -7 -24.5 -6t-15.5 1q-4 1 8.5 3.5t23.5 14.5
q10 9 15.5 15t10.5 18q-7 -2 -13.5 -2.5t-13.5 -1t-15 -3t-19 -8.5q-15 -8 -30 -20t-25 -43q-1 -1 -1.5 2t-0.5 7.5t0.5 9.5t0.5 6q5 26 16 53t37 44q10 6 23.5 10.5t27 9.5t25 11.5t16.5 17.5q-8 2 -10 2q-3 1 -4 3.5t1 4.5q14 13 24 26.5t14 30.5q3 12 5.5 24t7.5 23
q-5 -2 -16 -5.5t-25 -22.5q-1 0 2.5 11t15.5 21q8 7 13.5 13t10.5 14q-12 1 -23.5 -3.5t-23.5 -6.5q-15 -2 -28.5 -2t-27.5 -5q3 -4 8 -14q4 -8 4.5 -20.5t-0.5 -12.5q-6 18 -20 26t-32 8q-3 0 -14.5 -3.5t-25 -8t-25.5 -9t-15 -6.5q-4 -3 -8 -5.5t-6.5 -10t-3 -23.5
t0.5 -45v0l-2.5 8t-5 18.5t-4.5 19.5t-2 11q2 29 10 58t28 53q-6 2 -1 7q7 5 16 10.5t14.5 14.5t4.5 21.5t-13 30.5v1q2 0 12 -5.5t13 -12.5q8 -15 19.5 -20t25.5 -5q10 0 21.5 1.5t23.5 3.5q5 1 18.5 5t25.5 9t18.5 9.5t-3.5 6.5q-8 2 -16.5 8.5t-7.5 6.5q19 -8 42 -10.5
t46 -2.5q14 0 32 1.5t36 4.5t34.5 8t28.5 12q9 7 15 11.5t20 16.5z" />
    <glyph glyph-name="eight" unicode="8" horiz-adv-x="519" 
d="M506 190q1 -26 -11 -47.5t-30 -42.5q-11 -11 -22 -23t-17 -26t-5 -29.5t-4 -29.5q-1 -3 -5.5 -14.5t-5.5 -11.5v1q6 27 -4.5 40t-21.5 18q-5 -7 -6.5 -14.5t-5.5 -15.5q-4 -6 -8.5 -10t-10.5 -9q-9 -8 -17 -15.5t-11 -18.5q-4 -9 -4 -15.5t2 -15.5q3 -18 0 -30.5
t-4 -29.5q-1 -9 -4.5 -19t-5 -21.5t1.5 -26t15 -33.5q2 -2 -5.5 3.5t-9.5 7.5q-19 15 -22.5 35t-4 40t-4 40t-22.5 35q-16 13 -36 19t-42 9.5t-44.5 6.5t-42.5 10l6 -11q5 -8 8 -18t2 -10v0q-8 15 -26 27t-34.5 24t-27.5 25t-6 31q7 20 18 39.5t18 39.5q6 16 6.5 32t2.5 33
q-14 -12 -26.5 -23.5t-17.5 -28.5q-1 -2 -4.5 -6.5t-7.5 -29.5q-1 -4 -2 7t2 25q0 3 2 7q6 23 12.5 44.5t22.5 41.5q10 13 22.5 24.5t24.5 24.5q10 11 15 23.5t13 24.5h-12q-8 2 -16.5 -3t-9.5 -5q14 19 34.5 30.5t28.5 22.5q8 9 12 18.5t9 18.5v3h1q0 3 3 3q2 2 4 0h2
q6 -2 9 -4q4 6 7 9q3 5 6.5 9t-1.5 8q-8 8 -33 8q-18 0 -38 -7q-2 0 7.5 8t23.5 13q8 2 15 2.5t15 1.5q-16 6 -30 14t-23 21q-14 21 -9.5 41t5.5 42q-3 -1 -7 -2t-7.5 -4t-7.5 -10.5t-8 -22.5q-1 -2 -1 1v7.5v9.5v6q2 30 19.5 54t45.5 41q-6 6 -8 10q-3 4 -4 8.5t-3 9.5
q-3 11 -7 19.5t-12 17.5q-6 6 -9 14t-3.5 14.5t0 9.5t1.5 0q8 -19 23 -31t22 -17q0 2 1.5 4t0.5 4q-5 11 -5 22.5t1 11.5q4 -13 12.5 -23t18 -17t20 -11t18.5 -6q14 8 28.5 10.5t29.5 2.5q14 0 27.5 -1.5t27.5 -3.5q13 8 24.5 13.5t17.5 22.5l2.5 5t6 10.5t8 10.5t8.5 6
q2 0 0 -3t-5.5 -8.5t-6.5 -13.5t-3 -18q0 -3 4.5 0.5t10.5 9.5t11.5 12.5t6.5 8.5q13 17 24 33.5t28 33.5q8 8 17 10.5t11 2.5q-13 -9 -22 -27t-14.5 -39.5t-8.5 -43.5t-5 -38q0 -8 -1 -12q15 -13 20.5 -30t-2.5 -37q-7 -21 -23.5 -37t-27.5 -36q-5 -10 -5 -22.5t0.5 -25.5
t-1 -27t-10.5 -27q-2 -4 0 6t-2 19q-2 3 -5 4t-5 3q-5 -21 0.5 -38t22.5 -35q8 -9 16.5 -17t15.5 -17q5 -7 9.5 -15t12.5 -14l5 7q7 9 7 19.5t2 10.5v-1q9 -15 14.5 -35t7 -42t-0.5 -43t-6 -38q3 2 7 1t4 -4zM386 176q4 10 -5.5 19t-24.5 9q-7 0 -19 -5q-2 0 3.5 8.5
t16.5 13.5q13 5 18.5 19t4.5 27q-2 14 -12 24t-24 18q-17 11 -22.5 22.5t-8.5 26.5q-8 -4 -20 -4q-17 0 -29 9l-1 1q-18 -5 -21 -20.5t-4 -29.5q-1 -17 -7.5 -25.5t-20.5 -19.5q-11 -9 -14.5 -21t-8.5 -23q-4 -13 -8 -25.5t-11 -24.5l-15 -21q-2 -4 -5 -9.5t-3.5 -10.5
t2.5 -7.5t12 0.5q14 4 24 1t7 -4q-27 -8 -38 -27.5t-11 -35.5q1 -19 21.5 -27t40.5 -11q17 -3 34.5 -7t29.5 -12q-2 13 -1.5 26.5t8.5 24.5q5 8 12.5 12t16.5 9q34 17 24 43q-5 11 -4.5 20.5t2.5 9.5q5 -22 15 -28t15 -8q-2 9 -1.5 18.5t8.5 18.5q6 7 13 12t11 14zM226 507
q3 -22 24 -42t40 -34v-1q6 8 13 15.5t10 17.5q3 12 5.5 25.5t-5.5 27.5q-5 8 -6.5 11t-0.5 3q2 0 7.5 -5.5l8.5 -8.5l5 -4q-1 7 -3.5 16.5t-5.5 19.5t-5 19t-1 16q0 -2 3.5 -8.5t12.5 -10.5q1 0 3.5 2.5t3.5 2.5q7 12 2 23.5t-22 11.5q-20 0 -38.5 -14t-21.5 -34q0 -3 -2 3
t-4 16l-4 2q-7 -8 -7.5 -15t1 -14t4 -14.5t0.5 -17.5q-1 -6 1 -12t5 -10.5l5 -7.5t1 -3q-12 5 -18 14t-11 10z" />
    <glyph glyph-name="nine" unicode="9" horiz-adv-x="519" 
d="M484 753q12 0 18 -2.5t4 -3.5q-33 -9 -55 -27.5t-34.5 -41t-16.5 -46t0 -43.5q3 -17 8.5 -32t7.5 -32q1 -14 -2.5 -41t4.5 -71v-1q-3 0 -13 17.5t-13 48.5q-1 6 0 13.5t1 15.5t-2 15t-7 11q-9 -39 -0.5 -80.5t14.5 -79.5q3 -21 1.5 -43.5t-2.5 -48t2 -54t15 -60.5v-1
q-3 0 -14.5 12t-16.5 28q-5 14 -7.5 28t-8.5 28q-2 -9 -2 -18t-2 -18q-2 -12 -6 -23l-8 -22q-10 -27 -9.5 -50t18.5 -46q3 -4 10 -10.5t13 -12t8.5 -9t-3.5 -2.5q-17 2 -30.5 3.5t-25.5 1.5q-39 0 -59 -13q-9 -6 -16 -13t-13 -15.5t-13 -17.5t-17 -19q-13 -13 -23 -21.5
t-24 -21.5q-19 -17 -27 -37t-16 -46q-8 -29 -3 -77.5t35 -111.5v-1q-1 0 -5 4l-9 9l-9.5 9.5t-5.5 6.5q-12 18 -17.5 38.5t-8.5 43.5l-6 48t-8 48q-6 28 2 64.5t18.5 74t18 72t2.5 56.5v1q2 0 10.5 -15t9.5 -44q0 -12 0.5 -18.5t1.5 -11t2 -8.5t2 -10q3 11 9 22q5 8 11 16
t11 16q6 12 11.5 23.5t9 24t3.5 28t-5 34.5q-3 10 -3.5 19.5t0.5 16t2.5 9t1.5 -0.5q4 -30 15.5 -53.5t13.5 -36.5q8 12 17.5 30.5t13 37t-2.5 36t-29 28.5q-2 1 2 1.5t10 0t12 -1.5t8 -3q3 -2 6 -4.5t6 -5.5q2 17 0 33t3 33q4 12 9 25t5 27q-7 -12 -18.5 -22.5t-23.5 -23.5
t-22 -30.5t-14 -42.5q0 -1 -1 2.5t-1.5 10t0 14.5t2.5 14q1 4 0.5 8t0.5 8q-14 -8 -27 -17.5t-24 -22.5q-14 -17 -18.5 -48t3.5 -70v-1l-2 5t-4 11.5t-4 12.5t-3 8q-7 12 -8.5 25.5t-3.5 26t-7 24t-18 19.5q-11 7 -21.5 12.5t-19.5 16.5q-4 5 -9.5 13t-12 15.5t-15 13.5
t-19.5 7q-3 0 2 3t13 3t16 -4q5 -2 9 -4.5t9 -3.5q6 -2 10.5 0.5t9.5 5.5q-9 16 -12 33.5t-3.5 35.5t0 36t-2.5 36q-2 15 2.5 29.5t5.5 14.5v-1q-4 -32 2 -44.5t10 -17.5q4 40 23 77q10 20 23.5 36t18.5 38q3 9 7 18.5t8.5 17t8 12l3.5 4.5q-11 -30 -12 -46.5t1 -21.5
q28 16 61 55q7 8 15 14t16 14.5t15.5 20t13.5 30.5q1 0 1 -7.5t-2 -18t-6.5 -21.5t-12.5 -19t-8.5 -11.5t-1.5 -5.5q13 2 27 1t28 -1t28 1t26 6q13 5 25 13.5t23 17.5q17 14 38 23.5t44 9.5zM256 535q-2 42 27 63q-4 1 -7 1.5t-7 0.5q-18 0 -33 -12.5t-23 -30.5
q-3 -8 -7 -14.5t-13 -6.5q-3 1 -5 2t-5 1q-6 6 -11 -2l-3 -5q-4 -4 -11.5 -17t-15 -27t-13.5 -27t-6 -18q-1 -11 1.5 -21.5t5.5 -21.5q14 2 28 2t26 12q8 8 13.5 17.5t13.5 18.5q4 4 7 0l8 -16q7 11 13.5 22t11.5 23q6 15 5.5 28t-0.5 28z" />
    <glyph glyph-name="colon" unicode=":" horiz-adv-x="122" 
d="M102 208q2 -8 5.5 -16.5t2.5 -17.5q0 -14 -9 -28q-5 -7 -11.5 -12t-10.5 -13q-4 -7 -8 -19q-2 -5 -3 -13.5t2 -21.5q-1 2 -3 6.5t-3 6.5q-1 5 -1.5 10.5t-0.5 10.5q-1 5 -1.5 10.5t-3.5 9.5q-2 2 -5.5 3.5t-5.5 3.5q-4 6 -6 10q-1 1 -1 3q-8 2 -18.5 7t-12.5 15
q-1 4 -1 11q-1 5 -1.5 8.5t-1.5 7.5q-2 8 1.5 14.5t6.5 13.5q0 1 1 1t1 -1q6 -8 12 -1q2 2 3.5 4t3.5 4q3 4 8 7t8 8q5 6 4.5 15t-0.5 17t0.5 15t3.5 14q0 1 2 5.5t2 2.5q-2 -8 -2.5 -17.5t1.5 -17.5q2 -7 9 -17.5t15.5 -20.5t17 -18t14.5 -10q2 -1 -3.5 -1.5t-6.5 0.5
q-1 0 -2 0.5t-2 0.5zM98 498q2 -8 5.5 -16.5t2.5 -17.5q0 -14 -9 -28q-5 -7 -11.5 -12t-10.5 -13q-4 -7 -8 -19q-2 -5 -3 -13.5t2 -21.5q-1 2 -3 6.5t-3 6.5q-1 5 -1.5 10.5t-0.5 10.5q-1 5 -1.5 10.5t-3.5 9.5q-2 2 -5.5 3.5t-5.5 3.5q-4 6 -6 10q-1 1 -1 3q-8 2 -18.5 7
t-12.5 15q-1 4 -1 11q-1 5 -1.5 8.5t-1.5 7.5q-2 8 1.5 14.5t6.5 13.5q0 1 1 1t1 -1q6 -8 12 -1q2 2 3.5 4t3.5 4q3 4 8 7t8 8q5 6 4.5 15t-0.5 17t0.5 15t3.5 14q0 1 2 5.5t2 2.5q-2 -8 -2.5 -17.5t1.5 -17.5q2 -7 9 -17.5t15.5 -20.5t17 -18t14.5 -10q2 -1 -3.5 -1.5
t-6.5 0.5q-1 0 -2 0.5t-2 0.5z" />
    <glyph glyph-name="semicolon" unicode=";" horiz-adv-x="115" 
d="M110 207q0 -3 -2 -1q-5 3 -6.5 -4.5t-1.5 -9.5q-1 -7 1.5 -13t0.5 -13q-2 -1 -4 -5.5t-2 -6.5q-1 -2 -1.5 -3.5t-1.5 -3.5q-3 -8 -9 -14t-11 -12q-7 -8 -12 -15.5t-10 -15.5q-5 -5 -7.5 -10.5t-8.5 -9.5q-2 -1 -2.5 0t0.5 2h1q6 9 11 19q3 5 5 12q2 2 2 5t1 5q4 6 4 11
q0 6 -9 8q-5 2 -8 4t-8 4q-3 2 -6 3.5t-5 5.5q-2 2 -2 8q-1 2 -2 4.5t-1 4.5q-1 5 -1.5 10.5t-2.5 10.5t-4.5 8.5t-4.5 8.5q-1 1 1 1t6 -2q4 -1 4 4q0 9 4 14q2 3 6 5.5t7 6.5q3 3 6 7t5 9q0 1 1 1t1 -1q0 -5 3 -3t5 3q6 4 9 5q5 3 8.5 5.5t8.5 6.5l6.5 6.5t7.5 6.5t7.5 5.5
t7.5 5.5q3 0 1 -2q-7 -7 -12 -21q-2 -6 -4 -9q-2 -4 -3.5 -6t0.5 -7q3 -13 11 -22q3 -4 5.5 -7.5t4.5 -8.5zM97 498q2 -8 5.5 -16.5t2.5 -17.5q0 -14 -9 -28q-5 -7 -11.5 -12t-10.5 -13q-4 -7 -8 -19q-2 -5 -3 -13.5t2 -21.5q-1 2 -3 6.5t-3 6.5q-1 5 -1.5 10.5t-0.5 10.5
q-1 5 -1.5 10.5t-3.5 9.5q-2 2 -5.5 3.5t-5.5 3.5q-4 6 -6 10q-1 1 -1 3q-8 2 -18.5 7t-12.5 15q-1 4 -1 11q-1 5 -1.5 8.5t-1.5 7.5q-2 8 1.5 14.5t6.5 13.5q0 1 1 1t1 -1q6 -8 12 -1q2 2 3.5 4t3.5 4q3 4 8 7t8 8q5 6 4.5 15t-0.5 17t0.5 15t3.5 14q0 1 2 5.5t2 2.5
q-2 -8 -2.5 -17.5t1.5 -17.5q2 -7 9 -17.5t15.5 -20.5t17 -18t14.5 -10q2 -1 -3.5 -1.5t-6.5 0.5q-1 0 -2 0.5t-2 0.5z" />
    <glyph glyph-name="less" unicode="&#x3c;" horiz-adv-x="523" 
d="M439 426v-20t3 -19l3 -6q0 -2 -1 -2.5t-2 1.5q-2 2 -2 5q-8 13 -22 8q-8 -2 -14 -6.5t-12 -9.5q-15 -11 -27.5 -16.5t-30.5 -8.5q-8 -1 -17 -1.5t-16 -5.5t-10 -12t-8 -13q-5 -5 -10 -6t-12 1l-8 2t-8 1q-12 0 -21 -6q-9 -5 -17.5 -11t-17.5 -11q-9 -6 -17.5 -11.5
t-17.5 -11.5q8 -4 17.5 -5.5t18.5 -3.5q8 -2 17 -3t17 -3q5 -1 8.5 -1.5t8.5 -1.5q4 0 8 0.5t7 3.5q3 2 -0.5 4t-5.5 3q-8 2 -12 4q-3 3 0 3q9 3 19 3q17 0 36 -7q8 -4 14.5 -10.5t14.5 -12.5q4 -3 8 -5.5t9 -3.5q5 0 7.5 1.5t6.5 1.5q5 2 9.5 0t9.5 -4q12 -4 23 -10
q6 -2 11.5 -4.5t12.5 -3.5q6 0 11 2.5t10 4.5q2 1 2.5 0t-0.5 -2q-4 -12 -2.5 -24.5t6.5 -24.5q4 -11 9.5 -21t10.5 -21q4 -8 7 -17t7 -17q5 -11 11 -20t14 -17q1 -2 0 -3t-2 0q-16 7 -26 20t-21 26q-5 6 -10.5 11.5t-13.5 8.5q-8 4 -15.5 5t-15.5 2q-18 2 -34.5 6t-33.5 9
q-17 6 -35 9.5t-36 0.5q-8 -1 -15 -0.5t-15 4.5t-14.5 9t-13.5 10q-2 1 -1.5 2t1.5 1h27q-8 10 -23 11t-26 3q-32 5 -55 13t-44 35q-2 3 -6 11q-4 6 -11 10t-14 7t-14 8q-5 4 -10.5 8t-12.5 8q-5 3 -9.5 6t-6.5 8q-1 2 0.5 2.5t2.5 -0.5q24 0 49 16.5t41 33.5q13 14 22 31.5
t23 30.5q0 1 1 0.5t1 -1.5q-2 -6 -4 -13t-2 -14q0 -6 4 -9q3 -2 7 -1.5t7 2.5q5 2 10.5 5t10.5 6q4 3 8 5t8 5q7 5 12 11t12 10q8 4 15 4t15 -1q12 -2 20 1q5 2 8.5 4t7.5 4q11 8 30 22t27 25q9 13 16 28t19 26q3 3 3 -2q-2 -3 -3 -7.5t1 -7.5q2 -2 5 -2h5q12 2 26 10.5
t25 16.5q24 17 44 36.5t43 36.5q2 1 2.5 0t-0.5 -2q-7 -11 -16 -21t-15 -22q-7 -12 -11.5 -25.5t-8.5 -26.5q-2 -6 -2.5 -12.5t-2.5 -12.5q-3 -12 -10 -22q-8 -13 -11 -23t-5 -25z" />
    <glyph glyph-name="equal" unicode="=" horiz-adv-x="458" 
d="M456 310q1 1 2 0.5t0 -2.5q-2 -8 -7 -15t-10 -15t-8 -15.5t-3 -16.5t-1 -19.5t2 -18.5t10 -12t14 -9q3 -3 -2 -3q-17 4 -34 11.5t-36 6.5q-10 0 -19 -2t-19 -4q-9 -1 -18.5 0t-18.5 -1q2 -4 3 -5q0 -3 -1 -3q-6 1 -11 3.5t-10 5.5q-6 3 -12 5t-14 2t-21 -2t-20 -7
q-5 -4 -1 -7t7 -5q11 -7 22.5 -10.5t22.5 -8.5q2 0 1.5 -1.5t-2.5 -1.5q-12 2 -23.5 4.5t-22.5 5.5q-18 4 -36 14q-10 5 -22.5 10t-25.5 5q-10 0 -18 -5q2 -4 5.5 -7t7.5 -6q3 -3 -2 -3q-9 2 -18 5.5t-18 6.5q-24 8 -47 8q-13 0 -20 -7q-5 -5 -9 -9.5t-10 -7.5q-4 0 -1 3
q5 9 5.5 20.5t5.5 20.5q-5 -1 -10 -8q-1 -2 -2 -1.5t-1 1.5q0 7 1.5 13.5t3.5 13.5q5 16 -1 30q-5 11 -14.5 19t-17.5 19q-1 1 -0.5 2t2.5 0t11 -4t20 -6t22.5 -5.5t19.5 -2.5q9 0 9 4t2 2q17 -13 37.5 -15.5t40.5 -4.5q8 0 15.5 -0.5t15.5 0.5q7 0 14.5 2t9.5 8
q-5 3 -9.5 6t-9.5 5q-2 1 -1 2.5t3 0.5q11 -5 24 -5.5t25 -5.5q6 -2 13 -5t14 -3q5 0 13 2h14l14 -2t14 -1q5 -1 10.5 -0.5t10.5 0.5q4 -2 8 0q3 1 2 3t-3 4q-7 6 -17 9q-1 0 -1 1.5t2 1.5q15 -5 30 -8t30 -3q20 0 36.5 6t32.5 17zM-18 478q-1 1 -0.5 2t2.5 0t11 -4t20 -6
t22.5 -5.5t19.5 -2.5q9 0 9 4t2 2q17 -13 37.5 -15.5t40.5 -4.5q8 0 15.5 -0.5t15.5 0.5q7 0 14.5 2t9.5 8q-5 3 -9.5 6t-9.5 5q-2 1 -1 2.5t3 0.5q11 -5 24 -5.5t25 -5.5q6 -2 13 -5t14 -3q5 0 13 2h14l14 -2t14 -1q5 -1 10.5 -0.5t10.5 0.5q4 -2 8 0q3 1 2 3t-3 4
q-7 6 -17 9q-1 0 -1 1.5t2 1.5q15 -5 30 -8t30 -3q20 0 36.5 6t32.5 17q1 1 2 0.5t0 -2.5q-2 -8 -7 -15t-10 -15t-8 -15.5t-3 -16.5t-1 -19.5t2 -18.5t10 -12t14 -9q3 -3 -2 -3q-17 4 -34 11.5t-36 6.5q-10 0 -19 -2t-19 -4q-9 -1 -18.5 0t-18.5 -1q1 -2 1 -2.5t2 -2.5
q0 -3 -1 -3q-6 1 -11 3.5t-10 5.5q-6 3 -12 5t-14 2t-21 -2t-20 -7q-5 -4 -1 -7t7 -5q11 -7 22.5 -10.5t22.5 -8.5q2 0 1.5 -1.5t-2.5 -1.5q-12 2 -23.5 4.5t-22.5 5.5q-18 4 -36 14q-10 5 -22.5 10t-25.5 5q-10 0 -18 -5q2 -4 5.5 -7t7.5 -6q3 -3 -2 -3q-9 2 -18 5.5
t-18 6.5q-24 8 -47 8q-13 0 -20 -7q-5 -5 -9 -9.5t-10 -7.5q-4 0 -1 3q5 9 5.5 20.5t5.5 20.5q-5 -1 -10 -8q-1 -2 -2 -1.5t-1 1.5q0 7 1.5 13.5t3.5 13.5q5 16 -1 30q-5 11 -14.5 19t-17.5 19z" />
    <glyph glyph-name="greater" unicode="&#x3e;" horiz-adv-x="524" 
d="M65 474q-7 10 -10 22q-2 6 -2.5 12.5t-2.5 12.5q-4 13 -8.5 26.5t-11.5 25.5q-6 12 -15 22t-16 21q-1 1 -0.5 2t2.5 0q23 -17 43 -36.5t44 -36.5q11 -8 25 -16.5t26 -10.5h5t5 2q2 3 1 7.5t-3 7.5q0 5 3 2q12 -11 19 -26t16 -28q4 -5 13.5 -13.5t20 -17t21.5 -15.5t18 -9
q8 -3 20 -1q8 1 15 1t15 -4q7 -4 12 -10t12 -11q4 -3 8 -5t8 -5q5 -3 10.5 -6t10.5 -5q3 -2 7 -2.5t7 1.5q4 3 4 9q0 7 -2 14t-4 13q0 1 1 1.5t1 -0.5q14 -13 23 -30.5t22 -31.5q16 -17 41 -33.5t49 -16.5q1 1 2.5 0.5t0.5 -2.5q-2 -5 -6.5 -8t-9.5 -6q-7 -4 -12.5 -8
t-10.5 -8q-7 -5 -14 -8t-14 -7t-11 -10q-4 -8 -6 -11q-21 -27 -44 -35t-55 -13q-11 -2 -26 -3t-23 -11h27q1 0 1.5 -1t-1.5 -2q-7 -5 -13.5 -10t-14.5 -9t-15 -4.5t-15 0.5q-18 3 -36 -0.5t-35 -9.5q-17 -5 -33.5 -9t-34.5 -6q-8 -1 -15.5 -2t-15.5 -5q-8 -3 -13.5 -8.5
t-10.5 -11.5q-11 -13 -21 -26t-26 -20q-1 -1 -2 0t0 3q8 8 14 17t11 20q4 8 7 17t7 17q5 11 10.5 21t9.5 21q5 12 6.5 24.5t-2.5 24.5q-1 1 -0.5 2t2.5 0q5 -2 10 -4.5t11 -2.5q7 1 12.5 3.5t11.5 4.5q11 6 23 10q5 2 9.5 4t9.5 0q4 0 6.5 -1.5t7.5 -1.5q5 1 9 3.5t8 5.5
q8 6 14.5 12.5t14.5 10.5q19 7 36 7q10 0 19 -3q3 0 0 -3q-4 -2 -12 -4q-2 -1 -5.5 -3t-0.5 -4q3 -3 7 -3.5t8 -0.5q5 1 8.5 1.5t8.5 1.5q8 2 17 3t17 3q9 2 18.5 3.5t17.5 5.5q-9 6 -17.5 11.5t-17.5 11.5q-9 5 -17.5 11t-17.5 11q-9 6 -21 6q-4 0 -8 -1l-8 -2
q-7 -2 -12 -1t-10 6q-5 6 -8 13t-10 12t-16 5.5t-17 1.5q-18 3 -30.5 8.5t-27.5 16.5q-6 5 -12 9.5t-14 6.5q-14 5 -22 -8q0 -3 -2 -5q-1 -2 -2 -1.5t-1 2.5l3 6q3 9 3 19v20q-2 15 -5 25t-11 23z" />
    <glyph glyph-name="question" unicode="?" horiz-adv-x="374" 
d="M353 592l-3 -15q0 -5 0.5 -9t0.5 -8q0 -18 -3 -36q-5 -19 -13 -36t-19 -34q-10 -14 -19.5 -28.5t-17.5 -30.5q-3 -7 -3 -15.5t11 -9.5q6 0 12.5 2t12.5 0q4 0 1 -3q-10 -7 -25 -20t-29.5 -28.5t-25 -31.5t-12.5 -30q-2 -6 0 -13q0 -1 0.5 -2t0.5 -2q1 -3 6 -2q5 2 10 4.5
t10 4.5q2 1 2.5 0t-0.5 -2q-17 -13 -21.5 -34.5t-12.5 -39.5q-5 -11 -10 -20.5t-8 -20.5q-4 -12 -3 -24t4 -24q0 -1 -1 -2t-2 1q-10 11 -15 26.5t-19 24.5q-2 -4 -2.5 -7.5t-2.5 -7.5q-6 -13 -16 -21q-3 -3 -3 1q7 20 2 43q-2 8 -5 15t-5 15q-2 9 -1.5 17t2.5 17q3 11 3 22
t-5 22q-5 -2 -9 -2.5t-9 -1.5q-1 -1 -1.5 0t0.5 2q11 12 20 27t17 31t15 32.5t12 30.5q2 5 3 11t3 12l3 12q2 5 0 7t-4.5 0t-3.5 -4q-5 -5 -8 -9.5t-7 -9.5q-3 -3 -3 1q2 15 9.5 28t16.5 24t18.5 22t14.5 25q10 27 -1 56q-2 6 -6 12.5t-10 10.5q-5 3 -10.5 3t-8.5 -6
q-5 -10 -4.5 -21.5t-3.5 -22.5q0 -1 -1.5 -1t-1.5 2q2 17 -9 30q-8 11 -22 17.5t-28 6.5t-25.5 -5.5t-18.5 -17.5l6 -2t6 -1q4 0 1 -3q-16 -16 -25 -36q-15 -37 -8.5 -79t33.5 -71q1 -1 0 -2t-3 0q-22 20 -35.5 49t-18.5 58q-1 8 -1 15.5v15.5q1 9 2 17.5t2 17.5q3 23 -6 46
l-4 10l-4 10q-2 3 -4.5 6.5t-7.5 3.5q-1 0 -1 2q12 23 3 45q-5 11 -10.5 19.5t-10.5 18.5q-6 10 -12 19.5t-15 17.5q-8 7 -17 13.5t-17 15.5h-1q-2 1 -1 2.5t3 0.5q14 -8 28.5 -14.5t28.5 -13.5q11 -6 23.5 -10.5t23.5 -12.5q9 -6 17 -13.5t18 -12.5q19 -8 44 -5q12 1 24 4
t21 11q-4 5 -9.5 8.5t-11.5 6.5q-2 0 -1 1.5t2 1.5q10 -4 20 -6l20 -4q21 -3 37 -10q9 -4 20 -7.5t22 -3.5q12 0 22 6h2q5 -10 9.5 -20t10.5 -19q13 -20 33 -33q11 -6 19 0q5 4 8 8t6 9q5 6 9 12.5t6 14.5q1 2 2.5 2t1.5 -2q-1 -18 -9.5 -34t-13.5 -33zM232 48q3 0 1 -2
q-3 -8 -4 -15.5t-2 -15.5q0 -7 0.5 -13.5t-1.5 -12.5q-1 -6 -3 -11.5t-4 -10.5t-2.5 -11t3.5 -11q0 -2 -1 -3q-13 -4 -26.5 -7.5t-19.5 -17.5q-8 -14 -8.5 -30.5t-0.5 -32.5q0 -2 -1 -2t-1 2q-6 15 -5 31t-1 32q0 8 -2 11q-3 4 -11 10q-10 4 -17 4q-9 0 -13 -4q-1 0 -3 2
q0 11 -3.5 20t-3.5 20l2 20t6 18q-4 2 -6 2t-2 2q6 20 27 32t41 10q-1 4 -7 12q-2 2 2 2q19 -12 34 -25q8 -7 16 -8q6 -1 16 3z" />
    <glyph glyph-name="at" unicode="@" horiz-adv-x="581" 
d="M580 309q1 -1 -0.5 -2t-2.5 0q-6 5 -11.5 10.5t-12.5 8.5q-4 -5 -5 -12l-2 -14q-2 -8 -2 -15t-1 -15q0 -8 -0.5 -16t-0.5 -16q-1 -6 -1.5 -13t-3.5 -13q-2 -3 -5.5 -5t-7.5 -4q-16 -7 -28 -15q-8 -5 -12 -12.5t-9 -15.5q-7 -11 -21 -20q-14 -10 -27.5 -18t-23.5 -22
q-1 -2 -2 -1.5t-1 2.5q2 8 2.5 15.5t2.5 15.5q-14 -1 -27.5 -1.5t-24.5 9.5q-13 12 -12 27.5t-3 30.5q-7 -10 -11.5 -18t-7 -15.5t-3.5 -16.5t-2 -22q0 -3 -2 -1q-7 2 -13 4t-13 2q-10 0 -18 -8q-13 -13 -16 -29.5t-8 -33.5q0 -3 -3 0q-3 6 -3 12t0.5 12t0 11.5t-5.5 10.5
q-7 8 -16 11.5t-17 8.5t-15 8.5t-15 8.5q-14 8 -27 20t-15 29v1h1q8 -2 14 -5.5t13 -5.5q-6 21 -14 41.5t-9 43.5q0 22 3 43t3 43q0 4 -0.5 8t0.5 8q0 2 1.5 2t1.5 -2q0 -4 0.5 -8t0.5 -8v-5q2 -5 3 -10t5 -8q14 13 16.5 31.5t9.5 35.5q8 19 22.5 41.5t27.5 38.5q3 3 3 -2
q-6 -9 -9 -20q11 -4 21.5 2.5t19.5 14.5q17 15 36 18q11 2 23 2t23 -2q8 -1 15 -2t15 -1q12 0 23 4q11 5 20.5 10.5t20.5 7.5q1 1 2 0t0 -2q-11 -9 -18 -22t-2 -27q2 -7 4.5 -13t0.5 -14q-2 -5 -4.5 -11t-4.5 -11q-3 -7 -5.5 -13t-3.5 -13q-2 -5 1 -9q2 -2 5 -1.5t5 0.5
q1 1 2 0t0 -2q-4 -6 -10.5 -12.5t-11 -14t-5.5 -15t6 -14.5l1 -2q-13 -24 -15 -53q-1 -10 1 -21t13 -16q6 -2 13 -1.5t13 2.5q8 3 14.5 7.5t11.5 11.5q8 12 9 27.5t1 29.5t0.5 27.5t5.5 26.5q1 1 3 1q2 -2 6 -4q6 15 5.5 32.5t-3.5 32.5q-3 17 -7 34t-7 34q-1 7 -2.5 14
t-4.5 13q-9 25 -34.5 39t-50.5 14q-13 0 -28 -3q-10 2 -19.5 3.5t-20.5 1.5q-26 0 -44.5 -9.5t-39.5 -25.5q-14 -10 -29.5 -13t-29.5 -12q-13 -8 -20 -23t-8 -31q-2 -36 -13 -66q-1 -2 -2.5 -2t-1.5 2q0 5 -0.5 11t-2.5 11q-2 6 -6 7q-3 1 -7 -1.5t-6 -4.5q-11 -9 -14 -24
t-4 -29q0 -15 7 -28q3 -5 6.5 -10.5t5.5 -11.5q6 -17 3 -33t-7 -33q-4 -14 -1 -26q2 -7 5.5 -13t7.5 -12q0 -2 -1 -2q-6 -2 -8 -3q4 -8 11 -13.5t12 -13.5q6 -9 5.5 -20.5t3.5 -21.5q8 -20 26 -30t37 -18q3 0 0 -3q-9 -2 -10 -6q5 -2 8.5 -4t8.5 -4q12 -6 23 -6h12t13 1
q5 1 9.5 1.5t9.5 -0.5q6 0 11 -3.5t10 -6.5q15 -7 35 -4q9 2 18 6.5t18 8.5t18 3.5t19 1.5q20 4 37.5 14.5t32.5 23.5q17 14 35 26.5t37 23.5q1 1 2 0t0 -2q-3 -9 -12 -17q-4 -2 -8 -4.5t-8 -7.5q-12 -9 -21 -20.5t-17 -23.5q-8 -11 -16 -20.5t-19 -17.5q-10 -8 -20.5 -14.5
t-19.5 -14.5q-16 -15 -31 -24q-17 -10 -33.5 -18.5t-29.5 -22.5q-12 -13 -17.5 -25t-10.5 -29t-6 -35.5t0 -35.5q0 -4 -3 -1q-8 12 -10 25.5t-3 27.5q-1 19 -4 30.5t-10 19.5t-17.5 13.5t-27.5 12.5q-13 5 -25.5 10t-25.5 12q-10 5 -19.5 12.5t-15.5 18.5q0 2 2 2
q4 -2 11 -3.5t10 3.5q2 5 0.5 10t-3.5 8q-7 13 -17.5 22t-21.5 18q-29 26 -44 48.5t-29 57.5q-5 15 -5.5 32t-8.5 32q0 4 3 1l3.5 -3.5t5.5 -4.5t6 -3t4 2q2 5 1.5 11.5t-1.5 11.5q-1 6 -1.5 12t-1.5 13q-1 24 0 48v23t1 23l6 45q4 23 5 47.5t-6 47.5q-7 22 -15.5 43.5
t-13.5 44.5q-1 1 0 1.5t2 -0.5q13 -10 32 -28.5t26 -33.5q14 8 27 21.5t24 29t19 32.5t11 32q0 2 1.5 1.5t1.5 -1.5q0 -11 13 -11q7 0 16.5 3.5t19.5 8t19 9.5t15 8q3 2 6.5 4.5t5.5 5.5q5 5 7.5 11t4.5 13q5 15 7.5 31.5t4.5 32.5q2 14 4.5 27.5t9.5 25.5q3 3 3 -1
q-1 -18 0 -36t8 -35q3 -10 8.5 -19.5t10.5 -18.5q8 -14 19 -23t26 -15q16 -6 33 -9.5t33.5 -7t31.5 -10t28 -19.5q1 -2 0 -3t-3 0q-9 11 -17 3q10 -8 16.5 -18.5t12.5 -21.5q13 -22 32 -45q8 -10 16 -19t16 -20q14 -19 18 -42q5 -24 -3 -47q0 -1 -1.5 -1t-1.5 2q1 12 0.5 25
t-6.5 24q-2 5 -6 9t-9 6t-6 -1.5t-1 -6.5q-2 -9 0 -18.5t4 -18.5q6 -29 16.5 -56.5t28.5 -51.5zM326 328q5 -1 7.5 4.5t4.5 10.5q2 6 2.5 12t1.5 12q3 16 10 30t8 31q-4 -5 -7.5 -9t-7.5 -8q-10 -8 -22 -13q-7 -2 -14 -4.5t-14 -5.5q-2 -2 -5 -3.5t-5 -3.5q-3 -3 -3.5 -6
t-1.5 -7q0 -7 -6 -11q-3 -3 -7 -4t-8 -3q-5 -2 -10 -4.5t-9 -7.5q-7 -9 -10 -24q-1 -6 0 -12q2 -6 2 -9q1 -7 -5 -13q-4 -2 -7 -5q-2 -3 -2 -9q0 -5 1 -10.5t3 -10.5q1 -5 1 -9v-9q-1 -7 -1 -13.5t3 -12.5q5 -14 17 -14q5 0 8 2q8 3 13 9.5t10 12.5t8 12t7 12q1 2 3 0
q2 -7 6 -6t6 6q14 19 17 44.5t4 47.5q0 1 2 1z" />
    <glyph glyph-name="A" unicode="A" horiz-adv-x="539" 
d="M540 161q27 -61 31 -125q2 -35 -1 -69t-7 -67q0 -4 -5.5 -20t-11.5 -33.5t-11.5 -31.5l-5.5 -14q7 31 10.5 67.5t3.5 72t-3.5 66t-11.5 48.5q-12 31 -35 56q-11 12 -24 19t-25 16q-19 14 -21 43q-2 19 -2 37.5t-4 37.5q-2 10 -11.5 14t-19.5 4q-8 0 -13 -3l-2 -1l-1 -1
q-1 0 1 6t6 15t7.5 19.5t3.5 19.5q1 17 -8.5 28.5t-30.5 11.5q-36 0 -66 -20t-52 -46q8 -2 26.5 3t41.5 23h1q1 0 -4 -6.5t-12 -15t-13.5 -15.5t-8.5 -8q-26 -16 -35.5 -38.5t-11.5 -51.5q-2 -12 -3 -23t-6 -20q19 2 29 21t17.5 42.5t14 45.5t18.5 31l-2 -4t-3.5 -10.5
t-2 -15t3.5 -18.5q10 -26 4.5 -50.5t-18.5 -47.5t-30.5 -45t-31.5 -43q-13 -20 -22 -42.5t-11.5 -46t3 -46t22.5 -42.5q5 -12 14 -24t17.5 -21.5t14.5 -15t4 -5.5q-22 6 -44.5 27.5t-40.5 49.5t-30 57.5t-15 50.5q-1 9 -2 17.5t-1 17.5l2 10t1 10q1 2 1 7q3 10 5 20.5
t1 21.5q0 2 -2 2t-2 -2q-3 -12 -7 -19q-1 20 1 38t0 34.5t-10 31.5t-28 27l-6.5 13t-11 23.5t-9.5 22.5t-3 10q9 -13 20.5 -18t22.5 -5q14 0 27 6.5t22 17.5q10 12 13 24t2.5 23.5t-1.5 21.5t0 19q0 5 1 10l2 10q-1 5 -1.5 10t-1.5 10q-2 17 -5.5 34.5t-5.5 34.5q-1 2 1 3.5
t3 -0.5l4 -13q6 -11 13 -21t18 -17q7 20 14.5 39t11.5 39q3 21 0.5 48t-22.5 57q-11 17 -21 34.5t-20 35.5q-7 13 -18.5 25t-25 23.5t-27.5 21.5t-26 19q1 0 11 -4.5t21.5 -10t22 -10.5t12.5 -7q14 -12 19.5 -14.5t9.5 -3.5t9.5 -4t18.5 -16q9 -8 22.5 -17t29 -16.5
t32.5 -12t32 -4.5q12 0 23 3t19 11q2 2 8 7.5t12.5 11t12 10t6.5 4.5v-1q-9 -16 -10.5 -28.5t1.5 -21t9 -12t12 -2.5q9 2 17.5 4.5t17.5 4.5q12 2 23.5 1.5t21.5 -7.5q6 -4 14.5 -13t6.5 -9q-13 8 -25 8t-21 -6.5t-15.5 -16t-9.5 -20t-2 -19.5q2 -23 6.5 -47t14.5 -44
q15 -31 31.5 -61t21.5 -63q9 3 11.5 21t3.5 40t4 41.5t12 26.5q3 2 1.5 -2t-3 -13.5t-1.5 -22.5t6 -29q12 -32 9 -64t-5 -65q-2 -17 -2 -33.5t2 -33.5t8 -32.5t13 -30.5zM346 444q0 13 -4 28t-9 31t-8.5 33.5t-2.5 36.5l-28 -59q-5 -9 -4.5 -16.5t-4.5 -17.5
q-5 -16 -3 -22.5t10 -11.5q-21 0 -23.5 -12t-0.5 -24q34 31 78 34z" />
    <glyph glyph-name="B" unicode="B" horiz-adv-x="639" 
d="M619 209q2 -5 4.5 -12.5t3 -14.5t-1.5 -12.5t-10 -8.5q-5 -2 -10 -2t-10 -1q-20 -2 -38 -13.5t-31 -25.5q-20 -21 -31 -48t-23 -53q-9 -19 -33 -36t-49 -30t-45 -21t-21 -8q28 15 40 32.5t14 34.5t-3.5 31.5t-12.5 22.5q-12 14 -29 24t-37 7q-11 -2 -17 -8t-14 -11
q-6 -4 -11.5 -4.5t-11.5 -2.5q-14 -3 -22 -11.5t-11.5 -19.5t-4.5 -23.5t-1 -24.5v-41.5t-1 -41.5q0 -3 -1 -10.5t-2.5 -16t-2.5 -14.5t-2 -6q0 21 -1 50t-4.5 59t-10 57.5t-18.5 45.5q-21 34 -58 52q-16 8 -32.5 14t-32.5 16q-1 1 -7.5 5.5t-13 10t-11.5 9.5l-5 4
q25 -13 52.5 -20t52.5 -7q12 0 23 1.5t19 6.5q14 8 23 22t10.5 30.5t-7 33t-30.5 27.5q-1 0 2.5 0h9.5t11.5 -0.5t7.5 -0.5q11 2 15.5 10t5.5 19t0 22.5t-1 18.5q-2 22 -11 39.5t-20 37.5q-5 10 -13 16.5t-14.5 10.5t-11.5 6t-4 2q18 -2 31.5 -8t23 -13.5t16 -15t9.5 -11.5
q-2 18 -5 36.5t-11 35.5q-9 20 -17.5 40.5t-22.5 37.5q-26 32 -56.5 58.5t-63.5 50.5q-10 11 -17 21l-18 20q-2 0 -12 7t-21.5 15.5t-20.5 15t-8 6.5q14 -4 43 -19t61.5 -32.5t61.5 -33t43 -19.5q14 -5 28.5 -9t28.5 -7q16 -4 25.5 1t22.5 11q9 5 19 6t20 4q30 8 38 38
q3 13 2 26.5t-4.5 27t-7.5 26.5t-6 26v9t0.5 15t1 14t1.5 6q7 -31 20 -61.5t29.5 -58t35.5 -52t38 -43.5q16 -16 34 -31.5t34.5 -32.5t29.5 -36t19 -42q1 -2 0.5 -6t-4.5 -5q-26 0 -48 -13t-35 -35q116 -71 161 -199zM240 566q3 -1 11 -5.5t17 -10t16.5 -10.5l10.5 -7l4 -4
t8 -8.5t7 -8.5l3 -4q2 -1 -0.5 0t-6.5 2.5t-8.5 2.5t-6.5 1h-3q8 -7 11 -18t-10 -22q17 3 35 3q26 0 53.5 -6.5t47.5 -20.5q-1 15 -10.5 32t-23 30.5t-28 21.5t-24.5 6q-9 -1 -15.5 1.5t-13.5 7l-14 9t-17 7.5q-1 0 -7.5 0.5t-14 0.5h-14h-7.5zM450 245q5 -3 10 0t5 9
q-1 20 -19.5 32t-41.5 22.5t-44.5 22t-28.5 28.5q2 0 8.5 -2.5t17.5 -2.5q4 0 14 2q9 3 17.5 8t10.5 12.5t-6 17t-31 19.5q-10 5 -24 5q-19 0 -32.5 -11t-13.5 -28q0 -15 0.5 -27t3.5 -21.5t9 -18.5t16 -20q9 -9 15 -21t9 -22t4 -17l1 -7q-7 17 -15.5 25.5t-15 12.5t-11.5 5
t-7 3q0 -31 13.5 -52t30.5 -24q11 -1 21 -6.5t16.5 -10.5t9 -7.5t-3.5 0.5q-8 5 -18.5 6t-21.5 1t-21 0.5t-18 2.5q-1 -10 -6.5 -18.5t-13.5 -16.5q14 4 29.5 6.5t29.5 2.5q20 0 36.5 -6t27.5 -21q17 23 27.5 50.5t4.5 56.5q0 1 -1.5 5t-3 8.5t-2 8.5t0.5 4v0z" />
    <glyph glyph-name="C" unicode="C" horiz-adv-x="525" 
d="M289 455q5 13 10.5 25t8.5 25q6 25 -7.5 34t-31.5 9q-20 0 -31 -5.5t-26 -15.5q-2 -1 -6 -5t-9.5 -14t-9.5 -14q-1 -2 -4 -12.5t-4 -13.5v5t1 11t1.5 11.5t0.5 6.5q0 2 0.5 3.5t0.5 3.5l-14 -10l-14 -10q-29 -24 -34.5 -62t1.5 -76q1 1 1 2q1 6 4.5 8t8 4.5t8.5 8.5t7 19
q2 10 2.5 21t0.5 12q6 -23 4 -43.5t-6 -39.5t-5 -35.5t6 -31.5q5 -10 13 -15.5t18 -10.5l20 -10t18 -14q2 -2 -5 0.5t-20 -1.5q-2 -1 -6 -3.5t0 -7.5q11 -12 22.5 -21t21.5 -12q9 -3 21 -8.5t23 -5.5q17 1 32.5 3.5t32.5 8.5q21 7 44 28.5t42.5 50t32.5 61.5t15 64q0 4 1 -5
t1 -22.5v-26t-2 -16.5l-3 -10t-6 -22l-5.5 -22l-2.5 -10q-14 -18 -18 -26.5t-6 -15t-5.5 -14t-16.5 -22.5q-8 -10 -17.5 -18.5t-18.5 -17.5q-5 -5 -9 -10t-6 -11q-4 -11 -5.5 -22t-2.5 -23t-3 -24t-9 -25q-1 0 -1.5 8.5t-4 18t-12 18t-25.5 8.5q-8 0 -20 -3
q-20 -6 -31 -13.5t-18.5 -17.5t-14 -22t-17.5 -27l-18.5 -18.5t-35 -33t-38.5 -31t-28 -13.5q24 22 42.5 49t26 57t1 61.5t-33.5 61.5q-11 13 -19 26t-17 25.5t-21.5 25.5t-32.5 25q-2 2 -6.5 5.5t-9 8l-7.5 7.5t-2 3q4 -2 12.5 -6t17.5 -8t17.5 -7.5t11.5 -5.5q8 -6 20 -12
q-8 9 -18 18.5t-14 20.5q-3 9 -7.5 22t-8.5 21q-12 24 -17 44t-5 47q0 24 4 43t8.5 37t7.5 37.5t1 46.5q-1 17 -6 29.5t-9.5 20.5t-8 11.5t-2.5 3.5q18 -9 29 -23.5t16 -32t6.5 -36.5t1.5 -37q6 25 19 43.5t23 32.5q7 11 9 19.5t13 14.5q9 5 27 9.5t29 6.5q-8 3 -23 9
t-33 14q-7 3 -18.5 13t-18.5 13q-31 13 -56 27t-53 45q1 0 14 -11t35 -18q19 -6 44.5 -17.5t46.5 -17.5q29 -8 54 -11t42 -3q19 0 26 3q17 -2 34 -8.5t34 -8.5q3 0 3.5 7.5t0.5 16.5t0.5 16.5t3.5 7.5q2 -14 8.5 -23.5t14.5 -15.5t16 -9.5t12 -4.5q23 -6 41.5 -15.5
t41.5 -9.5q14 0 29 5t35 18q1 0 -4 -7t-12.5 -15.5t-15 -16t-10.5 -9.5q-21 -9 -37.5 -25t-32.5 -27q-10 -7 -22 -19t-24 -26.5t-22.5 -28.5t-17.5 -25q-6 -11 -10.5 -20t-7.5 -20t-4.5 -25t-2.5 -35v-10t-0.5 -14.5t-1 -13l-0.5 -5.5q-1 0 -1 2q-15 57 -8 114q2 13 5 25.5
t6 24.5z" />
    <glyph glyph-name="D" unicode="D" horiz-adv-x="533" 
d="M401 211q5 11 8.5 31t2 41.5t-11 40.5t-32.5 27q-12 5 -4 8t18 9q6 4 11 14.5t3 18.5q-14 42 -35 72t-48.5 50.5t-62 33.5t-75.5 22q4 -4 8 -12t8.5 -16.5t8 -17t6.5 -13.5q1 -1 1 -2q24 -24 30 -54q2 -13 1 -27.5t-1 -28.5t3.5 -27t15.5 -22q2 -2 7 -8.5t10.5 -13t9 -12
t2.5 -5.5h-1q-15 13 -34 19t-22 3q-6 -5 -7 -8.5t1 -6t5.5 -4.5t5.5 -4q4 -3 7.5 -6t5.5 -7q6 -11 3 -23.5t-5 -23.5q-3 -13 2 -33t11 -42t10 -45t-1 -43q14 21 29.5 32t26.5 13q9 1 22.5 9.5t21.5 13.5q11 7 20.5 21.5t14.5 25.5zM520 328q2 -30 -3 -58.5t-25 -51.5
q-13 -15 -23.5 -29t-18.5 -32l-10 -22t-12 -21q-9 -13 -21 -22t-25 -16.5t-26 -14.5t-25 -18q-4 -3 -17 -11.5t-16 -12.5q-21 -24 -52 -45.5t-60 -37t-50.5 -25.5t-24.5 -11q14 9 29 22.5t28 26.5t23 25t13 18q6 13 12.5 29.5t0.5 42.5q-5 18 -13 34.5t-10 35.5
q-22 -2 -33 -7.5t-11 -28.5q-1 -13 -5 -29t-21 -31q-14 -12 -19.5 -31t-6.5 -37t0.5 -31t0.5 -13l-1 1q-13 26 -12.5 52.5t4.5 50.5t6 45t-8 36q-9 14 -20 17.5t-22.5 4l-23 1t-22.5 7.5q-3 2 1 1.5t11 0.5t16 3.5t17 10.5q9 8 14 10.5t9.5 4t10.5 3t16 8.5q9 6 14.5 20
t8.5 25q4 14 -5 38.5t-29 47.5l-1 1q1 0 5 -2.5t9.5 -5.5t10 -6l7.5 -5l11 -6q6 36 -6.5 70t-28.5 66q-2 3 -3 12t-2 18.5t-1 17v7.5q12 -35 26 -48t22 -18q-2 26 -8 50t-26 44q-4 5 -7 9t-5 9q-2 6 -2 11.5t-2 10.5q-5 10 -14 16.5t-17 12.5q-7 6 -13.5 12t-11.5 14
q-7 12 -7 26t-6 27q-13 31 -25 62t-36 57l-24 28q2 1 10 -4t17 -11.5t16.5 -12.5t7.5 -7q15 -21 31 -37t34 -29.5t37.5 -25.5t42.5 -26t49.5 -27.5t54.5 -15.5q14 -1 29.5 5t21.5 21q5 16 -11 37t-61 45q-1 0 -1 0.5t1 0.5q2 0 9.5 -2t16.5 -5t17.5 -5.5t11.5 -4.5q1 0 2 -1
q54 -25 99.5 -64t78.5 -87t53 -104t24 -116z" />
    <glyph glyph-name="E" unicode="E" horiz-adv-x="601" 
d="M585 715q-28 -24 -61.5 -50.5t-63.5 -58.5q-13 -14 -27.5 -23.5t-29.5 -20.5q-10 -7 -20 -21t-16.5 -31.5t-10 -37.5t-0.5 -39q1 -5 -3 3t-5 13q-3 15 -7 29.5t-6.5 28.5t-1.5 28t7 28q-11 0 -22 1.5t-23 2.5q-5 0 -19.5 -4t-31.5 -4q-20 0 -32 9q2 -3 4 -5l5 -5t7 -5
q13 -7 10 -14t-2 -16q2 -14 4 -27.5t2 -27.5q0 -13 -1 -25.5t1 -25.5q2 -8 0 -14.5t-5.5 -11t-6 -8.5t-2.5 -7q7 7 20.5 13t28.5 10.5t30.5 7.5t25.5 3q39 0 65 -19t51 -46q4 -3 10.5 -11.5t5.5 -8.5q-9 8 -22 17t-28 17t-30 13t-27 5q-15 0 -30 -8t-17 -30q-10 2 -14 2
q-16 0 -25.5 -10t-14.5 -25t-6 -32t0 -32q1 -9 4 -16l6 -14t5.5 -14t1.5 -15q0 -8 4.5 -16t11.5 -14.5t15.5 -11.5t14.5 -7q5 -1 9 -2t9 -1q10 0 18 5q8 6 8.5 10t-3 7t-9 4.5t-9.5 2.5q-11 4 -19 6.5t-19 9.5q-8 5 -14 15t-5 10q22 -13 41 -13q13 0 24 4.5t20 12.5
q13 11 24 23.5t24 23.5q17 15 39 30.5t45 15.5q10 0 19 -3q2 0 7 -2.5t10 -4.5t8.5 -4t2.5 -2q-6 1 -11.5 1.5t-10.5 0.5q-28 0 -45 -13t-28 -27q-17 -20 -21 -43t-2 -49q1 -16 5 -26.5t9 -18.5t10.5 -14.5t9.5 -13.5q3 -4 7 -9t8 -13.5t8 -22t7 -35.5l-2 4.5t-6.5 11.5
t-11.5 14t-17 12q-7 4 -21 9.5t-25 3.5q-11 -1 -19.5 -5t-22.5 -10q-20 -9 -33 -25t-22.5 -35.5t-18.5 -41t-21.5 -41t-31.5 -35.5t-49 -25q39 28 55 58t18.5 57t-4.5 48.5t-14 32.5q-15 24 -41 30.5t-52 6.5q-15 0 -32.5 1.5t-28.5 8.5q-4 2 8.5 1.5t24.5 0.5q11 1 21 7.5
t17 16.5q-18 14 -35.5 30.5t-34.5 33.5q-16 16 -19 32.5t-2 37.5q0 2 1.5 7.5t3 10.5t3 9l1.5 4v-1q-3 -24 2.5 -39t15 -23.5t20.5 -11.5t19 -2q10 1 13 6.5t2 13.5t-3 17t-3 15q-1 17 3 33.5t-1 32.5q-4 17 -13 17q-11 0 -22 -20t-17 -48q-2 0 -3.5 12.5t0.5 16.5
q6 16 4.5 32.5t5.5 31.5q6 11 14.5 18.5t12.5 18.5q6 17 3 33t-10.5 31.5t-17.5 30t-18 26.5l-3 6t-3.5 8.5t-3 8t-0.5 3.5q8 -9 12.5 -14t9 -7.5t10.5 -3.5t16 -2q2 10 3 19.5t3 18.5q-4 2 -1 7q-1 1 -1.5 8.5t-0.5 8.5q0 19 -12 43t-32.5 47t-47 42t-55.5 28
q19 3 41.5 -4.5t43 -18t37 -21t23.5 -14.5q18 -11 35 -23t38 -10q18 3 35.5 8.5t36.5 3.5q9 0 17.5 -3.5t17.5 -6.5q7 -3 19 -11t20 -8q7 0 7 10q0 3 -5 9.5t-3 4.5q12 -9 29 -9q31 0 62.5 15.5t57.5 30.5q16 3 33 10.5t32.5 16.5t27.5 19t16 18q-2 -8 -5 -14
q-5 -14 -11 -20z" />
    <glyph glyph-name="F" unicode="F" horiz-adv-x="596" 
d="M573 521q2 -4 7 -12.5t3 -5.5q-20 21 -54 36.5t-67 15.5q-31 0 -52 -14q-13 -9 -27.5 -21t-29.5 -24t-30.5 -22t-31.5 -15q-4 -1 3.5 6t11.5 10q8 6 13 15t6 19t-2.5 20t-12.5 16q-11 7 -25.5 6.5t-27.5 -0.5h-16.5t-19.5 -1t-18.5 -4t-13.5 -9t-3.5 -12t6 -12t10 -12
t8.5 -11q2 -3 10 -9t5 -6q-5 2 -19 5t-22 3q7 -23 12 -45.5t-3 -45.5q9 2 20 4.5t19.5 8t13.5 13t2 19.5q-2 4 -5 14t-1 7q16 -23 34.5 -31.5t37.5 -6.5q15 2 29.5 5t28.5 3q50 0 95 -31q1 -1 4 -4.5t6 -7.5t5.5 -7t1.5 -3q-12 8 -25.5 11t-27.5 3q-34 0 -52 -12t-38 -38
q-23 -31 -52.5 -54t-65.5 -37q-2 -1 -0.5 1t4.5 4.5t6.5 5t4.5 3.5q12 8 19 15.5t15 20.5q3 6 3.5 12t0.5 12v12t2 13q-13 3 -27 3q-41 0 -77 -22q10 -7 10 -22q1 -15 2 -28t6 -27t7.5 -27t0.5 -28q-2 -14 -5.5 -26.5t-6.5 -26.5q8 1 13.5 0.5t11 1.5t12 8.5t14.5 21.5
q-3 -17 -11 -31t-17 -26.5t-18 -25.5t-16 -27q-6 -14 -12 -23t-10.5 -17.5t-6 -17.5t1.5 -24q1 -5 -2 -11.5t-4.5 -21t0.5 -38t14 -61.5q-6 10 -15 27.5t-17 37.5t-14.5 38.5t-8.5 30.5q-4 26 -0.5 52.5t-1.5 52.5q-5 -4 -10 -13.5t-3 -31.5q-1 0 -4.5 12t-4.5 15
q-5 15 -4 29t5 27.5t9.5 27.5t9.5 27q5 15 4 30t-2.5 30t-2.5 30t3 30q-14 -3 -21 -13.5t-10 -23.5t-2.5 -27t1.5 -25q0 -2 1.5 -8.5t3.5 -14t3 -13l1 -5.5v0q-7 12 -13 28.5t-9 34.5t-3 35.5t4 30.5q8 26 20 50.5t13 51.5q2 28 -7 50q-4 11 -11.5 18.5t-17.5 13.5
q-11 8 -21 15.5t-15 19.5q-5 2 -6 6q-2 2 -4 7l-4 10t-3 9l-1 4q1 0 1 -1q11 -16 22 -24.5t21 -12t18.5 -3.5h13.5q11 2 18 9t10 18q6 23 0.5 47.5t-16.5 44.5q-8 16 -21 23.5t-28 15.5q-8 5 -15 11.5t-14 13.5q4 0 20.5 -4.5t39 -10.5t48 -12t47.5 -10t42 -13t43 -10
q14 -1 29 3.5t29 4.5q9 0 16 -3q23 -9 33 -9q11 0 12.5 7t-0.5 16t-5.5 16t-1.5 7q1 0 5 -3q23 -21 52.5 -41t58.5 -39.5t54.5 -38.5t40.5 -38z" />
    <glyph glyph-name="G" unicode="G" horiz-adv-x="563" 
d="M263 485q17 7 32 14.5t26 18.5t6.5 18.5t-18.5 9.5h-27q-25 -1 -49.5 -22t-34.5 -44q-8 -20 -16 -47.5t2 -56.5q2 -3 -3.5 3.5t-7.5 9.5q-3 4 -3 8t-3 6q-5 -14 -11.5 -29.5t-4.5 -31.5q1 -11 9 -22.5t10 -22.5q3 -12 0.5 -23.5t3.5 -22.5q1 -2 4.5 -6t7.5 -9t7.5 -9.5
t4.5 -7.5q5 -9 9 -9.5t11 -5.5q9 -7 22.5 -11.5t24.5 -4.5q12 0 25.5 6t25.5 20q6 2 9.5 -1t8.5 0q16 11 23 27t7 30.5t-6 25t-16 10.5q-14 0 -31 -22q-2 0 1 10.5t7 14.5q5 6 8 16t3 19.5t-4 18t-13 11.5q-13 5 -29 5q-12 0 -20 -4q-22 -12 -33.5 -42.5t-0.5 -76.5
q-1 0 -6 12t-7 15q-9 20 -8 42t9 43t21.5 38.5t30.5 29.5q7 5 21 11t30 12t31 10t23 4h8.5h16t15 -0.5t5.5 -0.5q-33 -8 -41 -11.5t-11 -5.5q-2 -1 -6 -4t-4 -5t3 -4.5t7.5 -4.5t9 -3.5t6.5 -1.5q7 -2 10 -4l6 -4l6 -4t10 -4q9 -3 17 -3q16 0 34 14t26 28l-1 -4.5
t-3.5 -10.5t-5 -11.5t-4.5 -7.5q-18 -20 -28.5 -35.5t-15 -31.5t-5.5 -34t-1 -43q0 -4 2 -4.5t3.5 0t3 0.5t1.5 -5q-1 -39 14.5 -71t44.5 -44q3 -1 5.5 -4.5t5 -6.5t3 -5t-1.5 -1q-10 7 -19 7q-19 0 -37 -20t-35 -46.5t-32.5 -53t-29.5 -39.5q-10 -10 -23 -20t-27.5 -18
t-29 -12.5t-26.5 -3.5q-1 0 1.5 2t6.5 4t8.5 4t5.5 3q23 11 41 37t29 58t15 66.5t-1 62.5q-11 -14 -20 -29.5t-26 -23.5q-25 -13 -32.5 -25t-7 -22t3.5 -16.5t-2 -8.5q-35 -10 -70 -34t-62.5 -59t-44 -80.5t-15.5 -99.5q-9 34 -7 69t10.5 68t19.5 63t20 54t11.5 40t-5.5 21
q-9 7 -21 7q-7 0 -13 -5t-8 -19q-1 -4 -4.5 7t4.5 25q15 26 22.5 49t5.5 36q-2 14 -9.5 21.5t-17.5 14.5q-6 4 -17 6t-23 4t-22.5 6.5t-16.5 13.5q2 0 11.5 -3.5t21.5 -1.5q15 3 20.5 11.5t5.5 20t-3.5 24.5t-6.5 25q-12 47 1 91q-19 -6 -29.5 -15.5t-15.5 -21.5t-6 -25
t0 -27v0l-1.5 5t-3 11t-2.5 12t-1 8q3 21 11 39t19 34t23.5 31.5t24.5 31.5q12 17 23.5 33t28.5 28q30 21 29.5 43t-20 41t-53 31t-69.5 12q32 11 64 11q23 0 42 -4.5t35.5 -11t29.5 -13t23 -10.5q5 -2 13.5 -5t17 -5.5t16 -4.5t11.5 -2q13 -1 19 -1t10.5 1t10 1t17.5 -1
q-1 2 -4 5q-5 7 -6.5 14t-4.5 15q-1 2 -1.5 8t1.5 1q11 -27 35.5 -45.5t46.5 -24.5q1 0 1.5 6t0.5 5q14 -14 29 -21.5t32 -7.5q22 0 46 15t52 50q7 8 12.5 20t7.5 12q0 -18 -12.5 -42.5t-30 -48t-36.5 -43t-33 -28.5q-23 -15 -48 -21.5t-55 -14.5q-13 -4 -28 -6.5t-32 -8.5
t-36.5 -18.5t-42.5 -35.5q10 15 19 28q8 11 14.5 19.5t8.5 9.5z" />
    <glyph glyph-name="H" unicode="H" horiz-adv-x="564" 
d="M560 22q5 -35 2.5 -69.5t-10.5 -68.5q-5 -21 -14 -36t-11 -15v1q14 40 13.5 73.5t-8.5 61.5t-21 51.5t-25 43.5q-25 40 -66 70q-11 8 -17.5 20t-20.5 15q-12 3 -18.5 4.5t-17.5 7.5q-5 3 -14 0t-7 -1q10 9 23 10q7 1 14 0.5t12 4.5q7 7 6 20t-3 21t-6 19.5t-15 11.5
q-5 0 -11.5 -3.5t-15.5 -12.5q-1 0 0.5 3.5t3.5 8l4 9t3 5.5q10 12 18.5 21.5t12.5 24.5q8 29 5.5 39t-10.5 10q-6 0 -13.5 -4t-15 -9.5t-13 -10.5t-8.5 -8q-15 -14 -20 -24.5t-15 -30.5q-5 -11 -13.5 -16t-10.5 -18v-12.5t-2 -12.5q-2 -6 -11 -18t-16.5 -25.5t-9.5 -26.5
t11 -21q12 -2 19.5 3.5t12 13.5t7 15.5l3.5 10.5t0.5 -1.5t-0.5 -21.5q0 -32 -10.5 -55t-33.5 -41q-15 -11 -22.5 -24t-11 -24t-4 -18t-1.5 -7q-1 1 -2 1q-6 0 -20.5 -21t-38 -46.5t-55 -46.5t-72.5 -21q37 15 61.5 38t40 48.5t23 51.5t10.5 48.5t2.5 38.5t-1.5 22
q-3 15 -9 28.5t-13 27.5q-7 12 -7.5 26t-1.5 27.5t-6.5 26.5t-21.5 23l-12 8t-1 2q3 0 14.5 -4.5t13.5 -6.5q16 -13 25.5 -27.5t28.5 -23.5q6 -3 9 -3q7 0 9.5 6.5t2.5 15.5t-1.5 17.5t-2.5 12.5q-1 8 0 15t0 14q-1 6 -6.5 9t-13 6t-14.5 6t-10 8q-2 3 3 0t16 3q8 5 13 15
t7 21t2.5 22t-1.5 18q-4 20 -9.5 38.5t0.5 37.5q-6 2 -10 2q-8 0 -15.5 -4.5t-13.5 -16.5q-2 -2 0 6.5t6 15.5q4 6 10.5 17.5t6 31.5t-13 48t-48.5 67q-11 12 -15 22t-8 22t-11.5 26t-26.5 33q16 -7 28.5 -18t22 -21.5t16 -20t10.5 -13.5q18 -20 45 -34.5t54 -14.5
q26 0 56 8t50 16l-3 -2t-7 -5l-8 -6t-6 -5q-11 -9 -14.5 -18.5t-3.5 -20t2 -21t3 -22.5q0 -10 -1 -19.5t-3 -18.5q-1 -6 -3 -14.5t0 -14.5q6 -8 8 -11q2 0 2.5 -0.5t2.5 -0.5q11 -10 6.5 -20.5t-7.5 -23.5t-0.5 -26t1.5 -26q8 6 11 8q10 8 13 13t15 11l29 14.5t35 9.5
q8 0 12 -2q2 8 -3.5 13.5t-1.5 17.5q2 8 4.5 15t1 11.5t-8 6t-22.5 -1.5q-5 -1 -4 0t4.5 5t8.5 11.5t8 17.5q3 11 -6 22.5t-23 12.5q-6 0 -11.5 -1t-11.5 -5.5t-13 -14t-15 -26.5l0.5 3.5t1 8.5t1.5 10t2 7q5 19 15 29t22 18t23.5 16.5t19.5 24.5q5 11 11 16t11 8.5t9 9
t5 17.5q2 20 8 33.5t12 26.5q3 9 13.5 18.5t21.5 17t20 12.5l9 5q-31 -20 -37 -49.5t8 -49.5q6 -8 7 -14t1.5 -12t1.5 -12.5t6 -14.5q7 -11 19 -19.5t14 -19.5q7 -36 -8 -67q-11 -25 -8 -38.5t2 -13.5l-1 1q-6 8 -6.5 25.5t-1 35.5t-4 30.5t-15.5 9.5t-14.5 -16t0 -29.5
t7.5 -32t7 -23.5q5 -23 19 -41.5t21 -41.5q4 -12 2.5 -22t-5 -20.5t-7.5 -23t-6 -29.5q-2 -12 2.5 -21.5t2.5 -9.5l-1 1q-8 8 -10.5 17.5t-2.5 18.5t1 17t0 12v9t-1.5 12t-4 11t-7.5 6q-7 0 -9.5 -12t-2.5 -27.5t1.5 -29.5t1.5 -18q1 -19 1.5 -35.5t11.5 -33.5
q8 -11 18 -21.5t18 -22.5q8 -11 16.5 -30t15 -41t11.5 -42.5t7 -34.5z" />
    <glyph glyph-name="I" unicode="I" horiz-adv-x="268" 
d="M256 143q-3 -18 -11.5 -32.5t-18 -28t-19.5 -27t-17 -28.5t-13.5 -24.5t-11 -18t-6.5 -18t1 -25.5q1 -5 -2.5 -12t-5 -22t1.5 -40t15 -64q-6 10 -15.5 28.5t-18.5 39t-16 40.5t-9 32q-4 28 -0.5 56t-1.5 55q-6 -4 -11 -14t-3 -33v-1l-1.5 4t-3 9l-3 10t-2.5 6
q-5 15 -4 30t5.5 29.5t10.5 29t10 28.5q5 15 4 31t-3 31.5t-2.5 31.5t3.5 31q-15 -3 -22.5 -13.5t-10.5 -24t-2.5 -28.5t1.5 -27q0 -2 1.5 -9t3.5 -14.5t3.5 -13.5t0.5 -6v0q-7 12 -13.5 30t-10 36.5t-3.5 37t5 32.5q9 27 21.5 52.5t13.5 54.5q1 13 -0.5 26.5t-6.5 25.5
t-13 19.5t-18 14.5q-12 8 -22.5 16t-16.5 20l-3.5 3.5l-3.5 3.5l-3.5 7t-4.5 10.5t-3 9.5l-1 4q19 -29 38 -35.5t33 -6.5q16 0 25.5 5.5t14.5 22.5q7 24 -3 49t-21 46q-10 17 -20 25.5t-25 17.5q-4 3 -15 16.5t-22 30.5t-19.5 32t-9.5 21q39 -48 80 -68t72 -20q25 0 38 10
q2 2 2 0.5t-0.5 -4.5t0 -7t3.5 -8q10 -11 24 -16t28 -5q16 0 29 6.5t16 17.5q0 -15 -7.5 -26.5t-16.5 -20.5t-16.5 -15.5t-8.5 -11.5q-5 -20 -6 -35t8 -30q-13 -3 -19 -11q-5 -6 -3.5 -12.5t6 -13t10.5 -12.5t9 -12q1 -1 4.5 -4t6.5 -5.5t5.5 -4t0.5 -1.5q-6 1 -21 4.5
t-23 3.5q7 -24 12.5 -47.5t-2.5 -48.5v0q1 0 -1 -5t-2.5 -13t1 -17.5t9.5 -18.5q-16 -7 -28 -13q11 -9 11 -23q1 -16 2 -29.5t7 -28.5q5 -14 7.5 -28t0.5 -29t-6 -29t-7 -28q8 1 14 1t12 2t13 9t16 22z" />
    <glyph glyph-name="J" unicode="J" horiz-adv-x="495" 
d="M483 730q-26 -11 -42.5 -31t-28.5 -42t-21 -42.5t-21 -32.5v-2q2 -5 -1 -8q2 -10 3.5 -19.5t2.5 -20.5h8t9 2t11.5 8t15.5 19v0l-1 -3.5t-2.5 -8.5t-3 -9t-2.5 -6q-7 -14 -15.5 -29.5t-15 -32.5t-8.5 -34.5t4 -34.5q4 -12 12.5 -20t13.5 -19q8 -16 6.5 -33.5t5.5 -33.5
q1 -3 1 -9t-0.5 -11.5t-1.5 -9t-1 -0.5q-7 28 -18 48.5t-20 20.5q-8 0 -12 -18q-3 -17 1 -35t3 -35q0 -7 -1.5 -16.5t-2 -18t2.5 -14.5t12 -7q8 -1 18 2.5t18 13t12.5 26t0.5 41.5v1l1.5 -4t3.5 -9.5t3.5 -11t1.5 -7.5q1 -23 -1 -41t-16 -35q-8 -9 -17.5 -15t-20 -11.5
t-20 -11t-17.5 -13.5q7 -10 16 -16.5t20 -7.5q11 -2 22.5 -0.5t7.5 -1.5q-7 -5 -17.5 -7.5t-21.5 -3t-21 -0.5t-16 -1q-34 -3 -52 -39q-6 -12 -13.5 -35.5t-6.5 -52t15 -59t51 -55.5q-33 11 -52 23t-30 26t-17.5 29.5t-15 31.5t-23.5 34t-42 36q-11 8 -19 22t-13 29
q-5 17 -4.5 35.5t1.5 36.5q2 27 -3.5 52t-20.5 45q-11 14 -26.5 27.5t-39.5 13.5q-10 0 -22 -3l3 2t7.5 4.5t8.5 5t6 3.5q8 4 18 4q21 0 41.5 -16t36.5 -32q11 -11 22 -24t23 -24q8 -8 18.5 -12.5t21.5 -4.5q19 0 37 15q2 0 -3.5 -11.5t-12.5 -16.5q-9 -7 -16 -10t-18 -7
q-3 -1 -8.5 -3t-8.5 -5t-2.5 -7.5t8.5 -10.5q7 -5 15 -5t18 4q6 2 13 7.5t13.5 12.5t10.5 15.5t3 17.5t3 17t8.5 15.5t9 16t5.5 17.5q0 9 -0.5 30.5t-6.5 45t-19 43t-39 23.5q9 6 19 6q12 0 23 -4t16 -4t0 9q6 -3 11 -8q0 4 -2.5 8t-5.5 9t-5 11.5t-1 15.5q2 14 7.5 29.5
t5.5 29.5q0 15 -6.5 27.5t-4.5 27.5q1 10 1 20.5t-6 18.5q-9 10 -16 10q-3 0 -7 -0.5t-9 -1.5q-10 -2 -19.5 -3.5t-19.5 -2.5q6 -15 7 -29.5t-0.5 -29.5t-4.5 -30.5t-5 -32.5q-1 -5 -4.5 -14t-3.5 -4q4 42 -8.5 70.5t-32.5 43.5q-5 4 -9 7t-9 6q-10 8 -14 22.5t-6 32.5
t-4 36.5t-9 33.5q24 -29 49 -38t44 -9q14 0 23.5 2t11.5 4q4 2 4.5 4t0.5 3t1.5 2t5.5 2q17 2 33 -3.5t33 -7.5q19 -2 35 5t33 18q6 4 18 13.5t27.5 18.5t33.5 15.5t36 4.5z" />
    <glyph glyph-name="K" unicode="K" horiz-adv-x="528" 
d="M505 -26q2 -15 -0.5 -35.5t-5.5 -39t-6 -31.5l-3 -13v0q1 34 0 57t-4 39t-8 27t-12 22q-29 43 -64 70.5t-80 53.5q-10 6 -22.5 10.5t-23.5 9.5q-21 8 -35 22.5t-22.5 28.5t-11.5 24t-2 10q17 -23 35 -38t34 -23t28 -11.5t16 -3.5q-2 11 -5.5 17.5t-7.5 10.5t-9 6.5
t-10 6.5q-3 3 -9.5 5t-13.5 4t-13 4.5t-8 6.5t-1 8.5t0 9.5q-3 17 -15 25q-9 6 -16 19.5t-15 27t-18.5 23t-25.5 7.5q-3 0 5.5 4.5t24.5 0.5q3 -1 7.5 -4.5t8.5 -3.5q-6 20 -17.5 32t-22.5 12q-8 0 -13 -9.5t-3 -29.5q1 -6 3.5 -18t5 -25t5 -25t2.5 -18q1 -14 -2.5 -28
t1.5 -28q5 -12 4 -19t10 -10h7t10 0.5t8.5 0.5t2.5 -1q-15 -10 -31.5 -20.5t-25.5 -25.5q-11 -17 -8.5 -38.5t6.5 -40.5q0 -2 1 -11t2 -18.5t1.5 -17.5l0.5 -8q-13 38 -26 55t-27 17q-6 0 -16 -5q-8 -4 -14.5 -13t-11 -19.5t-6.5 -21.5t-2 -20q0 -17 1.5 -27.5t4 -20
t6.5 -19.5t10 -26q1 -2 5.5 -10t9.5 -16.5t9 -15.5l4 -7q-23 27 -47 56.5t-36 66.5q-3 13 -4 27q-1 13 0 30t5 36q3 15 7 23.5t8.5 16t9.5 16t10 22.5q3 8 3 18t5 17q7 9 9 30q2 13 1 27t-2 27q-2 -2 -5 -7t-2 -9q1 -2 -3.5 -6.5l-9.5 -9.5q-6 -5 -14 -11q8 11 12.5 26
t7.5 30.5t5 30t5 24.5q6 21 4 42.5t3 42.5q-11 -4 -19.5 -8.5t-16 -13t-14.5 -23.5t-15 -40q-2 -3 -1 5.5t0 11.5q-4 23 0.5 41.5t12.5 36t18 34.5t17 37q2 6 3 18t-2.5 26t-14.5 26.5t-32 18.5q17 1 27 6q9 4 12 12.5t-9 25.5q-7 8 -24.5 29t-39 46.5t-44.5 49.5t-41 36
l12 -6.5t26 -14t26.5 -14t13.5 -7.5q12 -6 20.5 -15t17.5 -18q10 -8 28 -20.5t32 -12.5q10 0 22.5 5t28 11.5t34 12.5t39.5 8l48 -2q-35 -3 -55 -17.5t-28 -32t-6.5 -34t8.5 -23.5q4 -4 2 -5.5t-5 -4.5t-5 -9.5t2 -21.5q2 -6 3 -11t3.5 -10t7.5 -10t14 -13q-2 0 -8 1.5
t-12 1.5q-9 0 -10 -4q-7 -14 -4.5 -21t4.5 -16q3 -14 9.5 -26t23.5 -12q12 0 20 7t23 12q3 2 7.5 4.5t1.5 6.5q-1 2 -5.5 2.5t-6.5 0.5q-3 1 -10.5 2t-14.5 2t-11.5 2t-2.5 1q14 3 32.5 7t32.5 4q22 0 32 8t8.5 17.5t-13.5 17.5t-35 8q-11 0 -25 -3q-1 0 5.5 2.5t14 6.5
t14.5 7.5t8 4.5q5 7 16 5t19 3q11 8 20 9t16 12q11 17 21 27.5t28 19.5q24 11 46.5 28t37.5 38q9 12 20.5 23.5t13.5 18.5q0 2 3 8.5t6 14t5.5 13.5t3.5 6q0 -4 -4.5 -19t-10.5 -32t-12.5 -32.5t-9.5 -20.5q-14 -22 -29.5 -42t-32.5 -40q2 0 9 3.5t16.5 7.5t20 6t20.5 -1
q2 -1 -3 -1.5t-12.5 -2.5t-16 -6t-14.5 -12q-5 -8 -12.5 -15t-9.5 -15q-2 -10 5 -16t15 -11q10 -5 18.5 -12t13.5 -16q6 -9 13 -14t13 -8t9.5 -3.5t1.5 -0.5q-16 0 -27 3t-18.5 7t-12.5 7.5t-8 4.5q-6 2 -16 2t-20 -1.5t-18.5 -4t-12.5 -6.5q-12 -13 -23 -23t-19 -24
q-6 -12 -6 -16t-2 -6.5t-9 -6.5t-27 -16q-16 -9 -18 -25t4.5 -31.5t17.5 -26.5t20 -11q2 0 6 2q5 4 1 9t-2 4q8 -4 13.5 -12.5t10.5 -18.5t9.5 -19.5t9.5 -15.5q1 2 9.5 2t8.5 -2q-1 -12 3 -21.5t11 -18t15.5 -16.5t15.5 -17q9 -12 11.5 -21t5.5 -17.5t8.5 -19t19.5 -25.5
q17 -18 33.5 -52t19.5 -72z" />
    <glyph glyph-name="L" unicode="L" horiz-adv-x="580" 
d="M465 116q23 -21 42 -48.5t32.5 -58t21 -62.5t6.5 -61l-1.5 7t-3.5 17t-5 20.5t-8 18.5q-7 12 -12.5 18t-10.5 10.5t-11.5 10.5t-17.5 18q-18 20 -43 28.5t-53 8.5q-31 0 -67 -8.5t-62 -27.5q-12 -9 -25.5 -22t-28.5 -26t-31.5 -23.5t-34.5 -13.5q-1 0 2 2t8.5 5.5
t11.5 8.5t11 11q22 25 21 44t-9 33q-8 16 -20.5 21.5t-26.5 5.5q-13 0 -27 -3q-20 -4 -42 -16t-38 -31t-21 -42.5t8 -50.5q-1 0 -11 11t-15 27q-9 32 2 62.5t30 57.5q15 24 36 44t45 34q-11 2 -27 9.5t-24 22.5q1 0 7 -4.5t17 -4.5t23 8q6 5 4 12t-7 14.5t-11 15t-8 12.5
q-6 17 -7 36t7 35q4 9 9 17.5t10 18.5q9 19 15 41q-5 -2 -12 -0.5t-15.5 1.5t-17 -4.5t-15.5 -19.5v0q-2 0 0 11.5t10 19.5q14 15 22.5 21t16.5 18q8 11 11.5 26t3.5 29q-3 -4 -11.5 -7t-16.5 -5t-12 -2t1 2q13 7 19 16.5t9 19.5t4 20t4 17q-26 -4 -43.5 -23.5t-28.5 -40.5
q-6 -11 -14.5 -15t-11.5 -16q-2 -7 -4.5 -16t-4.5 -17q1 -7 3.5 -22.5t15.5 -39.5q-2 0 -10.5 8t-10.5 16q-2 7 -4.5 14t-4.5 18q-2 23 1 42t14 42t26.5 42.5t33.5 36.5q22 22 41 44t31 51q5 12 7.5 19.5t5.5 13.5t7.5 12t12.5 16q13 15 18 32t6.5 30.5t0.5 22.5l-1 9v0
q12 -25 13.5 -45t-2 -35.5t-8.5 -26.5t-6 -17q0 -8 1.5 -12.5t4 -8.5t5 -8.5t2.5 -12.5q1 -11 -4 -25l-2 -6t-2 -5q-2 -2 -3 -3.5t1 -0.5q8 5 13 6t11 7t8 13t3 3q2 -12 0 -22t-6.5 -20t-9.5 -20t-8 -21q-5 -14 -1.5 -26.5t4.5 -26.5q1 -11 -2.5 -21t-7.5 -20q9 0 17 7.5
t15 18t11.5 21.5t5.5 19q0 2 0 -0.5v-7v-9v-6.5q-1 -31 -4.5 -55.5t-26.5 -48.5q-12 -13 -22.5 -25t-15.5 -29q-4 -15 -5 -31t0 -31q3 -40 26 -74q3 -4 10 -15t13.5 -21t10 -16.5t-1.5 -2.5q-1 2 -3.5 6t-6.5 7.5t-9 5.5t-13 0q-3 -1 -1 -10q1 -3 3 -8q1 -14 0.5 -23.5
t-0.5 -23.5q0 -10 1 -25t15 -17q3 3 6.5 2.5t6.5 2.5l4 7q0 2 -3 6.5t-7 17.5q-2 3 3 -3.5t7 -8.5t6 -5.5t6 -3.5q6 -2 12.5 1.5t11.5 5.5q7 3 10.5 5t10.5 1q8 0 15.5 -2.5t15.5 -1.5q8 0 9 3t-0.5 6.5t-5 7.5t-6.5 7q-11 13 -17.5 22.5t-10.5 25.5q-6 23 -2.5 36t6.5 36
q2 14 -0.5 25.5t-6 19.5t-6.5 12.5t-2 4.5q16 -10 24 -31t14.5 -43.5t14 -42t21.5 -25.5q12 -6 25 -8.5t25 -7.5q25 -11 43 -29z" />
    <glyph glyph-name="M" unicode="M" horiz-adv-x="593" 
d="M575 170q8 -37 4.5 -75t-16.5 -73q-14 -36 -33.5 -65t-43.5 -58q-9 -10 -18.5 -21.5t-20 -21t-22 -17t-25.5 -8.5q-1 0 5 3.5t16 11.5t23 21.5t26 33.5q11 17 18 28t11 23.5t6.5 30.5t4.5 49q1 12 -2.5 23.5t-7 22t-5 20t2.5 17.5q7 14 1 29t-23 15q-10 0 -24 -8
q-5 -7 -20.5 -9.5t-24.5 -5.5q-9 -4 -23 -4q-11 0 -18 1.5t-5 1.5q30 1 46 19t21.5 43.5t2 53t-11.5 47.5q-10 25 -25.5 46t-29.5 44q-2 -28 -22 -56.5t-41 -59t-34 -64t0 -72.5v-1q-1 0 -5.5 7t-9.5 17.5t-8.5 23t-2.5 24.5q2 27 9.5 46t13.5 40t7 49.5t-9 74.5
q-5 -6 -7 -16t-2.5 -20.5t0 -21t-1.5 -17.5q-5 -24 -10 -38t-12 -23t-16 -14.5t-23 -12.5q6 4 11 9t9 11.5t6 15.5q3 14 -2.5 23t-7.5 23q-7 -17 -15.5 -38.5t-11.5 -42.5t1.5 -38.5t22.5 -25.5q5 -2 3 -7q-3 -10 -8.5 -24t-9.5 -30t-4.5 -33.5t6.5 -35.5v-1
q-2 0 -11.5 12.5t-10.5 28.5q0 11 -3 21q-14 -45 -17.5 -93t10.5 -93q7 -22 17.5 -45t26.5 -42q6 -5 15.5 -13t20.5 -16.5t21.5 -16.5t16.5 -12q2 -2 -0.5 -1.5t-7.5 2t-11.5 4.5t-12.5 7q-12 9 -24.5 15t-34.5 19q-14 20 -24 31t-23 27q-20 25 -29 59.5t-22 63.5
q-4 8 -8 12t-7.5 8t-6.5 8t-5 12q-2 10 0.5 15.5t4.5 10.5t1 11t-10 17q-4 5 -5.5 12.5t-1.5 15.5t1.5 15.5t4.5 10.5q9 11 15 24t7 25t-4.5 20.5t-20.5 10.5q-6 2 -13 0t-13 -11t-9 -26t0 -46l-2.5 6t-5.5 14.5t-5.5 16t-2.5 10.5q-2 20 0.5 37.5t14.5 33.5q12 17 25.5 23
t28.5 13q24 10 47 26.5t39 38t22 46t-5 49.5q-8 11 -14 17.5t-13 6.5q-10 0 -26 -13q-8 -6 -12.5 -10t-7.5 -8t-5 -8.5t-5 -12.5q-2 -4 -3.5 -10.5t-2.5 -13t-2 -11l-1 -4.5q-2 26 3.5 51.5t22.5 45.5q9 11 21 19t22.5 17t18 20t8.5 27q1 17 2 35.5t-12 32.5
q-10 12 -23.5 19.5t-21.5 20.5q-7 10 -11.5 18.5t-6.5 23.5q-1 8 0 17t-3 18.5t-15 19.5t-35 19q-3 1 1 1t10 -1t12 -1.5t8 -1.5q15 -5 24 -13t16 -17t12.5 -19.5t12.5 -20.5q9 -12 20.5 -20t23.5 -15.5t22.5 -16.5t17.5 -23q11 -20 20.5 -37t26.5 -32q9 -9 16 -18t11 -22
q3 -8 5.5 -25t4.5 -36.5t3.5 -37t1.5 -26.5q15 19 20.5 35t6.5 29.5t0 24.5t0 19l4 32t12 29q9 13 16 24t16 23q11 14 25.5 22t27.5 20q10 9 18 19.5t13 20t8 15.5l3 6q-3 -21 -13 -40t-20.5 -35.5t-19 -30t-10.5 -23.5q-2 -17 -9 -36t-6 -36q1 -26 7 -57t22 -54q6 8 7.5 26
t6 37.5t14.5 37t32 25.5l-4.5 -3.5t-10 -11.5t-10 -20.5t-3.5 -30.5q1 -38 6.5 -75t15.5 -74q4 -16 9 -31t6 -32q1 -12 -1.5 -23.5t-4.5 -23.5q5 11 8 28t7 35.5t11 35t19 24.5l-3.5 -5t-7.5 -14t-6.5 -20.5t-1.5 -25.5q2 -10 4 -15.5t5 -9t6 -8.5t6 -15q5 -20 12 -40
t12 -40z" />
    <glyph glyph-name="N" unicode="N" horiz-adv-x="510" 
d="M477 78q3 -20 4 -39.5t-7 -38.5q-7 -20 -10.5 -33.5t-14.5 -30.5l-11 -16.5t-15.5 -21t-17 -18.5t-15.5 -9q-1 0 2.5 4.5l10.5 13.5t14.5 21.5t13.5 28.5q13 37 9.5 57.5t-13 33t-21 21.5t-14.5 24q-5 23 -15.5 34t-22.5 11q-14 0 -27 -13.5t-21 -39.5q0 -1 -1 3.5
t-1.5 12t0 16t1.5 14.5q4 14 8.5 26t3 26t-12 32.5t-36.5 46.5q-5 5 -12 14t-13.5 18.5t-11 19.5t-4.5 18q0 11 0.5 19.5t-1.5 19.5q-2 9 -5.5 17.5t-8.5 16.5q-3 5 -8 5q-6 0 -9.5 -11t7.5 -27v0q-2 0 -9.5 7.5t-8.5 19.5q-4 36 -9 57.5t-28 28.5q-2 -9 -3.5 -18.5
t0.5 -19.5q2 -9 1.5 -19.5t0.5 -21.5t5 -23t14 -26q2 -2 -5 3.5t-10 7.5q-7 5 -8 9q0 -5 1 -8.5t2 -6.5q1 -8 0 -15.5t-1 -15.5q-2 -17 -11.5 -28.5t-13.5 -28.5q-2 -11 1.5 -27.5t8.5 -27.5q3 -8 8.5 -13.5t9.5 -13.5q3 -7 5.5 -16.5t13.5 -7.5q6 1 11.5 7.5t10.5 10.5
q9 8 12.5 18t4.5 18.5t1 14.5v6v0q8 -16 5 -36.5t-7.5 -42.5t-6 -45t9.5 -45q5 -10 4.5 -15.5t-3 -10t-5 -11t-2.5 -17.5q2 -27 2 -51t9 -51q4 -11 9.5 -22.5t17 -23t31 -22.5t51.5 -20q2 -1 -3.5 -0.5t-13 1t-15.5 1.5t-10 1q-26 7 -51.5 26t-42.5 39q-21 25 -31 52t-16 59
q-4 18 -6.5 34t-5.5 29t-8 24.5t-14 20.5q-6 6 -8 11.5t-5 10.5t-11 9t-27 7q-6 1 -11.5 10t-11.5 19.5t-12 19t-13 8.5q-4 0 -7 -3q-1 -2 -1 1t1 4q7 10 18 11q8 2 16 1t12 11q1 4 0.5 9t-1.5 10q0 6 2 19.5t2.5 27.5t-1.5 24.5t-10 10.5h-2q-6 -1 -6 6q4 19 7 36.5
t12 35.5q8 16 8.5 33.5t-0.5 35.5q-11 -4 -15.5 -18t-8 -31.5t-9 -34.5t-18.5 -28q-1 0 2 5.5t6 15t5 22.5t0 29q-2 15 -2 23.5t1.5 14.5t5 13t9.5 20q4 9 10.5 22t10.5 26.5t2.5 25.5t-15.5 18q-5 3 -4 6q7 15 3 33t-16 29q-8 8 -15 14t-9 17q-2 8 -2 15t-4 14
q-4 8 -9.5 14t-11.5 12q-10 11 -18.5 18t-17.5 18q-1 0 -3 2.5t-5.5 5.5t-8.5 5t-11 1l-7 2.5t-15.5 6t-15 6.5l-6.5 3q0 2 10.5 0t23.5 -5t24 -6t12 -4q8 -4 24 -12.5t31.5 -19t28 -22t14.5 -21.5q2 -8 4.5 -13.5t10.5 -8.5q4 -2 7 -2.5t6 -2.5q8 -5 8.5 -13t5.5 -16
q6 -10 15 -18l18 -16q6 -6 18 -15.5t23 -9.5q2 0 8 2q9 5 11.5 11.5t10.5 23.5q5 8 12.5 15t15 12.5t13.5 9l6 3.5q-18 -15 -25 -30t-10.5 -29t-5.5 -28t-9 -26q-2 -5 -4.5 -9t-5.5 -9q17 -6 32 -18.5t27.5 -28t22 -33t15.5 -33.5q1 3 3.5 9.5t5.5 13t6.5 11.5t4.5 5v-1
q-9 -25 -3 -51t14 -42l6 -12t5 -13q1 -5 0.5 -9.5t0.5 -9.5q2 2 4 3.5t5 3.5q2 1 8 3.5t4 0.5q-14 -14 -10 -25t7 -20q2 -9 8 -17.5t9 -16.5q1 -6 5 -11t6 -6q2 4 3 12.5t0.5 17t-3 15.5t-7.5 8q-7 2 -6 12.5t-1 18.5q-4 14 -3 24t6 23q7 16 8.5 34t-1.5 35q-1 8 -2 15.5
t1 15.5q-4 6 -9 6t-9 -12t-5 -45l-1.5 4t-3 9.5t-2.5 10.5t-1 7q0 24 7 45q4 11 9 21t5 21q0 19 -11.5 35.5t-20.5 32.5q-15 31 -9 67q5 20 10 43t17 41q1 1 4 5t6 8.5t6 8l3 3.5q-6 -18 -9.5 -30.5t-5.5 -22.5t-2.5 -18t-0.5 -16q0 -24 8 -43t35 -19q10 0 19 4t21 9.5
t27.5 12t37.5 12.5q31 8 58 23.5t47 30.5t32 26l12 11q-30 -39 -56.5 -63t-47.5 -41t-36 -31t-23 -34q-10 -24 -13 -42.5t5 -35.5q14 -17 26.5 -37.5t12.5 -44.5q0 -2 -1 -7t-2.5 -10.5t-3 -9.5l-1.5 -4v1q2 32 -6.5 44t-19.5 12q-9 0 -16.5 -6.5t-9.5 -16.5q-2 -11 0.5 -24
t4.5 -24q3 -20 4 -41t-3 -41q7 7 13 14.5t9 19.5q1 6 0 14.5t-2.5 19t-2 20.5t2.5 19v1q1 0 1.5 -5t2 -12.5t3.5 -15.5t5 -13q4 -7 5 -20.5t-0.5 -30t-6.5 -34t-14 -31.5q-9 -16 -14.5 -29t-7 -26t1 -27.5t8.5 -33.5q3 -6 5 -12.5t4 -14.5q4 9 3.5 19.5t2.5 19.5q0 1 3 7.5
t6.5 13.5l6.5 13l3 6q-3 -15 -3 -32.5t1.5 -34.5t4 -32.5t3.5 -26.5z" />
    <glyph glyph-name="O" unicode="O" horiz-adv-x="475" 
d="M313 374q2 13 2.5 26t-0.5 26q-1 9 -3 18.5t-6 17.5t-11 13.5t-18 5.5t-22 -7.5t-15 -24.5q-2 0 -2 10t5 20q6 15 6 27.5t-11 24.5q-3 3 -7.5 5.5t-6.5 6.5q-17 -5 -32 -12t-23 -22q-6 -11 -7 -24t2 -25q8 -30 6.5 -48t-3.5 -31.5t-0.5 -26.5t13.5 -31v0q-2 0 -12 11
t-12 22q-2 8 -2 13q-1 1 -1.5 7.5t-0.5 8.5q-8 2 -12 -3t-6 -12t-2 -13.5v-8.5v-26t-5 -25q-5 -14 -8 -28t0 -30q4 -19 11.5 -38t23.5 -19q7 0 16 4q1 0 -1.5 -3.5t-5.5 -9.5t-4.5 -13.5t0.5 -14.5q6 -21 22 -33.5t29 -20.5q2 9 1 18.5t-2 18.5t-0.5 18t5.5 16q9 13 12 25.5
t2 23t-3 17.5t-3 8q13 -21 15.5 -35t0 -24.5t-5.5 -19.5t-2 -20q0 -5 3.5 -10t8.5 -5q7 0 11.5 5t6.5 9q10 14 15 29.5t10 31.5q7 20 9.5 39.5t1.5 40.5q-1 25 -13.5 55t-33.5 53q5 0 11 -6t12 -13.5t11 -15.5t8 -12q4 -5 6.5 -10.5t6.5 0.5q6 9 7 22.5t2 23.5zM427 270
q5 4 11 6.5t12 3.5t9.5 1t2.5 -1q-14 -7 -22.5 -18.5t-13.5 -25t-8.5 -27.5t-8.5 -26q-6 -17 -12.5 -30.5t-24.5 -21.5q-15 -8 -22.5 -20l-17.5 -28q-7 -12 -13 -19t-13 -19q-8 -14 -9 -29t1 -30.5t4 -31.5t-1 -34q-4 -26 -9 -42t-10 -25t-8.5 -12.5t-5.5 -3.5q-1 0 -1 1
q13 42 4 73.5t-28.5 54.5t-44 40t-43.5 30q-14 10 -26.5 20t-20.5 24t-14 39t-15 39q-3 -5 -1.5 -15.5t3.5 -23.5q3 -16 1 -29.5t-6 -23t-8 -14.5t-5 -5v1q12 30 4.5 58.5t-20.5 54t-25 48t-9 40.5q1 8 5.5 14.5t9.5 12.5t8.5 13t3.5 15q-1 11 -3 19.5t0 16.5
q-7 -2 -18 -10.5t-18 -36.5q0 -1 -0.5 5t-0.5 14t0.5 16t1.5 10q5 20 12 25.5t12 16.5t6.5 21t4.5 21q2 5 4.5 10t7.5 7q2 1 7 0.5t6 0.5q2 2 -2.5 15t-5.5 18q0 3 1 13.5t-0.5 27t-7.5 37.5t-21 45q-4 5 6 -1.5t22 -17.5q24 -23 39 -23q9 0 13.5 8t5.5 19q1 8 8 8t11 7
q5 10 4 18.5t-3 19.5q0 2 -1 7.5t-2.5 12t-2 11.5l-0.5 5q8 -17 23 -26.5t28 -9.5q9 0 15 5.5t5 16.5q-1 20 -32 42t-79 33q2 0 10 -0.5t17.5 -1t17.5 -1.5t10 -1q23 -8 57.5 -22t67.5 -33t58 -43t29 -52q2 -17 3 -33t11 -31q8 -11 17.5 -20.5t17.5 -20.5q15 -20 10 -45
q-2 -14 -8.5 -27.5t-5.5 -27.5q6 3 11 16t10.5 28t13.5 28.5t20 16.5q1 0 -2.5 -3.5t-8 -11t-8 -20.5t-2.5 -32q2 -26 2 -44t-8 -41q-8 -22 -21 -42t-19 -43q8 6 12 10.5t7.5 9.5t8 11t13.5 15z" />
    <glyph glyph-name="P" unicode="P" horiz-adv-x="466" 
d="M453 425q1 -15 0.5 -30t-4.5 -30q-1 -4 -3.5 3.5t-4.5 10.5q-7 10 -13.5 8t-20.5 0q-10 2 -19 2.5t-18 -1.5q-19 -4 -33.5 -18.5t-30.5 -25.5q-9 -6 -21 -13t-25.5 -13.5t-27.5 -10.5t-27 -4h-9t-8 2q-2 -11 0 -18t-1 -13q-1 -13 0 -20.5t2.5 -12.5l3 -10t1.5 -13
t-1 -14.5t-3 -13.5q-2 -6 -4.5 -16t-0.5 -18q6 8 10 11q15 12 31 12q9 0 14 -2t3 -2h-5q-15 0 -28 -11.5t-23 -28t-16 -34.5t-6 -30q-1 -26 5 -52t7 -52q1 -43 -7.5 -85t-35.5 -77q-2 -4 -5 -7t-8 -7q-2 0 2.5 10t10.5 29q14 45 10.5 81.5t-14 64.5t-23 47t-17.5 29
q-3 8 -6.5 18t-10.5 15q-4 4 -12 4q-9 0 -19.5 -5.5t-16.5 -15.5q-2 -3 1 7t5 14q11 20 25.5 40.5t16.5 43.5q1 10 -2 19.5t-6.5 19t-7.5 19t-6 19.5q-1 8 -6 14t-9.5 10t-7.5 5.5t-1 1.5q15 -1 24 -7t14 -12.5t8 -12t6 -6.5q9 33 -7 69q-7 16 -16.5 30t-15.5 30
q-5 12 -5 24.5t-1 25.5q0 9 1.5 13.5t3 9.5t3 12t1.5 21q-1 20 -8.5 35.5t-6.5 15.5q16 -12 23 -28t10.5 -32t7 -29t12.5 -18q0 13 0.5 26.5t-1 26.5t-6 25t-12.5 22q-13 16 -30.5 26t-31.5 25q-5 5 2 9q5 2 10.5 2t10.5 1q6 1 7.5 1.5t3.5 6.5q3 7 0.5 11.5t-7.5 9.5
q-6 7 -12.5 10.5t-9.5 11.5q-8 16 -12 30t-16 28q-10 11 -31.5 29.5t-47.5 26.5q1 0 5.5 -0.5t9.5 -1.5l10 -2t6 -1q13 -5 26 -9t24 -12q13 -10 24.5 -20.5t26.5 -18.5q29 -16 61.5 -32t65.5 -22q6 -2 4 -7q-1 -4 -5 -12q19 -1 36.5 -1t35.5 6q21 8 25 21.5t-2 32.5
q-4 13 -10.5 26t-16.5 22q-4 5 -5.5 9.5t-4 8.5t-8 8.5t-19.5 9.5q-26 10 -16 10q6 0 22 -3q20 -3 33.5 -12.5t25 -21.5t21.5 -24.5t23 -23.5q25 -20 53 -36.5t47 -42.5q18 -25 31 -56.5t20 -60.5q4 -14 4.5 -29t1.5 -30zM288 379q26 22 33.5 49t-9.5 56q-6 10 -12.5 23
t-14 25t-17.5 21.5t-22 12.5q-5 2 -15 2q-11 0 -22 -3q-6 -2 -11.5 -6t-12.5 -6q-9 -3 -25 1q3 -8 6 -14.5t5 -14.5q1 -7 0 -13.5t-2 -12.5q3 -17 10.5 -30.5t15.5 -30.5q3 -6 3 -12.5v-14.5t1.5 -18t6.5 -24q1 -1 -0.5 0.5t-4 4.5t-4.5 6.5t-3 5.5q-5 14 -7.5 19.5
t-10.5 12.5q-1 1 -2 1q0 -2 0.5 -3t0.5 -3q2 -12 3 -23.5t-4 -22.5q14 -2 16 -18t0 -33q29 2 44 9t23.5 16.5t14.5 19.5t16 18z" />
    <glyph glyph-name="Q" unicode="Q" horiz-adv-x="463" 
d="M320 298q0 5 1 15.5t0 21.5t-4 19.5t-11 8.5h-2q-4 -1 -11.5 -9t-6.5 -6q9 14 9 25.5t11 22.5q8 7 3.5 18.5t-8.5 20.5q-2 5 -5.5 14t-8.5 12t-5.5 1.5t-2.5 -5.5q-6 -12 -6.5 -26t-3.5 -27q-1 -2 -3 -6.5t-4.5 -9.5l-4.5 -9l-2 -4v1q4 16 4 29t-1.5 24t-2.5 20t0 17
l4 32t-4 31q-8 21 -25 37t-32 33q-2 -18 -14 -32l-24 -28q-8 -10 -17 -20.5t-16 -21.5q-8 -12 -10.5 -24t-4.5 -26q-2 -11 -6.5 -26t-0.5 -26q2 -5 7 -8.5t7 -8.5q2 -4 1.5 -8t-0.5 -9q1 -15 1 -29.5t-4 -29.5q-2 -13 -5.5 -26t-6.5 -27q3 2 10 2q14 0 24.5 -16t17.5 -30
q7 -13 13 -23t20 -18q8 -5 21.5 -11.5t26.5 -6.5q12 0 18 9q-17 19 -33.5 38t-21.5 42q-3 -8 -0.5 -21.5t-9.5 -38.5v0l0.5 4.5t1 12t0 16t-4.5 16.5q-15 32 -26.5 65.5t-13 67t8 66.5t36.5 63q2 2 3 2q0 1 1 1q2 0 -4.5 -9.5t-10.5 -19.5q-5 -12 -3.5 -21.5t0.5 -15.5
q-1 -5 1 -7t4 -2.5t4 -2.5t2 -7q1 -15 4.5 -23t11.5 -22q4 -8 12 -18.5t19 -10.5q7 0 13 5t11 10q1 1 4.5 2.5t6.5 3t5 2t1 -0.5q-13 -11 -15.5 -28.5t2.5 -37t14.5 -38.5t19.5 -32q8 8 11.5 16t5.5 22q2 11 2.5 22t1.5 22zM450 87q2 -1 -1 -1h-8h-10t-7 1q-5 1 -12.5 3
t-13.5 1q-7 -2 -7.5 -6.5t-0.5 -10.5q0 -42 -9 -74t-25.5 -59t-39.5 -51.5t-50 -51.5q-17 -16 -33 -33.5t-40 -25.5q-1 0 1.5 2.5t6.5 6t7.5 6.5t4.5 5q8 9 14.5 15.5t12 13.5t11.5 14t13 17q12 17 20 33t19 34q23 41 22 87t-16 89q-1 -1 -2 -9t-2.5 -16.5t-3 -16t-2.5 -9.5
q-2 0 -1 13.5t-4 27.5q-2 9 -5.5 17.5t-8.5 16.5q-10 -14 -7 -28t4 -30q0 -11 -3.5 -20.5t-6.5 -19.5q-4 -13 -12.5 -25t-18.5 -25t-19 -29t-14 -37q-2 0 -2 15t11 43q7 16 6 33.5t-7.5 33.5t-16.5 29.5t-22 23.5l-26 22t-25 24q-11 12 -21.5 24t-24.5 21q-1 -4 2.5 -12
t6 -19.5t2.5 -24.5t-8 -28q-1 0 -1 5.5t-1 14t-4 18.5t-9 19q-10 15 -22 26.5t-17 29.5q-5 16 1 30t9.5 26.5t2.5 26.5q-6 -13 -13 -30t-23 -23q2 2 8 13.5t8 46.5q1 24 -2 40.5t-4 40.5q0 18 0.5 37t5.5 37q5 14 14 26t17 26l14 23q-3 -2 -7.5 -8.5t-10.5 -13t-13 -12.5
t-15 -7q-4 0 -2.5 0.5t6 4t10.5 10.5t11 19q11 26 24.5 41.5t33.5 34.5q12 12 23.5 27t10.5 34q0 11 -3.5 16.5t-9 9t-12.5 6.5t-15 7q-1 0 -13.5 4.5t-22.5 8.5q-14 6 -19 13.5t-3 7.5q14 -7 34 -12.5t41 -10.5t40 -8.5t31 -5.5q44 -9 80 -36q17 -13 36 -32t36.5 -41
t32 -44.5t22.5 -42.5q-1 0 -9 9t-22 11q-1 0 -1.5 0.5t-1.5 0.5q5 -20 17.5 -37t21.5 -35q11 -20 15.5 -43.5t7.5 -46.5q1 -5 -0.5 -12.5t-2.5 -15.5t1.5 -17t11.5 -17q4 -4 -4.5 -1.5t-15.5 13.5q1 -19 5 -38t20 -31q2 -1 5 -4t5.5 -6t4 -5.5t-0.5 -1.5q-10 5 -20 5
q-13 0 -25 -6.5t-19 -15.5q-6 -8 -10.5 -15.5t-11.5 -14.5q10 -5 22 -17q7 -7 9 -16t6.5 -18t16 -18.5t37.5 -19.5z" />
    <glyph glyph-name="R" unicode="R" horiz-adv-x="646" 
d="M584 -65q13 -7 22.5 -16.5t15.5 -18.5t9 -15.5t2 -6.5q-25 24 -45.5 34t-38 12.5t-32 2t-26.5 3.5q-23 8 -45 15t-43 18q-36 17 -58.5 37.5t-44.5 52.5q-7 9 -13.5 14t-18.5 7q-5 1 -8.5 1.5t-8.5 2.5q-8 3 -15 7.5t-12 9.5q-7 6 -12 12h1q20 -14 42 -14.5t31 0.5
q5 0 13 0.5t13 2.5q8 4 7.5 8.5t-4.5 10.5q-8 15 -22 20.5t-24 16.5q-5 5 -7.5 11.5t-6.5 11.5q-5 8 -11.5 12t-14.5 9q-6 3 -11 8t-12 10.5t-17 10t-27 6.5q-2 1 4 3.5t22 3.5q6 1 9 0.5t8 0.5q-4 11 -9 24.5t-12 25.5t-16.5 21.5t-21.5 12.5q0 -2 -2 -2q-1 -1 -4 -1
q-5 -5 -5.5 -13t1 -17t3.5 -17.5t3 -14.5q2 -15 0 -29t-3 -29q-2 -17 0.5 -33t7.5 -32q3 -9 4.5 -18t-3.5 -18q-2 -4 -6 -2q-5 1 -11 7q3 -7 7 -13.5t6 -14.5q3 -11 2 -23t-1 -23q0 -34 4.5 -69.5t18.5 -66.5q7 -16 16.5 -28.5t18 -21t14 -13l5.5 -4.5q-32 16 -50.5 36.5
t-28.5 39.5t-13.5 33.5t-6.5 17.5q-11 13 -22.5 25.5t-20.5 27.5q-8 11 -12 23t-8 26q-4 13 -11.5 16t-22.5 6h-9h-17h-16t-6 0q29 11 40.5 23.5t12.5 25.5q1 12 12 29t12 29q1 11 1 23t-2 23q-1 6 -2 11.5t-2 10.5q-3 -2 -7 -4.5t-8.5 -8t-10 -15.5t-10.5 -27q0 -1 -1 3.5
t-1.5 12t0 17t3.5 18.5q5 15 12 25t13 21t10.5 27t4.5 42q0 23 -4.5 46.5t-1.5 47.5q-20 -15 -28.5 -51.5t-5.5 -77.5q0 -2 1 -6.5l2 -9t1.5 -7t-0.5 -1.5q-8 9 -11.5 23.5t-4.5 29.5t-0.5 28.5t0.5 20.5q-1 17 1 33.5t12 30.5q5 6 10 11t9 11q5 8 8.5 15.5t7.5 15.5
q11 22 9 43t-13 41q-11 19 -23.5 31.5t-31.5 22.5q-11 5 -18.5 12t-13.5 19q-7 15 -14 28t-17 27q-2 3 -5.5 6.5t-11 10.5t-20 17t-31.5 25l9.5 -4t21 -9.5t20.5 -10t9 -6.5q13 -7 24 -15t21 -20q12 -16 26.5 -25.5t31.5 -20.5l14 -10t14 -12q8 -8 13.5 -15t18.5 -11
q6 -2 11.5 -4t11.5 -4q4 -2 10.5 -5.5t9.5 3.5q0 1 1.5 1t-5.5 10q-4 7 -5.5 17t0.5 10v-1q10 -20 27.5 -30t32.5 -9q8 1 14 2t13 -1q13 -3 23 -11.5t21 -13.5q0 3 2 11q2 11 -1 19.5t-11 16.5q-20 20 -38 44t-23 54q-1 10 -1 24t1 27t2.5 22.5l1.5 9.5q2 -40 7.5 -63
t12 -35t13.5 -17.5t13 -10.5q11 -11 22.5 -19t22.5 -17q10 -8 14.5 -18t11.5 -19q9 -13 20 -24t21 -23q39 -48 62 -102q14 -28 21 -57t15 -58q2 -7 0.5 -13.5t-4.5 -12t-5.5 -8.5t-3.5 -3v1q6 14 5 23.5t-5.5 14.5t-10.5 7.5t-9 3.5q-8 2 -17 -4l-15 -10q-11 -6 -22.5 -10.5
t-22.5 -12.5q-8 -6 -16 -13t-19 -11q-6 -2 -12.5 -2.5t-13.5 -0.5l8 -6l8 -6q2 -2 4.5 -7t7 -10t12.5 -9.5t20 -5.5q2 -1 -2 -2t-12 -1q-13 0 -24 6l-2 1q8 -16 26 -25t33 -13q7 -2 14.5 -9.5t13.5 -17.5t10.5 -20t5.5 -18q-2 0 -6.5 8t-11.5 12q-5 2 -7 1.5t-7 1.5
q2 -8 8 -14t14 -11.5t16 -10t14 -9.5q9 -7 12 -16t3 -19t-1 -20t-1 -20q2 -33 22 -58t45 -44q24 -18 45.5 -26.5t48.5 -22.5zM303 429q4 27 -7.5 55.5t-30.5 48.5q-11 10 -22.5 17.5t-25.5 12.5q-4 2 -12 5.5t-13 2.5q-3 -1 -6 -4t-6 -5q-2 -2 -5 0q-5 5 -10.5 7.5
t-10.5 6.5q-4 -15 -21 -13q-2 -15 5 -27t9 -26q1 -9 -0.5 -18t-0.5 -18q0 -6 -2 -15t6 -9h2q3 1 -0.5 -4t0.5 -15q0 -1 3 -4.5t7 -7t8 -6.5t7 -3t2 5t0.5 4t4 -5t5.5 -9t4 -9q5 -11 19.5 -15.5t28.5 -4.5q24 0 41 14.5t21 38.5z" />
    <glyph glyph-name="S" unicode="S" horiz-adv-x="522" 
d="M509 244q3 1 -3 -6t-10 -9q-14 -6 -19.5 -16.5t-8 -23t-5.5 -25t-11 -22.5q-10 -12 -20.5 -20.5t-21 -16t-20.5 -16t-18 -20.5q-11 -17 -17 -34t-1 -36q3 -13 2 -19t-4 -13.5t-5.5 -19.5t-1.5 -37q1 -9 -2.5 -22t-7 -29t-4.5 -34.5t5 -37.5q-1 0 -9.5 16t-9.5 39
q0 6 -0.5 13t-0.5 12q-1 8 -2 14.5t-4 13.5q-4 11 0 29t3 30q-1 16 -8 33.5t-17.5 33t-24 28.5t-28.5 21q-11 5 -22 6.5t-20 7.5q-10 7 -15 23q-3 9 -13.5 23.5t-15.5 22.5q-6 -9 -6.5 -21t3.5 -38l-4 8.5t-8 19t-7.5 20.5t-3.5 12q-1 8 -2.5 15t-6.5 13q-7 10 -14 19.5
t-14 18.5q-2 -4 -1 -13t1 -14q-1 -20 -6.5 -33t-6.5 -13v1q3 25 -0.5 41.5t-10.5 28t-14 19t-10 14.5q-7 16 -13.5 31.5t-8.5 32.5q-3 23 -4 44.5t-5 43.5q-1 9 -2.5 15t-2.5 13t-1 17.5t1 28.5q1 11 5.5 22.5t10 20.5t10.5 15l5 6q-13 -31 -14.5 -56.5t3 -46t12.5 -37
t13 -29.5q19 -43 57 -68q23 -15 48.5 -20t50.5 -15q11 -5 20.5 -11t19.5 -13l18 -10t16 -13q1 -1 3.5 -5.5l5 -9t4.5 -8t1 -3.5q-15 14 -25.5 20t-18.5 8.5t-14.5 2.5t-13.5 3q-11 4 -26 7q-5 1 -9 1.5t-9 0.5q-8 0 -7.5 -2.5t5.5 -7.5q8 -10 21 -24t28 -26t31 -20.5
t31 -8.5t29 6.5t25.5 17t18 23.5t5.5 27q-2 18 -12 30.5t-25 23.5q-9 6 -15.5 13t-13.5 14q0 -5 1.5 -12.5t2.5 -17.5t0 -22t-7 -25v0l0.5 4.5t0 12t-3 16.5t-9.5 18t-13 14t-10 16q-5 12 -3.5 22.5t-3.5 23.5q-7 16 -16.5 29t-21.5 26q-8 8 -14 17.5t-12 18.5v-24t2 -23
q1 -7 3 -11.5t4.5 -9.5t5 -12.5t4.5 -19.5q3 -17 2 -31.5t-2 -10.5q-3 25 -8.5 39t-11 22t-10.5 13t-8 11q-6 14 -10 29.5t-8 30.5q-4 14 -5 30.5t-10 28.5q-7 10 -17 16.5t-18 16.5q-8 12 -11 26t-17 25q-10 8 -22 12t-22 14q-8 8 -11.5 19.5t-11.5 19.5q-9 9 -21.5 15
t-24.5 12q-2 1 -0.5 3t3.5 0q2 0 4 -2q7 0 22 -4t31.5 -10t30.5 -12t19 -11q13 -11 23 -23t26 -21q14 -8 28 -14.5t29 -12.5q1 9 -3.5 18.5t-12 18t-15.5 16t-15 12.5q-7 6 -10 15.5t-9.5 20t-20 21t-41.5 17.5q-1 0 3.5 1t12 0.5t17 -3t18.5 -7.5q12 -7 23 -21t22 -23
q14 -11 28 -17t33 -8q15 -1 30 -0.5t29 -1.5q13 -2 19 -9t13 -16q2 -3 7 -8t10 -2q2 2 2.5 6.5t0.5 6.5q2 13 0 24q-2 17 -11 31t-19 28q-18 23 -39 44t-29 50q-1 4 -1.5 12.5t1.5 4.5q8 -18 17 -29.5t18.5 -20t18.5 -15t16 -12.5q13 -11 25.5 -18t25.5 -18
q24 -20 41.5 -38.5t31.5 -47.5q11 -23 17 -50.5t1 -53.5q-5 -21 -18 -42t-36 -31q-2 0 4 6.5t11 16.5q3 7 6 11t5 8.5t3.5 12t0.5 20.5q-2 20 -20 29.5t-36 9.5q-13 0 -24.5 -7.5t-12.5 -35.5q0 -4 -3.5 3.5t-4.5 18.5q-1 13 -6 22t-19 14q-12 4 -25 7l-26 6q2 -6 3 -11.5
t0 -12.5q-1 -11 -2 -19.5t8 -16.5q6 -5 12.5 -9t12.5 -9q4 -5 7 -9.5t5 -9.5q5 -2 4 -6v-4q7 -19 26.5 -27t36.5 -13q6 -1 16 -5t20 -9t18.5 -11.5t10.5 -12.5q-2 0 -8.5 2.5t-17.5 2.5h-11.5t-11.5 -2q11 -8 22.5 -15t22.5 -15q8 -8 13 -17t9 -19q8 -25 21 -52
q8 -18 24 -26.5t39 -3.5z" />
    <glyph glyph-name="T" unicode="T" horiz-adv-x="488" 
d="M451 641q-3 -8 -4.5 -19t-2 -23t-0.5 -23v-20q1 -17 0.5 -35.5t-7.5 -35.5q-4 -10 1.5 -28.5t11 -39.5t6 -42t-13.5 -36q-2 -4 -2 -2l2 2q4 5 6.5 22.5t-14.5 49.5q-9 17 -17 27.5t-10 21.5q-2 8 -4 15.5t-4 15.5q-2 17 -1.5 33.5t-3.5 32.5q-3 -5 -9.5 -12.5t-7.5 -33.5
q-2 0 -4.5 8.5t-1.5 20.5q1 11 -2 18t-10 16q-7 11 -14 13.5t-15 0.5q-10 -3 -19.5 -2t-19.5 0q-12 -6 -15 -11.5t-1 -11t7 -9.5t9 -7q5 4 10 -1t12 -4q15 2 19.5 -3.5t2.5 -5.5q-3 1 -8 1q-28 0 -24 -59q1 -6 -0.5 -14.5t-4 -17.5t-4 -17.5t-0.5 -14.5q2 -13 8 -17t5 -17
q-2 -23 1 -43.5t5.5 -39.5t1.5 -37.5t-10 -36.5q5 3 10 17t11 31.5t13 33t14 20.5q1 0 -0.5 -4t-4 -11.5t-4 -19.5t0.5 -29q2 -16 0.5 -26.5t-5 -18.5t-8 -14t-9.5 -14t-10.5 -15.5t-11.5 -15.5q-8 -10 -17.5 -17.5t-18.5 -16.5q-11 -12 -17 -28t-8 -33.5t0.5 -35t7.5 -32.5
q3 -8 1.5 -14t-3.5 -11t-4 -11t0 -14q3 -16 8.5 -37t15.5 -53q1 -3 5 -9.5t8.5 -13t7.5 -12l3 -5.5q-19 16 -32 34.5t-22 36t-14.5 33t-10.5 26.5q-8 19 -11.5 39.5t-4.5 40.5q0 24 3.5 47.5t6.5 47.5q3 25 2 47q0 18 -3 36q-2 -4 -2 -8q-5 -23 -14.5 -39.5t-10.5 -16.5
q6 18 8 36t2 33.5v29.5t3 24q4 13 9.5 24.5t11.5 23.5q8 15 12.5 30t6.5 32q2 15 -1.5 27.5t-9.5 25.5q-1 -14 2 -26t0 -29t-12 -26.5t-11 -9.5v1q9 19 8 34.5t-5.5 28t-10.5 23t-7 20.5q-3 22 1 43t6 43q1 9 1 18t1 18q1 5 1.5 12t-7.5 10q-6 2 -10.5 -1t-6.5 -8
q-5 -12 -7.5 -40.5t3.5 -56.5v-1q-2 0 -7 12.5t-7 25.5q-1 7 -1 18.5t-2 18.5q-1 5 -4 13.5t-8 8.5q-3 0 -6 -4q-2 -5 -0.5 -13.5t2.5 -12.5q1 -7 2 -13.5t1 -13.5q0 -17 -4.5 -33t-6.5 -33q-1 -6 -1.5 -15.5t-3.5 -21t-9 -23.5t-18 -22l2.5 5t5.5 12.5t5.5 16.5t2.5 18
q0 18 -2 37.5t-6.5 38t-13.5 35.5t-24 29q-8 6 -15.5 9.5t-15.5 8.5q-7 5 -10.5 14t-5.5 19t-3 20.5t-4 17.5q-3 11 -5.5 24t-11.5 28.5t-27.5 33.5t-53.5 37q1 -1 18.5 -8t38.5 -17.5t41.5 -23.5t27.5 -27q7 -12 18.5 -16.5t22.5 -4.5q7 0 12 1.5t5 4.5t2.5 5t6.5 0
q28 -15 58 -20.5t62 -5.5q7 0 16 3.5t18.5 7t18.5 6.5t16 2q14 -2 27.5 -5t27.5 -1q-10 23 -21 38.5t-20 24.5t-14.5 13l-5.5 4q17 -6 27 -12.5t17 -12.5t12 -11.5t11 -9.5q3 -1 11.5 -3.5t17.5 -5t17.5 -4.5t12.5 -2q12 0 26 4.5t29 16.5t30 32.5t29 51.5q-7 -19 -13 -36
q-5 -15 -10.5 -31t-10.5 -27q-3 -6 -8.5 -14t-12 -16t-12.5 -16t-8 -14z" />
    <glyph glyph-name="U" unicode="U" horiz-adv-x="524" 
d="M496 692q5 0 -3.5 -3.5t-15.5 -10.5q-17 -18 -23.5 -36.5t-8.5 -42.5q-1 -12 -4 -28.5t-4.5 -34t0 -35t9.5 -31.5v-1q-2 0 -12.5 13t-13.5 27q-2 8 -2 21t-4 21q-8 17 -11 -4v-12q1 -19 9 -32t16 -30q9 -19 16.5 -34t11.5 -30t4 -32t-7 -40q-4 -11 -11 -18t-5 -1
q5 14 5 21t-2.5 11.5t-5 7t-4.5 7.5q-1 -8 -2 -15t-4 -14q-4 -8 -6 -14t0 -16q2 -5 4 -10.5t4 -11.5q4 -9 4.5 -20.5t5.5 -19.5q7 -10 17 -10q14 0 30 15t28 44q1 0 0.5 -5t-2 -12.5t-4 -15t-6.5 -13.5q-16 -23 -29 -46t-28 -46q-22 -34 -24 -62t5 -48.5t16 -32t8 -11.5
q-13 8 -26.5 21.5t-25.5 29t-21.5 30.5t-14.5 26q-11 25 -11.5 50.5t-5.5 51.5q-16 -17 -36 -30.5t-33 -33.5q-7 -11 -10 -27.5t3 -29.5q4 -8 9.5 -15t9.5 -15q9 -21 11 -44.5t13 -43.5q12 -23 26.5 -36t26 -19.5t18.5 -8.5t4 -2q-27 0 -55 11q-16 8 -30 21t-26 28
q-18 23 -30.5 49t-28.5 51q-17 26 -36.5 51.5t-39.5 48.5q-15 17 -36.5 30t-46.5 13q-28 0 -55 -20l8.5 11.5t21.5 26t27.5 28.5t25.5 19q14 6 28 14t23 22q6 11 9 22.5t7 23.5q-12 3 -28 -6.5t-21 -16.5q-3 -4 -1 3t8 18.5t14.5 25t18.5 21.5q11 10 16 24t5.5 30t-1.5 33
t-4 32q-2 12 -5.5 24t-7.5 23q0 -2 -0.5 -4.5t-0.5 -4.5q-2 -11 -5.5 -16.5t-7.5 -15.5q-5 -13 -5 -25t2 -21t4.5 -14t1.5 -5q-4 5 -8.5 15.5t-7.5 22.5t-5.5 23t-2.5 17q-2 22 -8 47.5t-17 45.5q-5 9 -11.5 17t-11.5 17q-5 11 -9 21t-9 21q-8 18 -19.5 35t-22 30t-19 21.5
t-11.5 10.5q2 -1 8 -5t12 -8.5t11 -8.5t6 -5q13 -9 23.5 -21t21.5 -23l16 -16l16 -16q5 -6 9.5 -13.5t14.5 -9.5q7 5 7.5 13.5t-1 16t-4 13t-1.5 4.5q12 -10 20.5 -24t15.5 -29t13.5 -28t13.5 -20q17 -16 29 -29t20.5 -27t13 -31.5t6.5 -41.5q2 -20 -1.5 -39.5t-5.5 -39.5
q2 1 8 1q3 1 11 1t6 -2q-20 -20 -23 -40.5t-11 -38.5q-9 -20 -13.5 -38.5t-1.5 -41.5q4 -17 11 -31.5t27 -14.5q23 0 39.5 12.5t30.5 29.5q-2 11 -3.5 20.5t-3.5 19.5q-3 11 -8.5 21t-9.5 21q-8 19 -6.5 39t0.5 40q-1 2 -3.5 19t-15.5 48l5 -7t11 -19.5t12 -29.5t7 -37
q1 -13 6 -22.5t11 -9.5q7 0 11 9q5 11 0 28t-9 28q-5 12 -8 22.5t-3 23.5q0 14 0.5 28.5t-0.5 28.5q0 17 -3 33.5t-13 30.5q-8 11 -24 29.5t-42 29.5q-2 1 1 1.5t8.5 -0.5t13 -3t14.5 -6q32 -21 73 -21q36 0 63 18q11 7 20 16.5t19.5 18.5t23.5 15t30 6z" />
    <glyph glyph-name="V" unicode="V" horiz-adv-x="839" 
d="M826 752q2 -1 -3 -1t-12.5 -0.5t-15.5 -1.5t-12 -3l-12 -7.5t-7 -4.5l-7.5 -5l-13.5 -9q-11 -7 -17 -13t-9.5 -13t-7.5 -14t-10 -16q-11 -15 -20.5 -30t-19.5 -30q-6 -11 -13 -20t-15 -18q4 2 8 2t9 1q10 4 19.5 5t17.5 1q13 0 20 -1.5t5 -2.5q-14 -4 -34 -14.5
t-39.5 -24.5t-34 -30.5t-18.5 -33.5q-2 -11 -4 -21.5t-4 -21.5l-4 -26t0 -26q1 -11 2 -21t0 -21q-1 -10 -6.5 -18t-10.5 -19.5t-8 -29t0 -46.5v-1q-2 0 -8 11t-8 23q-1 9 -0.5 16.5t-0.5 15.5q-16 -12 -22.5 -34t-9.5 -40q-2 -14 -2.5 -28t3.5 -28q2 -9 6 -17.5t11 -15.5
q5 -4 16.5 -10.5t37.5 -2.5v0q2 0 -2 -2t-10.5 -4t-14.5 -3.5t-15 -0.5q-11 1 -22.5 5t-22.5 4q-13 -1 -27.5 -5.5t-29 -11.5t-27 -16t-21.5 -18q-16 -17 -23.5 -38t-12.5 -43q-3 -14 -4 -29t2 -32.5t11 -37t23 -42.5v-1l-30 30q-21 18 -29.5 49.5t-10.5 57.5
q-1 17 -0.5 33.5t3.5 33.5q2 12 4 23.5t2 23.5q0 6 -1 12.5t-3 12.5q-13 -7 -19 -16.5t-9 -17.5q-3 -10 -2 -20v0q-6 21 -6.5 36.5t2 27.5t6 21t3.5 16q1 19 0.5 35.5t-5.5 34.5q-7 29 -15 58l-16 58q-2 -5 -4 -9.5t-4 -9.5q-2 -7 -4.5 -22.5t2.5 -50.5l-2.5 6t-5.5 13
t-5.5 14t-3.5 8q-7 16 -8.5 32.5t0 33t3 33.5t-1.5 34q-5 29 -16.5 53.5t-23.5 50.5q-1 -18 -5 -25.5t-5 -25.5q0 -20 2.5 -34t13.5 -38q1 -1 3.5 -6.5t5.5 -10.5t5 -9.5t1 -4.5q-15 17 -29.5 35.5t-23.5 40.5q-10 23 -11.5 47.5t-0.5 49.5q0 16 -1 30.5t-8 28.5
q-5 12 -13 17t-15 16t-14.5 22t-15.5 22q-7 10 -12 15t-9.5 7.5t-9 4.5t-11.5 6q-13 18 -27.5 32t-42.5 37l10.5 -6t23 -12.5t23 -12.5l10.5 -6q7 -5 13 -9q5 -4 8.5 -6.5t3.5 -3.5q14 -4 24.5 -12t21.5 -16q14 -10 28.5 -16.5t29.5 -13.5q17 -8 32.5 -18t34.5 -15
q10 -3 22.5 0t27 7.5t29.5 8.5t31 2q2 0 -2 -2t-10.5 -5t-13.5 -8t-12 -11t-6 -11t-6 -11l-7.5 -7.5t-5.5 -9.5q-1 -6 4 -13t8 -11q9 -11 17.5 -20t15.5 -21q13 -23 14 -50q1 -13 -3 -25t-6 -25q8 1 12 -2.5t6.5 -9.5t3.5 -13.5t3 -15.5q5 -16 14.5 -29.5t16.5 -29.5
q6 -14 14.5 -23.5t16 -15t12.5 -8t4 -2.5q-5 -2 -13.5 -1t-18 3t-17.5 4.5t-13 2.5q21 -32 39.5 -63.5t26.5 -68.5q4 5 6.5 11.5t4.5 12.5l8 16l8 16q5 13 7.5 26.5t-0.5 27.5q-2 8 -4 14t-3 13q-2 2 -2 4q2 17 8 31.5t15 28.5q22 34 21 74q-1 19 1 37.5t12 32.5
q-2 -1 -3.5 -1.5t-3.5 -2.5q-5 -4 -9 -9t-10 -7q-7 -3 -14 -7t-13.5 -14t-11 -27t-7.5 -46l-1.5 7.5t-2.5 16.5t-1.5 17t-0.5 10q3 33 18 58t41 45q21 17 38.5 39t37.5 40q9 8 18.5 15t20.5 12q37 16 61 34.5t53 41.5q18 14 41.5 25t46.5 11q15 0 26 -4z" />
    <glyph glyph-name="W" unicode="W" horiz-adv-x="789" 
d="M745 791q8 14 18.5 19t12.5 5q-14 -9 -21.5 -24.5t-12 -32t-6.5 -33t-6 -27.5q-7 -21 -16.5 -40.5t-13.5 -42.5q-4 -22 -8.5 -51.5t-6.5 -59t-1 -55.5t8 -42v-1q-1 0 -7.5 10t-8.5 18q-5 17 -5.5 32t-6.5 29q0 3 -5 11q-2 5 -5 10q-2 -1 -1 -10t1 -11q1 -13 0.5 -25
t-2.5 -25q-3 -18 -10 -35t-5 -35q2 -16 6 -31.5t3 -31.5q-2 -13 -8.5 -22.5t-10.5 -21.5q-3 -8 -4 -18t-1 -19v-10t3 -9q4 -5 8 -1t8 11q8 15 17.5 21.5t11.5 6.5q-9 -8 -13 -20t-7 -24t-5 -22.5t-6 -15.5q-9 -11 -14 -23t0 -26q1 -3 -1 -5q7 -20 11.5 -38t4.5 -39
q1 -22 -1 -43.5t-6 -43.5q-2 -11 -6.5 -30t-10.5 -39t-13 -38.5t-13 -28.5q-2 -3 -9 -12t-8 -9v1q6 21 7.5 34.5t0.5 23t-4.5 17t-6.5 15.5q-7 15 -13.5 25.5t-14.5 25.5q-25 49 -55 92q-14 21 -33 38t-33 39q-11 16 -22.5 34t-14.5 38q-5 -5 -9 -10t-9 -10
q-9 -7 -19.5 -11.5t-18.5 -12.5q-16 -15 -24.5 -39t-3.5 -47q11 -49 46 -93t82 -63q3 -1 -0.5 -1t-9.5 0.5t-12 2t-9 2.5q-30 14 -58.5 34t-50.5 44q-20 23 -34 48t-30 50q-1 -6 -0.5 -12t1.5 -13t0 -15.5t-3.5 -16t-4.5 -13l-2 -5.5v1q2 10 0 24t-6.5 27.5t-10 25
t-8.5 17.5q-6 11 -18 23t-26.5 22.5t-29 19.5t-26.5 13q-9 3 -16 8t-21 5t-28 -5q-1 -1 1 1.5t5 5.5t7 6t5 4q17 9 34.5 20t29.5 27q11 14 17.5 30t17.5 30q11 15 22 29.5t16 33.5q6 26 3 51q-2 -5 -7 -6.5t-7 -6.5q-2 -7 -5.5 -15.5t0.5 -28.5q0 -2 -1 0t-3 5t-3.5 6.5
t-2.5 4.5q-3 11 -1 21.5t4 21.5q3 17 4.5 34.5t2.5 34.5q2 33 -10 67t-36 59q-2 -2 -5 -7.5t2 -23.5q0 -1 -1.5 2t-3 7t-3.5 8t-2 5q-4 8 -4 18t-2 20q-3 14 -11 23t-19 17q-16 14 -32 28.5t-28 31.5q-5 5 -9 13v2q0 1 5.5 -5t15.5 -15t22.5 -18.5t27.5 -16.5
q18 -8 35.5 -16t36.5 -16q18 -7 35 -21t32 -32t27 -37.5t19 -36.5q-1 0 -9 12t-19 20q-5 4 -12.5 8t-12.5 2q11 -12 18 -26t15 -28q11 -19 23 -37t19 -39q8 -23 14 -48t10 -48q4 -18 1.5 -29.5t-6.5 -28.5q-1 -4 -5.5 -19t2.5 -42v-1l-2.5 4t-5 10t-4.5 12.5t-2 10.5
t0.5 15.5t1.5 15.5q3 21 -5 34t-28 23q3 -9 6 -18.5t3 -18.5q0 -8 -3 -20t-8 -24t-10.5 -23t-10.5 -17q-8 -10 -16.5 -18t-16.5 -17q12 -8 18 -19.5t14 -23.5q13 -20 34 -20q24 0 43 21q33 36 38.5 85.5t-11.5 91.5q-3 6 -3 14.5t1 15.5t2.5 11.5t1.5 1.5q2 -30 10.5 -40.5
t12.5 -12.5q11 -5 8 -3t-5 10l-12 40t-16 40q-15 31 -17 67q0 12 -2.5 28.5t-7.5 34.5t-13.5 35.5t-21.5 30.5q2 0 16 -9.5t22 -26.5q5 -8 12 -17.5t13 -17.5q5 -8 9 -13t8 -13q6 -15 9 -32q13 27 37 45q14 11 28 16t29 13q9 5 16.5 12.5l15.5 15.5q2 5 9.5 13t17.5 16
t20 14t17 6q2 0 -0.5 -1.5t-8 -4.5t-11.5 -9t-11 -15q-2 -4 -6.5 -11t-9 -14.5t-8.5 -14t-6 -9.5q-6 -14 -13 -26.5t-13 -26.5q-8 -17 -9.5 -35t0.5 -37q1 -6 2.5 -17.5t3 -23.5t2.5 -23.5t-1 -17.5v0q-1 0 -3.5 10.5t-12.5 19.5l-7 6q-1 -14 0.5 -28t5.5 -26
q4 -14 8.5 -26.5t6.5 -26.5q1 -15 -3 -29.5t-3 -29.5q1 -14 7.5 -28t15.5 -25q2 0 2 -2l3 -3q4 -5 0 -10q8 -7 18 -19t20 -26t19 -27.5t13 -23.5q5 12 2 27.5t-6 26.5q-5 15 -12 27.5t-14 26.5q-15 32 -16 70t1 72q2 17 9.5 27t9.5 10v-1q-5 -12 -4.5 -26.5t4.5 -29
t9.5 -26.5t9.5 -20q-2 10 -4.5 20t-3.5 20q-1 14 0 27t5 26q7 28 13.5 57t-2.5 57q-17 -5 -31.5 -25.5t-7.5 -60.5v-1l-2 4t-4 9l-4 10t-2 7v2q-3 25 1 52.5t19 49.5q16 23 38.5 41t42.5 38q23 24 45 49t41 53q18 28 31 57.5t30 58.5z" />
    <glyph glyph-name="X" unicode="X" horiz-adv-x="635" 
d="M622 -101q1 -10 0 -22.5t-6 -21.5q-10 -15 -19.5 -25.5t-11.5 -10.5v2q15 26 16.5 46.5t-3.5 38t-13.5 32t-13.5 29.5q-7 21 -16 43t-22.5 39.5t-32 29t-44.5 11.5q-17 0 -30 -4q-14 -3 -27 -5.5t-27 -0.5q-12 2 -23 8.5t-28 6.5q-8 0 -17 -2t-21 -7q-2 0 3.5 7.5
t16.5 13.5q7 3 12.5 4t12.5 3q9 2 16.5 7t13.5 12q13 14 15.5 34t-5.5 38q-4 10 -12.5 24t-18.5 28.5t-21 26t-20 16.5q-12 -11 -20.5 -24.5t-16.5 -28.5q-8 -14 -17.5 -27t-19.5 -26q-12 -17 -21 -34t-10 -38q0 -8 -1.5 -17t0 -20.5t6.5 -26t18 -34.5l-4 3.5t-9 8t-9 9.5
t-6 9q-4 9 -10 16.5t-9 16.5q-8 -32 -12.5 -66t-1.5 -66q3 -21 2.5 -32.5t4.5 -31.5q3 -12 5 -19t4.5 -12.5t6 -10t8.5 -10.5q1 -1 4.5 -5.5t7 -10t7.5 -10.5t5 -7h1h-1q-2 1 -9 6.5t-15.5 12t-17 14.5t-14.5 14q-12 14 -20 29.5t-15 31.5q-8 19 -14.5 48t-14 59t-17 57.5
t-23.5 43.5q2 0 11 -5t17 -17q10 -15 15.5 -24t8.5 -12q-7 25 -11 50t3 50q4 13 10 25.5t12 24.5q3 8 6.5 16.5t5 20.5t-1 29t-10.5 42l3.5 -5t8 -12.5t9 -14.5t5.5 -12q5 -23 6 -43.5t-3 -42.5q5 14 10 27.5t16 24.5q11 12 24.5 22t24.5 22q13 14 22.5 29t20.5 30
q-7 17 -19 31.5t-20 30.5q-8 14 -14.5 28t-22.5 20q-3 -14 -2.5 -26t2 -24.5t3 -27.5t-0.5 -35q-1 -14 -7 -26t-8 -12v1q6 29 -1 48t-12 31q-6 14 -8 28.5t-4 30.5q-2 22 -6.5 37.5t-12 28.5t-18.5 25t-26 26q-22 22 -40.5 49.5t-29.5 57.5t-13.5 61t7.5 60q6 20 17 32.5
t13 12.5v-1q-15 -32 -17 -52.5t2.5 -34t12 -22.5t11.5 -18q17 -35 46.5 -60t71.5 -27q8 0 20 3t24 6.5t23.5 5.5t19.5 0q2 -1 -2.5 -2t-11.5 -3.5t-14.5 -6.5t-10.5 -10q-1 -3 -5 -5t-7 -4.5t-4 -5t2 -6.5q2 -2 5.5 -3t5.5 -3q4 -4 7 -8.5t7 -8.5q9 -9 18.5 -16.5
t17.5 -17.5q4 -4 7 -11t8 -14.5t12 -15.5t19 -15q-1 0 -14 4t-17 6q-17 10 -23.5 17.5t-18.5 8.5q9 -23 28 -38.5t32 -36.5q12 -18 21 -36q1 -2 2 -4.5t2 -5.5q5 8 7.5 17.5t7.5 17.5q7 12 15 24.5t17 23.5q12 14 22.5 26.5t12.5 32.5q1 8 -0.5 20.5t-5.5 26t-10.5 26.5
t-16.5 23v1q3 0 15.5 -7.5t18.5 -23.5q2 -4 4.5 -6.5l5.5 -5.5q0 26 -1 46t-5.5 38t-12.5 36.5t-23 40.5q-11 17 -22.5 35t-21.5 37q-5 10 -11.5 22t-17 25t-25 27t-36.5 27q3 0 18.5 -6.5t28.5 -14.5q24 -17 42.5 -35t34 -36.5t29 -37.5t28.5 -38q17 -22 31 -44.5t25 -47.5
q5 -12 7 -29.5t4.5 -35.5t7.5 -34t16 -25q-1 0 -11 6.5t-18 17.5q-4 5 -5.5 12t-4.5 13q1 -4 1 -7.5t1 -8.5q2 -9 3.5 -17.5t3.5 -17.5q2 -16 -2 -28.5t-10 -26.5q-17 -35 -20 -75q-1 -9 -2 -17.5t0.5 -19t6.5 -24t16 -31.5v-1q-2 0 -9.5 6t-12.5 14q-19 31 -24.5 64
t-0.5 66q-7 -14 -9 -31.5t-8 -31.5q-5 -14 -13.5 -29t-23.5 -21q1 -12 12 -23t20 -19t18.5 -16t17.5 -18q14 -17 22.5 -36.5t16.5 -39.5l9 -21t14 -16q4 -1 5 3.5t1 11.5t-1.5 13.5t-1.5 9.5q-2 12 -3 24t-4 24q-7 28 -4 51q1 9 5.5 16.5t9 13.5t8.5 9.5t5 3.5v0
q-16 -24 -16.5 -39.5t4.5 -35.5q2 -8 6 -16.5t8 -16.5q6 -14 10.5 -29t9.5 -30q10 -32 24 -61t29 -58q13 -25 21 -51t8 -54q0 -17 0.5 -26.5t2.5 -26.5z" />
    <glyph glyph-name="Y" unicode="Y" horiz-adv-x="566" 
d="M553 488q-1 0 -6.5 10t-7.5 23q-2 17 -6 39.5t-18 34.5q1 -13 4 -25.5t1 -26.5q-3 -24 -16 -48q-8 -14 -17.5 -27t-12.5 -29q-4 -17 -7 -37.5t11 -49.5q1 -1 -1 0.5t-4.5 4l-5.5 5.5l-4 4q-8 7 -11 17.5t-11 18.5q-5 -11 -9 -20t-10 -18q-11 -14 -15.5 -26.5t-2.5 -29.5
q2 -14 6 -27t5 -27q0 -7 -3 -14.5t-5.5 -16t-1 -16t10.5 -14.5q4 -2 -3 -2q-4 0 -9.5 2.5t-7.5 8.5q-3 10 -5 12t-5 1q-1 0 0.5 -8t2.5 -10q0 -3 1.5 -9.5t3.5 -8.5q4 -4 9.5 -2.5t8.5 1.5q17 1 30 -3.5t21 -10t12 -10.5t3 -5q-13 6 -25 6q-17 0 -35 -15.5t-33 -37.5
t-26 -44.5t-16 -36.5q-14 -50 -14 -98q0 -27 5 -59t33 -61q-1 0 -11 5.5t-12 7.5q-7 6 -18.5 22.5t-23.5 35.5t-22 37t-14 27q-15 35 -22.5 75t-5.5 78q0 8 3 18t7 18.5t7.5 14l3.5 5.5q-7 -21 -8 -38t1 -29.5t6 -21.5t7 -15q8 -13 18 -24q-5 27 -2 51q2 18 9.5 34.5
t13.5 33.5q15 45 -3.5 86t-48.5 74q-5 6 -10 15t-8.5 18t-5.5 15l-2 6q16 -35 37.5 -50t30.5 -20q-7 34 8 69q9 23 8 43.5t-21 38.5q-9 8 -20 13t-22.5 9t-23.5 8.5t-22 10.5q-9 5 -18 13t-20.5 15.5t-27.5 14t-38 7.5q-2 0 4 1.5t14.5 3.5t17 3.5t10.5 1.5q3 0 6 -0.5
t6 0.5q6 0 9 1q7 0 -1 3q-2 4 -11 7.5t-13 5.5q-5 2 -9.5 4.5t-9.5 5.5q-19 10 -35.5 29.5t-32.5 34.5q-14 14 -25 29.5t-18 33.5q-10 23 -8 47t0 48q-2 13 2.5 28.5t10.5 28.5t11.5 21.5l5.5 8.5v0q-12 -22 -15 -42.5t-2 -37t4.5 -29t5.5 -17.5q5 -13 10 -22.5t16 -17.5
q17 -12 37 -21t39 -20q20 -13 36.5 -31t37.5 -30q9 -5 20 -9t22 -6q8 -2 20 -2.5t21 -1.5q5 0 11 -3t10.5 -6t7 -5.5t1.5 -2.5q-12 4 -24 4q-14 0 -20.5 -5t-8.5 -7q-5 -7 -0.5 -15.5t7.5 -14.5q6 -11 13.5 -17t18.5 -12q7 -4 13.5 -8.5t11.5 -10.5q3 -5 4 -8.5t3 -8.5
q4 -8 8 -12.5t10 -9.5q17 7 28.5 23t16.5 33q2 11 3.5 22t4.5 22q2 8 6 16t6 16q1 2 2.5 13t-0.5 30v1q1 0 5 -12.5t3 -28.5q-3 -17 -4 -20.5t-1 -11.5q0 -4 -0.5 -9t1.5 -9q3 -6 7 -6t7 4.5t5 8.5q10 25 12 53.5t-5 54.5q-8 30 -14 58t7 58q11 26 28 49t29 49q1 2 5.5 8.5
t10 13.5t10 13.5t5.5 8.5q-4 -9 -7 -16q-2 -6 -4.5 -11.5t-3.5 -7.5q-2 -5 -5.5 -16t-5.5 -16q-8 -19 -10 -29.5t-7 -29.5q-7 -30 3.5 -51.5t27.5 -44.5q18 -24 23.5 -50t6.5 -51t1 -47.5t7 -40.5z" />
    <glyph glyph-name="Z" unicode="Z" horiz-adv-x="597" 
d="M582 792l0.5 -7t1 -15.5t1 -16.5t0.5 -10q-4 -35 -13 -69.5t-26 -66.5q-10 -19 -18 -34.5t-12 -36.5q-1 -9 -6 -21.5t-7.5 -27t0.5 -30t17 -31.5q1 -1 0 -1l-4.5 3t-10 8t-10 11t-6.5 11q-5 15 -6 27.5t1 29.5q-8 -12 -16 -23.5t-17 -22.5q-9 -9 -21.5 -18.5t-18.5 -21.5
q9 2 17 7t17 7q12 3 23.5 0.5t6.5 -3.5q-21 -2 -31.5 -9t-16.5 -16t-9.5 -18t-9.5 -14q-11 -9 -23 -15t-23 -16q-16 -14 -25.5 -25.5t-15.5 -23.5t-9.5 -27t-6.5 -35q5 3 9.5 5.5t7.5 7.5q3 3 8 6t10.5 6t10 4.5t5.5 1.5t1 -0.5t-1 -0.5q-16 -11 -25.5 -27t-12.5 -33t0 -34
t13 -30q10 -12 27 -22t34 -10q16 0 28 13q9 10 10 23.5t-2.5 27.5t-9 28t-9.5 24q-5 13 -10.5 22t-11 17.5t-9 16.5t-4.5 19q-1 14 3 25t9 19t10 12.5t6 4.5v-1q-13 -25 -7 -44t20 -34.5t31.5 -29t28.5 -28.5q11 -16 21.5 -32.5t20.5 -33.5q11 -18 11.5 -36.5t5.5 -38.5
q1 -3 2 -9.5t2 -13.5t1.5 -12.5l0.5 -5.5q-10 30 -18.5 38t-12.5 10q-1 -8 3 -16l8 -16q7 -15 10 -34q4 -20 3.5 -40t-3.5 -40q-7 -42 -17 -77t-31 -71q-2 -3 -9 -10.5t-9 -9.5q-5 -5 -13 -11t-15.5 -11.5t-13 -9t-6.5 -3.5q28 23 34 36t8 15q7 14 9 29t4 29q2 20 1.5 40
t-5.5 39q-11 38 -38 57.5t-67 19.5q-10 0 -20 -1.5t-20 -6.5q-2 0 5.5 7t24.5 12q2 1 7 2t9.5 2.5t8 3.5t3.5 4q-2 6 -14.5 11l-17.5 7q-7 3 -13 6t-13 6q-17 9 -32.5 19t-34.5 15q-5 2 -11.5 3.5t-12.5 1.5t-11 -2.5t-7 -7.5q-2 -6 -0.5 -15t24.5 -26v-1q-3 0 -15 3.5
t-15 5.5q-10 5 -16.5 13.5t-11.5 17.5q-23 36 -48.5 52.5t-70.5 16.5q-35 0 -61 -16q-2 0 5.5 10.5t18.5 19.5t27 13t33 6.5t33 6.5t26 14l15 13.5t8 9.5t6 10.5t10 18.5q10 9 12.5 17.5t0 15.5t-9 11.5t-14.5 4.5q-13 0 -23 -9l-1 -1l40 36q3 3 6 1q14 5 27 11.5t27 12.5
q-13 3 -20 10q-6 6 -13.5 7.5t-14.5 1.5t-10.5 -0.5t-2.5 0.5q5 3 16.5 5t24 3t24 2t17.5 3q15 7 26 20.5t19 27.5q7 13 13 25t16 22q7 7 14 11q-5 -1 -10.5 -1.5t-12.5 -3.5t-14.5 -11t-15.5 -25q-1 0 1.5 11.5t6.5 19.5q9 20 22 28.5t27 16.5q10 5 19 11t17 14
q6 5 13.5 13t12.5 16q-13 -4 -25 -6.5t-26 -1.5q-18 1 -35 3.5t-35 3.5q2 -5 3.5 -8.5t4.5 -11.5q2 -9 2 -15t-2 -3q-5 14 -17.5 19t-27.5 5q-9 0 -20.5 -1t-23 -3.5t-21 -8t-14.5 -14.5q-4 -6 -8 -19.5t-21 -19.5l-2 -1q3 2 5 6q5 7 8 23q1 5 -1.5 7t-0.5 7
q-12 -7 -20.5 -17.5t-16.5 -22.5q-2 -3 -6.5 -7t-9 -9.5t-6.5 -14t0 -21.5q2 -15 2 -17.5t-1.5 0.5t-3.5 8.5t-3 7.5q-6 15 -4.5 29.5t6.5 28.5q7 22 17.5 41t22.5 38t20.5 34.5t14.5 30.5t10.5 31.5t10.5 37.5q2 7 3 18t-1 23.5t-8 26t-18 25.5l4.5 -3t10.5 -8.5
t12.5 -12.5t10.5 -16q10 -20 8.5 -41t4.5 -41t26.5 -28.5t40.5 -7.5q-2 11 -4.5 16t-5.5 8.5t-6 6.5t-6 8q-8 14 -8 30.5t1 16.5q5 -21 20 -38t35 -29t42.5 -18.5t43.5 -6.5q8 0 20 0.5t24 2.5t22 5.5t15 10.5q10 12 20.5 17.5t13.5 5.5q-20 -15 -23.5 -27.5t-4.5 -15.5
q11 5 20.5 14t17.5 17q6 6 13 11t14 15t14 27t13 47z" />
    <glyph glyph-name="bracketleft" unicode="[" horiz-adv-x="335" 
d="M326 52q1 2 2.5 1t0.5 -3q-6 -11 -14 -21l-16 -20q-8 -11 -17 -21t-15 -21q-10 -20 -2.5 -41t23.5 -34q2 -1 5 -4q1 -1 0 -2t-2 0q-4 2 -5 4q-20 14 -44 23t-49 10q2 -5 5.5 -9t6.5 -9q0 -4 -3 -2q-14 10 -33.5 14t-36.5 4q-46 0 -82 -33q-11 -11 -21 -22t-21 -22
q-8 -8 -16 -14t-15 -14q-3 -3 -9 -11q-1 -1 -2 0t0 3q3 6 8 11q8 10 14 19.5t14 19.5q15 18 26 38.5t13 44.5q1 7 0.5 13t0.5 13v14t1 14q0 11 2 22t-2 22q-7 -1 -12.5 -5t-11.5 -7q-1 -1 -2 -0.5t0 2.5q6 9 10 22.5t6.5 27.5t4 28.5t2.5 24.5q1 13 -1.5 25t-3.5 25
q0 26 3.5 51t-5.5 49q-17 -10 -17 -27.5v-34.5q0 -1 -1 -1.5t-2 1.5q-5 11 -5.5 23t1.5 24q2 22 10 42t17 40t9 41q-1 9 -3 18.5t0 19.5q-10 -6 -14.5 -17.5t-8.5 -22.5q-3 -3 -3 1q1 9 3.5 18t4.5 17q3 10 5 19.5t3 20.5q0 8 0.5 16.5t2.5 16.5t6 14.5t5 14.5q1 4 0 8t-1 8
q-1 2 -0.5 5t0.5 5q1 5 1.5 10t0.5 10q0 13 -4 22q-2 4 -6.5 6t-9.5 -1q-7 -4 -10.5 -13.5t-3.5 -17.5q0 -2 -1.5 -2t-1.5 2v2q0 7 0.5 13.5t2.5 13.5q2 8 5 14t8 12q4 6 7 12t5 13q4 15 -2 29q-5 13 -15 20.5t-19 16.5q-10 10 -19 22q-5 6 -9.5 12.5t-10.5 11.5
q-11 10 -24 15.5t-24 14.5q-1 0 -0.5 1t1.5 0q-2 2 2 2q5 -5 11 -6.5t11 -3.5q6 -2 12 -3.5t11 -4.5q11 -7 22 -13.5t24 -11.5q29 -11 55 -10q6 0 12 0.5t13 -1.5q4 -1 7 -1.5t7 -0.5q3 -1 7 -1.5t7 1.5t1.5 6t-3.5 7q-1 1 0 2t2 0q10 -3 18 -11q17 -11 40.5 -15t42.5 -4
q11 0 27.5 2.5t33.5 7t30.5 11t17.5 15.5q3 3 3 -2q1 -5 -2 -9.5t-7.5 -8.5t-9.5 -7t-9 -5q-5 -4 -10.5 -7t-10.5 -6t-9.5 -6.5t-6.5 -8.5q0 -1 -1 -2v-3q-1 -8 2 -14.5t4 -14.5v-15q0 -11 5.5 -25t12.5 -22q3 -5 6.5 -10t5.5 -11v-21q0 11 -4.5 19t-9.5 13.5t-11 10t-9 8.5
l-14 16t-16 14q-17 14 -40 12q-7 0 -13.5 -1t-12.5 -3q-16 -2 -25 -7q-13 -5 -14 -16q-1 -5 1 -10l4 -10q2 1 3 1t3 1q5 3 3 -2q-7 -11 -8.5 -22t-1.5 -23q1 -11 1.5 -20.5t-1.5 -20.5q-1 -5 -1.5 -10.5t1.5 -10.5q2 -4 4 -7t7 0q5 4 8.5 9.5t8.5 10.5q3 3 3 -2
q-4 -20 -12 -38t-13 -38q-12 -41 -3 -83q6 4 11.5 8.5t7.5 11.5q2 6 1 11t4 10q2 2 2 -1q3 -27 -2 -56q-5 -25 -13 -46q-5 -11 -10 -22.5t-5 -25.5v-47q-1 -11 -0.5 -22.5t4.5 -22.5q5 5 7.5 11.5t10.5 8.5q2 0 2 -2q1 -11 -1.5 -21.5t-5 -20.5t-4 -20.5t0.5 -21.5
q1 -5 1.5 -9t0.5 -9q0 -8 -3 -16t-5.5 -15.5t-2.5 -16.5q-1 -8 5 -10t13 -4q10 -2 20 -3t20 -3q9 -2 18 -3t18 1q12 1 25.5 6.5t26.5 13.5t24 18t17 19z" />
    <glyph glyph-name="backslash" unicode="\" horiz-adv-x="438" 
d="M1 754q11 -5 19.5 -11.5t16.5 -14.5q17 -20 40 -34q12 -7 22 -14q5 -4 10 -7.5t11 -6.5q11 -6 22.5 -8.5t23.5 -3.5q14 -1 27 -1t27 -1q2 -2 1 -2q-4 -6 -10.5 -8.5t-11.5 -6.5q-11 -8 -7.5 -18.5t6.5 -20.5t6.5 -18.5t11.5 -16.5l12 -10t9 -13q2 -2 -1 -2l-15 3
q9 -26 14 -52t18 -51q6 -12 14.5 -22.5t16.5 -21.5q8 -10 15 -21t13 -22q6 -14 9 -27.5t5 -28.5q0 -1 -1.5 -1.5t-1.5 1.5q-2 7 -4.5 16t-7 17t-10.5 14t-15 6h-4q-2 -1 -4 -4q-1 -5 -1 -15q2 -14 6 -26q4 -10 11 -24t14.5 -28t16 -27t15.5 -21q2 -2 -1 -2q-5 0 -10 0.5
t-10 -1.5q5 -12 11.5 -23t12.5 -23q7 -11 8 -23q1 -6 0.5 -11.5t-0.5 -11.5q0 -25 9 -49q2 -5 3.5 -10.5t3.5 -10.5q2 -4 5 -7.5t5 -7.5q5 -8 10.5 -16.5t3.5 -17.5q0 -1 -2 -1q-2 1 -5 0.5t-6 0.5q5 -23 11 -44.5t14 -42.5q9 -23 18.5 -44t17.5 -44q1 -1 0 -2t-2 0
q-19 20 -30.5 44t-26.5 46q-8 12 -18 21.5t-24 15.5q-14 7 -27.5 11.5t-24.5 15.5q-14 13 -25.5 28t-21.5 32q-2 2 2 2q7 -5 13 -10t13 -9q2 -2 6 -3.5t6 0.5q4 3 3 10t-1 10q-3 16 -12 29.5t-16 27.5q-6 15 -9 31q-1 8 -2 17t-3 18q-5 20 -16.5 37t-19.5 36q-2 2 2 2
q5 -2 8 -5.5t8 -6.5l4 -2t4 2t-1 8q-2 10 -6.5 19.5t-9.5 17.5q-7 12 -13 23.5t-9 24.5q-4 14 -5 28.5t-6 28.5t-13.5 26.5t-16.5 25.5q0 4 2 2q9 -5 19 -3q2 22 -5 42.5t-17 39.5q-11 19 -22.5 36.5t-24.5 34.5v2q6 5 7 11.5t-1 13.5q-3 15 -12 32t-19.5 34t-22.5 32
t-21 27q-8 9 -16 18.5t-17 17.5q-1 1 0 2t2 0z" />
    <glyph glyph-name="bracketright" unicode="]" horiz-adv-x="343" 
d="M-22 52q6 -9 17 -19t24 -18t26.5 -13.5t25.5 -6.5q9 -2 18 -1t18 3q10 2 20 3t20 3q7 2 13 4t5 10q0 9 -2.5 16.5t-5.5 15.5t-3 16q0 5 0.5 9t1.5 9q2 11 0.5 21.5t-4 20.5t-5 20.5t-1.5 21.5q0 2 2 2q8 -2 10.5 -8.5t7.5 -11.5q4 11 4.5 22.5t-0.5 22.5v47q0 14 -5 25.5
t-10 22.5q-8 21 -13 46q-5 29 -2 56q0 3 2 1q5 -5 4 -10t1 -11q2 -7 7.5 -11.5t11.5 -8.5q9 42 -3 83q-5 20 -13 38t-12 38q0 5 3 2q5 -5 8.5 -10.5t8.5 -9.5q5 -3 7 0t4 7q2 5 1.5 10.5t-1.5 10.5q-2 11 -1.5 20.5t1.5 20.5q0 12 -1.5 23t-8.5 22q-2 5 3 2q2 -1 3 -1t3 -1
l4 10t1 10q-1 11 -14 16q-9 5 -25 7q-6 2 -12.5 3t-13.5 1q-23 2 -40 -12q-9 -6 -16 -14l-14 -16q-3 -4 -9 -8.5t-11 -10t-9.5 -13.5t-4.5 -19v21q2 6 5.5 11t6.5 10q11 15 14.5 29.5t3.5 32.5q1 8 4 15t3 15q-1 1 -1 2q-1 1 -1 2q-2 5 -6.5 8.5t-9.5 6.5t-10.5 6t-10.5 7
q-4 2 -9 5t-9.5 7t-7.5 8.5t-2 9.5q0 5 3 2q4 -9 17.5 -15.5t30.5 -11t34 -7t27 -2.5q19 0 42.5 4t40.5 15q8 8 18 11q1 1 2 0t0 -2q-2 -3 -3.5 -7t1.5 -6t7 -1.5t7 1.5q4 0 7 0.5t7 1.5q7 2 13 1.5t12 -0.5q26 -1 55 10q13 5 24 11.5t22 13.5q5 3 11 4.5t12 3.5q5 2 11 3.5
t11 6.5q4 0 2 -2q1 1 1.5 0t-0.5 -1q-11 -9 -24 -14.5t-24 -15.5q-6 -5 -10.5 -11.5t-9.5 -12.5q-9 -12 -19 -22q-9 -9 -19 -16.5t-15 -20.5q-6 -14 -2 -29q2 -7 5 -13t7 -12q5 -6 8 -12t5 -14q2 -7 2.5 -13.5t0.5 -13.5v-2q0 -2 -1.5 -2t-1.5 2q0 8 -3.5 17.5t-10.5 13.5
q-5 3 -9.5 1t-6.5 -6q-4 -9 -4 -22q0 -5 0.5 -10t1.5 -10q0 -2 0.5 -5t-0.5 -5q0 -4 -1 -8t0 -8q1 -8 5 -14.5t6 -14.5t2.5 -16.5t0.5 -16.5q1 -11 3 -20.5t5 -19.5q2 -8 4.5 -17t3.5 -18q0 -4 -3 -1q-4 11 -8.5 22.5t-14.5 17.5q2 -10 0 -19.5t-3 -18.5q0 -21 9 -41t17 -40
t10 -42q2 -12 1.5 -24t-5.5 -23q-1 -2 -2 -1.5t-1 1.5v34.5t-17 27.5q-9 -24 -5.5 -49t3.5 -51q-1 -13 -3.5 -25t-1.5 -25q1 -10 2.5 -24.5t4 -28.5t6.5 -27.5t10 -22.5q1 -2 0 -2.5t-2 0.5q-6 3 -11.5 7t-12.5 5q-4 -11 -2 -22t2 -22q1 -7 1 -14v-14q1 -7 0.5 -13t0.5 -13
q2 -24 13 -44.5t26 -38.5q8 -10 14 -19.5t14 -19.5q5 -5 8 -11q1 -2 0 -3t-2 0q-6 8 -9 11q-7 8 -15 14t-16 14q-11 11 -21 22t-21 22q-36 33 -82 33q-17 0 -36.5 -4t-33.5 -14q-3 -2 -3 2q3 5 6.5 9t5.5 9q-25 -1 -49 -10t-44 -23q-1 -2 -5 -4q-1 -1 -2 0t0 2q3 3 5 4
q16 13 23.5 34t-2.5 41q-6 11 -15 21t-17 21l-16 20t-14 21q-1 2 0.5 3t2.5 -1z" />
    <glyph glyph-name="asciicircum" unicode="^" horiz-adv-x="602" 
d="M392 309q-11 0 -22 -3q-4 -2 -6 -2q-1 -1 -1.5 0.5t0.5 1.5q4 2 5 3q14 7 9 22q-2 7 -6 13.5t-9 12.5q-11 15 -16 26.5t-7 31.5q-2 8 -2 17t-5 17q-4 7 -11 10.5t-13 8.5q-5 5 -6 10t1 11q2 5 3 8.5t1 8.5q0 10 -5 20t-11 18.5t-11 17.5l-21 36q-5 -8 -6.5 -17.5
t-3.5 -18.5q-2 -8 -3.5 -17t-3.5 -17q-3 -9 -3 -17q-2 -10 2 -15q3 -3 4.5 0.5t3.5 5.5q2 8 5 12q0 1 1 1t2 -2q3 -13 0.5 -27t-7.5 -27q-4 -8 -10.5 -14.5t-12.5 -13.5q-9 -9 -10 -18q0 -2 -4.5 -9.5t-10 -16.5t-10 -17t-4.5 -10q1 -5 -1.5 -9.5t-4.5 -8.5q-2 -6 -4.5 -12
t-5.5 -11q-2 -6 -5 -11.5t-3 -12.5q-1 -6 1.5 -11t4.5 -11q0 -2 -2 -2q-9 4 -22 4t-28 -5q-11 -4 -21 -9.5t-21 -10.5q-8 -3 -17 -6t-17 -6q-21 -9 -39 -24q-1 -2 -2 -1t0 3q7 16 20.5 25.5t26.5 19.5q14 11 20.5 23.5t8.5 30.5t6 33q1 5 7.5 15.5t14 22t14.5 22t8 14.5
q6 17 10 35t2 37q-1 8 -0.5 14.5t4.5 13.5q4 8 9.5 14.5t10.5 14.5q3 3 3 -1v-13.5t-1 -12.5q10 8 11.5 22t3.5 25q6 29 15.5 54t35.5 44q3 2 6 3.5t6 3.5q7 3 10 10q5 7 7.5 14t7.5 13t9.5 11.5t8.5 11.5q2 5 5.5 9t8.5 6q1 1 2 0t0 -2q-1 -20 10 -40q14 -29 38 -52
q14 -14 30.5 -23t29.5 -23q1 -1 0.5 -2t-2.5 0q-6 2 -12.5 4t-12.5 2q-7 0 -10 -4q-2 -3 -1.5 -6.5t1.5 -6.5q2 -6 5 -11.5t6 -10.5q2 -4 4.5 -8t4.5 -8q5 -7 11.5 -12t9.5 -13q4 -8 3.5 -15t-1.5 -15q-2 -12 1 -20q2 -10 13 -25t17 -23q5 -8 10 -14.5t12 -11.5
q13 -10 27.5 -17t25.5 -20q3 -3 -1 -3q-3 2 -7.5 3.5t-7.5 -0.5t-3 -5v-5q2 -11 10.5 -27.5t15.5 -24.5q15 -24 34.5 -45t35.5 -44q1 -2 0 -2.5t-2 0.5q-11 7 -20.5 16.5t-21.5 15.5q-12 7 -25 12.5t-27 9.5q-6 2 -12 2.5t-12 2.5q-13 5 -22 10q-16 11 -31 15t-34 4z" />
    <glyph glyph-name="underscore" unicode="_" horiz-adv-x="480" 
d="M0 83q-3 5 2 3q2 -2 11 -5t20 -6t22.5 -5t18.5 -2q10 0 10 4q0 2 2 2q17 -14 37.5 -16t40.5 -4q16 -1 31 0q7 0 14.5 2t9.5 8q-5 3 -9.5 6t-9.5 5q-2 1 -1 2.5t3 0.5q11 -6 24 -6t25 -5q6 -2 13 -5t14 -3q5 0 13 2h14l14 -2t14 -1q5 -1 10.5 -0.5t10.5 -0.5h4t4 1
q3 1 2 3t-3 4q-4 3 -8 5t-9 4q-1 0 -1 1.5t2 1.5q14 -5 28.5 -8t28.5 -3q38 0 72 23q1 1 2 0t0 -2q-2 -8 -7 -15t-10 -15t-8 -15.5t-3 -16.5t-1 -19.5t2 -18.5t10 -12t14 -9q3 -3 -2 -3q-17 4 -34 11.5t-36 6.5q-10 0 -19 -2t-19 -4q-9 -1 -18.5 0t-18.5 -1q2 -4 3 -5
q0 -3 -1 -3q-6 1 -11 3.5t-10 5.5q-6 3 -12 5t-14 2q-12 0 -26 -3q-4 -2 -8 -3t-7 -3q-5 -4 -1 -7t7 -5q11 -7 22.5 -10.5t22.5 -8.5q2 -1 1.5 -2t-2.5 -1q-12 2 -23.5 4.5t-22.5 5.5q-18 4 -36 14q-10 5 -22.5 10t-25.5 5q-10 0 -18 -5q2 -4 5.5 -7t7.5 -6q3 -3 -2 -3
q-9 2 -18 5.5t-18 6.5q-24 8 -47 8q-13 0 -20 -7q-5 -5 -9 -9.5t-10 -7.5q-4 0 -1 3q5 9 5.5 20t5.5 21q-5 -1 -10 -9q-3 -3 -3 1q0 7 1.5 13.5t3.5 13.5q5 15 -1 29q-5 12 -14 20t-17 18h-1z" />
    <glyph glyph-name="grave" unicode="`" horiz-adv-x="209" 
d="M202 670q2 -3 -2 -3q-2 2 -7 4t-6 -3q0 -3 1.5 -7t2.5 -7q1 -1 0.5 -2t-1.5 0q-5 2 -11.5 4.5t-12.5 2.5t-11 -5q-2 -2 -2 1q-10 6 -21 8.5t-20 9.5q-8 7 -14.5 15t-15.5 15q-1 1 -0.5 2t1.5 0q5 -2 9 -4t9 -4t9.5 -4t9.5 -3q1 5 -3 8.5t-9 6t-11 4.5l-9 3
q-14 6 -23 18.5t-17 25.5q-2 2 2 2q5 -2 8.5 -4t8.5 -4q-1 4 -6.5 11t-12.5 14t-14 13.5t-11 9.5l-11.5 11.5t-11.5 10.5q-1 1 0 2t2 0q9 -4 17.5 -7.5t16.5 -8.5q28 -17 56.5 -30.5t60.5 -19.5q1 0 1 -1t-1 -1q-2 -1 -4 -1.5t-4 -1.5l6 -8t7 -8q2 -5 6 -6q1 -1 2 -1t2 -1
q5 -4 2.5 -9.5t-0.5 -10.5q3 -13 14 -19.5t18 -17.5z" />
    <glyph glyph-name="a" unicode="a" horiz-adv-x="517" 
d="M468 32q5 -8 9 -17t5 -20q1 -12 -1.5 -24.5t-3.5 -12.5q0 24 -6 37.5t-9 21.5q-9 8 -15.5 19t-14.5 19l-14 11q-13 4 -27.5 9t-29.5 6q-8 1 -14 0.5t-14 1.5h-8l-9 -12q-8 -1 -14.5 -3.5t-11.5 -7.5t-10 -11t-12 -11l-12 -5q-6 -2 -13.5 -7t-15 -15.5t-14 -28t-9.5 -44.5
l-0.5 10t0 23t1.5 26t3 20q5 14 11 25t13 22q8 12 11.5 23.5t7.5 23.5q-17 -20 -35.5 -34.5t-44.5 -19.5q-7 -7 -10 -20q-1 -7 -3 -15.5t7 -34.5v-1q-1 0 -6 7.5t-8 18.5q-2 8 -1.5 13.5t-1.5 12.5l-15 14q-23 3 -43 9q-3 2 -3 6q-9 10 -16 10q-11 0 -17.5 -15t-8.5 -35
q-1 -5 -2 2.5t-2.5 20t-3.5 26.5t-5 21q-8 20 -18 38.5t-11 41.5q-1 24 5.5 49.5t17.5 48.5q7 12 3.5 19t-5.5 15q0 2 1.5 5t3.5 0q3 -4 6.5 -6.5t6.5 -4.5q20 29 39.5 46t50.5 34q6 7 13 8.5t16 13.5q11 5 24.5 17t22.5 26q2 2 3 0t0 -4q-9 -17 -21 -30l-3 -3q11 3 24.5 3
t26.5 1t23.5 5t15.5 14q-1 0 -2 -1l3 3q6 8 7 13.5t-0.5 8.5t-4.5 4.5t-6 2.5q-7 2 -3 8q3 4 7 7.5t6 8.5q8 16 -1 24t-23 12q-4 1 -13 1q-18 0 -33.5 -12t-14.5 -43v-1q-2 0 -5.5 12t-1.5 24q2 10 6.5 15t-1.5 14q-5 8 -8 9.5t-12 0.5q-18 -3 -30 -15.5t-20 -27.5
q-7 -13 -10 -23t-4 -20t-1.5 -21t-2.5 -26q-4 -21 -14.5 -34t-12.5 -13q8 24 6.5 42t-6.5 33t-10.5 28.5t-4.5 27.5q2 24 15.5 44.5t32.5 36.5q22 20 41.5 36t37.5 33t33.5 38.5t30.5 51.5q3 7 10.5 15t17 15t19.5 12t17 5l-4.5 -2t-11.5 -8t-14.5 -16.5t-13.5 -28.5
q-1 -15 -1.5 -30t-8.5 -29q-5 -10 -11.5 -18t-11.5 -17q-4 -7 -4.5 -10.5t11.5 -1.5q5 1 10.5 2t10.5 3q3 1 6 -1.5t1 -4.5q-4 -5 -4 -7.5t3 -4t7.5 -2.5t7.5 -2q11 -3 18 -10q2 -2 1 -4.5t-4 -2.5q-2 -14 15 -11q14 0 23.5 3t20.5 14q6 5 12 10.5t14 10.5q11 7 23 13t22 16
q19 16 35 37q1 1 9 8t22 28q-4 -12 -10.5 -22.5t-12.5 -18.5t-10 -13l-4 -5q-15 -23 -23.5 -37t-17.5 -25q-16 -20 -25 -42t-21 -43q-8 -14 -6 -27t8.5 -26t14 -26t10.5 -27q2 -11 -0.5 -24t-4 -29t1.5 -34.5t16 -41.5v-1q-1 0 -6 4t-10.5 10.5t-10.5 14.5t-7 17
q-2 10 -2.5 20t-2 19t-5.5 17.5t-12 15.5q0 -11 1.5 -22.5t-0.5 -22.5q-1 -17 2 -30.5t11 -28.5q5 -11 9.5 -21t7.5 -22q4 -16 10 -30t14 -29q5 -12 6.5 -23.5t1.5 -21t-1.5 -15.5t-2.5 -6q-1 24 -7.5 37.5t-14.5 21t-15.5 11t-11.5 6.5q-6 5 -9 11.5t-6 13.5q-2 -14 2 -27
t8 -27t11 -30q2 8 2 13q2 6 5 4.5t4 -6.5q1 -20 13 -40q10 -11 20 -21.5t21 -21.5q1 0 1 -2q13 -13 21 -32zM249 144q12 17 22.5 28.5t8.5 29.5q-1 8 -3 20t-17 24q-5 5 3.5 5.5t13.5 -1.5q-5 16 -12 30.5t-8 30.5q-1 19 6.5 37t10.5 36v1q-15 -2 -29 -6t-27 -12
q-3 -2 -8 -4.5t-7 -5t-1 -5.5t10 -6q12 -5 18 -10t4 -5q-5 1 -15 1q-20 0 -35 -10t-24 -21q-11 -13 -20 -25.5t-12 -27.5q-5 -20 -4 -34.5t9 -28.5q14 -18 37 -33q2 -2 3 -6.5t-3 -6.5h-2q6 -6 10 -8q12 -8 29 -8q12 0 23 5t19 16z" />
    <glyph glyph-name="b" unicode="b" horiz-adv-x="489" 
d="M476 238q3 -43 -11 -83t-48 -68q-31 -26 -70 -26q-17 0 -36 5t-36 5q-19 0 -31 -9q-5 -3 -8 2t-6 9t-5 9q0 -3 -0.5 -6t-0.5 -5q-2 -20 -12.5 -35.5t-13.5 -34.5q-4 -26 -9.5 -56.5t-28.5 -62.5q-21 -29 -37 -41.5t-17 -12.5v0q20 25 33.5 61t17.5 73t-2.5 69.5
t-24.5 50.5q-9 9 -19.5 14.5t-22 9.5t-22.5 8t-21 11q-30 20 -38 32t-6 12q19 -16 41 -16q14 0 25 7q11 6 16 17.5t6.5 24.5t-0.5 26t-7 23q-9 23 -21 48t-10 52q2 14 8 25t8 11v-1q-6 -30 3 -48.5t16 -22.5q8 -4 8.5 -2t0.5 10q1 5 0 10.5t-1 10.5q-2 17 -6.5 37.5
t-13.5 40t-23.5 37t-36.5 27.5q-2 1 0.5 1.5t7.5 0.5q8 0 20 -3t20 -11q4 -5 11 -9t12 -5q11 -2 12 5.5t0 15.5q0 6 -1 12t-1 13q-1 1 -1 2l-4 16t-7 15q-11 15 -18.5 28.5t-12.5 31.5q-1 3 -2 9t-2.5 12.5t-2 11.5l-0.5 5q1 -4 5 -13t8.5 -19t8.5 -19t6 -12q6 -7 13 -13
q2 -2 8 -6q-2 11 -7.5 28.5t-12.5 23.5q-8 8 -13 16t-7 19q-3 16 -3 31t-5 30q-5 19 -15 34t-23 29q-4 4 -9.5 15t-15.5 19q-25 22 -42 29t-15 9q1 0 14.5 -2.5t29.5 -11.5q18 -11 40 -26t42 -28.5t37 -24t24 -12.5q12 -3 30.5 -8.5t37.5 -5.5q14 0 26 4l-3 -2.5t-7.5 -5.5
t-9.5 -6t-7 -4q-10 -2 -15 -4q4 -4 10.5 -5.5t13.5 -1.5t12 1t9 2q16 5 28 18t28 18q14 3 29 3q20 0 34 -3t11 -4q-25 -1 -42.5 -7.5t-29 -15t-18.5 -16.5t-12 -14q-11 -11 -24 -19t-18 -24q-3 -4 -6 -25q0 -17 4 -31.5t10 -30.5q3 -10 3.5 -18.5t0.5 -19.5q0 -2 1 -9.5
t8 -16.5q2 -3 0 -2t-5 4t-6.5 8t-5.5 10q-5 17 -7 25.5t-10 16.5q0 -13 0.5 -26t2.5 -24q2 -14 21 -25.5t41 -11.5q16 0 29 7q9 6 12 15t3 19.5t-2.5 20.5t-4.5 19q-1 4 2.5 5.5t5.5 -0.5q36 -28 68 -62t56.5 -72.5t40 -81t18.5 -89.5zM288 134q24 1 42 15.5t27.5 35.5
t11 45.5t-6.5 45.5q-1 -1 -3.5 -1t-5.5 -3t-6 -10t-4 -22q-1 0 -4.5 12t0.5 26q4 15 -0.5 33t-14.5 35t-24.5 30.5t-29.5 20.5q-11 5 -21.5 4t-21.5 1q-9 2 -18 6t-17 9q0 -1 -3 -4q3 -2 2 -6q1 -4 1.5 -7t1.5 -7q1 -5 1.5 -9t1.5 -8q1 -6 1.5 -12t2.5 -12.5t7 -14.5t15 -18
q2 -1 -1.5 -1t-8 1t-9 2.5t-6.5 2.5q-8 4 -11 7q10 -14 14 -25t3 -21.5t-3 -21.5q5 5 8 9t7 9q5 8 15 12.5t14 4.5q-11 -10 -18 -23.5t-11.5 -27t-6.5 -26.5t-4 -24q-3 -14 9 -26.5t22 -22.5q10 -11 24.5 -13t27.5 -1z" />
    <glyph glyph-name="c" unicode="c" horiz-adv-x="503" 
d="M274 442q4 11 9.5 22.5t8.5 23.5q6 23 -7 31.5t-31 8.5q-25 0 -39 -9q-4 -3 -8 -5.5t-9 -5.5l-5 -4q-5 -4 -10 -13.5t-9 -12.5l-8 -23q0 3 1.5 15t1.5 15q1 2 1 7q-7 -5 -13.5 -9.5t-13.5 -9.5q-29 -23 -34 -57.5t2 -69.5q2 6 5.5 8t7.5 4.5t8 8t7 17.5q2 9 2.5 19.5
t0.5 11.5q6 -21 3.5 -40.5t-6 -36.5t-4.5 -32.5t6 -29.5q5 -9 13 -14t17 -9.5l19 -9.5t18 -13q2 -2 -4.5 0.5t-19.5 -0.5q-2 -1 -6 -3.5t0 -7.5q11 -11 22 -19.5t21 -10.5q8 -2 15 -3.5t15 -1.5q18 0 34.5 5t35.5 11q21 6 44 24t43 42t34 52.5t16 56.5q0 3 0.5 -5t0.5 -20
v-24t-1 -15l-17 -60q-14 -16 -18 -24t-5.5 -14t-4.5 -12.5t-16 -20.5q-18 -18 -36 -33l-8 -10t-7 -10q-5 -9 -8.5 -29.5t-8.5 -45.5q0 1 -0.5 6.5t-4 12t-11 11.5t-20.5 5q-5 0 -11 -1t-13 -3q-19 -5 -32 -10t-23 -12t-18.5 -16t-19.5 -23q-2 -3 -10 -9.5t-18.5 -13
t-22 -11.5t-20.5 -5q19 16 26.5 29t8.5 22.5t-2 15t-6 5.5l3 5q11 24 -1.5 41.5t-28.5 33.5q-11 12 -19 23.5t-16.5 23.5t-20.5 24t-32 23q-2 2 -6.5 5.5t-8.5 7t-7 6.5t-2 3q4 -1 12 -4.5t17 -7.5t17 -7.5t11 -5.5t8.5 -5t11.5 -5q-30 34 -50 73t-18 87q0 22 4 39t8 33.5
t7 35t1 42.5q-1 16 -5.5 27.5t-9 18.5t-8 10.5l-3.5 3.5q18 -9 28.5 -21.5t16 -28.5t6.5 -33t1 -35q7 27 22 47.5t33 35t36 22.5t32 11q11 2 10 11.5t-9.5 20t-22 18t-27.5 6.5q-4 -1 -1 1.5t8 4.5q8 2 11 1.5t5 -0.5q3 -1 10 -3t12 -3q5 -2 13 -4.5t17 -4.5t16.5 -4
t10.5 -2l64 -6q16 -2 30.5 -6t28.5 -8q22 -5 40.5 -14t41.5 -9q13 0 27.5 4.5t33.5 16.5q2 0 -3 -6.5t-12.5 -14.5t-14.5 -15t-10 -8q-43 -19 -74.5 -39.5t-53 -47t-33.5 -62t-15 -83.5q0 -3 -0.5 -9t-0.5 -13t-0.5 -12t-1.5 -5t-1 1q-7 26 -9 52.5t2 52.5q3 22 11 47z" />
    <glyph glyph-name="d" unicode="d" horiz-adv-x="546" 
d="M392 615q-7 -8 -8.5 -16t-5.5 -18q-2 -5 -2.5 -9.5t-1.5 -9.5q2 2 4 2.5t4 2.5q13 13 23 36.5t15 42.5l-0.5 -5t-1.5 -12t-2 -13t-1 -9q-3 -11 -7 -21t-9 -20q-3 -5 -6.5 -10t-6.5 -10q-5 -8 -7 -15.5t-4 -15.5v-2q-1 -7 -1.5 -13t-0.5 -13q0 -8 0.5 -15t11.5 -5
q6 1 12.5 5.5t11.5 9.5q6 7 15.5 10t17 4t12.5 0.5t2 -1.5q-22 -11 -36 -28.5t-22.5 -37.5t-12 -40.5t-5.5 -37.5q0 -5 -0.5 -11t-0.5 -11q1 -7 1.5 -9t7.5 2q8 4 16.5 23t1.5 49v1q2 0 8 -11t8 -25q4 -27 -7.5 -52.5t-20.5 -48.5q-4 -10 -5.5 -23t0 -26t7.5 -24.5t16 -17.5
q11 -6 24 -6q22 0 43 18q2 0 -6 -13t-37 -33q-10 -7 -21 -11.5t-22.5 -9t-22 -10t-19.5 -14.5q-18 -18 -22.5 -51t0.5 -69.5t19 -72.5t35 -60v0q-2 0 -18 12t-37 40q-24 32 -30.5 62t-11.5 56q-4 19 -15 34.5t-13 34.5q0 2 -0.5 5t-0.5 6q-2 -5 -4.5 -9t-5.5 -9
q-2 -2 -4.5 -3t-4.5 1q-8 5 -16.5 7t-17.5 2q-19 0 -37.5 -5t-35.5 -9q-4 -1 -16.5 -5t-25 -7.5t-20 -5.5t-3.5 1q8 5 13.5 12t7 13.5t-3.5 11t-19 4.5q-34 28 -49.5 67t-13.5 82q1 37 9.5 77t24.5 72q7 14 12 26t20 17q30 11 51 64q3 9 10.5 15t16.5 14t19.5 20.5
t20.5 34.5q1 0 1 -4.5t-0.5 -10.5t-1 -11.5t-1.5 -7.5q-2 -9 -4 -19.5t-2 -20.5t3.5 -19t12.5 -14q11 -7 28 -7q22 0 41.5 12t21.5 27q2 11 2 24t-1 26q-7 -8 -9 -17t-7 -26q-1 -5 -4.5 -9.5t-6.5 -8t-5 -4.5t0 2q7 10 7.5 17.5t0.5 9.5v18.5t4 18.5q5 17 8.5 31.5t3.5 30.5
q-2 11 -4 17.5t-3 8.5q-6 15 -19 23t-24 19q-5 5 -12.5 13t-19.5 16t-29 14t-43 7q-4 0 11.5 4t35.5 4q14 0 27 -3q16 -4 28.5 -17t28.5 -17q8 -1 23 -1t21 7q-6 2 -15 3q-2 1 -6.5 3.5t-9 5.5t-8 5.5t-2.5 2.5q12 -3 22 -3q20 0 39 6t32 10q7 2 23 13t36.5 25.5t41.5 30
t39 26.5q8 5 15.5 7.5l13.5 4.5q8 2 14 3q2 -1 -15 -8.5t-41 -30.5q-9 -9 -14 -20t-9 -15q-13 -14 -22.5 -29.5t-14.5 -34.5q-4 -15 -3.5 -30.5t-2.5 -30.5q-3 -19 -19 -35zM274 310q2 7 5.5 13t7.5 12q-4 -4 -10 -7q-3 -2 -12 -4.5t-12 -2.5q10 11 14.5 19t6 15t1.5 12.5
t1 11.5l3 18q0 4 0.5 7t1.5 7q-1 4 2 6q-3 3 -3 4q-8 -5 -17 -9.5t-18 -6.5q-11 -2 -21.5 -1.5t-20.5 -4.5q-15 -7 -29 -21.5t-23.5 -31.5t-13.5 -35t0 -33q5 -14 2 -26t-5 -12q-1 14 -4 21t-6 10t-6 3.5t-4 0.5q-7 -21 -5 -45t12.5 -45t28.5 -35t42 -15q14 0 28.5 2.5
t23.5 13.5t21 23.5t9 25.5q-3 11 -5.5 24t-7 26.5t-12 27t-18.5 23.5q3 0 13 -4t16 -12q8 -10 15 -18q-2 11 -3.5 21.5t2.5 21.5z" />
    <glyph glyph-name="e" unicode="e" horiz-adv-x="502" 
d="M452 576q-13 -8 -25.5 -13.5t-24 -11.5t-22 -15t-18.5 -23l26 2q2 0 9 -2t15 -4t13.5 -4t4.5 -2q-23 2 -36.5 0t-21.5 -5t-13 -6t-11 -5l-17 -6q1 -4 0 -8q-2 -23 -21 -38.5t-37 -26.5q-6 -4 -16 -10.5t-19 -13.5t-16 -12.5t-8 -7.5q-8 -16 -22.5 -28.5t-21.5 -29.5
l-2 -15q-1 -3 -3 -1q-4 9 -2 18.5t6 17.5q4 6 8.5 12t8.5 12q3 4 7 12q-9 -6 -18.5 -12t-17.5 -13q-17 -14 -20 -33t2 -28t13 -14t17.5 -9.5t19 -9.5t17.5 -13q2 -2 -4.5 0.5t-19.5 -0.5q-2 -1 -6 -3.5t0 -7.5q17 -17 33 -26t40 -9q18 0 34.5 5t35.5 11q21 6 44 24t43 42
t34 52.5t16 56.5q0 3 0.5 -5t0.5 -20v-24t-1 -15l-17 -60q-14 -16 -18 -24t-5.5 -14t-4.5 -12.5t-16 -20.5q-16 -18 -36 -33l-8 -10t-7 -10q-5 -9 -8.5 -29.5t-8.5 -45.5q0 1 -0.5 6.5t-4 12t-11 11.5t-20.5 5q-5 0 -11 -1t-13 -3q-8 -2 -13.5 0.5t-10.5 2.5q-3 0 -6 -3
q-10 -9 -19.5 -15.5t-18 -12.5t-15.5 -13.5t-10 -19.5q-2 -7 -15 -24.5t-29.5 -35t-33.5 -29.5t-26 -9q19 17 32.5 37.5t21 39t9.5 33.5t-3 21l3 5q11 24 -1.5 41.5t-28.5 33.5q-11 12 -19 23.5t-16.5 23.5t-20 24t-31.5 23q-2 2 -6.5 5.5t-8.5 7t-7 6.5l-3 3q4 -1 12 -4.5
t17 -7.5t17 -7.5t11 -5.5t8.5 -5t11.5 -5q-30 34 -50 73t-18 87q0 22 4 39t8 33.5t7 35t1 42.5q-1 16 -5.5 27.5t-9 18.5t-8 10.5l-3.5 3.5q18 -9 28.5 -21.5t16 -28.5t6.5 -33t1 -35q7 27 22 47.5t33 35t36 22.5t32 11q11 2 10 11.5t-9.5 20t-22 18t-27.5 6.5
q-4 -1 -0.5 1.5t8.5 4.5q7 2 10.5 1.5t5.5 -0.5q2 -1 9 -3t12 -3q5 -2 13.5 -4.5t17.5 -4.5t16 -4t10 -2l64 -6q16 -2 27.5 -11.5t26.5 -13.5q30 -8 56 -8q20 0 43 6.5t54 26.5q2 0 -2.5 -5.5t-11 -13t-14 -15t-13.5 -10.5zM260 464q5 6 9.5 12.5t7 14.5t0.5 17t-10 18
q-9 4 -19 4q-11 0 -20 -4t-14 -7l-13 -9l-23 -22q-4 -8 -7 -16.5t-6 -17.5h-2q0 22 13 46l-13 -12q-5 -4 -10.5 -7.5t-10.5 -7.5q-29 -23 -34.5 -57.5t1.5 -69.5l1 1q1 5 4.5 7t7.5 4.5t8.5 8t7.5 17.5q2 10 2 20.5t1 10.5q5 -17 3.5 -32.5t-3.5 -29.5q11 18 26 31
q4 5 12 12t17.5 16.5t18.5 21t14 23.5q5 10 8.5 20t4.5 21q0 2 1 2t1 -1q2 -10 2 -20.5t-3 -20.5q-1 -5 -2.5 -8.5t-3.5 -7.5z" />
    <glyph glyph-name="f" unicode="f" horiz-adv-x="340" 
d="M296 318q-1 0 -5.5 2t-10.5 6t-12 8.5t-10 10.5q-11 16 -17.5 33t-16.5 33l-5 10t-6 8q-9 4 -13 -1t-7 -10q-5 -6 -8.5 -11.5t-6.5 -11.5q-8 -15 -11 -30.5t-4 -32t0 -33t1 -32.5q12 2 17.5 8t9.5 16t7.5 23t12.5 28q3 5 8 8t10 3.5t8 0t2 -1.5q-14 -10 -19 -22.5
t-7.5 -26.5t-5.5 -31t-12 -38q-15 -35 -23 -72t-1 -75q3 -17 8.5 -32t9.5 -32q6 -26 4 -58q-1 -15 -2.5 -22.5t-3 -14t-3 -14t-2.5 -22.5q0 -11 -5 -22.5t-11 -21.5t-11 -16.5t-6 -6.5q8 40 9.5 67.5t-0.5 48t-7 36t-11 30.5q-10 25 -20.5 45t-24.5 43q-12 20 -22.5 34
t-19.5 28t-15.5 31t-9.5 42q-1 25 5 40.5t8 15.5v-1q-4 -41 0.5 -57.5t13.5 -20.5q8 -3 12 2t6 13t3 16t1 12q1 17 -0.5 29.5t-16.5 23.5q-9 7 -18.5 12t-17.5 13q-3 4 -0.5 7.5t7.5 1.5q5 -4 12 -4q9 0 16.5 8t12.5 19.5t7.5 23.5t2.5 19q0 20 -4 44.5t-15 41.5
q-4 -11 -4 -20.5t2 -19.5t3.5 -21.5t-1.5 -28.5q-3 -20 -11.5 -31.5t-10.5 -11.5v1q9 28 5.5 44.5t-11 27t-16 18.5t-11.5 18q-5 25 2.5 49.5t18.5 47.5q6 14 5.5 29.5t-6 29.5t-15.5 26.5t-22 21.5q-11 8 -21.5 16t-21.5 17q-12 10 -20 21.5t-19 22.5q-2 2 -7 8t-10.5 13.5
t-9.5 13l-4 5.5q38 -37 66 -56.5t50 -27.5q20 -7 40 -7.5t40 -5.5q14 -3 30 -7.5t30 -4.5h6q20 3 21.5 18.5t-5.5 31.5q0 1 -0.5 4.5t-3 9.5t-8 14t-17.5 18q3 0 17 -7t22 -21q2 -2 2.5 -4t1.5 -4q14 -26 34.5 -46t46.5 -34q17 -8 34.5 -17t29.5 -23q15 -18 13 -36
t-10.5 -36.5t-20 -38.5t-16.5 -41q-3 -17 -3 -27t1 -17.5t2.5 -14t2.5 -16.5q-1 0 -4.5 6t-7.5 14.5t-7 18.5t-3 17q1 14 5 28.5t7 29t3 27t-8 21.5q-25 30 -61 43q-9 3 -24.5 13t-36.5 10q-11 0 -22 -4q0 -16 6.5 -27t14.5 -19t14 -15t6 -15q-2 -18 -5 -35t5 -34
q5 6 8 11.5t11 10.5q7 4 13 5t12 7q6 7 9 15.5t5 17.5q3 11 14 14t9 1q-7 -7 -9.5 -20.5t-1.5 -28.5t4 -30.5t6 -26.5q3 -12 5 -28t6 -33t13 -34t26 -32z" />
    <glyph glyph-name="g" unicode="g" horiz-adv-x="600" 
d="M508 562q-4 -9 -8 -16.5t-11 -14.5q-8 -8 -13 -18t-4 -18q5 2 9 4l8 4q5 3 8.5 6.5l7.5 7.5q2 3 8.5 7t8.5 7q3 3 5.5 6.5t6 9.5t8.5 15.5t12 25.5l-0.5 -5t-2.5 -12.5t-5 -16.5t-7 -16l-5 -10q0 -3 -1 -3q-1 -4 -4 -7v-1q-5 -9 -7 -17.5t-3.5 -17.5t-4 -18t-7.5 -18
l-3 -8q-4 -13 -5 -21t-0.5 -16t1.5 -18.5t0 -28.5q-1 -9 -4.5 -18.5t-4.5 -11.5q2 13 1 20t-2.5 11.5t-3 8t-1.5 7.5q-2 -12 -3 -25t1 -23q0 -2 0.5 -3t0.5 -3q14 -17 28 -25t27 -24q5 -6 9.5 -14.5t7.5 -16.5t4.5 -14t0.5 -6q-15 28 -35.5 38t-35.5 11q14 -24 32.5 -43
t39.5 -28q13 -5 19.5 -16t4.5 -11q-18 14 -36 14q-23 0 -42.5 -16t-34.5 -28q-10 -8 -21.5 -13t-18.5 -12t-7 -18t13 -31q11 -16 9.5 -24t-3.5 -8q-16 20 -38 20q-19 0 -38 -13.5t-33 -36.5t-20 -53t0 -63v-1q-1 0 -4.5 5.5t-8 12.5t-8 13.5t-4.5 8.5q-12 32 -20.5 48.5
t-28.5 30.5q-18 13 -38 19.5t-40 17.5t-34.5 27.5t-29.5 33.5q-6 8 -12.5 20.5t-17 26t-29 25t-48.5 15.5q-2 0 1.5 1t11.5 1q10 0 26 -3t38 -12q14 -6 24.5 -18.5t24.5 -18.5q-15 22 -38.5 37t-40.5 34q-22 26 -34 54.5t-4 71.5q2 8 6 17.5t8.5 18t8 14l3.5 5.5
q-8 -29 -7 -50.5t7 -37t15 -26.5t17 -19q16 -15 35 -25t39 -18q21 -10 34 -24.5t25 -29.5t27 -29t40 -22q3 -1 -1.5 -1.5t-12.5 0t-17 2.5t-16 5q-11 5 -21 15.5t-21 11.5q6 -7 11.5 -14t12.5 -13q10 -9 21 -13.5t24 -7.5q16 -4 29.5 -9t24.5 -16q3 11 8 20t14 17
q8 7 17.5 12t19 9.5t18 11t14.5 16.5q2 4 10 13t14 21.5t5.5 26.5t-17.5 27l-5 -5q-4 -5 -7.5 -9.5t-5.5 -9.5q-5 -8 -5.5 -27.5t-10.5 -42.5v6.5t-4 15t-14.5 15t-31.5 6.5q-36 0 -76 10.5t-68 35.5q-5 5 -13 8t-13 8q-10 15 -21.5 30.5t-36.5 30.5q-2 2 -6 5t-8 7
l-6.5 6.5t-1.5 2.5q3 -1 10.5 -4.5t15.5 -7.5t15 -7t10 -5t8 -5t10 -5q-27 32 -44.5 68t-16.5 81q0 21 4 37t7.5 31t6 32t0.5 40q-2 30 -13 43t-10 13q32 -16 39 -47t7 -63q6 26 27.5 47t45 36t42.5 23.5t22 8.5q14 2 27.5 7.5t30.5 11t38 10t48 4.5h18.5t20.5 -2q2 0 -8 -2
t-20.5 -5t-16.5 -7t3 -9q2 -1 3 -0.5t3 0.5q14 -5 27 -10.5t28 -5.5q12 0 25.5 4t30.5 15q2 0 -2.5 -6t-11 -13t-12.5 -13.5t-9 -8.5q-4 -2 -10.5 -7t-10.5 -12t-3 -16t10 -20l10 11q2 5 5.5 5t7.5 2l11 9q17 18 26.5 41.5t23.5 43.5q11 15 26.5 21.5t18.5 6.5
q-19 -14 -30.5 -32t-17.5 -35t-8.5 -30t-4.5 -18q-2 -11 -7.5 -16t-10.5 -15zM441 467q0 2 0.5 4t0.5 4q-1 12 -0.5 19.5t-1 14.5t-5.5 14t-14 18q-12 10 -29 12q-11 0 -18 -3t-11 -8.5t-7 -13t-7 -15.5q-4 -9 -14 -14.5t-22.5 -10.5t-26 -10.5t-23.5 -13.5l3 3.5t7.5 8.5
t10 9.5t10.5 6.5q14 4 19 15.5t12 24.5q5 11 8.5 22.5t9.5 22.5q4 8 12 13q-11 4 -18 4q-3 1 -9 1q-8 0 -13 -8.5t-13 -10.5q-21 0 -32 -8l-20 -13q-4 -4 -8.5 -13t-8.5 -12l-7 -21q-1 -2 -0.5 1.5t1 9t1.5 11t1 6.5q0 4 1 6q-7 -4 -13 -8t-12 -9q-26 -21 -34.5 -45
t-1.5 -57v2q1 5 4 6.5t7 4t7.5 7.5t6.5 16q2 9 2 19t1 10q5 -19 3 -37t-5.5 -34.5t-4.5 -31t5 -27.5q5 -8 12 -13t15.5 -9t17 -8.5t15.5 -11.5q2 -2 -4 0.5t-17 -1.5q-2 -1 -5.5 -3t-0.5 -7q10 -10 20 -18t19 -10q12 -4 27 -4t30 4.5t32 10.5q14 4 24 13.5t24 23.5
q2 4 3.5 7.5t3.5 7.5q3 7 3.5 14.5t0.5 15.5q-3 -2 -6 -4.5t-6 -5.5q-7 -8 -9.5 -12.5t-10.5 -9.5q-10 -6 -18 -7.5t-11 -1.5q15 8 22 14.5t9.5 13t4 12t5.5 10.5q5 6 6.5 5t5.5 6q1 0 5 8q2 3 4 7q5 16 13.5 30.5t11.5 30.5z" />
    <glyph glyph-name="h" unicode="h" horiz-adv-x="548" 
d="M504 171q6 1 12 0.5t11 -2t7 -2.5t0 -1q-17 -1 -26 -8.5t-14 -17.5t-8.5 -19.5t-10.5 -14.5q-15 -12 -23 -22t-12.5 -19t-7.5 -18t-8 -20q-11 -24 -24 -42.5t-18 -51.5q-3 -23 2.5 -39.5t16.5 -35.5q8 -13 19 -20.5t9 -7.5q-16 3 -29.5 15t-23.5 27.5t-16 32.5t-8 30
q-3 26 -2 53t0 53t-6.5 51.5t-20.5 49.5q-11 17 -10 33t3 16v-1q5 -19 12.5 -30.5t15 -18t13.5 -8.5t8 -1l-0.5 5t-2 10.5t-3 10.5t-1.5 6q-5 20 -17.5 33t-28.5 27q-13 11 -20.5 28.5t-16 36.5t-21 34.5t-35.5 21.5q-2 1 0.5 2t8.5 1q8 0 19 -2.5t25 -10.5q8 -4 12.5 -11
t9 -14.5t9.5 -14t14 -11.5q5 -3 9.5 -5.5t9.5 -5.5q-5 37 -6 71q0 5 0.5 11t2.5 11t8 13t4 12q-2 3 -4.5 4t-4.5 3q-13 10 -23 19.5t-18 22.5q-8 14 -12.5 29t-9.5 29q-8 -6 -18 -10t-19 -8t-16.5 -9t-12.5 -14q2 -2 -0.5 -3.5t-3.5 -6.5q0 -1 -0.5 -3t-1.5 -2
q3 -10 6.5 -17t3.5 -21q0 -13 -3.5 -24t-5.5 -11q0 18 -3 26t-7.5 11t-9.5 4.5t-9 7.5q-4 -23 -7.5 -45.5t1.5 -45.5q3 -12 11 -24.5t17 -27t15.5 -30.5t5.5 -36l-2 4.5t-5 10t-6.5 11t-8.5 8.5q-13 8 -19 8q-2 0 -8 -4q4 -11 9 -20t8 -19q2 -6 2 -10t-0.5 -8t-1.5 -8t0 -10
q5 -35 5.5 -69.5t8.5 -69.5q4 -15 4 -26.5t-1.5 -21.5t-2.5 -18t0 -15q2 -13 0 -25t-6 -25q-2 -10 -9.5 -17t-12.5 -17q-3 -7 -9.5 -13.5t-13.5 -12t-12.5 -9t-6.5 -3.5q26 32 34 53t8 41q1 30 -1 59t-8 59q-5 26 -15.5 57.5t-31.5 51.5q-11 11 -25.5 16.5t-25.5 15.5
q0 -22 -6 -43t-17 -41q-6 -12 -19 -21.5t-15 -9.5v1q12 13 16.5 26t5.5 25t-1 22.5t-3 17.5q-2 12 -3.5 25t0.5 26q2 15 9.5 27t16 23.5t14.5 24t6 27.5q0 26 -10.5 49t-22 45.5t-19.5 46t-3 50.5q2 10 8 19t8 9v-1q-6 -18 -3.5 -33.5t9 -28t16.5 -22.5t19 -16
q3 11 0.5 22.5t-6 22.5t-5.5 22.5t2 22.5q-1 1 -1 4q4 14 -1.5 22.5t-14 16t-18 15t-14.5 17.5q-4 8 -6 21t-8 28t-20 30t-42 27q-2 1 4 1t17 -3t24.5 -10t27.5 -21q2 -2 6.5 -10t9 -16.5t9 -15t7.5 -6.5q2 0 2 1q2 2 1.5 7t-2 11t-3 11t-1.5 8q-2 12 -8.5 21t-16.5 18
q-11 10 -21.5 18.5t-21.5 17.5q-6 6 -9 13t-6 14.5t-6.5 15t-10.5 12.5q-17 14 -43 31.5t-74 27.5q-2 0 2.5 0.5t11.5 0.5t13.5 -0.5t8.5 -0.5q46 -10 82 -35t67 -56q20 -20 43 -29t50 -17q13 -3 32.5 -3.5t41 -1.5t42.5 -5.5t36 -16.5q-2 0 -10.5 1.5t-19.5 1.5
q-16 0 -29 -5q-17 -8 -21.5 -13.5t-13.5 -7.5q6 -6 12.5 -12t12.5 -12q6 -5 16 -13.5t32 -16.5q8 -2 -0.5 -4t-20.5 -3q-10 -1 -14 -4t-10 -12q-3 -3 -3.5 -8t-0.5 -9q-1 -11 1.5 -21.5t5.5 -21.5q1 -3 1.5 -5.5t1.5 -5.5q18 7 33 23.5t29.5 34t29 33t32.5 19.5
q4 2 0.5 -2.5t-2.5 -18.5q1 -23 16 -42.5t29 -38.5q3 -5 8 -17.5t25 -16.5q1 0 -6.5 -1t-7.5 -2q3 -2 6 -6t5 -7q10 -11 20 -21t21 -19q11 -8 20.5 -16.5t15.5 -20.5q2 -7 -4 -9q-16 -3 -23 -18t-9.5 -34.5t-1.5 -38.5t1 -30q1 -26 2.5 -50.5t4.5 -50.5q0 -5 0.5 -11
t2.5 -10q7 -10 11.5 -7.5t11.5 9.5q8 8 19 15.5t25 11.5z" />
    <glyph glyph-name="i" unicode="i" horiz-adv-x="318" 
d="M271 622q12 11 24.5 12.5t9.5 -0.5q-15 -8 -24.5 -21t-15.5 -28t-11.5 -29t-13.5 -24q-7 -8 -13.5 -15t-11.5 -15q-2 -3 -3 -5.5t-2 -5.5q0 -14 7 -2q5 2 11 5.5t8 7.5q7 9 19.5 12t10.5 1q-16 -13 -25 -29.5t-13.5 -33.5t-5.5 -33.5t-1 -31.5q0 -11 -1 -22.5t-4 -22.5
q-3 -10 -7 -19.5t-6 -19.5q16 10 33 36t19 66q2 0 5 -12t-1 -37q-3 -18 -11 -33.5t-16 -29.5t-14.5 -29t-7.5 -32q-2 -16 -1.5 -30.5t-2.5 -29.5q-2 -11 -3.5 -22.5t1.5 -22.5q2 -7 4 -13.5t3 -14.5q2 -20 -1 -39t1 -39q3 -17 7 -32.5t5 -32.5q1 -32 -10 -64.5t-27 -60.5v-1
q-1 0 2.5 15t4.5 35v26.5t-1.5 20t-5 20t-11.5 26.5q-7 13 -15.5 19.5t-13.5 20.5q-4 11 -5.5 22.5t-2.5 22.5q-1 14 -3.5 29t-10.5 27q-5 8 -9 11t-13 -2q-8 -4 -13 -9.5t-10 -11.5q-6 -8 -13 -18t-11.5 -23t-5 -30.5t5.5 -40.5v-1q-2 0 -9.5 13t-10.5 30q-3 20 1.5 38.5
t12.5 36.5t18 35.5t18 35.5q8 19 18.5 37.5t15.5 38.5q2 11 2.5 20.5t2.5 19.5q-6 -9 -16.5 -17.5t-20.5 -18.5t-18 -21.5t-10 -26.5q-1 -4 -4 7t3 25q5 12 13.5 24.5l17 25t16 24.5t9.5 23q5 24 1 44.5t1 44.5q-7 -7 -14.5 -13.5t-13 -16.5t-9 -25.5t-2.5 -39.5v-1
q-1 0 -5 10.5t-6 21.5q-3 24 7 45t20 43q5 13 9 26.5t1 27.5q-2 8 -4 15.5t-4 16.5q-2 14 -9 21t-15 18l-19 26q-3 5 -13 25t-39 50q1 0 6.5 -2.5t12.5 -7.5t14.5 -12t12.5 -15q11 -16 28.5 -23.5t29.5 -20.5q13 -14 24.5 -29.5t32.5 -20.5q5 -2 8.5 -2h7.5q16 0 28.5 8.5
t23.5 21t21.5 25.5t20.5 22zM109 646q-5 9 -5.5 22.5t-1.5 28t-4.5 29.5t-15.5 28q3 0 13.5 -6t15.5 -23q1 -4 6 -17.5t13 -17.5q-5 17 -5 30t8 31q8 17 11.5 33.5t-1.5 33.5q-3 11 -0.5 19t-9.5 21q-2 2 -2.5 5.5t3.5 1.5q26 -14 39.5 -37.5t21.5 -49.5q3 4 5.5 8t6.5 8
q5 5 10.5 7t10.5 2q4 0 5.5 -1t-0.5 -2q-12 -6 -16.5 -16.5t-5 -22.5t1 -24t0.5 -21q5 4 9 9t9 10q11 11 21.5 12t6.5 -1q-11 -9 -16 -21t-7.5 -24.5t-3 -25t-3.5 -23.5q-1 -7 -7 -15.5t-14 -16t-19 -13t-23 -5.5q-14 0 -28.5 9.5t-28.5 34.5z" />
    <glyph glyph-name="j" unicode="j" horiz-adv-x="410" 
d="M392 187q1 0 -3.5 -11.5t-11.5 -19.5q-16 -17 -36.5 -30t-33.5 -32q-16 -22 -14.5 -48.5t12.5 -49.5q8 -19 23.5 -34t23.5 -34q4 -11 7.5 -23.5t5 -25.5t-1 -24.5t-11.5 -19.5q-10 -8 -19.5 -13t-11.5 -5q-1 0 -1 0.5t1 0.5q16 14 21 27.5t3 25.5t-9.5 22.5t-16.5 18.5
q-6 6 -16 12.5t-20.5 12.5t-21.5 10t-20 4q-15 0 -25 -9.5t-14.5 -25t-3.5 -35.5t8 -41v-1q-1 0 -10.5 11t-11.5 22q-5 30 -14.5 54.5t-37.5 45.5q-20 15 -41.5 28.5t-38.5 31.5q-5 -4 -11.5 -10.5t-11.5 -32.5l-1 4.5t-1.5 10.5t-1 11.5t-0.5 6.5q1 30 -0.5 57.5t-9.5 56.5
q-6 22 -11 44t-3 45q2 27 12 58.5t35 52.5q5 5 12 7t13.5 3t11 0.5t2.5 -1.5q-20 -10 -31 -25t-15.5 -31.5t-4.5 -33.5t3 -31q5 -27 11 -53t23 -49q11 11 13 34.5t-8 46.5v1q2 0 9 -8t10 -17q4 -15 4 -27t0.5 -23.5t2.5 -22t11 -21.5q15 -20 38 -38t49 -30q1 6 -1.5 12.5
t-6.5 13t-8 12.5t-6 11q-5 13 -3 26t8 26q9 21 13.5 39.5t2.5 41.5q-1 14 -2 27.5t1 27.5q-6 -8 -12 -18.5t-14 -18.5q-11 -11 -24.5 -18t-15.5 -7q18 14 25.5 27.5t10 25.5t2.5 22t3 16q7 13 15.5 24t12.5 25q8 26 2.5 53.5t-9.5 55.5l-9 -16q-4 -8 -9 -18.5t-7 -22.5
t-0.5 -25t10.5 -26v-1q-2 0 -10.5 7t-10.5 18q-6 32 -2 54t11 40t14 35t7 39q0 15 -7 26.5t-18.5 18.5t-26.5 10.5t-30 3.5q-32 0 -58 -13q-2 0 4 7t17 14q13 8 27.5 10.5t30.5 2.5q18 0 36.5 -1.5t35.5 -1.5q20 0 40.5 4t39.5 13q17 10 31 23t31 24q-2 4 2 4q8 1 23 15
t29 23q1 0 -1.5 -4t-6.5 -9t-7.5 -10t-4.5 -7q-11 -24 -29.5 -44.5t-39.5 -39.5q-5 -5 -12.5 -11t-11.5 -12t-4 -13t-1 -13q-1 -10 -2.5 -28.5t1.5 -28.5q9 4 18.5 10.5t17 16t11.5 22.5t1 31q-1 4 3.5 -3t6.5 -17q3 -28 -9.5 -52t-23.5 -44q-4 -6 -7.5 -11.5t-6.5 -12.5
q-7 -16 -3 -27.5t7 -26.5q2 -14 -4.5 -26.5t-6.5 -26.5q12 2 18.5 10t10 18.5t5.5 21.5t4 20q5 14 15.5 24.5t11.5 10.5q-10 -24 -10.5 -45t-3.5 -33q-3 -15 -4.5 -30t-6.5 -30q-7 -20 -13 -38.5t-7 -40.5q0 -16 0.5 -32t0.5 -32q9 2 18.5 2.5t20 3.5t23 11t27.5 25z
M177 734q-1 0 -4 -3.5l-6 -7t-5.5 -6.5t-2.5 -2q1 7 5 16t10 18t13.5 16.5t13.5 11.5q12 8 20.5 16.5t16.5 20.5q4 6 11 15t8 10q12 10 24 12t9 0q-23 -17 -28.5 -31.5t-6.5 -25.5t2.5 -19t7.5 -19q2 -6 -0.5 -13.5t1.5 -9.5q2 -5 11.5 -1t11.5 6q2 3 6 5t7.5 3.5t6 2
t1.5 -0.5q-15 -15 -18 -27.5t-7 -20.5q4 3 3.5 4.5t7.5 9.5q5 5 14.5 10t11.5 5q-13 -13 -19 -27t-10 -27.5t-8 -24.5t-14 -17q-13 -9 -30 -9q-11 0 -22.5 4t-20.5 10q0 -2 2 -6q1 -2 6 -9.5t3 -5.5q-17 10 -30.5 23.5t-14.5 27.5q0 20 8 33q5 11 8.5 20t6.5 19z" />
    <glyph glyph-name="k" unicode="k" horiz-adv-x="479" 
d="M435 522q16 -8 24.5 -20.5t6.5 -12.5q-12 10 -22 13.5t-18 3.5q-14 0 -24.5 -6t-21.5 -12q-17 -11 -25.5 -23.5t-19.5 -27.5q-9 -11 -21.5 -17.5t-26.5 -12.5t-27 -12t-23 -17q30 2 54.5 -8t45.5 -23.5t39.5 -25t36.5 -11.5q8 0 17 3q1 0 -2.5 -3t-9.5 -6.5t-13 -6
t-13 -1.5q-14 1 -20 2.5t-9.5 3t-6 2.5t-8.5 1q9 -11 19 -21t19 -21q8 -10 11.5 -21.5t5.5 -24.5q2 -17 3.5 -33t3.5 -33q2 -12 0 -23.5t-2 -23.5q7 3 18.5 10.5t23.5 35.5q1 0 1.5 -4.5t0.5 -11t-1.5 -14t-5.5 -13.5q-15 -21 -27 -31t-24 -25q-11 -13 -26.5 -21.5
t-26.5 -22.5t-23 -30t-16.5 -38t2.5 -50.5t34 -67.5v-1q-1 0 -11 9.5t-14 13.5q0 1 -0.5 1t-0.5 1l-4 4q-10 14 -19.5 26t-14.5 29q-7 29 2 59q5 17 12.5 32.5t15.5 31.5q4 7 9 16t9 19t5.5 20t-2.5 18q-4 -3 -5.5 -10t-4 -16t-7.5 -18t-15 -15q-1 0 4.5 9.5t3.5 34.5
q-1 12 1.5 21t5.5 18t6.5 18.5t4.5 20.5q-11 -3 -18.5 -0.5t-16.5 10.5q-7 7 -12.5 14.5t-13 15t-18.5 15.5t-29 15q-2 1 2.5 1.5t12 0t16.5 -2.5t16 -7q2 -2 11 -3.5t15 -1.5q8 0 6 3q-2 7 -5.5 14t-5.5 14q-6 18 -16.5 36t-34.5 18q-9 0 -21 -3q-2 0 4.5 7.5t20.5 12.5
q3 2 8 2h10q-9 6 -21 9t-23 3q-14 -1 -26 -9t-24 -14h-5q-6 -7 -7 -16.5t1.5 -20t5.5 -21t4 -18.5q1 -10 -2 -19t-4.5 -21t1 -28.5t14.5 -42.5q-1 0 -5 3.5t-9 9.5t-9.5 13t-7.5 14q-5 12 -8.5 24.5t-8.5 23.5q-4 -20 -1 -41.5t-3 -42.5q-3 -11 -7.5 -21.5t-6.5 -21.5
q-5 -17 -8 -27.5t0 -27.5q4 -23 2 -40t5 -38q2 -8 2.5 -16.5t2.5 -18.5t8 -22.5t19 -28.5q15 -19 12 -19q-1 0 -4.5 3t-7.5 6.5t-7.5 6.5t-3.5 4q-33 42 -50 91t-22 100q-3 30 1.5 59.5t4.5 58.5q-1 29 -5.5 55t5.5 52q-10 -11 -13 -28t-3 -35t-0.5 -34t-6.5 -25q2 6 1 15
q0 8 -2.5 19.5t-10.5 25.5q-12 23 -7.5 45.5t14.5 44t20.5 44t11.5 45.5h-1q-7 17 -10 35t0 35q1 7 3.5 13.5t4.5 13.5q6 18 -3 24q-7 5 -19 -8t-21 -39v0q-1 0 0.5 15.5t6.5 29.5q4 13 9.5 21.5t9 15.5t4.5 13.5t-4 14.5q-7 13 -23.5 20.5t-28.5 15.5q-14 8 -23 19.5
t-18.5 22.5t-22 21.5t-34.5 16.5q-6 2 7 2q6 0 14.5 -1t17.5 -6q11 -5 17 -8t10.5 -6t9.5 -7t15 -11q11 -8 23 -14.5t28 -3.5q14 3 22.5 12t16.5 18q12 14 25.5 22.5t29.5 18.5q13 8 20 19t11 23t7 24.5t9 25.5q8 17 21.5 25.5t16.5 8.5q-12 -11 -17.5 -22.5t-8 -23
t-2.5 -21t-1 -15.5q-2 -10 -2.5 -20t-5.5 -19q-7 -14 -18 -24.5t-13 -27.5q-1 -5 -1 -18t5 -18q8 -7 8 -2.5t6 14.5q5 8 16.5 15t13.5 7q-16 -20 -18.5 -42.5t-6.5 -35.5t-9.5 -23t-4.5 -24q0 -14 4.5 -27.5t2.5 -27.5q8 6 16 9q8 2 19.5 1t16.5 7t0 11.5t-11 5.5
q-11 5 -17 11.5t-3 6.5q11 -4 23 -4q14 0 27.5 4.5t23 12t13 17.5t-1.5 20q-3 6 -6.5 9.5t-7.5 7t-8.5 9.5t-8.5 16q-6 14 -2.5 27.5t3.5 9.5q2 -21 11.5 -33.5t22.5 -22.5t27 -21t26 -31q10 -17 31 -22t40 -10q7 -2 12.5 -2.5t12.5 -0.5q4 0 8.5 -1t12.5 -4zM248 443
q4 8 15.5 20.5t26.5 20.5q-2 1 -8 0t-12 -2.5t-11.5 -2t-7.5 0.5q-4 -12 -16 -15.5t-27 -5t-29.5 -4t-22.5 -12.5q-2 -17 0.5 -33t4.5 -33q0 -2 0.5 -4.5t0.5 -5.5q19 27 49 41q5 2 10.5 4t10.5 6q8 5 10.5 11t5.5 14z" />
    <glyph glyph-name="l" unicode="l" horiz-adv-x="239" 
d="M192 324q-4 -10 -11 -23.5t-12.5 -28t-8.5 -28.5t1 -26q8 9 12 17.5t11 22.5q5 10 11 15t11 7t8.5 2t2.5 -1q-13 -11 -17.5 -22.5t-5 -24.5t-1.5 -27.5t-7 -30.5q-7 -17 -16 -33t-10 -35q-2 -17 -0.5 -35t3.5 -35q2 -20 3 -43t-0.5 -47t-7.5 -47.5t-19 -44.5
q-4 -8 -11.5 -15t-9.5 -7v1q19 31 22.5 57t-1 48.5t-12.5 43t-13 39.5q-5 17 -11 32.5t-8 32.5q-2 13 -1.5 26t2.5 26q-5 -9 -11.5 -14t-11.5 -16q-8 -15 -7 -33.5t18 -49.5q1 -2 -4.5 4t-7.5 8q-25 28 -24 60t13 64q14 38 19.5 69.5t-0.5 71.5q-4 -8 -12 -8q-6 0 -13.5 2.5
t-14.5 2.5q-10 0 -16.5 -9.5t-7.5 -40.5q0 -2 -4.5 12.5t2.5 37.5q7 24 14.5 35t14 17.5t11.5 13t8 21.5q5 30 3.5 60.5t5.5 60.5q-6 -3 -12.5 -7t-11.5 -11.5t-8.5 -19t-3.5 -29.5q0 -1 -1 1.5t-2 7l-2 9t-1 5.5q0 15 4 29t8.5 28.5t7 28.5t-1.5 29q-3 14 -13 28.5
t-24.5 26.5t-31.5 19t-35 6h-1q-2 0 2.5 4.5t23.5 4.5q9 0 24.5 -1.5t22.5 -5.5q15 -9 22.5 -18.5t21.5 -19.5q11 -8 23 -13t25 -5q19 0 35 13t21 27.5t16 31.5q6 11 17 16.5t13 5.5q-11 -12 -15.5 -23t-6.5 -20.5t-3 -17.5t-5 -15q-5 -8 -9.5 -15t-10.5 -15q-2 -2 -4 -5
l-4 -6q-2 -4 -0.5 -13t3.5 -9q3 0 4 5q4 10 15 16.5t13 6.5q-11 -12 -16 -25.5t-7.5 -27.5t-2.5 -26.5v-22.5q-1 -13 -0.5 -26t0.5 -26q-1 -13 0 -27q1 -5 1 -9t5 -3t7.5 5.5t4.5 7.5q7 11 10 23t11 21q8 10 19.5 12.5t14.5 2.5q-20 -7 -26.5 -24.5t-8 -39.5t-1 -43.5
t-5.5 -36.5z" />
    <glyph glyph-name="m" unicode="m" horiz-adv-x="655" 
d="M544 686q24 12 43.5 17.5t32.5 7t19 1t3 -1.5q-55 -19 -86.5 -53.5t-47.5 -72t-19.5 -72t-3.5 -54.5q6 -2 13.5 4t14 14t11 15l4.5 7q-7 -21 -13.5 -51t-12 -61.5t-8.5 -59.5t-3 -43q3 2 6.5 2t7.5 2q15 6 23 14t12.5 14.5t6 11t2.5 4.5q3 -13 -3 -33t-14.5 -41.5
t-16 -41.5t-8.5 -32q-2 -25 -2.5 -49.5t-3.5 -50.5q-3 -22 -13 -48.5t-18 -56t-9 -60t13 -61.5v-1q-1 0 -5.5 4t-9.5 11.5t-9.5 18.5t-6.5 25q-5 32 -1.5 61t1.5 61q-2 37 -8.5 73.5t-6.5 73.5q-4 -3 -9 -4t-9 -5q-10 -12 -22 -20.5t-14 -8.5v1q27 40 35 78.5t5 66.5
q-2 22 -4 43t-1 42q-2 -2 -10 -13.5t-15 -44.5l0.5 8t1 18t1.5 19t2 12q8 23 13 45.5t-3 47.5q-3 8 -8.5 19.5t-12.5 22.5t-16 19t-20 8q-4 0 -7 -4q-3 -5 -1.5 -18t0.5 -19q-1 -18 -1.5 -36t3.5 -35q4 1 7.5 0.5t7.5 1.5q7 4 15 4t13 -2t3 -3q-13 -4 -20 -13t-11 -19.5
t-6 -21.5t-5 -20q-6 -21 -7 -43t-1 -43q0 -31 -6.5 -57t-13.5 -51t-10.5 -50t2.5 -55v-1q-1 0 -5 6t-7.5 16t-6.5 23t-3 28q0 14 2.5 23t4.5 19t3 25t-2 41q-2 19 -3.5 37.5t2.5 36.5l-9 -9q-1 -2 -7 -6.5t-12.5 -9.5t-11.5 -9t-6 -4v1q29 36 38.5 74.5t3.5 68.5
q-4 19 -8.5 37t-6.5 36q-3 -5 -9.5 -21t-4.5 -46v-1q-1 0 -7 14.5t-4 34.5q2 29 -11 45.5t-36 30.5q-11 -23 -17 -48t-8 -51q-1 -10 1 -20.5t4.5 -21t3.5 -20.5t-3 -20q-1 -3 -4 -3t-5 2q-3 5 -5.5 9t-4.5 9q-1 -25 -8.5 -50.5t-11.5 -48.5q-3 -14 -1 -23.5t10 -21.5
q4 -6 7.5 -12t4.5 -13q1 -5 -2 -14.5t0 -11.5q2 -3 5 -0.5t5.5 6.5t4.5 9t3 7q5 14 17 22t15 8v-1q-8 -17 -10.5 -35.5t-2 -36t2.5 -33t3 -27.5q2 -26 2 -51.5t-5 -51.5q-3 -17 -5.5 -40.5t-12 -47.5t-28 -46t-52.5 -37q-1 0 10.5 10.5t24.5 40.5q17 36 21 64t1.5 52.5
t-9 48.5t-11.5 53q-2 -3 -6 -13t-5 -40q-1 11 -3 20q-1 8 -1.5 14.5t-1.5 8.5q-7 30 -18 54t-31 48q-15 18 -28 36t-21 39t-10.5 44t-3 48.5t-0.5 54t-2 59.5q0 5 2.5 2.5t6 -9t6.5 -15.5t3 -18q2 -10 4.5 -23t4 -22.5t3 -14t2.5 2.5v1q2 0 4 -10.5t6 -10.5q1 0 1 0.5t1 0.5
q2 2 2 6.5v6.5q1 5 1 10.5v10.5q1 11 3 21t3.5 20.5t1.5 21t-4 20.5q-7 19 -19.5 32.5t-24.5 33.5q-4 8 -6 17.5t-3 18.5t-0.5 15t1.5 6q14 -34 31 -55t30 -24q-4 30 -18 65.5t-34 64.5t-45 47t-50 13v0q-2 0 4 6.5t23 6.5q23 0 45 -11.5t37 -28.5q7 -7 9.5 -12.5t4 -11
t5 -10.5t11.5 -11q9 -7 21.5 -13t23.5 -6q8 0 14 4t9 15q5 14 4.5 27.5t-1.5 27.5q0 2 1 10.5t2.5 17.5t2.5 16.5t2 7.5q6 -32 15 -51t19 -30t21 -17t21 -13q8 -5 14.5 -11t14.5 -12q8 -8 17.5 -12t20.5 -9q15 23 29 46.5t12 52.5q-1 14 0.5 27t4 23.5t4.5 17t3 6.5
q2 -26 10 -47.5t19 -38.5t23 -29t21 -19q11 -8 20.5 -14.5t19.5 -6.5q12 0 23 10q13 11 20.5 21t14.5 18.5t15.5 16.5t23.5 15z" />
    <glyph glyph-name="n" unicode="n" horiz-adv-x="451" 
d="M404 334q12 24 24.5 28.5t9.5 0.5q-10 -12 -15.5 -27.5t-8.5 -31.5t-5 -31t-7 -24q-9 -20 -25.5 -34t-30.5 -30t-29.5 -35.5t-24 -46.5t-5 -62t27.5 -82l-5.5 6.5t-12.5 17t-14 23.5t-12 25q-14 33 -14 61t3 61q2 23 -2 40t-14 37q-5 10 -8.5 22t-8.5 25.5t-14 29
t-25 33.5q-1 2 3.5 1.5t11.5 -3.5t15 -8t14 -13q11 -14 29 -32t34 -29q-8 23 -16.5 46.5t-11.5 47.5q-2 15 3 37.5t9 42.5t2 33t-17 9q-3 -1 -8.5 -1.5t-11 -0.5t-7.5 1t2 4q6 3 9 15t4.5 25.5t2.5 25.5t2 16q-1 0 -9 -9.5t-18.5 -20t-20.5 -17.5t-15 -3q-3 3 -7 3
q-8 0 -14.5 -14t-8.5 -26q-5 -17 -4.5 -39t8.5 -39q13 6 26 17q2 2 7 3.5t10.5 2.5t9.5 1t2 -1q-17 -13 -29 -31.5t-19.5 -38.5t-10 -40.5t-1.5 -39.5q2 -20 9.5 -39t17 -37.5t18.5 -37t14 -38.5q3 -15 4 -29t0.5 -25.5t-2 -17.5t-1.5 -4q-6 32 -14 51.5t-16.5 32t-17 19
t-15.5 11.5q14 -72 -2 -140q-3 -12 -6.5 -23.5t-5.5 -23.5q-1 -9 -2.5 -19.5t1 -23t10.5 -29.5t26 -39q-1 0 -6.5 4t-12.5 9.5t-13 10t-8 6.5q-22 26 -29 55.5t-8.5 60t-2.5 62t-11 61.5q-11 34 -27.5 65t-29.5 65q-6 17 -9 38t-8 47t-14 56t-28 64q1 0 8 -4.5t16 -13.5
t18 -22t16 -30q6 -14 8 -29.5t7 -30.5q2 -6 4.5 -14.5t6.5 -17.5t9.5 -16.5t12.5 -10.5q-2 23 -6 44.5t-6 44.5q-2 11 -1 26.5t-1 26.5q-1 5 -5 10t-7 9t-3.5 7.5t3.5 6.5q5 3 8.5 12.5t5 21t2 24t-0.5 22.5q-1 11 -6.5 21t-17.5 12q-9 2 -12 -8t8 -42v-1q-1 0 -5.5 4.5
t-9.5 10.5t-9 11.5t-4 7.5v3q-14 18 -5.5 34t25.5 29q14 11 28.5 24t29 32.5t27 48.5t22.5 71l1 -8t1.5 -20.5t-0.5 -28t-4 -29.5q-5 -20 -3.5 -33t6.5 -23t12 -18t13 -18q3 -4 8 -11t12 -13t13.5 -9t12.5 0q5 3 8 10.5t7 12.5q6 9 14 17q21 23 42.5 43.5t35.5 50.5
q11 23 21 47.5t29 43.5q7 7 17.5 13t21 10t18.5 6.5t11 2.5q-23 -20 -36 -37t-20 -31t-9.5 -26t-4.5 -22q-2 -13 -6.5 -25t-10.5 -23q-8 -17 -15 -34t-5 -36q2 -18 10 -32.5t16 -29.5q4 -6 16 -6q6 0 13.5 1.5l12.5 2.5t7 1t-1 -3q-22 -18 -30.5 -33t-10.5 -27.5t-0.5 -22.5
t-0.5 -18q-3 -19 -3 -36t5 -35q4 -14 8 -26.5t7 -26.5q9 5 14.5 13.5t10.5 18.5z" />
    <glyph glyph-name="o" unicode="o" 
d="M392 210q7 -6 10.5 -13.5t5.5 -13.5t2 -10.5t-1 -4.5q-15 22 -31 22q-9 0 -18.5 -5.5t-18 -13.5t-16.5 -16.5t-16 -14.5q-17 -12 -25.5 -19t-27.5 -12q-25 -7 -30 -22t-7 -36q-1 -16 2 -24t7.5 -15.5t8.5 -19t5 -34.5q1 -18 -4.5 -36.5t-12 -33.5t-12.5 -24.5t-7 -9.5v0
q11 36 10.5 61.5t-6.5 43t-14 28.5t-12 20t-7.5 13.5t-6.5 7.5t-5 7.5t-2 14.5q-2 20 -5.5 33t-19.5 27q-13 13 -34.5 22.5t-45.5 9.5q-21 0 -43 -11q-1 0 2 5t8.5 11.5t13 13t15.5 8.5q6 2 12 0.5t12 -0.5q-7 5 -13 13t-12.5 16t-13.5 14t-16 6q-8 0 -16 -5t-18 -19
q-4 -5 -5 0.5t2 10.5q2 7 5 12t5 10t4 9q7 8 11 11t7 5.5t5 7t4 16.5q2 11 1 28t-3.5 34.5t-6 34t-7.5 25.5q-6 14 -3.5 32.5t6 43.5t4 57t-10.5 73q1 0 6 -5.5t11 -15.5t10.5 -24t5.5 -30q1 -11 0.5 -23.5t2.5 -23.5q0 -2 1.5 -6.5t3.5 -6.5q4 -2 8.5 1t6.5 6q3 5 2 15.5
t-1 17.5q-1 26 3.5 47.5t24.5 41.5t46.5 30.5t52.5 20.5q12 5 27 11t29 14t26 18t19 22q1 2 9 11.5t17 19.5t17 18l8 8q-10 -16 -21.5 -35t-21.5 -36.5t-18.5 -32t-13.5 -22.5q-3 -5 -8.5 -11.5t-7.5 -11.5q-5 -13 1.5 -20.5t14.5 -14.5q6 -5 10.5 -10t14 -10.5t27.5 -12.5
t49 -17q2 -1 -3.5 -2t-14.5 -1.5t-20.5 0t-22.5 1.5q-10 6 -22 4q8 -18 21 -32.5t27 -28.5q7 -7 15.5 -18t18 -21.5t20 -18.5t21.5 -8q5 0 9.5 1t9.5 5q2 0 -4 -10t-15 -15q-14 -7 -25.5 -12.5t-17.5 -20.5q-2 -6 -4.5 -19.5t-4 -28.5t-2.5 -28.5t-1 -20.5q0 -11 -5.5 -19.5
t1.5 -18.5q4 -5 8.5 -6t10 -1t11.5 -1t12 -7zM249 220q3 9 7 17t8 17q-1 0 -5 1t-10.5 -1t-15.5 -9t-21 -24q-4 -7 -6 -7t0.5 8.5t8.5 20.5t16 25t22 23q5 4 8 18.5t4.5 31.5t1.5 32.5t-1 21.5q-1 5 -4 12t-6.5 15.5t-5.5 16t-2 11.5q0 7 1 13t1 13q-3 -3 -10.5 -10t-15 -13
t-12.5 -9.5t-2 1.5q11 18 14 34.5t-0.5 30t-11 21.5t-17.5 8h-2q-4 0 -4 3q-13 -3 -21.5 -11.5t-13 -20t-7 -24.5t-3.5 -25q-1 -5 -2.5 -14.5t-4 -19t-5.5 -17t-8 -9.5q3 -10 5.5 -26t4 -34t2 -34.5t-0.5 -27.5q-2 -16 -2.5 -30t6.5 -29q5 -8 12 -18.5t16 -19.5t19.5 -15
t20.5 -6q11 0 20 9q9 10 13 24t9 26z" />
    <glyph glyph-name="p" unicode="p" horiz-adv-x="468" 
d="M455 560q2 0 -4.5 -10t-9.5 -13q-8 -8 -16.5 -7.5t-16.5 -1.5q-4 -1 -9.5 -1.5t-9.5 -3.5q-9 -6 -3 -11.5t11 -12.5q8 -9 8.5 -16.5t-0.5 -18.5q-2 -18 1.5 -36.5t7.5 -36.5q8 -32 4.5 -57.5t-23.5 -52.5q-12 -15 -29.5 -33.5t-27.5 -40t-5.5 -45.5t35.5 -50q1 0 1 -0.5
t-1 -0.5t-6 2t-12 5.5t-13.5 8t-11.5 8.5q-13 13 -19.5 30.5t-7.5 36.5q-1 11 1 21t5 20q2 8 2 10.5t-5 8.5q-5 5 -10.5 5.5t-12.5 0.5q-38 2 -68.5 13.5t-59.5 34.5q-1 -14 3 -27t9.5 -26t11 -25.5t8.5 -26.5q3 -12 0.5 -25.5t-4.5 -29.5t-1 -35t11 -41v-1q-1 0 -5 4.5
t-8.5 11t-9.5 14.5t-7 15q-7 18 -5 27t-4 19q-3 -17 0.5 -33.5t8.5 -32t10.5 -31.5t6.5 -33q2 -17 -2.5 -36t-8.5 -41t-3.5 -47.5t11.5 -55.5v-1q-1 0 -5.5 5t-9.5 12t-9.5 15t-6.5 14q-4 13 -4.5 25t-0.5 25q0 14 -3.5 30t-9 32t-12.5 31t-14 27q-7 10 -13 20t-10 21
t-4 23.5t-2 24.5q-2 15 -8.5 28t-15.5 25q-13 17 -21.5 35.5t-14.5 39.5q-2 8 -2.5 19t0.5 20.5t2 15.5t1 4q5 -27 12.5 -45t17 -30.5t19.5 -20t18 -12.5q-2 8 -7 15.5t-8 14.5q-4 9 -5.5 19t-2.5 20q-1 14 1 28t-2 28q-3 11 -9.5 20.5t-11.5 20.5q-1 2 -2 8t-2 12.5
t-1.5 11.5l-0.5 5q8 -19 17.5 -25t14.5 -7q-2 4 -3.5 7.5t-2.5 7.5q-3 14 -1 33q1 19 1 36t-14 32q-17 17 -38 31.5t-33 34.5q-5 9 -8.5 21.5t-5 24t-1.5 19.5v8q10 -30 32.5 -56t58.5 -26q29 2 50 19t33 40l2 2q1 7 2 14.5t1 9.5q0 13 -4 25t-11 23q-11 18 -20 34.5
t-8 38.5q0 2 3 9t6.5 14.5t6.5 14t4 6.5q-1 -5 -3 -10.5t-3 -11.5t0.5 -14t7.5 -18q5 -8 10 -15t13 -14q13 -13 26.5 -24.5t24.5 -25.5q11 -13 21 -28t21 -28t24.5 -24t30.5 -17q-2 12 -10 23t-11 22q-2 9 -1.5 18.5t2 17.5t3.5 13t3 5q1 -20 4.5 -32.5t8.5 -20t10 -11.5
t8 -8q10 -14 25 -28.5t32 -26t35.5 -19t36.5 -7.5q15 0 29 7zM308 408q11 1 11 9.5t-2 13.5q-3 14 -11 29q-5 8 -10.5 14.5t-8.5 14.5q-4 11 -5 20.5t-10 18.5q-5 5 -20 15t-32.5 20.5t-33 19t-21.5 10.5q-2 -10 -1.5 -20t2.5 -21q2 -14 3 -29t3 -29t5 -27.5t1 -27.5
q-2 -10 -5 -19l-6 -18q7 2 7 -4q2 -8 3 -26t-7 -25q12 -13 31 -22.5t39 -9.5q13 0 24.5 5t19.5 17q9 13 5.5 30t-14.5 34.5t-26.5 33t-31.5 25.5q-1 1 3 1t11.5 -2t17 -6.5t17.5 -12.5l10 -10t11 -10q2 -2 9 -7t12 -5z" />
    <glyph glyph-name="q" unicode="q" horiz-adv-x="485" 
d="M-3 553q18 0 36.5 7.5t35.5 19t32 26t25 28.5q3 4 8 8t10 11.5t8.5 20t4.5 32.5q1 0 3 -5t3.5 -13t2 -17.5t-1.5 -18.5q-3 -11 -11 -22t-10 -23q17 6 30.5 17t24.5 24t21 28t21 28q11 14 24.5 25.5t26.5 24.5q8 7 13 14t10 15q6 10 7.5 18t0.5 14t-3 11.5t-3 10.5
q1 0 4 -6.5t6.5 -14t6.5 -14.5t3 -9q1 -22 -8 -38.5t-20 -34.5q-7 -11 -11 -23t-4 -25q0 -2 1 -9.5t2 -14.5l2 -2q12 -23 33 -40t50 -19q35 0 58 26t33 56v-8t-1.5 -19.5t-5 -24t-8.5 -21.5q-12 -20 -33 -34.5t-38 -31.5q-14 -15 -14 -32t1 -36q2 -19 -1 -33
q-1 -4 -2.5 -7.5t-3.5 -7.5q5 1 14.5 7t17.5 25l-0.5 -5t-1.5 -11.5t-2 -12.5t-2 -8q-5 -11 -11.5 -20.5t-9.5 -20.5q-4 -14 -2 -28t1 -28q-1 -10 -2.5 -20t-5.5 -19q-3 -7 -8 -14.5t-7 -15.5q8 5 18 12.5t19.5 20t17.5 30.5t12 45q0 2 1 -4t2 -15.5t0.5 -20.5t-2.5 -19
q-6 -21 -14.5 -39.5t-21.5 -35.5q-9 -12 -15.5 -25t-8.5 -28q-2 -12 -2 -24.5t-4 -23.5t-10 -21t-13 -20q-7 -12 -14 -27t-12.5 -31t-9 -32t-3.5 -30q0 -13 -0.5 -25t-4.5 -25q-1 -6 -6 -14t-10 -15t-9.5 -12t-5.5 -5v1q11 30 11.5 55.5t-3.5 47.5t-8 41t-3 36q2 17 7 33
t10 31.5t8.5 32t0.5 33.5q-6 -10 -4 -19t-5 -27q-2 -7 -7 -15t-9.5 -14.5t-8.5 -11t-5 -4.5v1q10 22 11 41t-1 35t-4.5 29.5t0.5 25.5q3 14 8.5 26.5t11 25.5t9.5 26t3 27q-29 -23 -59.5 -34.5t-68.5 -13.5q-7 0 -12.5 -0.5t-10.5 -5.5q-5 -6 -5 -8.5t2 -10.5q3 -10 5 -20
t1 -21q-1 -19 -7.5 -36.5t-19.5 -30.5q-4 -4 -11 -8.5t-14 -8t-12 -5.5t-6 -2t-1 0.5t1 0.5q32 26 36 50t-6 45.5t-27.5 40t-29.5 33.5q-20 27 -23.5 52.5t4.5 57.5q4 18 7.5 36.5t1.5 36.5q-1 11 -0.5 18.5t8.5 16.5q5 7 11 12.5t-3 11.5q-4 3 -9.5 3.5t-9.5 1.5
q-8 2 -16.5 1.5t-16.5 7.5q-3 3 -9.5 13t-4.5 10q14 -7 29 -7zM115 408q5 0 12 5t9 7q6 5 11 10l10 10q8 8 17.5 12.5t17 6.5t12 2t2.5 -1q-16 -10 -31.5 -25.5t-26.5 -33t-14.5 -34.5t5.5 -30q8 -12 19.5 -17t24.5 -5q20 0 39 9.5t31 22.5q-8 7 -7 25t3 26q0 6 7 4l-6 18
t-5 19q-2 14 1 27.5t5 27.5t3 29t3 29q2 11 2.5 21t-1.5 20q-6 -2 -21.5 -10.5t-33 -19t-32.5 -20.5t-20 -15q-9 -9 -10 -18.5t-5 -20.5q-3 -8 -8.5 -14.5t-10.5 -14.5q-8 -15 -11 -29q-2 -5 -2 -13.5t11 -9.5z" />
    <glyph glyph-name="r" unicode="r" horiz-adv-x="513" 
d="M479 744q11 0 17.5 -1.5t3.5 -2.5q-31 -5 -45 -19.5t-18.5 -33.5t-3.5 -39t0 -36q-1 -19 -2 -39t-9 -38q-6 -15 -17 -25.5t-24 -20.5q-16 -11 -29 -23t-20 -31q-6 -18 -8 -43t1 -51t11.5 -49t23.5 -37l1 -1q-1 0 -6 3t-11 7.5t-11 9t-6 6.5q-26 46 -40 96.5t2 103.5
q5 17 12.5 32t16.5 30q4 7 8.5 13.5t7.5 14.5q-18 -13 -38 -19q-19 -6 -36.5 -12.5t-31.5 -21.5q-16 -16 -22.5 -36t-0.5 -41q0 -1 1 -5.5t2.5 -9t3 -8.5t2.5 -4q2 0 3.5 8t5 18.5t10.5 22.5t20 19l-2.5 -3.5t-5.5 -11t-5 -18.5t0 -26q2 -16 -2 -25t-12 -23q-14 -23 -17 -41
t-3 -44v-6.5t2 -6.5q2 -5 1 -6.5t7 2.5q7 4 9.5 11t3.5 15t1.5 17t4.5 16q6 13 18.5 19.5t14.5 6.5q-14 -11 -18 -23.5t-4.5 -26.5t-1.5 -30.5t-9 -34.5q-5 -13 -12.5 -24.5t-13.5 -24.5q-6 -14 -8.5 -29.5t-2.5 -31.5q0 -27 5 -57.5t17 -60t33 -55.5t54 -44q-1 0 -6 1
t-10.5 2.5t-10.5 3.5t-7 3q-25 12 -42.5 28t-30.5 35.5t-22.5 41.5t-19.5 46q-5 2 -4 6v3q-1 2 -2 5t-2 5q-5 8 -13 15.5t-12 12.5l-20 24l-20 24q-11 14 -20.5 28.5t-21.5 27.5q-13 14 -27 25t-26 30q-6 9 -9.5 21.5t-5.5 24.5t-2.5 20t0.5 8q11 -33 24 -51.5t26 -28
t24.5 -13t19.5 -8.5q7 -4 18.5 -12t22.5 -8q8 0 12 6q2 3 2.5 8t0 10.5t-2.5 9.5t-5 5q-2 0 -3.5 3t-0.5 5q8 27 4.5 53.5t1.5 52.5q-3 -2 -6.5 -4.5t-8 -7.5t-8.5 -13.5t-8 -22.5q-1 -3 -2 0.5t-1 10t0.5 14.5t2.5 14q9 23 8.5 42t-6.5 42q-2 8 -4.5 16.5t-3.5 16.5
q0 8 1 16t0 16q-10 -9 -18 -19t-12 -24q-4 -16 -4 -32.5t2 -33.5t-2.5 -34.5t-6.5 -17.5v1q0 30 -5 54.5t-11 45.5t-10 38.5t-2 33.5q2 15 8.5 27t14.5 25q10 14 17.5 29l15.5 31q4 8 9.5 15.5t11 13t10 8.5t5.5 3v-1q-13 -18 -16 -33.5t-0.5 -28t9 -22t12.5 -15.5
q8 -8 21 -13.5t24 -3.5q12 -5 14 8q7 5 4 11q0 4 -1.5 8t-3.5 8q-7 15 -7 29.5t1 14.5q12 -32 29 -43.5t28 -14.5t22 -3q10 0 19 1.5t17 6.5q22 11 36 29t9 41q-1 6 0 14.5t2.5 16t3.5 13t3 5.5v-1q0 -21 4.5 -34.5t11.5 -20.5t14.5 -9t13.5 -1q14 2 20 11.5t12 20.5
q11 21 29 39.5t44 18.5z" />
    <glyph glyph-name="s" unicode="s" horiz-adv-x="575" 
d="M563 303l-2.5 -2.5t-6.5 -6t-8.5 -6.5t-6.5 -3q-20 -5 -36 -11t-30 -23q-5 -6 -10.5 -12.5t-13.5 -11.5q5 -3 6 -8t6 -8q8 -3 11 -10t1 -6q-8 5 -16.5 7t-16.5 2q-31 0 -46.5 -13.5t-32.5 -36.5q-13 -17 -26.5 -29.5t-29.5 -25.5q10 -2 19.5 -1.5t20.5 2.5t21.5 -1
t18.5 -6.5t12.5 -7t2.5 -3.5q-13 4 -28 4q-29 0 -58 -12t-44 -21q-17 -10 -25 -25.5t-10 -33.5q-2 -15 -1 -30t1.5 -30.5t-2 -32t-13.5 -34.5q-14 -23 -26 -38t-13 -15v1q16 26 22 54.5t5.5 54.5t-5.5 47.5t-11 34.5q-7 15 -14.5 27t-21.5 21q-11 6 -22 10.5t-22 10.5
q-20 10 -39.5 23t-35.5 29.5t-25.5 36.5t-9.5 44q-3 16 2 31.5t7 15.5v0q-1 -3 -3.5 -18t1.5 -33q7 -15 23.5 -22.5t34.5 -7.5q26 0 45 13q17 13 24 30.5t18 34.5q13 20 31.5 27t41.5 7q10 0 16 -0.5t3 -1.5q-26 -4 -39.5 -10t-19.5 -13t-7 -13.5t-1 -12.5q-1 -5 0.5 -10.5
t3.5 -10.5q2 -4 3 -7t3 -7q0 -4 -3 -4q5 -19 19 -31t36 -12q9 0 22 3t25 8.5t21 13t11 17.5q-3 1 -8 2t-13 1q-14 0 -34 -7q-2 0 7.5 8.5t21.5 12.5q11 3 21 7.5t20 9.5q13 8 16.5 22.5t0.5 28.5q-5 23 -21.5 41t-35.5 33q-2 -10 0 -19t-1 -20q-5 -18 -11 -30t-8 -12v1
q6 15 4.5 32t-7.5 31.5t-16 25t-21 13.5q-12 3 -24 3q-13 0 -27.5 -2t-28.5 -7t-25.5 -13t-17.5 -21q-3 -6 -9 -12t-10 -14t-4 -21t9 -34v-1q-1 0 -8.5 10.5t-10.5 22.5t-2 24t2.5 24.5t2.5 25t-2 24.5q-5 17 -9 33t0 33q-6 -2 -12.5 -3.5t-12 -7t-9 -17.5t-4.5 -35l-1.5 4
t-2.5 9.5t-2 10.5t-1 7q0 18 5 36.5t13.5 36t20.5 33t26 26.5q15 10 34 16q9 3 25.5 7.5t21.5 13.5q3 6 -3.5 14t-20.5 14.5t-33.5 10t-43.5 1.5q-5 0 7 6t34 6q31 -1 58.5 -6t56.5 -7q20 -2 38.5 3t38.5 5q-5 5 -9.5 8t-8.5 11q-8 14 -11 27.5t-1 13.5q5 -13 17 -25.5
t27.5 -21.5t32.5 -14.5t31 -5.5t23 5.5t10 18.5q2 15 1 30.5t0.5 30t6 28.5t16.5 27q2 2 8 6t12.5 8.5t12 7.5t6.5 3v0q-22 -18 -28.5 -34t-5 -30t7 -26t7.5 -23q4 -18 6 -36t0 -37q-1 -18 -9.5 -37t-20.5 -37t-26 -34t-26 -28q-7 -7 -19 -11.5t-20 -6.5q-3 -1 4 3t14 11
q6 7 7.5 12t1 9.5t-1.5 9t0 10.5l2.5 7.5t2 8.5t-1 7t-7.5 1l-14 -7t-18 -22q-1 0 1 10t7 18q3 5 6.5 9t5.5 9q-11 5 -21 7.5t-22 0.5q-9 -2 -18 -4.5t-17 -7.5q-7 -4 -12 -10.5t-10.5 -13.5t-13.5 -15t-20 -16l-2 -1l1 1h1q2 2 4.5 6t4.5 12q2 5 -1.5 11.5t-2.5 11.5
q-19 -6 -25 -26q-2 -7 -3 -18t6 -16q6 -5 16 -7.5t18 -6.5q11 -5 23 -10t25 -4q-4 8 -9.5 16t-5.5 18q0 12 3 19.5t4 7.5t1 -1q-1 -16 5.5 -28t16.5 -20t22.5 -13.5t23.5 -8.5q18 -5 34.5 -7.5t30.5 -15.5q15 -13 24.5 -29.5t21.5 -31.5q6 -8 16 -17t22 -16.5t24.5 -12.5
t24.5 -5q8 0 20 5z" />
    <glyph glyph-name="t" unicode="t" horiz-adv-x="414" 
d="M360 738q4 10 10.5 18t13 13.5t11.5 8.5t6 3v-1q-16 -17 -21 -33.5t-6 -32t0.5 -28.5t-0.5 -23q-8 -31 -18 -62t-11 -63q-1 -15 2 -28.5t5 -27.5q2 -11 1.5 -21t-1.5 -21q-1 -16 -3 -30.5t-16 -36.5q-7 -9 -18.5 -18t-13.5 -9v1q18 23 23 40t3.5 29.5t-6 23.5t-7.5 22
q-5 22 -14 42.5t-15 43.5q-4 -6 -7 -2t-10 5q-5 0 -10.5 -5.5t-8.5 -0.5q-2 -13 -2.5 -26t0.5 -27q1 -7 0 -15.5t1 -15.5q2 -8 7.5 -11t10.5 -8q3 -3 7 -9l8 -12t6 -10.5t1 -4.5h-1l-2 2q-12 11 -22 14.5t-13 3.5q-12 -1 -15.5 -9.5t-2.5 -21.5q2 -16 2 -31.5t-1 -31.5
q0 -1 -0.5 -7t-1.5 -13t-1.5 -12.5l-0.5 -5.5q1 0 4.5 5t12.5 22q8 13 15.5 17.5t9.5 4.5q-10 -14 -13 -27.5t-4 -27t-1 -26t-5 -24.5q-13 -35 -14.5 -72t3.5 -75q3 -24 8.5 -50t7.5 -53.5t-2.5 -55t-21.5 -53.5q-15 -24 -30.5 -36.5t-17.5 -12.5v1q29 41 36 77.5t2.5 69
t-15.5 61t-18 53.5q-4 17 -10.5 34t-12.5 34.5t-10 35t-3 35.5q-3 -2 -7 -3.5t-8 -6t-8 -13.5t-7 -27q-1 -4 -5 12.5t3 39.5q7 20 17 39.5t12 40.5q2 19 1.5 38t-1.5 38q-5 -11 -5.5 -23t-5.5 -23q-5 -14 -13.5 -23t-10.5 -9v1q9 18 10 30.5t-1.5 22t-5.5 16.5t-3 14
q1 14 6 26.5t10 24.5q8 26 9 52.5t5 53.5q-6 -2 -10 -3q-12 -2 -18.5 -4.5t-13.5 -13.5q-4 -6 -8.5 -18t1.5 -41v-1q-2 0 -9 12t-9 25q-1 10 -5.5 20.5t-13.5 16.5q7 -40 4 -76.5t-17 -66.5q-8 -19 -21.5 -29.5t-14.5 -10.5q11 18 16.5 31.5t7.5 23t2 16t1 11.5
q2 17 -2.5 29t-9.5 29q-6 19 -16 42.5t-27 37.5q-2 0 -3 1q-13 6 -23 16t-23 18q-10 5 -20 10.5t-20 11.5t-17 15t-11 17t-5.5 14t-0.5 6t3 -3q11 -17 28.5 -29t38.5 -12q10 0 15 -1q17 -4 33.5 -9t33.5 -10q7 -2 13 -4t13 -2t13 3q5 2 9.5 4.5t9.5 3.5q4 2 13.5 2t10.5 8
q0 1 -4.5 6.5t-5.5 6.5q-5 4 -8 10t-4.5 12t-2 10l-0.5 4q8 -13 18 -21t20.5 -12.5t20.5 -7t17 -4.5q9 -2 17.5 -6.5t17.5 -7.5q5 -2 9 -3t8 -1q19 0 32 14.5t27 28.5q1 1 3.5 4.5t5 8t5 8t3.5 3.5q-3 -20 6 -30t23 -10q16 0 27 11q3 2 6 5.5t6 6.5q10 12 13.5 29t9.5 31z
" />
    <glyph glyph-name="u" unicode="u" horiz-adv-x="522" 
d="M474 168q20 1 27 7t8 6q-1 -7 -7 -13t-12.5 -10.5t-13 -7t-9.5 -3.5q-24 -8 -42 -20.5t-26 -37.5q-14 -43 -45.5 -72t-78.5 -29q-17 0 -13 2q31 7 49 20t27.5 29t11.5 33t1 32q0 6 -2.5 16t-4 20t-2.5 20t2 16q-16 -13 -24.5 -19t-14 -11t-11 -12t-15.5 -23q-4 -6 -10 -8
t-13 -2.5t-15.5 -1t-17.5 -3.5q-7 -3 -15 -3q-21 0 -37 17.5t-30 35.5q-11 14 -23.5 31.5t-26.5 28.5q-8 6 -19.5 11t-29.5 5t-42 -7q-2 0 6.5 7.5t28.5 15.5q12 5 26 5t25 10q11 11 14.5 25t5.5 28q-5 -2 -13.5 -7t-22.5 -28q-2 0 -0.5 10.5t9.5 23.5q11 17 12 26t0 14v9
t-1 9q-2 8 -3.5 15.5t-2.5 15.5q-2 14 0 27.5t-6 27.5q-6 9 -12 16t-11 17q-2 5 -2.5 10.5t-3.5 12.5t-10 16t-22 19q1 0 6 -2t11 -4.5t11.5 -5t6.5 -3.5q12 -11 23 -11q13 0 19 14t8 31q0 7 3 18.5t7 23.5t9 23t9 18q12 16 30 35t38 36t41 30t40 16q2 1 9 0.5l14 -1
t12 -1.5t3 -1q-35 -4 -62 -22.5t-45 -41.5t-28 -47.5t-11 -42.5q-1 -11 0.5 -23t3.5 -23q2 -14 3.5 -22t3 -14.5t4 -13.5t6.5 -19q3 4 6.5 6.5t6.5 6.5q6 7 15 10.5t17 4.5t13.5 0.5t4.5 -1.5q-24 -13 -35.5 -27t-16 -27t-5 -25.5t-4.5 -22.5q-2 -5 -4 -14t-3 -18t0 -17
t4 -13q3 -4 5.5 -7.5t4.5 -8.5q5 -11 2 -22.5t-5 -22.5l13 5q11 5 19.5 6t14.5 1t8.5 -0.5t0.5 -1.5q-19 -6 -28 -13t-12 -15t-1.5 -16.5t5.5 -16.5q5 -13 10.5 -22.5t16.5 -18.5q13 -10 26 -10q11 0 19 7l9 16q12 9 25 10q-1 1 -1 3q2 4 4 4q8 19 10.5 32t-2.5 34
q-4 15 -2 28.5t2 28.5q-2 -1 -4 0.5t-3 0.5q-13 -11 -13 -20.5t-1 -9.5q-4 6 -1.5 19.5t7 31.5t9 39t3.5 42q-1 17 0.5 30.5t-3.5 28.5q-1 4 -1 5v1.5t-0.5 1.5t-3.5 4t-7 3.5t-3 3.5t-6.5 9t-18 12.5t-21.5 12t-17 6.5q-8 2 -1.5 1.5t20 -3t30.5 -7.5t29 -11q6 -3 11 -3
q9 0 11.5 7.5t5.5 7.5q1 -1 4 -1q8 0 9 14t6 25q6 13 12.5 24.5t17.5 22.5q7 6 14.5 12t12.5 14q4 7 6 13.5t4 14.5q3 9 5.5 10.5t9.5 9.5q3 3 5.5 3t5.5 0.5t7.5 3.5t11.5 13q10 13 26.5 22.5t18.5 9.5q-20 -20 -34 -41t-24 -40.5t-16.5 -37t-11.5 -29.5q-7 -17 -11 -40
t6 -40q6 4 10 5q3 2 14.5 3.5t15.5 1.5q-22 -9 -27.5 -23.5t-10.5 -23.5q-8 -15 -9.5 -25.5t0.5 -27.5q2 -10 -1.5 -24t-6.5 -30t-3.5 -31.5t5.5 -28.5q5 2 9 5t9 6q6 4 12.5 6t12.5 3.5t9.5 1.5t1.5 -1q-15 -6 -23 -13t-11.5 -14t-5 -13t-4.5 -10q-4 -6 -8.5 -13.5
t-4.5 -14.5q-1 -5 0.5 -9.5t3.5 -9.5q6 -19 5.5 -40t6.5 -40q5 -14 12.5 -16t19.5 -2z" />
    <glyph glyph-name="v" unicode="v" horiz-adv-x="641" 
d="M563 727q9 9 19.5 16t20 12.5t17 8.5t8.5 3q-19 -16 -31.5 -30t-20 -25.5t-12 -20.5t-8.5 -14q-12 -15 -21 -32t-16 -34t-13 -34t-14 -34q-6 -13 -13.5 -25t-10.5 -26q6 5 12.5 10t14.5 9q6 3 15 4t19 5.5t19.5 14.5t15.5 29q1 0 2.5 -5t1.5 -12.5t-4 -17.5t-13 -21
q-25 -30 -42 -63t-29 -67t-22.5 -69t-22.5 -69q17 8 30.5 28.5t20.5 36.5t21.5 25.5t18.5 9.5q-16 -19 -22.5 -39t-10.5 -38.5t-8.5 -36t-15.5 -31.5q-12 -15 -27.5 -26.5t-24.5 -28.5q-5 -9 -9.5 -16t-12.5 -14q-14 -11 -23 -17.5t-13 -24.5q-2 -11 -7 -19.5t-10 -19.5
q-4 -7 -7 -15t-2.5 -19t6.5 -28.5t21 -44.5l-5 4t-10.5 9t-10.5 9.5t-7 6.5q-11 13 -16.5 29t-8.5 33t-4.5 34.5t-5.5 32.5q-6 22 -18.5 40.5t-23.5 38.5q-9 17 -16 34.5t-17 34.5q-13 2 -10.5 -20t29.5 -78l-5.5 5.5t-12 12.5t-12.5 13.5t-7 7.5q-17 28 -20.5 59t-1.5 63
q2 18 2 35t-10 33q-8 14 -19 25t-30 11q-12 0 -33 -8q-1 0 1.5 2.5t6.5 6t7.5 7t5.5 4.5q11 6 15.5 15.5t5.5 20t-1 22.5t-4 22q-5 -2 -15.5 -9.5t-10.5 -33.5q0 -3 -4.5 9.5t4.5 35.5q12 31 7.5 63.5t-18.5 61.5q-5 9 -14 19t-18.5 19t-18 17t-13.5 14q-8 10 -13 21.5
t-7.5 21.5t-3 16.5t0.5 6.5q10 -24 27 -40.5t36.5 -29t37.5 -22t30 -18.5q14 -12 24.5 -25.5t18.5 -30.5q8 -18 10 -37.5t12 -36.5q5 5 8 11t4 13q2 11 9 20.5t14.5 16.5t14 10.5t7.5 3.5v-1q-13 -17 -17.5 -40t-3.5 -47t5.5 -45.5t9.5 -36.5q2 -8 6 -16.5t9 -8.5t8 20
q2 8 2 15t4 15q6 14 13.5 22.5t9.5 8.5v-1q-9 -16 -11.5 -32.5t-2 -32t2.5 -29.5t2 -25q1 -11 6 -25t12 -28.5t15 -27.5t14 -22q4 9 8 16t8 15.5t9 20t12 29.5q6 18 6 34t5 34q-3 -2 -6.5 -9.5t-9.5 -16.5t-14.5 -18t-20.5 -15q-1 0 11 17t18 50q4 26 7 46t17 41
q6 9 11 20.5t10.5 23t11.5 22t14 17.5q19 17 35 36t31 39l30 40t33 38z" />
    <glyph glyph-name="w" unicode="w" horiz-adv-x="612" 
d="M593 302q1 3 3 0.5t3 -7.5t0 -12t-6 -15t-17.5 -18t-19.5 -16q-10 -10 -18.5 -19.5t-14.5 -22.5q-3 -8 -8.5 -14.5t-11 -15.5t-9 -24t-3.5 -39v-1q-2 0 -5.5 10.5t-4.5 26.5q0 11 0.5 22.5t-0.5 22.5q-12 -14 -28.5 -22t-32.5 -18q-16 -9 -25 -24t-14 -33.5t-7.5 -39
t-5.5 -41.5q-2 -12 -11.5 -25t-12.5 -13v1q12 34 8 53.5t-15.5 32t-24.5 21.5t-19 23q-10 -5 -19 -10t-19 -9q-13 -6 -20 -19t-7.5 -29t6 -33t21.5 -30q1 -1 0 -1q-2 0 -12.5 6t-13.5 9q-11 11 -14 24t-7 27q-5 17 -15 29.5t-20 26.5q-1 -3 -3.5 -7t-3.5 -10.5t1.5 -17
t11.5 -25.5v0q-2 0 -12.5 11t-15.5 23q-5 15 -6 23.5t-1 15t-1 11.5t-6 12q-21 29 -45.5 44.5t-55.5 31.5q-9 5 -18.5 12t-15.5 15q1 0 9.5 -4.5t22.5 -4.5q8 0 11 2t5 4.5t5.5 4.5t10.5 3q0 4 5 4q5 -1 11.5 3t11.5 8q-17 16 -20.5 36.5t-5.5 42.5l0.5 3.5l1 7t-0.5 7
t-5 3.5q-1 0 -7 -2t-11 -6.5t-8 -9.5q-5 -5 -8 -10q5 15 11.5 24.5t12.5 16t10.5 12.5t4.5 13q1 11 -1.5 22t-3.5 22q0 5 1 11.5t0.5 13.5t-2.5 12.5t-8 7.5t-17 -1t-34 -27l-1 -1q-2 0 2.5 14.5t20.5 24.5q26 17 47.5 38t25.5 52q-1 0 -1 2t-1.5 4t-4.5 2t-9 -5
q-6 -6 -10 -17q-2 -6 -3 -12q0 19 5.5 33.5t12.5 25t14.5 18l11.5 11.5q11 12 20.5 23t14.5 27q7 20 14.5 36.5t17.5 36.5q5 11 12 18t14.5 10.5t13.5 5t9 1.5q-16 -12 -26 -28.5t-15 -34t-6.5 -34t-1.5 -27.5q0 -20 3 -40.5t2 -40.5q0 -18 -3 -36q-2 -10 -5.5 -21t-1.5 -21
q2 -11 5.5 -7t8.5 9q4 3 7 6t8 5l7 3.5t10.5 4.5t10.5 4t6 2q-16 -11 -25 -21.5t-13.5 -20.5t-6.5 -18.5t-5 -16.5q-3 -7 -6.5 -20t-6 -28t-4.5 -28.5t-2 -22.5q-1 -6 1.5 -14.5t7.5 -8.5q4 0 6 5q4 6 4 14t4 15q8 14 14.5 20t7.5 6q-7 -13 -10.5 -29t-5.5 -32t-4.5 -31.5
t-7.5 -26.5q-6 -15 -12.5 -31t-6.5 -33q2 -22 19 -32q18 -10 17 9q-2 15 3.5 26t7.5 11q1 0 1 -1q-2 -21 3 -37.5t14 -28t20.5 -16.5t23.5 -3q-7 7 -10 17.5t-7 21.5t-10.5 21.5t-20.5 18.5q-3 2 5.5 2.5t11.5 -1.5q5 -2 8 -4.5t7 -4.5q-6 18 -14 35.5t-10 36.5
q-1 13 1.5 30.5t4 36.5t0 39t-9.5 37v1q2 0 11 -10.5t14 -30.5q2 -3 2 -6t1 -6q4 26 11 50t16 48l10 30t8 32q2 9 3 19t-1.5 23.5t-11.5 30.5t-29 40v1q3 0 19 -10.5t28 -30.5q17 -28 23 -61.5t-2 -65.5q-5 -21 -12.5 -41.5t-7.5 -42.5q0 -13 -2.5 -25.5t0 -25t13.5 -24.5
t36 -23q1 0 -2 -0.5t-7.5 -0.5h-9h-5.5q-8 0 -14.5 2t-13.5 1h-1q0 -1 0.5 -1.5t0.5 -2.5l3 -15q5 -22 18.5 -44.5t36.5 -25.5q2 0 -0.5 -1.5t-7 -3t-8.5 -3t-6 -1.5q-5 -11 5 -14q5 -1 15 -1q5 1 10 3.5t10 5.5q26 15 30 43q4 22 -4 43.5t-11 43.5q-2 21 0.5 42t5.5 21h1
q-3 -32 4 -49t9 -20q6 14 4.5 33.5t0.5 33.5q2 24 4.5 48t-3.5 49q-4 15 -11.5 31.5l-15 33t-13 33.5t-4.5 34q2 32 11.5 46t11.5 14v-1q-4 -17 -4 -34t2.5 -31t7 -22.5t9.5 -8.5q6 0 8 6t2 14t-1 16.5t-1 12.5q-1 16 3 30t9 29q8 20 9.5 36t2.5 42q0 9 4.5 18.5t10 17
t10.5 12t6 4.5v-1q-12 -23 -13.5 -46t1 -44.5t6.5 -40.5t5 -34q2 -29 16 -51.5t30 -45.5q13 -19 24.5 -39t17.5 -43q3 -12 -0.5 -27t-5.5 -30t0 -29t17 -24q3 -2 -6.5 -0.5t-16.5 8.5q-10 8 -12 23t-4 26q-2 25 -8.5 40t-25.5 32q4 -21 4 -41.5t-1 -42.5v-15.5t1.5 -23.5
t5 -20.5t9.5 -4.5q2 1 7.5 3t11.5 3.5t11 3t6 1.5v0q-18 -10 -28 -24t-14 -28t-3 -26.5t5 -20.5q8 4 18.5 6t21 6t18.5 11.5t11 21.5z" />
    <glyph glyph-name="x" unicode="x" horiz-adv-x="639" 
d="M626 -27q2 -14 -2.5 -24t-9.5 -27q-8 -26 -17.5 -46t-10.5 -20q5 26 6.5 44.5t1 32t-2 22t-3.5 14.5q-5 16 -12.5 29.5t-16.5 26.5q-10 14 -20.5 25.5t-20.5 25.5l-16 26q3 -14 5.5 -27t0.5 -28q-1 -10 -6 -19.5t-10 -17t-9.5 -12t-5.5 -4.5v1q10 33 9.5 53t-5.5 33.5
t-11 23t-8 20.5q-2 12 -1.5 24.5t-4.5 24.5q-4 10 -10.5 19t-12.5 19q-2 -2 -2.5 -9.5t-2 -17t-5.5 -19.5t-14 -18q-1 -1 0.5 4t3 13.5t1.5 19.5t-5 21q-8 19 -15.5 30.5t-24.5 25.5q-5 4 -9 7.5t-7 8.5q-5 -6 -9.5 -13.5t-11.5 -12.5q-8 -6 -13 -12.5t-10 -14.5
q-2 -4 -4 -7.5t-4 -7.5q-3 -6 -3 -17t8 -16q4 -3 2 -8q-6 -9 -17 -10.5t-20 -6.5q-8 -4 -8.5 -8t3 -7.5t8.5 -6.5t9 -5q23 -14 38.5 -15.5t10.5 -2.5q-14 -2 -26 -3t-23 -1q-25 0 -44 4t-34 9t-27.5 9t-25.5 4h-8t-9 -2q-20 -4 -38 -11.5t-32 -23.5t-23 -43.5t-10 -71.5
q-1 0 -3.5 7.5l-5.5 16.5t-5 17.5t-2 10.5q2 49 20 79.5t47 53.5q17 14 36 22t39 18q17 8 37 17.5t34 23.5q-5 1 -7 5.5t-6 9.5q-4 6 -12 8.5t-15 3t-11.5 0t-3.5 0.5q13 8 25 10.5t23 2.5q15 0 26.5 -1.5t19.5 3.5q13 9 22.5 21t20.5 23q-1 8 -8 12.5t-16 8t-18.5 5.5
t-15.5 4q-12 5 -29.5 15t-38.5 10q-15 0 -28 -8q-1 0 1.5 3.5t8.5 7.5t14.5 8t19.5 5q14 1 20.5 -1.5t13.5 -4.5q3 -1 7 -2.5t6.5 -2t3 1t-2.5 7.5q-6 10 -20 19t-23 15q-15 11 -27.5 23.5t-26.5 23.5q-13 10 -29.5 22t-36.5 12q-9 0 -21 -5q-3 -2 0 3.5t13 10.5q7 4 17 4
t19.5 -2.5t18.5 -4.5q-5 8 -12 14.5t-11 14.5q-6 11 -12 20t-14 19q-12 15 -25.5 29t-24.5 30t-17 34.5t-10 37.5q-4 17 -4 30t4 32q4 23 15.5 35.5t12.5 12.5v-1q-7 -11 -9 -26.5t0 -31.5t6.5 -30.5t9.5 -23.5q11 -19 23.5 -36t30.5 -29q14 -9 30 -15.5t31 -13.5
q17 -7 34 -13t32 -16q5 -3 11 -8t11.5 -10.5t8.5 -9l3 -3.5v0q-24 14 -33 15t-13 0q5 -10 18 -15t30 -9.5t35 -9.5t32 -15q-2 0 -9.5 2.5t-18.5 2.5q-14 0 -25 -8q-12 -8 -4.5 -19t21 -20.5t28.5 -17t18 -9.5q4 -2 2 -6q-2 -9 2 -15.5t11 -11t15.5 -6.5t15.5 -1
q13 8 23.5 19t14.5 26q1 5 0.5 13t-0.5 18t1.5 21t7.5 21q2 0 1 -12t3 -29q2 -5 6.5 -7t7.5 -7q5 10 7 20t4 21q2 12 8 20q5 8 12 13t13 12q9 11 15.5 34.5t-2.5 52.5v1q2 0 10 -10.5t11 -30.5l3 -15q10 7 17.5 23t12.5 24q5 9 11.5 21.5t11 27t5.5 30.5t-5 32
q-2 4 5.5 -1.5t15.5 -28.5t1 -49t-17 -47q-8 -15 -14.5 -30.5t-10.5 -32.5q-3 -14 -3.5 -37t15.5 -44v-1q-2 0 -11 6t-17 18q-1 2 -2.5 3t-3.5 3q-4 -12 -13.5 -20.5t-19 -19t-17 -25.5t-8.5 -42q-1 0 -2.5 3.5t-3 8t-2.5 9t-1 5.5l-32 -58q-1 -3 -6 -3l-16 -11q-1 0 -1 -2
q8 -10 15.5 -21.5t16.5 -22.5q2 4 3 7t2 7q-1 15 8 28t11 13v-1q-9 -34 -1.5 -58t15.5 -38q7 -13 12.5 -26t11.5 -27q1 -2 4.5 -10t9.5 -4q2 2 0.5 13t-1.5 13q-2 11 -4.5 20.5t-0.5 20.5q2 14 7.5 23.5t11.5 15.5t10.5 8.5t5.5 2.5v0q-11 -14 -13.5 -30.5t-1.5 -31.5
t4.5 -28t4.5 -21q12 -66 36 -127q11 -29 25 -56t17 -58z" />
    <glyph glyph-name="y" unicode="y" horiz-adv-x="588" 
d="M569 460q5 -10 6 -19.5t0.5 -15.5t-2 -8.5t-1.5 0.5q-1 18 -10.5 29.5t-22.5 17.5t-26 7.5t-22 0.5t-13 -5.5t-4.5 -10.5t1 -13.5t2.5 -13.5q2 -12 0 -22.5t-5 -19t-6.5 -13.5t-4.5 -5v1q2 8 3 15t1 15t-2.5 18.5t-9.5 24.5q-9 -19 -10 -37.5t1 -38.5q2 -11 3 -20.5
t1 -19.5q1 -8 0 -15.5t0 -15.5l12 11q4 5 11 7.5t14 4t11.5 1.5t2.5 -1q-15 -11 -21.5 -21t-9.5 -19t-4 -17t-3 -14q-5 -13 -11.5 -25t-3.5 -26q2 -12 11 -19.5t21 -7.5q15 0 32.5 14.5t31.5 50.5v-7t-1 -16t-2 -17.5t-1 -10.5q-5 -27 -15.5 -45t-33.5 -33
q-14 -10 -26.5 -21.5t-20.5 -26.5q-3 -5 -5.5 -12t-3 -14.5t0.5 -14.5t6 -11q4 -4 0.5 -8t-7.5 -2q-7 3 -13 3q-15 0 -27 -11.5t-23 -20.5q-15 -14 -37 -23q-17 -7 -32.5 -6.5t-35.5 -3.5q-8 0 -18 8t-19 10q-16 3 -27.5 8.5t-21 13.5t-19 17.5l-20.5 20.5q-6 6 -13.5 8
t-16 3t-16.5 3t-16 7q-17 12 -35 20t-38 8q-11 0 -29 -5q-2 0 3.5 4.5t14 9t19 8t19.5 0.5q24 -5 42.5 -8.5t36.5 -3.5q28 0 61 10q9 3 18 4t18 1q29 0 54.5 -7.5t44.5 -7.5q10 0 18 4q2 0 -7 -8.5t-24 -10.5q-3 0 -13 -1.5t-19.5 -3.5t-16 -4.5t-3.5 -6.5q9 -10 30.5 -13.5
t33.5 -1.5q10 1 18.5 7.5t15 15.5t12 19t9.5 18q9 19 13 43.5t-3 45.5q-7 -3 -14 -5t-12 -7q-12 -10 -14 -29t14 -49v-1q-2 0 -10.5 9.5t-11.5 12.5q-15 23 -18 48.5t-11 51.5q-6 17 -16 29t-24 23q-11 10 -24.5 11t-26.5 10q-4 2 -7 0t-4.5 -6t-2.5 -10t-1 -11
q0 -14 4.5 -23.5t3.5 -9.5q-12 9 -17 17t-6.5 15t-1 13t-1.5 9q-6 16 -18.5 40t-28.5 35q-13 10 -19.5 18t-21.5 13q-6 2 -14 5.5t-18 3.5t-21 -4.5t-25 -15.5q-2 0 3.5 12.5t25.5 23.5q10 5 19.5 7t20.5 2q17 0 35 -3q1 2 3 2.5t4 -1.5q-3 7 -1.5 14.5t1.5 15.5
q0 6 -0.5 12t-1.5 12q-1 8 -0.5 23.5t-0.5 23.5q-1 0 -4.5 -1t-8 -5.5t-9.5 -15t-9 -30.5q-1 -4 -2.5 13t2.5 35q5 20 16 37.5t9 37.5l-18 -30t-26 -23q-8 -3 -16 -4t-16 -1t-16 1t-14 2q-7 1 -13 3q-11 5 -16.5 11.5t-3.5 6.5q14 -7 28 -7t26 5.5t17 10.5q11 11 16 26
t10 29q9 27 19 47t22.5 37.5t28.5 33t38 33.5q23 17 44 28.5t50 11.5q10 0 16 -0.5t4 -1.5q-24 -3 -38.5 -9t-24 -13t-15 -13t-10.5 -11q-13 -11 -13.5 -24.5t-5.5 -29.5q-2 -8 -3 -14t1 -14q2 -16 13 -16q5 0 10 4q4 3 5.5 9.5t2 14t1 14.5t1.5 11q5 14 13.5 22t10.5 8v-1
q-9 -17 -9.5 -33.5t2.5 -31.5t6.5 -27.5t1.5 -23.5q-2 -17 -6.5 -34.5t-2.5 -35.5q2 -17 6 -34t13 -32q6 -11 5.5 -22t-2.5 -11q-3 12 -8 18.5t-10.5 10t-11 5t-9.5 2.5q2 -12 4.5 -23.5t4.5 -22.5q2 -7 3.5 -13t5.5 -11l2 -2q7 -8 21 -13t31 -19q-2 0 -8 1t-14 1
q-6 0 -12 -1t-11 -4q-11 -6 -11 -15t6 -17.5t16 -15.5t18 -11q11 -5 22.5 -9t22.5 -12q2 -2 2.5 -4.5t-2.5 -4.5q-6 -3 -1.5 -10.5t14 -15t20.5 -12t18 -1.5t9 12t1.5 20t-2 23t-2.5 21q-3 -1 -11.5 -6t-10.5 -28q0 -2 -1 0.5t-1.5 8t-0.5 13t3 14.5q8 20 15.5 30.5
t9.5 27.5q2 14 1 27t-2 27q-3 5 -8 5q-10 0 -17.5 -22t4.5 -59v-1q-1 0 -4 4.5t-6.5 11t-6.5 14.5t-3 14q0 15 2 26t5.5 19t8 15t10.5 16q9 14 15 30.5t4 33.5q-3 18 -16.5 28t-27.5 24q-6 6 -10.5 14.5t-7 15.5t-3.5 12t0 5q20 -26 43.5 -40t41.5 -14q14 0 22 8t9.5 21.5
t3.5 23.5q2 6 2 10t1 8t3.5 10t8.5 15q7 11 21 17.5t18 6.5q1 0 0 -1q-16 -13 -24.5 -33t-10.5 -42.5t0 -44t7 -37.5q6 -20 22 -28.5t33 -18.5q17 -9 34.5 -19t25.5 -28z" />
    <glyph glyph-name="z" unicode="z" horiz-adv-x="631" 
d="M618 308q1 0 -0.5 -9t-4.5 -22t-8 -27.5t-12 -25.5q-10 -15 -26.5 -29.5t-36 -26t-40 -20t-38.5 -12.5q-16 -4 -32 -4.5t-31.5 -1.5t-31.5 -2.5t-31 -6.5q-14 -4 -30 -14.5t-29.5 -25.5t-23 -34t-11.5 -42q0 -3 -2.5 1t-4 13.5t-1 23.5t5.5 32q6 20 22.5 33t33.5 26
q8 5 11 10.5t-9 9.5q-2 1 -7 0.5t-7 -1.5q-9 -1 -18 -3t-17 -4q-29 -10 -52.5 -29.5t-49.5 -34.5q-14 -8 -26.5 -15.5t-26.5 -14.5q-8 -3 -19.5 -9.5t-23.5 -18.5t-24 -31.5t-20 -49.5l-0.5 7t0.5 19t5 29t12 37q5 11 15 19t13 19q5 14 0 26.5t-11 24.5t-11 24.5t-5 26.5
q-2 30 10 58.5t26 54.5q4 8 12 14.5t16 11.5t14.5 8l6.5 3q-13 -7 -22.5 -20.5t-15 -27t-7 -25t1.5 -15.5q5 -6 9 -6q5 0 9 5t7 9q9 11 19 18.5t19 17.5q6 6 9 12t4 12t1.5 13t2.5 14q1 3 4.5 13t10 20.5t16 20t22.5 12.5q1 0 -4 -4.5t-10.5 -13t-9.5 -21.5t-1 -30
q0 -3 3.5 -2t7.5 3.5l8 5t6 3.5q8 5 17.5 9t17.5 9q10 7 17 19.5t9.5 27.5t0 30t-11.5 27q-3 4 7 -1.5t19 -19.5l4 -6q3 13 3.5 26t-3.5 24.5t-13 20.5t-24 12q-21 5 -43 5.5t-43 5.5q-11 2 -21 5t-21 7q-4 1 -10 3.5t-9 1.5q-6 -2 -8.5 -13t-3.5 -16q-1 -20 5 -40t20 -36
q5 -2 3.5 -7t-6.5 -3q-43 17 -63.5 51t-29.5 76q-7 32 -19.5 57.5t-32.5 51.5q-16 19 -32 37.5t-29 40.5q-4 8 -7.5 17.5t-5.5 18.5t-3 15t0 6q23 -46 41 -70.5t48 -38.5q21 -10 37.5 -23t35.5 -27q2 -2 2.5 -5t-2.5 -5q-3 -1 1 -5.5t11 -9.5t13.5 -9t8.5 -4q19 -5 39 -3.5
t40 -1.5q14 -2 26.5 -3.5t26.5 -1.5q56 0 109 26q18 8 35.5 11t31.5 3t21.5 -1.5t4.5 -1.5q-17 0 -33 -6t-28.5 -14.5t-21 -17.5t-9.5 -15q-3 -14 0.5 -21t14.5 -14q16 -10 32.5 -15.5t33.5 -13.5q17 -7 37 -26t42.5 -38.5t46.5 -34.5t48 -14q2 0 -2.5 -3t-17.5 -3
q-6 0 -13.5 1t-17.5 4q-8 2 -19 8.5t-22 14t-21.5 15t-16.5 12.5q-13 10 -27 10q-19 0 -32.5 -16.5t-14.5 -37.5q0 -15 -1.5 -27.5t-9.5 -25.5q-4 -6 -11.5 -12.5t-15.5 -15t-14 -20t-8 -28.5q0 -6 -2.5 9.5t3.5 35.5q3 11 8.5 20t5.5 20q-14 -17 -28 -31t-34 -27
q-12 -8 -25.5 -16.5t-21.5 -20.5q-7 -10 -10 -20.5t-5 -21.5q10 8 20 14.5t21 12.5q2 1 8 3t12.5 4.5t11.5 4t6 1.5q-25 -16 -33 -25t-10 -14q22 8 44 14.5t45 8.5q24 2 46 -4t44 -16q21 -10 42.5 -18t45.5 -8t42.5 9t33 23.5t25.5 33.5t20 39z" />
    <glyph glyph-name="dotlessi" unicode="&#x131;" horiz-adv-x="279" 
d="M242 622q12 11 24.5 12.5t9.5 -0.5q-15 -8 -24.5 -21t-15.5 -28t-11.5 -29t-13.5 -24q-7 -8 -13.5 -15t-11.5 -15q-2 -3 -3 -5.5t-2 -5.5q0 -14 7 -2q5 2 11 5.5t8 7.5q7 9 19.5 12t10.5 1q-16 -13 -25 -29.5t-13.5 -33.5t-5.5 -33.5t-1 -31.5q0 -11 -1 -22.5t-4 -22.5
q-3 -10 -7 -19.5t-6 -19.5q16 10 33 36t19 66q2 0 5 -12t-1 -37q-3 -18 -11 -33.5t-16 -29.5t-14.5 -29t-7.5 -32q-2 -16 -1.5 -30.5t-2.5 -29.5q-2 -11 -3.5 -22.5t1.5 -22.5q2 -7 4 -13.5t3 -14.5q2 -20 -1 -39t1 -39q3 -17 7 -32.5t5 -32.5q1 -32 -10 -64.5t-27 -60.5v-1
q-1 0 2.5 15t4.5 35v26.5t-1.5 20t-5 20t-11.5 26.5q-7 13 -15.5 19.5t-13.5 20.5q-4 11 -5.5 22.5t-2.5 22.5q-1 14 -3.5 29t-10.5 27q-5 8 -9 11t-13 -2q-8 -4 -13 -9.5t-10 -11.5q-6 -8 -13 -18t-11.5 -23t-5 -30.5t5.5 -40.5v-1q-2 0 -9.5 13t-10.5 30q-3 20 1.5 38.5
t12.5 36.5t18 35.5t18 35.5q8 19 18.5 37.5t15.5 38.5q2 11 2.5 20.5t2.5 19.5q-6 -9 -16.5 -17.5t-20.5 -18.5t-18 -21.5t-10 -26.5q-1 -4 -4 7t3 25q10 23 24.5 42t19.5 41q5 24 4.5 49t4.5 49q-7 -7 -14.5 -13.5t-13 -16.5t-9 -25.5t-2.5 -39.5v-1q-1 0 -5 10.5t-6 21.5
q-3 24 7 45t20 43q5 13 9 26.5t1 27.5q-2 8 -6 15.5t-6 16.5q-2 14 -3.5 24t-11.5 20l-42 40q-2 3 -10 10.5t-22 17.5t-34 21.5t-44 21.5q4 0 23.5 -3.5t42.5 -9t43.5 -13t26.5 -16.5q5 -8 12.5 -10.5t15 -4t15 -3.5t13.5 -8q18 -20 36.5 -34t47.5 -14q13 0 23 4.5t18.5 12
t16.5 16.5t18 17z" />
    <glyph glyph-name="Lslash" unicode="&#x141;" horiz-adv-x="568" 
d="M462 110q23 -21 42 -48.5t32.5 -58t21 -62.5t6.5 -61l-1.5 7t-3.5 17t-5 20.5t-8 18.5q-7 12 -12.5 18t-10.5 10.5t-11.5 10.5t-17.5 18q-18 20 -43 28.5t-53 8.5q-31 0 -67 -8.5t-62 -27.5q-12 -9 -25.5 -22.5t-28.5 -26t-31.5 -23t-34.5 -13.5q-1 0 2 1.5t8.5 5
t11.5 8.5t11 12q22 25 21 44t-9 33q-8 16 -20.5 21.5t-26.5 5.5q-13 0 -27 -3q-20 -4 -42 -16.5t-38 -31t-21 -42t8 -50.5q-1 0 -11 11t-15 27q-9 32 2 62.5t30 57.5q16 24 40 47l26 22q3 2 7 4.5t8 4.5q-11 2 -27 9.5t-24 22.5q1 0 7 -4.5t17 -4.5t23 8q6 5 4 11.5t-7 14.5
q-5 0 -9 -0.5t-9 -1.5q-13 -1 -30 -8q-6 -3 -12 -6.5t-8 -11.5q-1 -6 -1.5 -11.5t-3.5 -10.5q-3 -3 -3 1q0 11 -5 20.5t-6 20.5q-4 -4 -4 -12q1 -1 0 -1t-2 1q-4 6 -5.5 12t-3.5 13q-5 17 -15 26q-9 8 -20 11.5t-22 8.5q-2 0 -2 1.5t2 1.5q3 -1 14.5 1t24 5t21.5 7t7 8
q-1 1 -0.5 2t1.5 0q18 -5 34.5 1.5t32.5 13.5l3 2q0 1 0.5 2t0.5 3l15 26h-3q-2 1 -2 2.5t2 1.5q2 -1 2.5 -0.5t2.5 0.5l3 6q9 19 15 41q-5 -2 -12 -0.5t-15.5 1.5t-17 -4.5t-15.5 -19.5v0q-2 0 0 11.5t10 19.5q14 15 22.5 21t16.5 18q8 11 11.5 26t3.5 29q-3 -4 -11.5 -7
t-16.5 -5t-12 -2t1 2q13 6 19 15.5t9 20t4 20.5t4 17q-26 -4 -43.5 -23.5t-28.5 -40.5q-6 -11 -14.5 -15t-11.5 -16q-2 -7 -4.5 -16.5t-4.5 -17.5q1 -6 3.5 -21.5t15.5 -39.5q-2 0 -10.5 8t-10.5 16q-2 7 -4.5 14t-4.5 18q-2 23 1 42t14 42t26.5 42t33.5 37q22 22 41 44
t31 51q5 12 7.5 19.5t5.5 13.5t7.5 12t12.5 16q13 15 18 32t6.5 30.5t0.5 22.5l-1 9v0q12 -25 13.5 -45t-2 -35.5t-8.5 -26.5t-6 -17q0 -8 1.5 -12.5t4 -8.5t5 -8.5t2.5 -12.5q1 -7 -0.5 -13t-3.5 -13l-4 -10q-2 -2 -3 -3.5t1 -0.5q8 5 13 5.5t11 7.5q6 6 8 13t3 3
q2 -12 0 -22.5t-6.5 -20t-9.5 -19.5t-8 -21q-5 -14 -1.5 -26.5t4.5 -26.5q1 -11 -2.5 -21t-7.5 -20q9 0 17 7.5t15 18t11.5 21.5t5.5 19q0 2 0 -0.5v-7v-9v-6.5q-1 -31 -4.5 -55.5t-26.5 -48.5l-14 -15q29 6 47.5 19t29.5 42q1 2 3 0q2 -8 2 -17v-17q0 -14 8 -34.5t19 -30.5
q5 -6 12.5 -6.5t14.5 -2.5q1 0 1.5 -1t-1.5 -2q-15 -4 -30.5 -4.5t-29.5 -8.5q-8 -4 -13.5 -10t-11.5 -11q-7 -5 -14 -8t-13 -8l4 -3q4 0 1 -3q-5 -2 -9.5 -1.5t-9.5 0.5q-13 1 -23 -4l-13 -9q2 -7 3.5 -13t3.5 -12q8 0 16 1l16 2q2 0 2.5 -1.5t-1.5 -1.5q-8 -2 -14.5 -4
t-14.5 -4q4 -11 12 -22q3 -4 10 -15t13.5 -21t10 -16.5t-1.5 -2.5q-1 2 -3.5 5.5t-6.5 7.5t-9 6t-13 -1q-4 -1 -1 -9t3 -9q1 -13 0.5 -22.5t-0.5 -23.5q0 -10 1 -25t15 -17q3 3 6.5 2.5t6.5 2.5l4 7q0 2 -3 6.5t-7 17.5q-2 3 3 -4t7 -8q2 -2 6 -5.5t6 -3.5q6 -2 12.5 1.5
t11.5 5.5q7 3 10.5 5t10.5 1q8 0 15.5 -2.5t15.5 -1.5q8 0 9 3t-0.5 6.5t-5 7.5t-6.5 7q-11 13 -17.5 22.5t-10.5 25.5q-6 23 -2.5 36t6.5 36q2 14 -0.5 25.5t-6 19.5t-6.5 12.5t-2 4.5q16 -10 24 -31t14.5 -43.5t14 -42t21.5 -25.5q12 -6 25 -8.5t25 -7.5q25 -11 43 -29z
M222 379q-3 1 -9 1q-10 -11 -15 -22l8 3q4 2 7.5 4t7.5 4q5 3 6 4q2 4 -5 6z" />
    <glyph glyph-name="lslash" unicode="&#x142;" horiz-adv-x="404" 
d="M406 403q4 0 1 -3q-15 -4 -31 -4.5t-29 -8.5q-8 -4 -13.5 -10t-12.5 -11q-6 -5 -13.5 -8t-12.5 -8q2 -2 4 -3q4 0 1 -3q-4 -1 -11 -1q-2 -12 -4 -18q-4 -7 -9 -18q2 0 4 0.5t4 0.5t2.5 -1.5t-1.5 -1.5q-8 -2 -12 -4q-11 -20 -19 -41.5t-2 -39.5q8 8 12.5 16.5t11.5 22.5
q5 10 11.5 15t12 7t9 2t2.5 -1q-14 -11 -18.5 -22.5t-5.5 -24.5t-1.5 -27.5t-7.5 -30.5q-8 -17 -13.5 -33.5t-6.5 -34.5q-2 -18 -0.5 -35.5t3.5 -35.5q2 -19 3.5 -42.5t-0.5 -47.5t-8 -47.5t-20 -44.5q-5 -8 -12.5 -15t-9.5 -7v1q20 31 23 57t-1.5 49t-13 43t-13.5 39
q-5 17 -11 32.5t-9 32.5q-2 14 -1.5 26.5t2.5 26.5q-5 -9 -12 -14.5t-13 -15.5q-8 -15 -6.5 -34t18.5 -49q1 -1 -0.5 0t-4 3t-4.5 4.5t-3 3.5q-26 28 -25.5 60t13.5 64q11 31 19.5 63t9.5 64q-8 -2 -14 -5t-9 -11q7 -4 16 -6q2 0 2 -1t-2 -2q-8 -2 -16 -2.5t-16 -2.5
q-13 -1 -30 -8q-6 -3 -12 -6.5t-8 -11.5q-2 -6 -2 -11.5t-4 -10.5q0 -1 -1 -0.5t-1 1.5q0 11 -5 20.5t-6 20.5q-4 -4 -4 -12q0 -2 -2 0q-4 6 -5.5 12t-3.5 13q-5 16 -15 26q-9 8 -20 11.5t-22 8.5q-2 0 -2 1.5t1 1.5q3 -1 15 1t24 5t21 7t7 8q0 3 2 2q17 -4 32.5 1.5
t30.5 12.5q7 7 12.5 13t8.5 21h-1q-2 1 -2 2.5t2 1.5h2q5 29 3 59t5 59q-7 -3 -13.5 -7t-12 -11t-9 -18.5t-3.5 -29.5q0 -2 -1 0.5t-2 7l-2 9t-1 5.5q0 15 4.5 29t9 28.5t7 29t-1.5 29.5q-3 14 -14 28t-26 26t-33.5 19.5t-36.5 6.5h-1q-2 0 3 4t24 4q10 0 26 -1.5t24 -5.5
q16 -9 24 -18t23 -20q12 -8 23 -12.5t22 -4.5q18 0 35 13t22.5 28t16.5 32q7 10 18.5 15.5t14.5 5.5q-12 -12 -17 -23t-7 -20.5t-3 -17.5t-5 -14q-10 -16 -21 -30q-2 -3 -4.5 -6t-4.5 -6q-2 -4 -0.5 -13t3.5 -9q3 0 4 5q4 11 16 17.5t14 6.5q-12 -12 -17.5 -25.5t-7.5 -27.5
t-2.5 -27t-0.5 -23v-52v-14q3 2 9 4q5 2 8 4.5t8 4.5q3 0 6 3q2 4 -5 6q-4 2 -8 1.5t-8 -0.5q-2 0 -2.5 1.5t1.5 1.5q9 2 17.5 3.5t16.5 4.5q5 5 12 7.5t12 4.5q11 8 18.5 19t12.5 24q0 3 3 0q2 -8 2 -17v-17q0 -15 7.5 -34.5t18.5 -30.5q6 -6 13 -6.5t14 -2.5z" />
    <glyph glyph-name="Zcaron" unicode="&#x17d;" horiz-adv-x="597" 
d="M582 792l0.5 -7t1 -15.5t1 -16.5t0.5 -10q-4 -35 -13 -69.5t-26 -66.5q-10 -19 -18 -34.5t-12 -36.5q-1 -9 -6 -21.5t-7.5 -27t0.5 -30t17 -31.5q1 -1 0 -1l-4.5 3t-10 8t-10 11t-6.5 11q-5 15 -6 27.5t1 29.5q-8 -12 -16 -23.5t-17 -22.5q-9 -9 -21.5 -18.5t-18.5 -21.5
q9 2 17 7t17 7q12 3 23.5 0.5t6.5 -3.5q-21 -2 -31.5 -9t-16.5 -16t-9.5 -18t-9.5 -14q-11 -9 -23 -15t-23 -16q-16 -14 -25.5 -25.5t-15.5 -23.5t-9.5 -27t-6.5 -35q5 3 9.5 5.5t7.5 7.5q3 3 8 6t10.5 6t10 4.5t5.5 1.5t1 -0.5t-1 -0.5q-16 -11 -25.5 -27t-12.5 -33t0 -34
t13 -30q10 -12 27 -22t34 -10q16 0 28 13q9 10 10 23.5t-2.5 27.5t-9 28t-9.5 24q-5 13 -10.5 22t-11 17.5t-9 16.5t-4.5 19q-1 14 3 25t9 19t10 12.5t6 4.5v-1q-13 -25 -7 -44t20 -34.5t31.5 -29t28.5 -28.5q11 -16 21.5 -32.5t20.5 -33.5q11 -18 11.5 -36.5t5.5 -38.5
q1 -3 2 -9.5t2 -13.5t1.5 -12.5l0.5 -5.5q-10 30 -18.5 38t-12.5 10q-1 -8 3 -16l8 -16q7 -15 10 -34q4 -20 3.5 -40t-3.5 -40q-7 -42 -17 -77t-31 -71q-2 -3 -9 -10.5t-9 -9.5q-5 -5 -13 -11t-15.5 -11.5t-13 -9t-6.5 -3.5q28 23 34 36t8 15q7 14 9 29t4 29q2 20 1.5 40
t-5.5 39q-11 38 -38 57.5t-67 19.5q-10 0 -20 -1.5t-20 -6.5q-2 0 5.5 7t24.5 12q2 1 7 2t9.5 2.5t8 3.5t3.5 4q-2 6 -14.5 11l-17.5 7q-7 3 -13 6t-13 6q-17 9 -32.5 19t-34.5 15q-5 2 -11.5 3.5t-12.5 1.5t-11 -2.5t-7 -7.5q-2 -6 -0.5 -15t24.5 -26v-1q-3 0 -15 3.5
t-15 5.5q-10 5 -16.5 13.5t-11.5 17.5q-23 36 -48.5 52.5t-70.5 16.5q-35 0 -61 -16q-2 0 5.5 10.5t18.5 19.5t27 13t33 6.5t33 6.5t26 14l15 13.5t8 9.5t6 10.5t10 18.5q10 9 12.5 17.5t0 15.5t-9 11.5t-14.5 4.5q-13 0 -23 -9l-1 -1l40 36q3 3 6 1q14 5 27 11.5t27 12.5
q-13 3 -20 10q-6 6 -13.5 7.5t-14.5 1.5t-10.5 -0.5t-2.5 0.5q5 3 16.5 5t24 3t24 2t17.5 3q15 7 26 20.5t19 27.5q7 13 13 25t16 22q7 7 14 11q-5 -1 -10.5 -1.5t-12.5 -3.5t-14.5 -11t-15.5 -25q-1 0 1.5 11.5t6.5 19.5q9 20 22 28.5t27 16.5q10 5 19 11t17 14
q6 5 13.5 13t12.5 16q-13 -4 -25 -6.5t-26 -1.5q-18 1 -35 3.5t-35 3.5q2 -5 3.5 -8.5t4.5 -11.5q2 -9 2 -15t-2 -3q-5 14 -17.5 19t-27.5 5q-9 0 -20.5 -1t-23 -3.5t-21 -8t-14.5 -14.5q-4 -6 -8 -19.5t-21 -19.5l-2 -1q3 2 5 6q5 7 8 23q1 5 -1.5 7t-0.5 7
q-12 -7 -20.5 -17.5t-16.5 -22.5q-2 -3 -6.5 -7t-9 -9.5t-6.5 -14t0 -21.5q2 -15 2 -17.5t-1.5 0.5t-3.5 8.5t-3 7.5q-6 15 -4.5 29.5t6.5 28.5q7 22 17.5 41t22.5 38t20.5 34.5t14.5 30.5t10.5 31.5t10.5 37.5q2 7 3 18t-1 23.5t-8 26t-18 25.5l4.5 -3t10.5 -8.5
t12.5 -12.5t10.5 -16q10 -20 8.5 -41t4.5 -41t26.5 -28.5t40.5 -7.5q-2 11 -4.5 16t-5.5 8.5t-6 6.5t-6 8q-8 14 -8 30.5t1 16.5q5 -21 20 -38t35 -29t42.5 -18.5t43.5 -6.5q8 0 20 0.5t24 2.5t22 5.5t15 10.5q10 12 20.5 17.5t13.5 5.5q-20 -15 -23.5 -27.5t-4.5 -15.5
q11 5 20.5 14t17.5 17q6 6 13 11t14 15t14 27t13 47zM228 865q8 -3 15.5 -6t15.5 -8q25 -16 51 -28t55 -18q2 0 2 -1t-2 -2q-2 0 -6 -2q2 -2 8.5 -10.5t8.5 -9.5q1 -1 1.5 -1t1.5 -1q5 -4 3 -8.5t-1 -9.5q1 -4 3 -6.5t4 -5.5q5 6 7 12q1 5 -1 9.5t2 8.5q1 1 2 1t2 1
q2 1 3 2.5t3 3.5q3 3 5.5 6.5t5.5 7.5q-4 2 -7 2q-3 3 0 3q20 4 38 11t36 15q8 5 16.5 10t16.5 10q7 5 15 8l16 6q1 1 2 0t-1 -2q-5 -5 -10 -9.5t-10 -9.5t-8.5 -9t-8.5 -8q-6 -5 -13.5 -12.5t-9.5 -15.5q4 2 7.5 3.5t7.5 3.5q2 2 2 -2q-7 -11 -15.5 -22.5t-21.5 -16.5
q-6 -3 -18 -7t-11 -14q5 1 9 3l8 4q5 2 8.5 4t8.5 3q1 1 1.5 0t-0.5 -2q-8 -6 -13.5 -14t-13.5 -13q-9 -6 -19 -9t-19 -8q0 -3 -2 -1q-4 4 -9 4q1 -1 1 -1.5t1 -1.5q0 -3 -2 -3q-2 1 -5 2l-6 2l-6 -2t-5 -2q-3 0 -2 3q0 1 2 3q-6 0 -9 -4q-1 -1 -3 1q-8 5 -18.5 8t-18.5 9
q-8 5 -13.5 13t-13.5 14q-1 1 -1 2t2 0q5 -1 8.5 -3t7.5 -4q5 -2 8.5 -4t8.5 -3q1 5 -2.5 8.5t-8 5.5t-10 4t-8.5 3q-12 5 -20.5 16.5t-15.5 22.5q-1 1 0 2t2 0q4 -2 7.5 -3.5t7.5 -3.5q-1 5 -4 8.5t-5 6.5q-4 3 -7.5 6.5l-6.5 6.5q-5 4 -8.5 8t-8.5 9t-10.5 9.5t-10.5 9.5
q-1 1 -0.5 2t2.5 0z" />
    <glyph glyph-name="zcaron" unicode="&#x17e;" horiz-adv-x="631" 
d="M618 308q1 0 -0.5 -9t-4.5 -22t-8 -27.5t-12 -25.5q-10 -15 -26.5 -29.5t-36 -26t-40 -20t-38.5 -12.5q-16 -4 -32 -4.5t-31.5 -1.5t-31.5 -2.5t-31 -6.5q-14 -4 -30 -14.5t-29.5 -25.5t-23 -34t-11.5 -42q0 -3 -2.5 1t-4 13.5t-1 23.5t5.5 32q6 20 22.5 33t33.5 26
q8 5 11 10.5t-9 9.5q-2 1 -7 0.5t-7 -1.5q-9 -1 -18 -3t-17 -4q-29 -10 -52.5 -29.5t-49.5 -34.5q-14 -8 -26.5 -15.5t-26.5 -14.5q-8 -3 -19.5 -9.5t-23.5 -18.5t-24 -31.5t-20 -49.5l-0.5 7t0.5 19t5 29t12 37q5 11 15 19t13 19q5 14 0 26.5t-11 24.5t-11 24.5t-5 26.5
q-2 30 10 58.5t26 54.5q4 8 12 14.5t16 11.5t14.5 8l6.5 3q-13 -7 -22.5 -20.5t-15 -27t-7 -25t1.5 -15.5q5 -6 9 -6q5 0 9 5t7 9q9 11 19 18.5t19 17.5q6 6 9 12t4 12t1.5 13t2.5 14q1 3 4.5 13t10 20.5t16 20t22.5 12.5q1 0 -4 -4.5t-10.5 -13t-9.5 -21.5t-1 -30
q0 -3 3.5 -2t7.5 3.5l8 5t6 3.5q8 5 17.5 9t17.5 9q10 7 17 19.5t9.5 27.5t0 30t-11.5 27q-3 4 7 -1.5t19 -19.5l4 -6q3 13 3.5 26t-3.5 24.5t-13 20.5t-24 12q-21 5 -43 5.5t-43 5.5q-11 2 -21 5t-21 7q-4 1 -10 3.5t-9 1.5q-6 -2 -8.5 -13t-3.5 -16q-1 -20 5 -40t20 -36
q5 -2 3.5 -7t-6.5 -3q-43 17 -63.5 51t-29.5 76q-7 32 -19.5 57.5t-32.5 51.5q-16 19 -32 37.5t-29 40.5q-4 8 -7.5 17.5t-5.5 18.5t-3 15t0 6q23 -46 41 -70.5t48 -38.5q21 -10 37.5 -23t35.5 -27q2 -2 2.5 -5t-2.5 -5q-3 -1 1 -5.5t11 -9.5t13.5 -9t8.5 -4q19 -5 39 -3.5
t40 -1.5q14 -2 26.5 -3.5t26.5 -1.5q56 0 109 26q18 8 35.5 11t31.5 3t21.5 -1.5t4.5 -1.5q-17 0 -33 -6t-28.5 -14.5t-21 -17.5t-9.5 -15q-3 -14 0.5 -21t14.5 -14q16 -10 32.5 -15.5t33.5 -13.5q17 -7 37 -26t42.5 -38.5t46.5 -34.5t48 -14q2 0 -2.5 -3t-17.5 -3
q-6 0 -13.5 1t-17.5 4q-8 2 -19 8.5t-22 14t-21.5 15t-16.5 12.5q-13 10 -27 10q-19 0 -32.5 -16.5t-14.5 -37.5q0 -15 -1.5 -27.5t-9.5 -25.5q-4 -6 -11.5 -12.5t-15.5 -15t-14 -20t-8 -28.5q0 -6 -2.5 9.5t3.5 35.5q3 11 8.5 20t5.5 20q-14 -17 -28 -31t-34 -27
q-12 -8 -25.5 -16.5t-21.5 -20.5q-7 -10 -10 -20.5t-5 -21.5q10 8 20 14.5t21 12.5q2 1 8 3t12.5 4.5t11.5 4t6 1.5q-25 -16 -33 -25t-10 -14q22 8 44 14.5t45 8.5q24 2 46 -4t44 -16q21 -10 42.5 -18t45.5 -8t42.5 9t33 23.5t25.5 33.5t20 39zM9 800q8 -3 15.5 -6t15.5 -8
q25 -16 51 -28t55 -18q2 0 2 -1t-2 -2q-2 0 -6 -2q2 -2 8.5 -10.5t8.5 -9.5q1 -1 1.5 -1t1.5 -1q5 -4 3 -8.5t-1 -9.5q1 -4 3 -6.5t4 -5.5q5 6 7 12q1 5 -1 9.5t2 8.5q1 1 2 1t2 1q2 1 3 2.5t3 3.5q3 3 5.5 6.5t5.5 7.5q-4 2 -7 2q-3 3 0 3q20 4 38 11t36 15q8 5 16.5 10
t16.5 10q7 5 15 8l16 6q1 1 2 0t-1 -2q-5 -5 -10 -9.5t-10 -9.5t-8.5 -9t-8.5 -8q-6 -5 -13.5 -12.5t-9.5 -15.5q4 2 7.5 3.5t7.5 3.5q2 2 2 -2q-7 -11 -15.5 -22.5t-21.5 -16.5q-6 -3 -18 -7t-11 -14q5 1 9 3l8 4q5 2 8.5 4t8.5 3q1 1 1.5 0t-0.5 -2q-8 -6 -13.5 -14
t-13.5 -13q-9 -6 -19 -9t-19 -8q0 -3 -2 -1q-4 4 -9 4q1 -1 1 -1.5t1 -1.5q0 -3 -2 -3q-2 1 -5 2l-6 2l-6 -2t-5 -2q-3 0 -2 3q0 1 2 3q-6 0 -9 -4q-1 -1 -3 1q-8 5 -18.5 8t-18.5 9q-8 5 -13.5 13t-13.5 14q-1 1 -1 2t2 0q5 -1 8.5 -3t7.5 -4q5 -2 8.5 -4t8.5 -3
q1 5 -2.5 8.5t-8 5.5t-10 4t-8.5 3q-12 5 -20.5 16.5t-15.5 22.5q-1 1 0 2t2 0q4 -2 7.5 -3.5t7.5 -3.5q-1 5 -4 8.5t-5 6.5q-4 3 -7.5 6.5l-6.5 6.5q-5 4 -8.5 8t-8.5 9t-10.5 9.5t-10.5 9.5q-1 1 -0.5 2t2.5 0z" />
    <glyph glyph-name="caron" unicode="&#x2c7;" horiz-adv-x="326" 
d="M0 795q8 -3 15.5 -6t15.5 -8q25 -16 51 -28t55 -18q2 0 2 -1t-2 -2q-2 0 -6 -2q2 -2 8.5 -10.5t8.5 -9.5q1 -1 1.5 -1t1.5 -1q5 -4 3 -8.5t-1 -9.5q1 -4 3 -6.5t4 -5.5q5 6 7 12q1 5 -1 9.5t2 8.5q1 1 2 1t2 1q2 1 3 2.5t3 3.5q3 3 5.5 6.5t5.5 7.5q-4 2 -7 2q-3 3 0 3
q20 4 38 11t36 15q8 5 16.5 10t16.5 10q7 5 15 8l16 6q1 1 2 0t-1 -2q-5 -5 -10 -9.5t-10 -9.5t-8.5 -9t-8.5 -8q-6 -5 -13.5 -12.5t-9.5 -15.5q4 2 7.5 3.5t7.5 3.5q2 2 2 -2q-7 -11 -15.5 -22.5t-21.5 -16.5q-6 -3 -18 -7t-11 -14q5 1 9 3l8 4q5 2 8.5 4t8.5 3q1 1 1.5 0
t-0.5 -2q-8 -6 -13.5 -14t-13.5 -13q-9 -6 -19 -9t-19 -8q0 -3 -2 -1q-4 4 -9 4q1 -1 1 -1.5t1 -1.5q0 -3 -2 -3q-2 1 -5 2l-6 2l-6 -2t-5 -2q-3 0 -2 3q0 1 2 3q-6 0 -9 -4q-1 -1 -3 1q-8 5 -18.5 8t-18.5 9q-8 5 -13.5 13t-13.5 14q-1 1 -1 2t2 0q5 -1 8.5 -3t7.5 -4
q5 -2 8.5 -4t8.5 -3q1 5 -2.5 8.5t-8 5.5t-10 4t-8.5 3q-12 5 -20.5 16.5t-15.5 22.5q-1 1 0 2t2 0q4 -2 7.5 -3.5t7.5 -3.5q-1 5 -4 8.5t-5 6.5q-4 3 -7.5 6.5l-6.5 6.5q-5 4 -8.5 8t-8.5 9t-10.5 9.5t-10.5 9.5q-1 1 -0.5 2t2.5 0z" />
    </font>
</defs>
</svg>
